<?xml version="1.0" standalone="no"?>
<!DOCTYPE svg PUBLIC "-//W3C//DTD SVG 1.1//EN" "http://www.w3.org/Graphics/SVG/1.1/DTD/svg11.dtd" >
<svg xmlns="http://www.w3.org/2000/svg" xmlns:xlink="http://www.w3.org/1999/xlink" version="1.1">
<metadata>
Created by FontForge 20201107 at Sat Dec 30 21:03:02 2023
 By 
Copyright (c) 2023 by Designova. All rights reserved.
</metadata>
<defs>
<font id="Rojerflint-Regular" horiz-adv-x="1362" >
  <font-face 
    font-family="Rojerflint"
    font-weight="400"
    font-stretch="normal"
    units-per-em="2048"
    panose-1="0 0 0 0 0 0 0 0 0 0"
    ascent="1638"
    descent="-410"
    x-height="1108.5"
    cap-height="1559"
    bbox="-294.182 -506 2905 2344"
    underline-thickness="100"
    underline-position="-255"
    unicode-range="U+000D-F8FF"
  />
<missing-glyph horiz-adv-x="1539" 
d="M200 -12v1596h1139v-1596h-1139zM341 263l346 522l-346 524v-1046zM409 120h719l-359 543zM409 1452l360 -545l359 545h-719zM850 785l348 -523v1047z" />
    <glyph glyph-name="t_t.liga" unicode="tt" horiz-adv-x="1513" 
d="M471 2q-194 0 -194 251v657h-121q-34 0 -57.5 23t-23.5 58q0 34 23 57t58 23h121v285q0 38 24.5 63t61.5 25q39 0 64 -25t25 -63v-285h505v285q0 38 25 63t62 25q39 0 63.5 -25t24.5 -63v-285h225q35 0 57.5 -22.5t22.5 -57.5t-23 -58t-57 -23h-225v-657q0 -58 12 -74
t42 -16h171q35 0 57.5 -22.5t22.5 -57.5t-22.5 -58t-57.5 -23h-206q-98 0 -146 66t-48 185v657h-505v-657q0 -58 12 -74t41 -16h171q35 0 58 -23t23 -57q0 -35 -23 -58t-58 -23h-205z" />
    <glyph glyph-name=".notdef" horiz-adv-x="1539" 
d="M200 -12v1596h1139v-1596h-1139zM341 263l346 522l-346 524v-1046zM409 120h719l-359 543zM409 1452l360 -545l359 545h-719zM850 785l348 -523v1047z" />
    <glyph glyph-name=".null" horiz-adv-x="0" 
 />
    <glyph glyph-name="nonmarkingreturn" horiz-adv-x="682" 
 />
    <glyph glyph-name="CR" unicode="&#xd;" horiz-adv-x="563" 
 />
    <glyph glyph-name="space" unicode=" " horiz-adv-x="634" 
 />
    <glyph glyph-name="exclam" unicode="!" horiz-adv-x="655" 
d="M329 332q-35 0 -61.5 25t-26.5 62v1054q0 39 26 63.5t62 24.5q37 0 61.5 -24.5t24.5 -63.5v-1054q0 -36 -26.5 -61.5t-59.5 -25.5zM202 129q0 53 37 88.5t90 35.5q52 0 88.5 -36t36.5 -88t-36.5 -89.5t-88.5 -37.5q-53 0 -90 37t-37 90z" />
    <glyph glyph-name="quotedbl" unicode="&#x22;" horiz-adv-x="857" 
d="M546 1114q-28 0 -47 19t-20 47l-21 292q-1 39 25.5 64t62.5 25q37 0 62 -25t24 -64l-19 -292q-1 -28 -20.5 -47t-46.5 -19zM225 1472q-1 39 25.5 64t63.5 25t62 -25t24 -64l-19 -292q-1 -28 -20.5 -47t-46.5 -19q-29 0 -49 19t-21 47z" />
    <glyph glyph-name="numbersign" unicode="#" horiz-adv-x="1319" 
d="M251 2q-38 0 -59.5 25.5t-15.5 61.5l69 391h-146q-32 0 -52.5 20.5t-20.5 52.5q0 37 25.5 59t64.5 22h157l55 313h-139q-42 0 -62 21.5t-20 54.5t25.5 55t70.5 22h152l69 391q6 35 36 60t65 25q36 0 58 -25t15 -64l-69 -387h370l68 391q7 35 36 60t64 25q42 0 60.5 -26.5
t11.5 -63.5l-66 -386h138q40 0 60 -22t20 -49q0 -38 -25 -60t-76 -22h-145l-55 -313h146q33 0 54 -20t21 -53q0 -36 -26 -58.5t-76 -22.5h-147l-69 -394q-7 -38 -35 -61t-66 -23q-41 0 -60.5 24t-11.5 64l68 390h-367l-70 -393q-7 -37 -36 -61t-64 -24zM447 634h369l53 313
h-368z" />
    <glyph glyph-name="dollar" unicode="$" horiz-adv-x="1242" 
d="M630 -184q-28 0 -48.5 20.5t-20.5 57.5v91q-149 13 -260 88t-165 198q-15 37 -0.5 69t48.5 43q31 10 59 -3.5t43 -44.5q73 -160 275 -181v583q-180 43 -282 154.5t-102 272.5q0 156 104 257.5t280 121.5v66q0 41 20.5 60t48.5 19t48.5 -19t20.5 -60v-63
q123 -14 220.5 -77t145.5 -160q17 -35 6.5 -68.5t-41.5 -48.5q-29 -11 -59 -1t-46 36q-74 125 -226 147v-504q207 -46 311 -161.5t104 -291.5q0 -180 -112.5 -294t-302.5 -135v-94q0 -38 -20.5 -58t-48.5 -20zM348 1158q0 -187 213 -256v472q-107 -14 -160 -66t-53 -150z
M699 157q242 37 242 260q0 225 -242 293v-553z" />
    <glyph glyph-name="percent" unicode="%" horiz-adv-x="1875" 
d="M393 2q-36 0 -61 25t-25 61q0 34 19 58l1086 1380q35 35 70 35q36 0 61 -24.5t25 -63.5q0 -31 -15 -52l-1094 -1389q-37 -30 -66 -30zM149 1164q0 167 116 282t284 115q167 0 283 -115t116 -282t-116 -283.5t-283 -116.5t-283.5 116.5t-116.5 283.5zM320 1164
q0 -98 66 -164.5t163 -66.5q98 0 164 66.5t66 164.5t-66 163t-164 65q-93 0 -161 -65t-68 -163zM929 399q0 168 115 284t282 116t283.5 -116.5t116.5 -283.5t-116 -282t-284 -115q-167 0 -282 115t-115 282zM1096 399q0 -97 66 -162.5t164 -65.5q100 0 165.5 65t65.5 163
t-66.5 164.5t-164.5 66.5t-164 -66t-66 -165z" />
    <glyph glyph-name="ampersand" unicode="&#x26;" horiz-adv-x="1371" 
d="M539 -2q-196 0 -315 104.5t-119 268.5q0 126 71.5 235.5t239.5 240.5l7 5l-83 82q-64 64 -102.5 145t-38.5 161q0 138 98 231.5t252 93.5q156 0 257.5 -96t99.5 -242q0 -202 -237 -380l-7 -6l343 -343l146 158q59 58 118 7q28 -24 30.5 -54.5t-27.5 -64.5l-151 -161
l194 -195q68 -59 8 -116q-29 -30 -61.5 -30t-60.5 30l-192 192l-36 -38q-111 -114 -214.5 -171t-219.5 -57zM278 365q0 -92 69 -149t196 -57q78 0 150.5 43.5t158.5 136.5l40 42l-360 360l-26 -19q-98 -77 -142 -135q-86 -107 -86 -222zM372 1240q0 -102 92 -200l88 -90
l27 22q158 121 158 255q0 80 -49 128.5t-139 48.5q-79 0 -128 -46.5t-49 -117.5z" />
    <glyph glyph-name="quotesingle" unicode="'" horiz-adv-x="624" 
d="M314 1116q-29 0 -49 18.5t-21 47.5l-19 292q-1 37 25.5 62t63.5 25q36 0 61.5 -25t24.5 -62l-19 -292q-1 -29 -20.5 -47.5t-46.5 -18.5z" />
    <glyph glyph-name="parenleft" unicode="(" horiz-adv-x="729" 
d="M531 -447q-53 0 -83 55q-233 470 -233 953q0 480 233 949q24 55 83 55q35 0 60 -25t25 -58q0 -19 -13 -49q-218 -435 -218 -874q0 -436 221 -878q12 -34 12 -46q0 -34 -25 -58t-62 -24z" />
    <glyph glyph-name="parenright" unicode=")" horiz-adv-x="730" 
d="M197 -447q-37 0 -61.5 24t-24.5 58q0 9 11 46q221 442 221 878q0 442 -218 874q-12 27 -12 49q0 33 24.5 58t59.5 25q58 0 84 -55q233 -472 233 -949q0 -480 -233 -953q-31 -55 -84 -55z" />
    <glyph glyph-name="asterisk" unicode="*" horiz-adv-x="840" 
d="M274 970q-36 0 -61 26t-25 62q0 35 23 56l118 103l-132 14q-41 6 -63 31t-21 59q5 39 27.5 61.5t58.5 22.5q23 0 53 -17l109 -63l-25 122q-1 1 -1 3q-3 10 -3 25q0 36 25 61t61 25t62 -25t26 -61q0 -11 -4 -25v-1q-1 -1 -1 -2l-26 -124l134 77q6 2 8 2q10 3 22 3
q34 0 61 -24.5t27 -63.5t-23 -61t-62 -25l-130 -14l102 -87q36 -32 36 -72q0 -37 -25.5 -62.5t-64.5 -25.5q-45 0 -79 53l-62 132l-63 -128q-22 -57 -82 -57z" />
    <glyph glyph-name="plus" unicode="+" horiz-adv-x="1355" 
d="M676 236q-36 0 -61 25.5t-25 61.5v303h-301q-36 0 -61.5 25t-25.5 61t25.5 61.5t61.5 25.5h301v303q0 36 25 61t61 25q39 0 64 -24.5t25 -61.5v-303h301q36 0 61.5 -25.5t25.5 -61.5t-25.5 -61t-61.5 -25h-301v-303q0 -37 -25 -62t-64 -25z" />
    <glyph glyph-name="comma" unicode="," horiz-adv-x="619" 
d="M221 -296q-29 0 -47 17t-18 45q0 32 32 73q29 42 29 69q0 20 -5.5 36.5t-11.5 25t-20 25.5q-47 54 -47 109q0 56 38.5 89.5t88.5 33.5q64 0 105.5 -51t41.5 -138q0 -131 -54.5 -232.5t-131.5 -101.5z" />
    <glyph glyph-name="hyphen" unicode="-" horiz-adv-x="934" 
d="M234 468q-36 0 -61.5 25.5t-25.5 61.5q0 39 25 63.5t62 24.5h466q37 0 63 -24.5t26 -63.5q0 -36 -26.5 -61.5t-62.5 -25.5h-466z" />
    <glyph glyph-name="period" unicode="." horiz-adv-x="624" 
d="M313 -29q-53 0 -89.5 37t-36.5 90t37 89t89 36t88.5 -36.5t36.5 -88.5t-36 -89.5t-89 -37.5z" />
    <glyph glyph-name="slash" unicode="/" horiz-adv-x="881" 
d="M131 -154q-46 0 -72.5 38t-8.5 84l620 1544q9 24 31.5 39.5t49.5 15.5q50 0 73 -39.5t6 -84.5l-619 -1546q-10 -24 -31.5 -37.5t-48.5 -13.5z" />
    <glyph glyph-name="zero" unicode="0" horiz-adv-x="1199" 
d="M599 2q-225 0 -350.5 208t-125.5 573q0 362 126 572t350 210q228 0 352.5 -209.5t124.5 -572.5q0 -365 -124.5 -573t-352.5 -208zM298 783q0 -295 77.5 -451.5t223.5 -156.5q149 0 225.5 161.5t76.5 446.5q0 282 -76.5 444.5t-225.5 162.5q-147 0 -224 -161t-77 -446z
" />
    <glyph glyph-name="one" unicode="1" horiz-adv-x="797" 
d="M512 2q-36 0 -62 25t-26 61v1265l-191 -64q-1 0 -2.5 -0.5t-2.5 -0.5q-17 -5 -29 -5q-36 0 -61 25t-25 61q0 28 15 51t40 32l293 97q27 12 51 12q36 0 61 -25t25 -61v-1387q0 -36 -25 -61t-61 -25z" />
    <glyph glyph-name="two" unicode="2" horiz-adv-x="1269" 
d="M269 2q-36 0 -62 25t-26 61q0 34 24 61l608 723q38 39 63 99.5t25 113.5q0 133 -78.5 217t-203.5 84t-204 -84t-79 -217q0 -36 -25 -61.5t-61 -25.5t-62 25.5t-26 61.5q0 205 130 340.5t327 135.5q198 0 327.5 -135t129.5 -341q0 -93 -37 -173t-106 -162l-488 -573h583
q36 0 61 -26.5t25 -62.5t-25 -61t-61 -25h-759z" />
    <glyph glyph-name="three" unicode="3" horiz-adv-x="1286" 
d="M645 -15q-205 0 -343.5 134t-138.5 336q0 39 23.5 65.5t64.5 26.5q40 0 63 -26.5t23 -65.5q0 -130 87 -214t221 -84q151 0 232.5 81t81.5 215q0 141 -81.5 221.5t-223.5 80.5h-84q-36 0 -61.5 25t-25.5 61t25.5 61t61.5 25h84q105 0 172.5 69t67.5 171q0 108 -64.5 172.5
t-181.5 64.5q-121 0 -191 -61t-70 -162q0 -37 -24.5 -62t-63.5 -25t-62.5 26t-23.5 61q0 171 123 282t312 111q180 0 300.5 -116t120.5 -291q0 -82 -50.5 -170.5t-135.5 -143.5q119 -50 185 -155t66 -245q0 -203 -138 -335.5t-351 -132.5z" />
    <glyph glyph-name="four" unicode="4" horiz-adv-x="1434" 
d="M990 2q-36 0 -61 25t-25 61v286h-691q-52 0 -77.5 46.5t6.5 92.5l778 1014q29 34 70 34q37 0 62 -25t25 -63v-937h147q87 0 87 -83q0 -29 -25.5 -54t-61.5 -25h-147v-286q0 -36 -25.5 -61t-61.5 -25zM371 536h533v689z" />
    <glyph glyph-name="five" unicode="5" horiz-adv-x="1304" 
d="M666 2q-220 0 -367.5 147t-147.5 367q0 39 25 64t62 25q36 0 62 -25t26 -64q0 -149 95 -244t245 -95t245 95t95 244q0 151 -95 246.5t-245 95.5h-350q-36 0 -61 25.5t-25 61.5v530q0 36 25 61t61 25h699q36 0 62 -25t26 -61t-26 -62.5t-62 -26.5h-612v-355h263
q220 0 367 -146.5t147 -368.5q0 -220 -147 -367t-367 -147z" />
    <glyph glyph-name="six" unicode="6" horiz-adv-x="1202" 
d="M601 2q-205 0 -341.5 135.5t-136.5 340.5q0 164 90 287l458 750q30 46 78 46q53 0 78 -45t-3 -89l-294 -476q38 5 71 5q207 0 342 -135.5t135 -342.5q0 -205 -135 -340.5t-342 -135.5zM294 478q0 -137 88 -221t219 -84q136 0 221 85t85 220q0 137 -85 222t-221 85
q-132 0 -219.5 -84.5t-87.5 -222.5z" />
    <glyph glyph-name="seven" unicode="7" horiz-adv-x="1189" 
d="M358 2q-36 0 -62 25t-26 61q0 16 6 28q0 1 2 6.5t3 7.5q4 6 4 10l572 1246h-671q-36 0 -62.5 26.5t-26.5 62.5t26.5 61t62.5 25h816q36 0 61 -25t25 -61q0 -21 -12 -47l-638 -1374q-21 -52 -80 -52z" />
    <glyph glyph-name="eight" unicode="8" horiz-adv-x="1208" 
d="M605 -12q-207 0 -344.5 138t-137.5 348q0 129 59 234t163 167q-133 115 -133 304q0 163 112.5 271.5t280.5 108.5q171 3 283 -105.5t109 -274.5q0 -189 -131 -304q104 -60 162 -165t57 -236q0 -210 -136.5 -348t-343.5 -138zM302 474q0 -145 83 -234.5t220 -89.5
q136 0 219 92t83 232q2 137 -81.5 222t-220.5 85q-132 0 -217.5 -84t-85.5 -223zM379 1179q-2 -102 61.5 -167t164.5 -65q99 0 162 64.5t63 167.5q3 93 -59.5 154t-165.5 61q-99 0 -161.5 -60t-64.5 -155z" />
    <glyph glyph-name="nine" unicode="9" horiz-adv-x="1202" 
d="M452 2q-52 0 -76 43t1 90l293 477q-38 -5 -71 -5q-205 0 -340.5 136.5t-135.5 341.5q0 206 135.5 341t342.5 135q205 0 341 -135t136 -341q0 -164 -90 -287l-459 -750q-29 -46 -77 -46zM294 1085q0 -133 84 -220t223 -87q135 0 220.5 86t85.5 223q0 134 -85.5 218.5
t-222.5 84.5q-135 0 -220 -85t-85 -220z" />
    <glyph glyph-name="colon" unicode=":" horiz-adv-x="628" 
d="M313 731q-52 0 -89 36.5t-37 89.5q0 52 36.5 88.5t89.5 36.5t89 -37t36 -88q0 -53 -36 -89.5t-89 -36.5zM191 98q0 53 37 89t89 36t88.5 -36.5t36.5 -88.5t-36.5 -89.5t-88.5 -37.5q-53 0 -89.5 37t-36.5 90z" />
    <glyph glyph-name="semicolon" unicode=";" horiz-adv-x="613" 
d="M240 -296q-29 0 -47 17t-18 45q0 30 32 73q1 1 6 8t5.5 8.5t4.5 7.5t5 8.5t3.5 8t3 9t1.5 9t1 10.5q0 20 -6 36.5t-11.5 24.5t-20.5 26q-47 54 -47 109q0 56 38.5 89.5t88.5 33.5q65 0 106.5 -51t41.5 -138q0 -131 -55 -232.5t-132 -101.5zM133 857q0 52 37 88.5t90 36.5
t88.5 -37t35.5 -88q0 -53 -36 -89.5t-88 -36.5q-53 0 -90 36t-37 90z" />
    <glyph glyph-name="less" unicode="&#x3c;" horiz-adv-x="1397" 
d="M271 634q-49 26 -49 76q0 47 48 78l775 468q41 23 85.5 2t44.5 -73q0 -49 -45 -77l-658 -394l658 -393q45 -30 45 -77q0 -49 -45 -76t-86 -1z" />
    <glyph glyph-name="equal" unicode="=" horiz-adv-x="1400" 
d="M348 390q-36 2 -60.5 26.5t-24.5 61.5q0 36 25 61t61 25h701q36 0 61 -25t25 -61t-25 -61t-61 -25zM263 945q0 36 25 61t61 25h701q36 0 61 -25t25 -61t-25 -61.5t-61 -25.5h-701q-36 0 -61 25.5t-25 61.5z" />
    <glyph glyph-name="greater" unicode="&#x3e;" horiz-adv-x="1397" 
d="M353 167q-41 -26 -86 1t-45 76q0 47 44 77l659 393l-659 394q-44 29 -44 77q0 52 45 73t85 -2l775 -468q48 -31 48 -78q0 -50 -49 -76z" />
    <glyph glyph-name="question" unicode="?" horiz-adv-x="1123" 
d="M551 332q-36 0 -61 26t-25 62q0 86 39 179.5t100 156.5q83 83 124 120q64 59 95.5 120t31.5 150q0 122 -83 196.5t-221 74.5q-134 0 -217.5 -81t-83.5 -220q0 -37 -24 -61t-62 -24q-37 0 -63 24t-26 61q0 209 133.5 341.5t342.5 132.5q208 0 342.5 -129t134.5 -326
q0 -114 -43 -194q-20 -38 -52.5 -78t-52.5 -60t-70 -69q-48 -44 -75 -71q-95 -95 -95 -243q0 -36 -25 -62t-64 -26zM427 129q0 52 35.5 88t88.5 36t90 -35.5t37 -88.5t-37.5 -90t-89.5 -37q-53 0 -88.5 37t-35.5 90z" />
    <glyph glyph-name="at" unicode="@" horiz-adv-x="2176" 
d="M1087 -445q-217 0 -403.5 74.5t-318 205.5t-206 317.5t-74.5 404.5q0 219 74.5 406t206 318t318 205.5t403.5 74.5q146 0 279.5 -33.5t244 -95.5t200 -151.5t151.5 -200t95.5 -244t33.5 -279.5q0 -179 -48 -315q-49 -143 -138 -225t-205 -82q-104 0 -172 68t-68 172v-19
q-69 -65 -168 -104.5t-205 -39.5q-239 0 -392 153t-153 392q0 240 153 393.5t392 153.5q223 0 371 -132v36q0 37 24.5 61.5t63.5 24.5q36 0 60 -25t24 -61v-400q2 -34 2 -51v-344q0 -61 16 -83t52 -22q98 0 158 125t60 324q0 243 -104.5 432t-294 294t-432.5 105
q-244 0 -433 -105.5t-292.5 -294.5t-103.5 -431q0 -244 104 -433t292.5 -293t432.5 -104q86 0 180.5 20t160.5 50q52 26 90.5 7.5t38.5 -73.5q0 -48 -67.5 -89t-175.5 -64t-227 -23zM715 557q0 -169 101.5 -271t270.5 -102q157 0 257 90t114 241v85q-14 152 -114 241.5
t-257 89.5q-169 0 -270.5 -102t-101.5 -272z" />
    <glyph glyph-name="A" unicode="A" horiz-adv-x="1439" 
d="M132 2q-51 0 -74.5 42t-3.5 82l581 1375q25 58 82 58q58 0 83 -58l583 -1375q22 -42 -3.5 -83t-74.5 -41q-59 0 -81 55l-176 423h-659l-177 -423q-21 -55 -80 -55zM457 641h522l-262 624z" />
    <glyph glyph-name="B" unicode="B" horiz-adv-x="1487" 
d="M303 2q-48 0 -76 23.5t-28 62.5v1385q0 39 25.5 62.5t61.5 23.5h574q177 0 298.5 -111t121.5 -281q0 -99 -45.5 -181t-124.5 -134q116 -49 182.5 -148.5t66.5 -236.5q0 -205 -132 -335t-338 -130h-586zM372 175h517q135 0 216 79.5t81 212.5q0 130 -81 208t-216 78h-517
v-578zM372 925h488q112 0 179.5 65t67.5 177q0 107 -65.5 163t-181.5 56h-488v-461z" />
    <glyph glyph-name="C" unicode="C" horiz-adv-x="1540" 
d="M903 -17q-157 0 -301 63.5t-249 170.5t-167.5 255t-62.5 309q0 215 102.5 398t282.5 291t395 108q279 0 492 -177q26 -21 28 -57t-22 -64t-64 -28q-29 0 -67 30q-134 123 -367 123q-124 0 -236.5 -50.5t-193.5 -134.5t-129 -199t-48 -240q0 -173 81 -316.5t220.5 -226
t305.5 -82.5q217 0 379 133q26 18 56 16.5t54.5 -26.5t24.5 -62q0 -39 -22 -61q-173 -173 -492 -173z" />
    <glyph glyph-name="D" unicode="D" horiz-adv-x="1559" 
d="M286 2q-36 0 -61.5 25t-25.5 61v1385q0 39 25.5 62.5t61.5 23.5h370q169 0 314 -57.5t247.5 -159.5t160.5 -247t58 -314q0 -170 -57.5 -315t-160 -247t-247.5 -159.5t-315 -57.5h-370zM372 163h284q271 0 439 172t168 446t-168 445.5t-439 171.5h-284v-1235z" />
    <glyph glyph-name="E" unicode="E" horiz-adv-x="1423" 
d="M286 2q-36 0 -61.5 25t-25.5 61v1385q0 36 25.5 61t61.5 25h923q35 0 61 -25t26 -61q0 -35 -26 -61t-61 -26h-837v-518h685q36 0 61.5 -25.5t25.5 -61.5t-25.5 -62t-61.5 -26h-685v-518h837q35 0 61 -26.5t26 -60.5q0 -36 -26 -61t-61 -25h-923z" />
    <glyph glyph-name="F" unicode="F" horiz-adv-x="1433" 
d="M286 2q-36 0 -61.5 25t-25.5 61v1385q0 36 25.5 61t61.5 25h923q35 0 61 -25t26 -61q0 -35 -26 -61t-61 -26h-837v-518h680q36 0 61 -25.5t25 -61.5t-25 -62t-61 -26h-680v-605q0 -36 -25 -61t-61 -25z" />
    <glyph glyph-name="G" unicode="G" horiz-adv-x="1603" 
d="M903 -17q-157 0 -301 63.5t-249 170.5t-167.5 255t-62.5 309q0 215 102.5 398t282.5 291t395 108q279 0 492 -177q26 -21 28 -57t-22 -64t-64 -28q-29 0 -67 30q-134 123 -367 123q-124 0 -236.5 -50.5t-193.5 -134.5t-129 -199t-48 -240q0 -173 81 -316.5t220.5 -226
t305.5 -82.5q131 0 222 24.5t169 79.5v460h-381q-36 0 -61 24t-25 59q0 32 24.5 55t61.5 23h467q39 0 62.5 -23.5t23.5 -60.5v-580q0 -39 -22 -61q-94 -94 -227 -133.5t-314 -39.5z" />
    <glyph glyph-name="H" unicode="H" horiz-adv-x="1656" 
d="M286 2q-36 0 -61.5 25t-25.5 61v1385q0 36 25.5 61t61.5 25t61 -25t25 -61v-605h912v605q0 36 25 61t61 25t61.5 -25t25.5 -61v-1385q0 -36 -25.5 -61t-61.5 -25t-61 25t-25 61v619h-912v-619q0 -36 -25 -61t-61 -25z" />
    <glyph glyph-name="I" unicode="I" horiz-adv-x="570" 
d="M286 2q-36 0 -61.5 25t-25.5 61v1385q0 36 25.5 61t61.5 25t61 -25t25 -61v-1385q0 -36 -25 -61t-61 -25z" />
    <glyph glyph-name="J" unicode="J" horiz-adv-x="1341" 
d="M622 -21q-81 -1 -158 17.5t-146 57.5t-120.5 94t-82 133.5t-30.5 171.5q0 39 25 63t61 24q37 0 62 -24t25 -63q0 -97 51 -166.5t129 -101.5t173 -33q150 0 254.5 78.5t104.5 222.5v1020q0 36 25.5 61t60.5 25q36 0 61.5 -25t25.5 -61v-1020q0 -113 -44 -204.5
t-118.5 -148.5t-166.5 -88t-192 -33z" />
    <glyph glyph-name="K" unicode="K" horiz-adv-x="1268" 
d="M286 2q-35 0 -61 25t-26 61v1385q0 36 26 61t61 25q36 0 61 -25t25 -61v-636l696 696q25 26 64 26q36 0 61.5 -26t25.5 -59t-26 -64l-534 -534l542 -736q32 -44 8.5 -91t-75.5 -47q-47 0 -74 37l-526 712l-162 -162v-501q0 -36 -25 -61t-61 -25z" />
    <glyph glyph-name="L" unicode="L" horiz-adv-x="1399" 
d="M286 2q-35 0 -61 25t-26 61v1385q0 36 26 61t61 25q36 0 61 -25t25 -61v-1296h839q40 0 63 -23.5t23 -70.5q0 -36 -23.5 -58.5t-62.5 -22.5h-925z" />
    <glyph glyph-name="M" unicode="M" horiz-adv-x="1954" 
d="M286 2q-36 0 -61.5 25t-25.5 61v1385q0 36 25.5 61t61.5 25q56 0 77 -45l620 -1223l612 1224q24 44 77 44q36 0 60 -25t24 -61v-1385q0 -36 -24 -61t-60 -25t-62 25t-26 61v1053l-529 -1078q-24 -42 -76 -42t-80 52l-527 1053v-1038q0 -36 -25 -61t-61 -25z" />
    <glyph glyph-name="N" unicode="N" horiz-adv-x="1647" 
d="M286 2q-36 0 -61.5 25t-25.5 61v1385q0 36 25.5 61t61.5 25q42 0 66 -30l924 -1203v1147q0 36 25.5 61t61.5 25q35 0 60.5 -25t25.5 -61v-1385q0 -36 -25.5 -61t-60.5 -25q-38 0 -65 27l-926 1206v-1147q0 -36 -25 -61t-61 -25z" />
    <glyph glyph-name="O" unicode="O" horiz-adv-x="1842" 
d="M922 -17q-226 0 -409 103.5t-286.5 286t-103.5 408.5t103.5 408.5t286 285.5t409.5 103q226 0 408.5 -103t285.5 -285.5t103 -408.5t-103 -408.5t-285.5 -286t-408.5 -103.5zM296 781q0 -180 80 -322.5t223 -222.5t323 -80q272 0 448 176t176 449q0 133 -47 249
t-129.5 198.5t-198.5 129.5t-249 47q-180 0 -323 -80t-223 -222.5t-80 -321.5z" />
    <glyph glyph-name="P" unicode="P" horiz-adv-x="1502" 
d="M286 2q-36 0 -61.5 25t-25.5 61v1385q0 39 25.5 62.5t61.5 23.5h589q223 0 366 -142.5t143 -366.5t-142.5 -367t-366.5 -143h-503v-452q0 -36 -23.5 -61t-62.5 -25zM372 712h503q153 0 244.5 92t91.5 246q0 153 -91.5 244.5t-244.5 91.5h-503v-674z" />
    <glyph glyph-name="Q" unicode="Q" horiz-adv-x="1842" 
d="M922 -17q-226 0 -409 103.5t-286.5 286t-103.5 408.5t103.5 408.5t286 285.5t409.5 103q226 0 408.5 -103t285.5 -285.5t103 -408.5q0 -158 -51.5 -296t-146.5 -244l93 -94q26 -25 26 -59t-26 -60q-25 -26 -58 -26q-35 0 -61 26l-100 100q-203 -145 -473 -145zM296 781
q0 -180 80 -322.5t223 -222.5t323 -80q272 0 448 176t176 449q0 133 -47 249t-129.5 198.5t-198.5 129.5t-249 47q-180 0 -323 -80t-223 -222.5t-80 -321.5z" />
    <glyph glyph-name="R" unicode="R" horiz-adv-x="1463" 
d="M286 2q-36 0 -61.5 25t-25.5 61v1385q0 39 25.5 62.5t61.5 23.5h578q223 0 365.5 -135.5t142.5 -348.5q0 -157 -82.5 -274.5t-224.5 -169.5l310 -497q33 -54 11.5 -93t-83.5 -39q-26 0 -42 10t-34 33l-345 552h-510v-509q0 -36 -23.5 -61t-62.5 -25zM372 770h492
q152 0 244 83t92 222q0 142 -92 226.5t-244 84.5h-492v-616z" />
    <glyph glyph-name="S" unicode="S" horiz-adv-x="1323" 
d="M688 -19q-207 0 -356.5 93t-200.5 243q-10 35 -1.5 61.5t30.5 39.5l3 1q36 21 74 5l-7 1l11 -3q29 -15 42 -50q36 -108 139 -168t266 -60q175 0 260 72.5t85 205.5q0 104 -83.5 166.5t-284.5 120.5q-119 34 -192.5 64.5t-138.5 74.5q-161 106 -161 298q0 182 139 307
t349 125q170 0 295 -81t187 -218q14 -35 3 -68t-42 -48q-30 -16 -62 1t-52 60q-49 99 -127.5 145t-201.5 46q-154 0 -236.5 -74.5t-82.5 -194.5q0 -82 59 -143q48 -33 84 -50q65 -32 105.5 -47.5t127.5 -40.5q120 -40 202 -79t148 -91.5t97.5 -119.5t31.5 -153
q0 -200 -138.5 -320.5t-370.5 -120.5z" />
    <glyph glyph-name="T" unicode="T" horiz-adv-x="1448" 
d="M725 2q-36 0 -61 25t-25 61v1310h-457q-35 0 -58 23t-23 57t23.5 57.5t57.5 23.5h1087q34 0 57 -23t23 -58q0 -34 -22.5 -57t-57.5 -23h-457v-1310q0 -36 -25.5 -61t-61.5 -25z" />
    <glyph glyph-name="U" unicode="U" horiz-adv-x="1610" 
d="M804 -29q-266 0 -435.5 153.5t-169.5 395.5v953q0 39 25.5 62.5t61.5 23.5q38 0 62 -24t24 -62v-953q0 -170 118.5 -273t313.5 -103q196 0 315 103t119 273v953q0 39 25 62.5t61 23.5q39 0 63 -24t24 -62v-953q0 -159 -77.5 -284.5t-216 -195t-313.5 -69.5z" />
    <glyph glyph-name="V" unicode="V" horiz-adv-x="1420" 
d="M711 2q-58 0 -79 55l-576 1368q-24 57 1 95.5t76 38.5q54 0 81 -58l499 -1192l491 1184q25 66 90 66q49 0 70.5 -40.5t-1.5 -93.5l-575 -1369q-24 -54 -77 -54z" />
    <glyph glyph-name="W" unicode="W" horiz-adv-x="1821" 
d="M526 2q-28 0 -53 20t-34 50l-397 1364q-14 49 9.5 86t71.5 37q66 0 84 -65l319 -1105l303 1055q6 24 29.5 40.5t51.5 16.5t51.5 -16t32.5 -42l302 -1054l320 1111q6 26 27.5 42.5t55.5 16.5q48 0 70.5 -37t9.5 -86l-395 -1363q-10 -34 -34.5 -52.5t-53.5 -18.5
q-33 0 -56 20t-31 51l-299 1055l-294 -1056q-11 -32 -35 -51t-55 -19z" />
    <glyph glyph-name="X" unicode="X" horiz-adv-x="1331" 
d="M136 2q-53 0 -77 43t8 96l482 665l-446 617q-32 44 -11.5 90t74.5 46q44 0 71 -36l429 -593l426 593q27 36 71 36q55 0 78 -49t-7 -87l-450 -620l479 -660q34 -40 12 -90.5t-76 -50.5q-45 0 -67 32l-465 643l-464 -644q-26 -31 -67 -31z" />
    <glyph glyph-name="Y" unicode="Y" horiz-adv-x="1351" 
d="M675 2q-36 0 -61 25t-25 61v495l-526 842q-28 49 -5 91.5t74 42.5q41 0 69 -35l474 -772l465 757q30 50 80 50q51 0 73.5 -44t-6.5 -90l-525 -842v-495q0 -36 -25.5 -61t-61.5 -25z" />
    <glyph glyph-name="Z" unicode="Z" horiz-adv-x="1505" 
d="M216 2q-56 0 -78 50t11 91l991 1255h-924q-39 0 -62.5 21.5t-23.5 58.5q0 33 24.5 57t61.5 24h1078q54 0 78 -47.5t-7 -88.5l-999 -1260h928q38 0 62 -22t24 -58q0 -31 -25.5 -56t-60.5 -25h-1078z" />
    <glyph glyph-name="bracketleft" unicode="[" horiz-adv-x="846" 
d="M316 -447q-36 0 -61 25t-25 61v1836q0 36 25 61t61 25h311q36 0 62.5 -25t26.5 -61t-26.5 -62.5t-62.5 -26.5h-224v-1659h224q36 0 62.5 -26t26.5 -62t-26.5 -61t-62.5 -25h-311z" />
    <glyph glyph-name="backslash" unicode="\" horiz-adv-x="883" 
d="M754 -154q-55 0 -79 51l-623 1539q-9 16 -9 37q0 39 26.5 63.5t62.5 24.5q27 0 49 -14.5t30 -36.5l621 -1541q8 -16 8 -36q0 -36 -25 -61.5t-61 -25.5z" />
    <glyph glyph-name="bracketright" unicode="]" horiz-adv-x="846" 
d="M218 -447q-36 0 -62 25t-26 61t26 62t62 26h225v1659h-225q-36 0 -62 26.5t-26 62.5t26 61t62 25h311q36 0 61.5 -25t25.5 -61v-1836q0 -36 -25.5 -61t-61.5 -25h-311z" />
    <glyph glyph-name="asciicircum" unicode="^" horiz-adv-x="948" 
d="M164 922q-36 0 -62.5 25t-26.5 61q0 10 6 26l1 4l4 11l2 4l316 473q29 35 71 35q44 0 70 -36l314 -470q13 -18 13 -47q0 -36 -25 -61t-61 -25q-49 0 -70 31l-241 364l-243 -366q-29 -29 -68 -29z" />
    <glyph glyph-name="underscore" unicode="_" horiz-adv-x="1067" 
d="M67 -117q-36 0 -62 26t-26 62t26 62.5t62 26.5h933q36 0 61.5 -26.5t25.5 -62.5t-25.5 -62t-61.5 -26h-933z" />
    <glyph glyph-name="grave" unicode="`" horiz-adv-x="589" 
d="M417 1152q-27 0 -60 22l-237 238q-24 26 -24 61q0 39 26.5 63.5t62.5 24.5q34 0 60 -26l236 -236q22 -22 22 -59q0 -36 -25 -62t-61 -26z" />
    <glyph glyph-name="a" unicode="a" horiz-adv-x="1409" 
d="M675 -10q-244 0 -405 160.5t-161 404.5q0 161 73 290.5t202.5 202.5t290.5 73q235 0 392 -148v64q0 37 24.5 61.5t63.5 24.5q36 0 60.5 -25t24.5 -61v-949q0 -36 -24.5 -61t-60.5 -25q-39 0 -63.5 24.5t-24.5 61.5v64q-70 -77 -171.5 -119.5t-220.5 -42.5zM282 555
q0 -175 110.5 -287t282.5 -112q174 0 283 111.5t109 287.5q0 177 -109 289t-283 112q-172 0 -282.5 -112t-110.5 -289z" />
    <glyph glyph-name="b" unicode="b" horiz-adv-x="1406" 
d="M734 -10q-233 0 -392 148v-48q0 -37 -24.5 -61.5t-63.5 -24.5q-36 0 -60.5 25t-24.5 61v1383q0 39 25.5 62.5t61.5 23.5q39 0 62.5 -24t23.5 -62v-498q159 148 392 148q161 0 290.5 -73t202.5 -202.5t73 -290.5t-73 -291t-202.5 -203t-290.5 -73zM342 557
q0 -176 109.5 -288t282.5 -112q172 0 283 112.5t111 287.5q0 145 -87 259q-111 140 -307 140q-173 0 -282.5 -111t-109.5 -288z" />
    <glyph glyph-name="c" unicode="c" horiz-adv-x="1171" 
d="M656 -10q-239 0 -395 161t-156 404q0 245 146.5 404.5t375.5 159.5q268 0 424 -200q24 -29 18 -63t-38 -54q-26 -20 -58 -15.5t-55 32.5q-115 135 -291 135q-157 0 -253 -108t-96 -291q0 -177 104 -288t274 -111q157 0 252 86q26 25 59 25.5t55 -21.5q28 -28 28 -62.5
t-25 -56.5q-149 -137 -369 -137z" />
    <glyph glyph-name="d" unicode="d" horiz-adv-x="1405" 
d="M671 -10q-161 0 -290.5 73t-202.5 203t-73 291t73 290.5t202.5 202.5t290.5 73q233 0 392 -148v498q0 38 24 62t62 24q37 0 62 -23.5t25 -62.5v-1383q0 -36 -24.5 -61t-60.5 -25q-39 0 -63.5 25t-24.5 61v48q-159 -148 -392 -148zM278 557q0 -175 110.5 -287.5
t282.5 -112.5q174 0 283 112t109 288q0 177 -109.5 288t-282.5 111q-196 0 -307 -140q-86 -113 -86 -259z" />
    <glyph glyph-name="e" unicode="e" horiz-adv-x="1238" 
d="M656 -8q-242 0 -396.5 157.5t-154.5 405.5t145.5 406t376.5 158q227 0 370 -152t143 -393q0 -36 -24.5 -59t-60.5 -23h-772q18 -154 118.5 -244.5t254.5 -90.5q71 0 140.5 24t110.5 63q23 24 56 25t57 -20q31 -25 32 -60t-27 -60q-66 -60 -169.5 -98.5t-199.5 -38.5z
M286 649h682q-20 142 -110 223.5t-231 81.5q-134 0 -225 -82t-116 -223z" />
    <glyph glyph-name="f" unicode="f" horiz-adv-x="797" 
d="M383 2q-36 0 -61 25t-25 61l-2 822h-119q-34 0 -57.5 23t-23.5 58q0 34 23 57t58 23h119v237q0 119 48 185t146 66h205q35 0 58 -23t23 -58t-23 -57.5t-58 -22.5h-170q-30 0 -42 -16t-12 -74v-237h226q35 0 58 -23t23 -57q0 -35 -23.5 -58t-57.5 -23h-224v-822
q0 -37 -25 -61.5t-64 -24.5z" />
    <glyph glyph-name="g" unicode="g" horiz-adv-x="1404" 
d="M679 -399q-301 0 -480 222q-21 32 -21 58q0 37 32 60q29 21 66.5 14.5t56.5 -36.5q131 -153 346 -153q164 0 269.5 106.5t113.5 278.5q-117 -127 -300 -155q-42 -6 -91 -6q-249 0 -407.5 158.5t-158.5 406.5q0 247 161 406.5t405 159.5q236 0 392 -143v59q0 37 24.5 61.5
t63.5 24.5q36 0 60.5 -25t24.5 -61v-858q0 -163 -71.5 -295.5t-199 -207.5t-286.5 -75zM278 555q0 -175 110.5 -287t282.5 -112q174 0 283 111.5t109 287.5q0 177 -109 289t-283 112q-172 0 -282.5 -112t-110.5 -289z" />
    <glyph glyph-name="h" unicode="h" 
d="M256 2q-36 0 -61.5 25t-25.5 61v1385q0 39 25.5 62.5t61.5 23.5q39 0 62.5 -24t23.5 -62v-474q140 124 336 124q144 0 263 -58q119 -63 185.5 -180t66.5 -280v-517q0 -36 -25.5 -61t-61.5 -25t-61 25t-25 61v517q0 170 -90.5 257.5t-251.5 87.5q-151 0 -243.5 -78
t-92.5 -196v-588q0 -37 -23.5 -61.5t-62.5 -24.5z" />
    <glyph glyph-name="i" unicode="i" horiz-adv-x="518" 
d="M254 2q-36 0 -61.5 25t-25.5 61v935q0 39 25 63t62 24q39 0 62.5 -24t23.5 -63v-935q0 -37 -23.5 -61.5t-62.5 -24.5zM141 1392q0 55 35 86t84 31q47 0 82 -31t35 -86q0 -50 -34.5 -84.5t-84.5 -34.5q-48 0 -82.5 34.5t-34.5 84.5z" />
    <glyph glyph-name="j" unicode="j" horiz-adv-x="484" 
d="M-169 -447q-35 0 -58 23t-23 57q0 35 23 58t58 23h253q30 0 42 16t12 74v1219q0 39 25 63t61 24q39 0 64 -24t25 -63v-1219q0 -119 -48 -185t-146 -66h-288zM105 1392q0 55 35.5 86t83.5 31q47 0 82.5 -31t35.5 -86q0 -50 -34.5 -84.5t-84.5 -34.5q-49 0 -83.5 34.5
t-34.5 84.5z" />
    <glyph glyph-name="k" unicode="k" horiz-adv-x="1075" 
d="M256 2q-36 0 -61.5 25t-25.5 61v1385q0 39 25.5 62.5t61.5 23.5q39 0 62.5 -24t23.5 -62v-874l548 498q29 22 57 22q32 0 57 -28q24 -30 24 -58q0 -35 -30 -57l-386 -351l401 -492q24 -26 22 -57.5t-32 -57.5q-25 -23 -58 -21t-58 33l-398 485l-147 -134v-293
q0 -37 -23.5 -61.5t-62.5 -24.5z" />
    <glyph glyph-name="l" unicode="l" horiz-adv-x="593" 
d="M448 2q-121 0 -200 96t-79 250v1125q0 39 25.5 62.5t61.5 23.5q39 0 62.5 -24t23.5 -62v-1125q0 -81 28.5 -127t77.5 -46h48q32 0 54.5 -22.5t22.5 -64.5q0 -36 -24 -61t-63 -25h-38z" />
    <glyph glyph-name="m" unicode="m" horiz-adv-x="1899" 
d="M256 2q-36 0 -61.5 25t-25.5 61v935q0 39 25 63t62 24q39 0 62.5 -24t23.5 -63v-1q113 101 273 101q107 0 195 -47t145 -131q59 85 150.5 131.5t200.5 46.5q188 0 306 -134.5t118 -345.5v-555q0 -37 -23.5 -61.5t-62.5 -24.5q-36 0 -61 25t-25 61v555q0 140 -68.5 223.5
t-183.5 83.5q-126 0 -198.5 -77.5t-68.5 -215.5v-569q0 -37 -23.5 -61.5t-62.5 -24.5q-36 0 -61.5 25t-25.5 61v555q0 140 -68 223.5t-183 83.5q-124 0 -198.5 -74.5t-74.5 -199.5v-588q0 -37 -23.5 -61.5t-62.5 -24.5z" />
    <glyph glyph-name="n" unicode="n" 
d="M256 2q-36 0 -61.5 25t-25.5 61v935q0 39 25 63t62 24q39 0 62.5 -24t23.5 -63v-24q140 124 336 124q144 0 263 -58q119 -63 185.5 -180t66.5 -280v-517q0 -36 -25.5 -61t-61.5 -25t-61 25t-25 61v517q0 170 -90.5 257.5t-251.5 87.5q-151 0 -243.5 -78t-92.5 -196v-588
q0 -37 -23.5 -61.5t-62.5 -24.5z" />
    <glyph glyph-name="o" unicode="o" horiz-adv-x="1334" 
d="M671 -10q-244 0 -405 160.5t-161 404.5q0 161 73 290.5t202.5 202.5t290.5 73q162 0 291 -73t201.5 -202.5t72.5 -290.5q0 -160 -73 -289.5t-202.5 -202.5t-289.5 -73zM278 555q0 -175 110.5 -287t282.5 -112q174 0 283 112t109 289q0 176 -109 287.5t-283 111.5
q-172 0 -282.5 -112t-110.5 -289z" />
    <glyph glyph-name="p" unicode="p" horiz-adv-x="1406" 
d="M256 -447q-36 0 -61.5 25t-25.5 61v1398q0 36 24.5 61t60.5 25q39 0 63.5 -24.5t24.5 -61.5v-62q78 72 181 110q94 36 211 36q161 0 290.5 -73t202.5 -202.5t73 -290.5q0 -244 -161 -404.5t-405 -160.5q-119 0 -220.5 42.5t-171.5 119.5v-513q0 -37 -23.5 -61.5
t-62.5 -24.5zM342 555q0 -176 110 -287.5t282 -111.5t283 112t111 287q0 176 -111 288.5t-283 112.5q-173 0 -282.5 -112t-109.5 -289z" />
    <glyph glyph-name="q" unicode="q" horiz-adv-x="1405" 
d="M1149 -447q-39 0 -62.5 25t-23.5 61v513q-70 -77 -171.5 -119.5t-220.5 -42.5q-244 0 -405 160.5t-161 404.5q0 161 73 290.5t202.5 202.5t290.5 73q116 0 212 -36q101 -37 180 -110v62q0 37 24.5 61.5t63.5 24.5q36 0 60.5 -25t24.5 -61v-1398q0 -36 -25.5 -61
t-61.5 -25zM278 555q0 -175 110.5 -287t282.5 -112t282 111.5t110 287.5q0 177 -109.5 289t-282.5 112q-172 0 -282.5 -112t-110.5 -289z" />
    <glyph glyph-name="r" unicode="r" horiz-adv-x="856" 
d="M256 2q-36 0 -61.5 25t-25.5 61v935q0 39 25 63t62 24q39 0 62.5 -24t23.5 -63v-17q135 117 337 117l65 -4q37 -5 58 -34t14 -66q-6 -35 -34.5 -55.5t-63.5 -15.5l-41 2q-151 0 -243 -78t-92 -196v-588q0 -37 -23.5 -61.5t-62.5 -24.5z" />
    <glyph glyph-name="s" unicode="s" horiz-adv-x="1079" 
d="M536 -10q-115 0 -228 41.5t-186 128.5q-24 28 -19 63t37 57q28 20 61.5 15t53.5 -31q92 -107 287 -107q267 0 267 164q0 64 -63.5 104t-205.5 61q-196 28 -298.5 110.5t-102.5 200.5q0 151 109.5 237.5t289.5 86.5q259 0 390 -184q23 -27 15.5 -63.5t-44.5 -55.5
q-27 -15 -59 -9t-53 33q-88 114 -253 114q-110 0 -168 -41t-58 -107q0 -67 59.5 -104.5t203.5 -58.5q154 -22 238 -69q169 -91 169 -261q0 -143 -127 -234t-315 -91z" />
    <glyph glyph-name="t" unicode="t" horiz-adv-x="833" 
d="M471 2q-194 0 -194 251v657h-121q-34 0 -57.5 23t-23.5 58q0 34 23 57t58 23h121v285q0 38 24.5 63t61.5 25q39 0 64 -25t25 -63v-285h224q35 0 58 -23t23 -57q0 -35 -23.5 -58t-57.5 -23h-224v-657q0 -58 12 -74t41 -16h171q35 0 58 -23t23 -57q0 -35 -23 -58t-58 -23
h-205z" />
    <glyph glyph-name="u" unicode="u" 
d="M684 -12q-230 0 -372.5 140t-142.5 379v516q0 36 25.5 61.5t61.5 25.5t61 -25.5t25 -61.5v-516q0 -169 88.5 -257.5t253.5 -88.5q148 0 242 77t94 198v587q0 39 25 63t61 24q39 0 63 -24t24 -63v-935q0 -36 -24 -61t-63 -25q-36 0 -61 25t-25 61v24q-137 -124 -336 -124z
" />
    <glyph glyph-name="v" unicode="v" horiz-adv-x="1205" 
d="M601 0q-55 0 -79 58l-439 938q-12 30 -0.5 61t43.5 46q33 15 63.5 3.5t46.5 -43.5l367 -796l362 798q15 32 48 43.5t65 -3.5q34 -15 46 -47t-3 -62l-432 -939q-29 -57 -88 -57z" />
    <glyph glyph-name="w" unicode="w" horiz-adv-x="1573" 
d="M473 2q-30 0 -51.5 16t-29.5 41l-312 933q-10 56 9.5 87t62.5 31q27 0 49 -15t32 -39l242 -733l223 720q9 31 31.5 49t54.5 18q63 0 85 -66l225 -707l239 719q21 54 80 54q48 0 70.5 -38.5t2.5 -83.5l-309 -929q-8 -27 -30 -42t-52 -15q-31 0 -53 16t-29 42l-233 723
l-227 -725q-9 -27 -31.5 -41.5t-48.5 -14.5z" />
    <glyph glyph-name="x" unicode="x" horiz-adv-x="1143" 
d="M185 2q-57 0 -79 50t12 91l343 426l-301 399q-35 44 -11 93t78 49q37 0 64 -27l286 -381l298 364q42 44 81 44q58 0 77.5 -50.5t-16.5 -92.5l-325 -388l328 -437q31 -41 23.5 -72t-32 -49.5t-49.5 -18.5q-30 0 -48.5 11.5t-38.5 35.5l-301 399l-326 -417q-20 -29 -63 -29
z" />
    <glyph glyph-name="y" unicode="y" horiz-adv-x="1206" 
d="M405 -453q-18 0 -37 8q-37 14 -49 44t5 66l185 400l-2 5l-419 920q-17 34 -7 65.5t45 47.5q34 17 65.5 7t47.5 -45l364 -796l366 794q16 35 44 46t63 -3q37 -14 49.5 -44t-4.5 -66l-645 -1398q-26 -51 -71 -51z" />
    <glyph glyph-name="z" unicode="z" horiz-adv-x="1148" 
d="M212 2q-38 0 -59.5 22t-21.5 59q0 39 23 60l646 805h-588q-38 0 -59.5 22t-21.5 59t21.5 59t59.5 22h750q38 0 59.5 -22t21.5 -59q0 -31 -13 -50l-651 -816h583q37 0 59 -21.5t22 -58.5t-21.5 -59t-59.5 -22h-750z" />
    <glyph glyph-name="braceleft" unicode="{" horiz-adv-x="919" 
d="M700 -447q-158 0 -238 80.5t-80 237.5v452q0 79 -33.5 112t-112.5 33q-36 0 -62.5 25.5t-26.5 61.5q0 39 26 63.5t63 24.5q79 0 112.5 33.5t33.5 112.5v451q0 158 80.5 239.5t237.5 81.5q39 0 64 -25t25 -63q0 -37 -25 -62t-64 -25q-78 0 -111 -33.5t-33 -112.5v-451
q0 -141 -77 -233q77 -94 77 -233v-452q0 -77 33.5 -110.5t110.5 -33.5q39 0 64 -26t25 -62q0 -37 -25 -61.5t-64 -24.5z" />
    <glyph glyph-name="bar" unicode="|" horiz-adv-x="835" 
d="M413 -447q-36 0 -61.5 25t-25.5 61v1836q0 36 25.5 61t61.5 25t62 -25t26 -61v-1836q0 -36 -26 -61t-62 -25z" />
    <glyph glyph-name="braceright" unicode="}" horiz-adv-x="917" 
d="M218 -447q-36 0 -62 25t-26 61t26 62t62 26q78 0 111 33.5t33 110.5v452q0 139 77 233q-77 92 -77 233v451q0 79 -33 112.5t-111 33.5q-36 0 -62 25.5t-26 61.5q0 39 26 63.5t62 24.5q158 0 238.5 -81.5t80.5 -239.5v-451q0 -79 33.5 -112.5t112.5 -33.5q37 0 62.5 -24.5
t25.5 -63.5q0 -36 -26 -61.5t-62 -25.5q-79 0 -112.5 -33t-33.5 -112v-452q0 -158 -80.5 -238t-238.5 -80z" />
    <glyph glyph-name="asciitilde" unicode="~" horiz-adv-x="1150" 
d="M739 1212q-43 0 -83.5 13t-61.5 25t-52 34q-37 24 -55.5 31.5t-37.5 7.5q-67 0 -125 -67q-20 -28 -54.5 -34t-60.5 11q-33 20 -39.5 54t13.5 64q116 141 266 141q39 0 81 -14t58 -23.5t50 -30.5q33 -25 53.5 -34.5t47.5 -9.5q55 0 84 33q22 24 52 31.5t56 -3.5
q39 -19 48.5 -53.5t-14.5 -66.5q-81 -109 -226 -109z" />
    <glyph glyph-name="uni00A0" unicode="&#xa0;" horiz-adv-x="563" 
 />
    <glyph glyph-name="exclamdown" unicode="&#xa1;" horiz-adv-x="655" 
d="M329 -447q-36 0 -62 26t-26 62v1054q0 36 26.5 61t61.5 25q33 0 59.5 -25t26.5 -61v-1054q0 -36 -25 -62t-61 -26zM202 985q0 53 37 90t90 37q52 0 88.5 -37.5t36.5 -89.5t-36.5 -88.5t-88.5 -36.5t-89.5 36t-37.5 89z" />
    <glyph glyph-name="cent" unicode="&#xa2;" horiz-adv-x="1171" 
d="M358 -186q-43 0 -63 35t-2 86l55 146q-114 74 -178.5 198t-64.5 276q0 245 146.5 404.5t375.5 159.5q53 0 107 -8l53 137q21 60 82 60q41 0 62 -35.5t5 -78.5l-50 -135q97 -52 165 -140q24 -29 18 -63t-38 -54q-26 -20 -58 -15.5t-55 32.5q-43 51 -91 81l-276 -732
q44 -12 105 -12q157 0 252 86q26 25 59 25.5t55 -21.5q28 -28 28 -62.5t-25 -56.5q-149 -137 -369 -137q-81 0 -163 22l-50 -133q-21 -65 -85 -65zM278 555q0 -198 130 -312l266 709q-28 2 -47 2q-157 0 -253 -108t-96 -291z" />
    <glyph glyph-name="sterling" unicode="&#xa3;" horiz-adv-x="1378" 
d="M300 2q-36 0 -61 25.5t-25 60.5q0 9 2 23q2 6 2 9q105 242 111 498h-108q-36 0 -61 26t-25 61q0 36 25 61t61 25h88l-44 132q-51 153 -51 244q0 166 115 281t282 115h135q166 0 281 -115q69 -62 69 -116q0 -36 -25.5 -61t-61.5 -25q-42 0 -66 32q-74 110 -197 110h-135
q-93 0 -159 -62t-66 -159q0 -55 13 -104q7 -32 47 -149q5 -16 18.5 -57.5t21.5 -65.5h280q36 0 61.5 -25t25.5 -61q0 -35 -25.5 -61t-61.5 -26h-263q-3 -221 -76 -443h571q13 28 28 51q16 29 29 58q19 44 76 44q36 0 61.5 -25t25.5 -61q0 -23 -9 -39l-75 -150
q-9 -23 -31 -37t-49 -14h-754z" />
    <glyph glyph-name="currency" unicode="&#xa4;" horiz-adv-x="997" 
d="M186 336q-39 0 -66 27.5t-27 66.5q0 36 28 64l72 70q-46 83 -46.5 173.5t43.5 175.5l-69 73q-28 28 -28 66q0 39 27 65.5t66 26.5q35 0 63 -23l71 -77q88 47 177.5 46.5t171.5 -43.5l74 74q39 23 65 23q39 0 65.5 -26.5t26.5 -65.5q0 -41 -28 -69l-72 -67q94 -173 3 -347
l69 -73q28 -28 28 -66q0 -39 -26.5 -66.5t-65.5 -27.5q-28 0 -64 24l-72 76q-79 -46 -171 -46t-176 45l-79 -77q-29 -22 -60 -22zM333 741q0 -72 48 -119.5t116 -47.5q71 0 117 47.5t46 119.5q0 73 -47.5 119t-115.5 46q-69 0 -116.5 -46t-47.5 -119z" />
    <glyph glyph-name="yen" unicode="&#xa5;" horiz-adv-x="1300" 
d="M650 2q-36 0 -61 25t-25 61v246h-219q-35 0 -58 23t-23 58q0 34 23 57t58 23h219v69h-219q-35 0 -58 23t-23 58t23 58t58 23h130l-437 699q-28 49 -5 91.5t74 42.5q41 0 69 -35l474 -772l465 757q30 50 80 50q51 0 73.5 -44t-6.5 -90l-437 -699h130q35 0 58 -23t23 -58
t-23 -58t-58 -23h-218v-69h218q35 0 58 -22.5t23 -57.5t-23 -58t-58 -23h-218v-246q0 -36 -25.5 -61t-61.5 -25z" />
    <glyph glyph-name="brokenbar" unicode="&#xa6;" horiz-adv-x="520" 
d="M252 858q-36 0 -61 25.5t-25 61.5v699q0 36 25 62t61 26t62 -26t26 -62v-699q0 -36 -26 -61.5t-62 -25.5zM166 -361v684q0 36 25 61t61 25t62 -25t26 -61v-684q0 -36 -26 -61t-62 -25t-61 25t-25 61z" />
    <glyph glyph-name="section" unicode="&#xa7;" horiz-adv-x="965" 
d="M479 -447q-167 0 -282 113t-115 278q0 36 25 61.5t61 25.5t61.5 -25.5t25.5 -61.5q0 -95 64.5 -157t159.5 -62t160 62.5t65 156.5t-64.5 156.5t-160.5 62.5q-167 0 -282 113.5t-115 278.5q0 90 38 170t109 137q-147 116 -147 305q0 165 115 278.5t282 113.5t282.5 -113.5
t115.5 -278.5q0 -36 -25.5 -61t-61.5 -25t-61 25t-25 61q0 95 -64.5 157t-160.5 62q-97 0 -160.5 -63t-63.5 -156q0 -95 64 -157.5t160 -62.5q168 0 283 -113t115 -279q0 -90 -37.5 -170t-108.5 -135q71 -56 108.5 -136.5t37.5 -169.5q0 -165 -115.5 -278t-282.5 -113z
M255 555q0 -94 62 -156.5t162 -62.5q97 0 161 62.5t64 156.5q0 95 -64.5 158t-160.5 63q-92 0 -158 -62t-66 -159z" />
    <glyph glyph-name="dieresis" unicode="&#xa8;" horiz-adv-x="972" 
d="M711 1206q-53 0 -91 37.5t-38 90.5q0 52 38 89.5t91 37.5q54 0 90.5 -37t36.5 -90q0 -54 -36.5 -91t-90.5 -37zM198 1334q0 52 38 89.5t91 37.5q54 0 90.5 -37t36.5 -90q0 -54 -36.5 -91t-90.5 -37q-53 0 -91 37.5t-38 90.5z" />
    <glyph glyph-name="copyright" unicode="&#xa9;" horiz-adv-x="1865" 
d="M932 2q-161 0 -305.5 60.5t-248.5 164t-165 248.5t-61 308q0 158 61.5 302.5t166 249t249 166.5t303.5 62q156 0 300 -61.5t249 -165.5t167.5 -249t62.5 -304q0 -163 -61 -308t-165 -248.5t-248 -164t-305 -60.5zM317 783q0 -128 47.5 -242.5t129 -196t196 -129.5
t242.5 -48q170 0 312 82.5t223 224t81 309.5q0 128 -48 242.5t-129.5 196t-196 129t-242.5 47.5q-168 0 -309 -81t-223.5 -223t-82.5 -311zM436 783q0 224 135.5 370.5t342.5 146.5q244 0 390 -184q25 -35 18 -69t-40 -57q-28 -20 -62 -14.5t-57 33.5q-98 114 -249 114
q-133 0 -213 -92t-80 -248q0 -153 87 -246t233 -93q132 0 213 72q27 25 61 26.5t61 -22.5q28 -27 29 -63t-28 -63q-132 -125 -336 -125q-218 0 -361.5 146.5t-143.5 367.5z" />
    <glyph glyph-name="ordfeminine" unicode="&#xaa;" horiz-adv-x="908" 
d="M456 778q-174 0 -288.5 114t-114.5 287q0 174 114 287.5t287 113.5q130 0 233 -68v-27q0 37 22.5 62t63.5 25q35 0 59 -25.5t24 -61.5v-619q0 -36 -24 -61t-59 -25q-41 0 -63.5 24.5t-22.5 61.5v-4q-103 -84 -231 -84zM222 1179q0 -102 65 -167t167 -65q104 0 168.5 64.5
t64.5 167.5q0 104 -64 168t-167 64q-105 0 -169.5 -64t-64.5 -168z" />
    <glyph glyph-name="guillemotleft" unicode="&#xab;" horiz-adv-x="1104" 
d="M857 2q-52 0 -80 52l-227 455q-12 18 -12 46q0 22 9 40l230 461q28 52 80 52q39 0 63.5 -25t24.5 -62q0 -21 -9 -37l-214 -429l213 -427q10 -17 10 -40q0 -37 -24.5 -61.5t-63.5 -24.5zM141 555q0 24 8 40l231 461q28 52 79 52q36 0 62.5 -25.5t26.5 -61.5q0 -21 -9 -37
l-214 -429l213 -427q10 -17 10 -40q0 -36 -26.5 -61t-62.5 -25q-51 0 -79 52l-229 456q-10 21 -10 45z" />
    <glyph glyph-name="logicalnot" unicode="&#xac;" horiz-adv-x="1150" 
d="M965 470q-36 0 -61 25.5t-25 61.5v224h-691q-36 0 -61.5 26.5t-25.5 62.5t25.5 61t61.5 25h777q36 0 61.5 -25t25.5 -61v-313q0 -36 -25.5 -61.5t-61.5 -25.5z" />
    <glyph glyph-name="uni00AD" unicode="&#xad;" horiz-adv-x="934" 
d="M234 468q-36 0 -61.5 25.5t-25.5 61.5q0 39 25 63.5t62 24.5h466q37 0 63 -24.5t26 -63.5q0 -36 -26.5 -61.5t-62.5 -25.5h-466z" />
    <glyph glyph-name="registered" unicode="&#xae;" horiz-adv-x="1737" 
d="M867 2q-161 0 -305 60.5t-248 164t-165 248.5t-61 308q0 158 61.5 302.5t165.5 249t248.5 166.5t303.5 62q157 0 301 -61.5t249 -165.5t167.5 -249t62.5 -304q0 -163 -61 -308t-165 -248.5t-248.5 -164t-305.5 -60.5zM253 783q0 -128 47.5 -242.5t129 -196t195.5 -129.5
t242 -48q170 0 312.5 82.5t223.5 224t81 309.5q0 128 -48 242.5t-130 196t-196.5 129t-242.5 47.5q-125 0 -239 -48t-196 -130t-130.5 -196t-48.5 -241zM554 371v854q0 39 24 62.5t61 23.5h234q155 0 252 -91t97 -237q0 -94 -49.5 -169.5t-132.5 -117.5l178 -279
q32 -51 12 -92t-77 -41q-46 0 -73 42l-210 333h-147v-288q0 -36 -24 -61.5t-60 -25.5t-60.5 25.5t-24.5 61.5zM723 820h150q182 0 182 165q0 81 -48 123t-134 42h-150v-330z" />
    <glyph glyph-name="macron" unicode="&#xaf;" horiz-adv-x="1126" 
d="M307 1213q-36 0 -61.5 25.5t-25.5 61.5t25.5 62t61.5 26h509q36 0 61 -26t25 -62t-25 -61.5t-61 -25.5h-509z" />
    <glyph glyph-name="degree" unicode="&#xb0;" horiz-adv-x="965" 
d="M479 780q-167 0 -282 116t-115 283t115 282t282 115q169 0 283.5 -114.5t114.5 -282.5t-115 -283.5t-283 -115.5zM255 1179q0 -97 64 -161t160 -64q97 0 161 64t64 161q0 96 -64.5 159.5t-160.5 63.5q-92 0 -158 -63t-66 -160z" />
    <glyph glyph-name="plusminus" unicode="&#xb1;" 
d="M292 288q-36 0 -61 25t-25 61q0 39 24.5 64t61.5 25h302v269h-302q-36 0 -61 25t-25 61t25 61t61 25h302v304q0 36 25 61t61 25q39 0 64 -24.5t25 -61.5v-304h301q36 0 61 -25t25 -61t-25 -61t-61 -25h-301v-269h301q37 0 61.5 -25t24.5 -64q0 -36 -25 -61t-61 -25h-778z
" />
    <glyph glyph-name="uni00B2" unicode="&#xb2;" horiz-adv-x="679" 
d="M155 743q-39 0 -64.5 25.5t-25.5 64.5q0 40 23 65l314 350q27 31 27 69q0 46 -28 73t-73 27q-56 0 -88.5 -29.5t-32.5 -78.5q0 -40 -21.5 -65t-59.5 -25q-34 0 -56.5 25.5t-22.5 64.5q0 114 81.5 190.5t202.5 76.5q114 0 189 -73.5t75 -183.5q0 -32 -8.5 -60.5t-28.5 -57
t-31 -41.5t-36 -41l-198 -215h234q40 0 65.5 -22.5t25.5 -59.5t-25 -58t-66 -21h-372z" />
    <glyph glyph-name="uni00B3" unicode="&#xb3;" horiz-adv-x="621" 
d="M310 732q-119 0 -199.5 74.5t-80.5 186.5q0 39 22.5 64.5t61.5 25.5q36 0 54 -25t18 -65q0 -48 34 -77t88 -29q48 0 76 26t28 70q0 50 -22.5 79t-61.5 29h-38q-48 0 -72 22t-24 56q0 40 23 61.5t64 21.5h37q42 0 58.5 18.5t16.5 65.5q0 40 -21 59.5t-71 19.5
q-55 0 -80 -20.5t-32 -62.5q-2 -30 -24.5 -52t-48.5 -22q-36 0 -60 23t-24 59q0 102 75.5 168t189.5 66q110 0 184.5 -67t74.5 -169q0 -45 -21.5 -90t-56.5 -75q97 -65 97 -188q0 -112 -77 -182.5t-188 -70.5z" />
    <glyph glyph-name="acute" unicode="&#xb4;" horiz-adv-x="589" 
d="M172 1150q-36 0 -62 26t-26 62q0 34 21 58l237 237q26 26 62 26q37 0 63 -24.5t26 -63.5q0 -33 -26 -61l-236 -236q-26 -24 -59 -24z" />
    <glyph glyph-name="uni00B5" unicode="&#xb5;" horiz-adv-x="1349" 
d="M251 -447q-36 0 -61 25t-25 61v1384q0 39 25 63t61 24q39 0 62.5 -24t23.5 -63v-516q0 -158 95 -252t247 -94q154 0 245 76.5t91 198.5v587q0 39 25 63t62 24q38 0 62 -24t24 -63v-935q0 -36 -23.5 -61t-62.5 -25q-36 0 -61.5 25t-25.5 61v30q-132 -130 -336 -130
q-216 0 -342 140v-489q0 -37 -23.5 -61.5t-62.5 -24.5z" />
    <glyph glyph-name="paragraph" unicode="&#xb6;" horiz-adv-x="1130" 
d="M564 2q-36 0 -61.5 25t-25.5 61v677q-171 10 -279 122t-108 275q0 167 115 283t282 116h467q36 0 61 -24.5t25 -63.5q0 -29 -21 -52.5t-56 -31.5v-1301q0 -36 -25 -61t-61 -25t-62.5 25t-26.5 61v1298h-136v-1298q0 -37 -24.5 -61.5t-63.5 -24.5z" />
    <glyph glyph-name="periodcentered" unicode="&#xb7;" horiz-adv-x="624" 
d="M313 624q-52 0 -89 36.5t-37 90.5q0 52 36.5 88.5t89.5 36.5t89 -37t36 -88q0 -53 -36.5 -90t-88.5 -37z" />
    <glyph glyph-name="cedilla" unicode="&#xb8;" horiz-adv-x="665" 
d="M318 -444q-102 0 -172 46.5t-70 109.5q0 36 25.5 62t61.5 26q35 0 54 -18l30 -24q15 -11 21 -15t19.5 -8t30.5 -4q85 0 85 50q0 28 -17 41t-72 29q-50 15 -72 42.5t1 84.5l39 93q21 61 94 61q44 0 67 -34.5t6 -77.5l-18 -41q89 -32 124.5 -79.5t35.5 -114.5
q0 -95 -80 -162t-193 -67z" />
    <glyph glyph-name="uni00B9" unicode="&#xb9;" horiz-adv-x="798" 
d="M445 743q-39 0 -62 23.5t-23 62.5l2 535l-127 -42q-37 -12 -68 -0.5t-45 43.5q-11 34 4.5 63.5t49.5 40.5l205 75q34 11 66.5 13.5t56 -20t23.5 -68.5v-641q-3 -85 -82 -85z" />
    <glyph glyph-name="ordmasculine" unicode="&#xba;" horiz-adv-x="908" 
d="M456 778q-174 0 -288.5 114t-114.5 287q0 174 114 287.5t287 113.5q175 0 288.5 -113.5t113.5 -287.5q0 -173 -114 -287t-286 -114zM222 1179q0 -102 65 -167t167 -65q104 0 168.5 64.5t64.5 167.5q0 104 -64 168t-167 64q-105 0 -169.5 -64t-64.5 -168z" />
    <glyph glyph-name="guillemotright" unicode="&#xbb;" horiz-adv-x="1105" 
d="M637 2q-36 0 -61 25t-25 61q0 15 5 35l215 432l-215 432q-5 20 -5 34q0 36 25 61.5t61 25.5q50 0 80 -52l230 -459q11 -19 11 -42q0 -17 -13 -45l-228 -456q-16 -28 -34 -40t-46 -12zM153 88q0 11 6 35l215 432l-215 432q-6 24 -6 34q0 36 25 61.5t61 25.5q52 0 80 -52
l231 -459q10 -20 10 -42q0 -16 -12 -45l-229 -456q-28 -52 -80 -52q-36 0 -61 25t-25 61z" />
    <glyph glyph-name="questiondown" unicode="&#xbf;" horiz-adv-x="1123" 
d="M572 -336q-208 0 -342.5 129t-134.5 326q0 115 45 195q21 38 52.5 77t56 63.5t70.5 68.5q44 42 69 67q95 96 95 243q0 39 26 64t63 25q39 0 62.5 -25t23.5 -64q0 -85 -38.5 -178.5t-99.5 -156.5q-56 -56 -123 -118q-64 -59 -96.5 -121t-32.5 -151q0 -124 85 -197.5
t219 -73.5q139 0 220 83.5t81 217.5q0 36 25 60.5t61 24.5q39 0 64 -24.5t25 -60.5q0 -209 -133.5 -341.5t-342.5 -132.5zM445 1125q0 54 37 90.5t90 36.5t88.5 -37t35.5 -90q0 -52 -35 -88.5t-88 -36.5q-54 0 -91 35.5t-37 89.5z" />
    <glyph glyph-name="Agrave" unicode="&#xc0;" horiz-adv-x="1439" 
d="M132 2q-51 0 -74.5 42t-3.5 82l581 1375q25 58 82 58q58 0 83 -58l583 -1375q22 -42 -3.5 -83t-74.5 -41q-59 0 -81 55l-176 423h-659l-177 -423q-21 -55 -80 -55zM349 2256q0 39 25.5 63.5t62.5 24.5q35 0 61 -26l236 -236q22 -22 22 -58t-25.5 -62.5t-61.5 -26.5
q-28 0 -59 22l-237 239q-24 22 -24 60zM457 641h522l-262 624z" />
    <glyph glyph-name="Aacute" unicode="&#xc1;" horiz-adv-x="1439" 
d="M132 2q-51 0 -74.5 42t-3.5 82l581 1375q25 58 82 58q58 0 83 -58l583 -1375q22 -42 -3.5 -83t-74.5 -41q-59 0 -81 55l-176 423h-659l-177 -423q-21 -55 -80 -55zM457 641h522l-262 624zM636 1986q0 34 21 58l237 237q26 26 62 26t62.5 -24.5t26.5 -63.5q0 -36 -26 -61
l-236 -236q-26 -24 -59 -24q-36 0 -62 26t-26 62z" />
    <glyph glyph-name="Acircumflex" unicode="&#xc2;" horiz-adv-x="1439" 
d="M132 2q-51 0 -74.5 42t-3.5 82l581 1375q25 58 82 58q58 0 83 -58l583 -1375q22 -42 -3.5 -83t-74.5 -41q-59 0 -81 55l-176 423h-659l-177 -423q-21 -55 -80 -55zM415 1993q0 50 44 76l232 155q21 13 45 13q26 0 45 -13l231 -155q44 -26 44 -76q0 -37 -24.5 -61.5
t-63.5 -24.5q-27 0 -52 15l-180 121l-180 -120q-23 -16 -51 -16q-36 0 -63 24.5t-27 61.5zM457 641h522l-262 624z" />
    <glyph glyph-name="Atilde" unicode="&#xc3;" horiz-adv-x="1439" 
d="M132 2q-51 0 -74.5 42t-3.5 82l581 1375q25 58 82 58q58 0 83 -58l583 -1375q22 -42 -3.5 -83t-74.5 -41q-59 0 -81 55l-176 423h-659l-177 -423q-21 -55 -80 -55zM426 1953q37 83 85.5 121t115.5 38q37 0 68.5 -11.5t47 -23t42.5 -35.5q33 -29 53 -39q10 -8 18 -8
q9 0 23 39q14 34 44.5 50t58.5 8q40 -11 55 -42t1 -68q-60 -146 -175 -146q-75 0 -159 72q-29 29 -43.5 38.5t-31.5 9.5q-12 0 -22.5 -13.5t-33.5 -53.5q-16 -30 -44 -42.5t-58 -4.5q-34 11 -47.5 43t2.5 68zM457 641h522l-262 624z" />
    <glyph glyph-name="Adieresis" unicode="&#xc4;" horiz-adv-x="1439" 
d="M132 2q-51 0 -74.5 42t-3.5 82l581 1375q25 58 82 58q58 0 83 -58l583 -1375q22 -42 -3.5 -83t-74.5 -41q-59 0 -81 55l-176 423h-659l-177 -423q-21 -55 -80 -55zM395 2049q0 52 37.5 89t90.5 37q54 0 90.5 -37t36.5 -89q0 -54 -36.5 -91.5t-90.5 -37.5q-53 0 -90.5 38
t-37.5 91zM457 641h522l-262 624zM779 2049q0 52 37.5 89t90.5 37q54 0 90.5 -37t36.5 -89q0 -54 -36.5 -91.5t-90.5 -37.5q-53 0 -90.5 38t-37.5 91z" />
    <glyph glyph-name="Aring" unicode="&#xc5;" horiz-adv-x="1439" 
d="M132 2q-51 0 -74.5 42t-3.5 82l581 1375q25 58 82 58q58 0 83 -58l583 -1375q22 -42 -3.5 -83t-74.5 -41q-59 0 -81 55l-176 423h-659l-177 -423q-21 -55 -80 -55zM457 641h522l-262 624zM503 2013q0 86 61 146t145 60q85 0 145 -60.5t60 -145.5q0 -83 -59.5 -144
t-145.5 -61q-82 0 -144 61.5t-62 143.5zM636 2013q0 -33 20 -53t53 -20q35 0 55 20t20 53q0 36 -19.5 55.5t-55.5 19.5q-33 0 -53 -20t-20 -55z" />
    <glyph glyph-name="AE" unicode="&#xc6;" horiz-adv-x="1896" 
d="M133 2q-51 0 -76 42.5t-1 83.5l803 1363q41 68 126 68h697q35 0 61 -25t26 -61q0 -35 -26.5 -61t-60.5 -26h-645v-518h488q36 0 61 -25.5t25 -61.5t-25 -62t-61 -26h-488v-518h645q34 0 60.5 -26.5t26.5 -60.5q0 -36 -26 -61t-61 -25h-731q-36 0 -61.5 25t-25.5 61v392
h-401l-251 -425q-21 -53 -79 -53zM558 641h306v521z" />
    <glyph glyph-name="Ccedilla" unicode="&#xc7;" horiz-adv-x="1540" 
d="M764 -506q-103 0 -172.5 46.5t-69.5 109.5q0 36 25 62t61 26q32 0 55 -18l30 -24q14 -11 20.5 -15t19.5 -8t31 -4q84 0 84 50q0 28 -16.5 41t-71.5 29q-50 14 -72.5 42t1.5 85l36 89q-170 41 -307 152t-216 275t-79 349q0 215 102.5 398t282.5 291t395 108
q279 0 492 -177q26 -21 28 -57t-22 -64t-64 -28q-29 0 -67 30q-134 123 -367 123q-124 0 -236.5 -50.5t-193.5 -134.5t-129 -199t-48 -240q0 -173 81 -316.5t220.5 -226t305.5 -82.5q217 0 379 133q26 18 56 16.5t54.5 -26.5t24.5 -62q0 -39 -22 -61q-173 -173 -492 -173h-3
q0 -11 -6 -25l-17 -42q89 -32 124 -79.5t35 -113.5q0 -95 -79.5 -162t-192.5 -67z" />
    <glyph glyph-name="Egrave" unicode="&#xc8;" horiz-adv-x="1423" 
d="M286 2q-36 0 -61.5 25t-25.5 61v1385q0 36 25.5 61t61.5 25h923q35 0 61 -25t26 -61q0 -35 -26 -61t-61 -26h-837v-518h685q36 0 61.5 -25.5t25.5 -61.5t-25.5 -62t-61.5 -26h-685v-518h837q35 0 61 -26.5t26 -60.5q0 -36 -26 -61t-61 -25h-923zM368 2256q0 39 26 63.5
t63 24.5q36 0 60 -26l236 -236q22 -20 22 -58q0 -36 -25 -62.5t-61 -26.5q-29 0 -60 22l-237 239q-24 24 -24 60z" />
    <glyph glyph-name="Eacute" unicode="&#xc9;" horiz-adv-x="1423" 
d="M286 2q-36 0 -61.5 25t-25.5 61v1385q0 36 25.5 61t61.5 25h923q35 0 61 -25t26 -61q0 -35 -26 -61t-61 -26h-837v-518h685q36 0 61.5 -25.5t25.5 -61.5t-25.5 -62t-61.5 -26h-685v-518h837q35 0 61 -26.5t26 -60.5q0 -36 -26 -61t-61 -25h-923zM655 1986q0 34 21 58
l237 237q28 26 63 26q36 0 62 -24.5t26 -63.5q0 -36 -26 -61l-236 -236q-24 -24 -58 -24q-36 0 -62.5 26t-26.5 62z" />
    <glyph glyph-name="Ecircumflex" unicode="&#xca;" horiz-adv-x="1423" 
d="M286 2q-36 0 -61.5 25t-25.5 61v1385q0 36 25.5 61t61.5 25h923q35 0 61 -25t26 -61q0 -35 -26 -61t-61 -26h-837v-518h685q36 0 61.5 -25.5t25.5 -61.5t-25.5 -62t-61.5 -26h-685v-518h837q35 0 61 -26.5t26 -60.5q0 -36 -26 -61t-61 -25h-923zM434 1993q0 49 45 76
l232 155q19 13 44 13q27 0 45 -13l232 -155q44 -27 44 -76q0 -37 -25 -61.5t-64 -24.5q-26 0 -51 15l-181 121l-179 -120q-25 -16 -51 -16q-36 0 -63.5 24.5t-27.5 61.5z" />
    <glyph glyph-name="Edieresis" unicode="&#xcb;" horiz-adv-x="1423" 
d="M286 2q-36 0 -61.5 25t-25.5 61v1385q0 36 25.5 61t61.5 25h923q35 0 61 -25t26 -61q0 -35 -26 -61t-61 -26h-837v-518h685q36 0 61.5 -25.5t25.5 -61.5t-25.5 -62t-61.5 -26h-685v-518h837q35 0 61 -26.5t26 -60.5q0 -36 -26 -61t-61 -25h-923zM414 2049q0 52 38 89
t91 37q54 0 90.5 -37t36.5 -89q0 -54 -36.5 -91.5t-90.5 -37.5q-53 0 -91 38t-38 91zM798 2049q0 52 38 89t91 37q54 0 90.5 -37t36.5 -89q0 -54 -36.5 -91.5t-90.5 -37.5q-53 0 -91 38t-38 91z" />
    <glyph glyph-name="Igrave" unicode="&#xcc;" horiz-adv-x="634" 
d="M350 2q-36 0 -61.5 25t-25.5 61v1385q0 36 25.5 61t61.5 25t61 -25t25 -61v-1385q0 -36 -25 -61t-61 -25zM-7 2256q0 39 26 63.5t63 24.5q36 0 60 -26l236 -236q23 -21 23 -58q0 -36 -25.5 -62.5t-61.5 -26.5q-28 0 -59 22l-238 239q-24 24 -24 60z" />
    <glyph glyph-name="Iacute" unicode="&#xcd;" horiz-adv-x="619" 
d="M286 2q-36 0 -61.5 25t-25.5 61v1385q0 36 25.5 61t61.5 25t61 -25t25 -61v-1385q0 -36 -25 -61t-61 -25zM208 1986q0 34 21 58l237 237q26 26 63 26q36 0 62 -24.5t26 -63.5q0 -36 -26 -61l-236 -236q-26 -24 -59 -24q-36 0 -62 26t-26 62z" />
    <glyph glyph-name="Icircumflex" unicode="&#xce;" horiz-adv-x="557" 
d="M276 2q-36 0 -61.5 25t-25.5 61v1385q0 36 25.5 61t61.5 25t61 -25t25 -61v-1385q0 -36 -25 -61t-61 -25zM-42 1993q0 50 44 76l232 155q21 13 45 13q25 0 45 -13l231 -155q44 -26 44 -76q0 -37 -24.5 -61.5t-63.5 -24.5q-27 0 -52 15l-180 121l-180 -120
q-23 -16 -51 -16q-36 0 -63 24.5t-27 61.5z" />
    <glyph glyph-name="Idieresis" unicode="&#xcf;" horiz-adv-x="662" 
d="M315 2q-36 0 -61 25t-25 61v1385q0 36 25 61t61 25t61 -25t25 -61v-1385q0 -36 -25 -61t-61 -25zM12 2049q0 52 37.5 89t90.5 37q54 0 90.5 -37t36.5 -89q0 -54 -36.5 -91.5t-90.5 -37.5q-53 0 -90.5 38t-37.5 91zM396 2049q0 52 37.5 89t90.5 37q54 0 90.5 -37t36.5 -89
q0 -54 -36.5 -91.5t-90.5 -37.5q-53 0 -90.5 38t-37.5 91z" />
    <glyph glyph-name="Eth" unicode="&#xd0;" horiz-adv-x="1533" 
d="M285 2q-36 0 -61 25t-25 61v613h-111q-35 0 -58 22.5t-23 57.5t23 58t58 23h111v611q0 39 25 62.5t61 23.5h346q226 0 403.5 -98.5t276.5 -276t99 -403.5q0 -170 -57.5 -315t-159.5 -247t-247 -159.5t-315 -57.5h-346zM372 163h259q271 0 439 172t168 446t-168 445.5
t-439 171.5h-259v-536h288q35 0 57.5 -23t22.5 -58t-23 -57.5t-57 -22.5h-288v-538z" />
    <glyph glyph-name="Eth" unicode="&#xf0;" horiz-adv-x="1533" 
d="M285 2q-36 0 -61 25t-25 61v613h-111q-35 0 -58 22.5t-23 57.5t23 58t58 23h111v611q0 39 25 62.5t61 23.5h346q226 0 403.5 -98.5t276.5 -276t99 -403.5q0 -170 -57.5 -315t-159.5 -247t-247 -159.5t-315 -57.5h-346zM372 163h259q271 0 439 172t168 446t-168 445.5
t-439 171.5h-259v-536h288q35 0 57.5 -23t22.5 -58t-23 -57.5t-57 -22.5h-288v-538z" />
    <glyph glyph-name="Ntilde" unicode="&#xd1;" horiz-adv-x="1647" 
d="M286 2q-36 0 -61.5 25t-25.5 61v1385q0 36 25.5 61t61.5 25q44 0 67 -31l923 -1202v1147q0 36 25.5 61t61.5 25q35 0 60.5 -25t25.5 -61v-1385q0 -36 -25.5 -61t-60.5 -25q-38 0 -65 27l-926 1206v-1147q0 -36 -25 -61t-61 -25zM521 1953q37 83 85.5 121t115.5 38
q37 0 68 -11.5t47.5 -23.5t42.5 -35q34 -30 54 -39q9 -8 17 -8q9 0 23 39q15 34 45 50t59 8q39 -11 54.5 -42.5t0.5 -67.5q-60 -146 -174 -146q-76 0 -160 72q-29 29 -43.5 38.5t-31.5 9.5q-12 0 -22.5 -13.5t-32.5 -53.5q-16 -30 -44.5 -42.5t-58.5 -4.5q-33 12 -46.5 43.5
t1.5 67.5z" />
    <glyph glyph-name="Ograve" unicode="&#xd2;" horiz-adv-x="1842" 
d="M922 -17q-226 0 -409 103.5t-286.5 286t-103.5 408.5t103.5 408.5t286 285.5t409.5 103q226 0 408.5 -103t285.5 -285.5t103 -408.5t-103 -408.5t-285.5 -286t-408.5 -103.5zM296 781q0 -180 80 -322.5t223 -222.5t323 -80q272 0 448 176t176 449q0 133 -47 249
t-129.5 198.5t-198.5 129.5t-249 47q-180 0 -323 -80t-223 -222.5t-80 -321.5zM608 2256q0 39 25.5 63.5t62.5 24.5t61 -26l236 -236q22 -22 22 -58t-25 -62.5t-61 -26.5q-29 0 -60 22l-237 239q-24 24 -24 60z" />
    <glyph glyph-name="Oacute" unicode="&#xd3;" horiz-adv-x="1842" 
d="M922 -17q-226 0 -409 103.5t-286.5 286t-103.5 408.5t103.5 408.5t286 285.5t409.5 103q226 0 408.5 -103t285.5 -285.5t103 -408.5t-103 -408.5t-285.5 -286t-408.5 -103.5zM296 781q0 -180 80 -322.5t223 -222.5t323 -80q272 0 448 176t176 449q0 133 -47 249
t-129.5 198.5t-198.5 129.5t-249 47q-180 0 -323 -80t-223 -222.5t-80 -321.5zM849 1986q0 34 21 58l237 237q28 26 63 26q36 0 62 -24.5t26 -63.5q0 -36 -26 -61l-236 -236q-24 -24 -59 -24q-36 0 -62 26t-26 62z" />
    <glyph glyph-name="Ocircumflex" unicode="&#xd4;" horiz-adv-x="1842" 
d="M922 -17q-226 0 -409 103.5t-286.5 286t-103.5 408.5t103.5 408.5t286 285.5t409.5 103q226 0 408.5 -103t285.5 -285.5t103 -408.5t-103 -408.5t-285.5 -286t-408.5 -103.5zM296 781q0 -180 80 -322.5t223 -222.5t323 -80q272 0 448 176t176 449q0 133 -47 249
t-129.5 198.5t-198.5 129.5t-249 47q-180 0 -323 -80t-223 -222.5t-80 -321.5zM592 1981q0 50 44 76l232 156q22 12 44 12q25 0 46 -12l231 -156q44 -26 44 -76q0 -37 -24.5 -61.5t-63.5 -24.5q-25 0 -52 15l-181 121l-179 -120q-26 -16 -51 -16q-36 0 -63 25t-27 61z" />
    <glyph glyph-name="Otilde" unicode="&#xd5;" horiz-adv-x="1842" 
d="M922 -17q-226 0 -409 103.5t-286.5 286t-103.5 408.5t103.5 408.5t286 285.5t409.5 103q226 0 408.5 -103t285.5 -285.5t103 -408.5t-103 -408.5t-285.5 -286t-408.5 -103.5zM296 781q0 -180 80 -322.5t223 -222.5t323 -80q272 0 448 176t176 449q0 133 -47 249
t-129.5 198.5t-198.5 129.5t-249 47q-180 0 -323 -80t-223 -222.5t-80 -321.5zM629 1953q70 159 202 159q37 0 68 -11.5t47 -23t42 -35.5q32 -28 54 -39q10 -8 17 -8q10 0 23 39q14 34 45 50t59 8q40 -11 55 -42t1 -68q-62 -146 -175 -146q-78 0 -159 72q-30 30 -44 39
t-31 9q-12 0 -22.5 -13t-33.5 -54q-16 -30 -44.5 -42.5t-58.5 -4.5q-33 12 -46.5 43.5t1.5 67.5z" />
    <glyph glyph-name="Odieresis" unicode="&#xd6;" horiz-adv-x="1842" 
d="M922 -17q-226 0 -409 103.5t-286.5 286t-103.5 408.5t103.5 408.5t286 285.5t409.5 103q226 0 408.5 -103t285.5 -285.5t103 -408.5t-103 -408.5t-285.5 -286t-408.5 -103.5zM296 781q0 -180 80 -322.5t223 -222.5t323 -80q272 0 448 176t176 449q0 133 -47 249
t-129.5 198.5t-198.5 129.5t-249 47q-180 0 -323 -80t-223 -222.5t-80 -321.5zM611 2049q0 52 38 89t91 37t89.5 -37t36.5 -89q0 -54 -36 -91.5t-90 -37.5q-53 0 -91 38t-38 91zM995 2049q0 52 38 89t91 37t89.5 -37t36.5 -89q0 -54 -36 -91.5t-90 -37.5q-53 0 -91 38
t-38 91z" />
    <glyph glyph-name="multiply" unicode="&#xd7;" horiz-adv-x="1202" 
d="M289 313q-36 0 -61 25t-25 61q0 39 22 63l250 248l-250 251q-25 25 -22 59q1 38 24.5 64t61.5 26q37 0 63 -26l249 -249l248 249q26 26 63 26q36 0 61 -25.5t25 -61.5q0 -40 -24 -62l-250 -251l252 -249q22 -31 22 -62q0 -36 -25 -61t-61 -25t-60 21l-251 253l-251 -252
q-22 -22 -61 -22z" />
    <glyph glyph-name="Oslash" unicode="&#xd8;" horiz-adv-x="1846" 
d="M926 -17q-302 0 -519 177l-135 -134q-24 -24 -60 -24q-29 0 -51.5 16t-31.5 38.5t-5 48.5t23 44l139 139q-159 209 -159 493q0 226 103.5 408.5t286 285.5t409.5 103q292 0 509 -171l129 128q26 24 61 24q36 0 62.5 -24.5t28 -56.5t-26.5 -64l-131 -131
q165 -216 165 -502q0 -226 -103 -408.5t-285.5 -286t-408.5 -103.5zM300 781q0 -218 118 -377l883 883q-162 118 -375 118q-180 0 -323 -80t-223 -222.5t-80 -321.5zM541 279q166 -123 385 -123q272 0 448 176t176 449q0 218 -124 383z" />
    <glyph glyph-name="Ugrave" unicode="&#xd9;" horiz-adv-x="1610" 
d="M804 -29q-266 0 -435.5 153.5t-169.5 395.5v953q0 39 25.5 62.5t61.5 23.5q38 0 62 -24t24 -62v-953q0 -170 118.5 -273t313.5 -103q196 0 315 103t119 273v953q0 39 25 62.5t61 23.5q39 0 63 -24t24 -62v-953q0 -159 -77.5 -284.5t-216 -195t-313.5 -69.5zM505 2256
q0 39 26 63.5t63 24.5q36 0 60 -26l236 -236q23 -21 23 -58q0 -36 -25.5 -62.5t-61.5 -26.5q-28 0 -59 22l-238 239q-24 24 -24 60z" />
    <glyph glyph-name="Uacute" unicode="&#xda;" horiz-adv-x="1610" 
d="M804 -29q-266 0 -435.5 153.5t-169.5 395.5v953q0 39 25.5 62.5t61.5 23.5q38 0 62 -24t24 -62v-953q0 -170 118.5 -273t313.5 -103q196 0 315 103t119 273v953q0 39 25 62.5t61 23.5q39 0 63 -24t24 -62v-953q0 -159 -77.5 -284.5t-216 -195t-313.5 -69.5zM681 1986
q0 34 21 58l237 237q28 26 63 26q36 0 62 -24.5t26 -63.5q0 -36 -26 -61l-236 -236q-24 -24 -59 -24q-36 0 -62 26t-26 62z" />
    <glyph glyph-name="Ucircumflex" unicode="&#xdb;" horiz-adv-x="1610" 
d="M804 -29q-266 0 -435.5 153.5t-169.5 395.5v953q0 39 25.5 62.5t61.5 23.5q38 0 62 -24t24 -62v-953q0 -170 118.5 -273t313.5 -103q196 0 315 103t119 273v953q0 39 25 62.5t61 23.5q39 0 63 -24t24 -62v-953q0 -159 -77.5 -284.5t-216 -195t-313.5 -69.5zM460 1993
q0 49 45 76l232 155q19 13 44 13q27 0 45 -13l231 -155q45 -27 45 -76q0 -37 -25 -61.5t-64 -24.5q-26 0 -52 15l-180 121l-180 -120q-23 -16 -50 -16q-36 0 -63.5 24.5t-27.5 61.5z" />
    <glyph glyph-name="Udieresis" unicode="&#xdc;" horiz-adv-x="1610" 
d="M804 -29q-266 0 -435.5 153.5t-169.5 395.5v953q0 39 25.5 62.5t61.5 23.5q38 0 62 -24t24 -62v-953q0 -170 118.5 -273t313.5 -103q196 0 315 103t119 273v953q0 39 25 62.5t61 23.5q39 0 63 -24t24 -62v-953q0 -159 -77.5 -284.5t-216 -195t-313.5 -69.5zM440 2049
q0 52 38 89t91 37q54 0 90.5 -37t36.5 -89q0 -54 -36.5 -91.5t-90.5 -37.5q-53 0 -91 38t-38 91zM824 2049q0 52 38 89t91 37q54 0 90.5 -37t36.5 -89q0 -54 -36.5 -91.5t-90.5 -37.5q-53 0 -91 38t-38 91z" />
    <glyph glyph-name="Yacute" unicode="&#xdd;" horiz-adv-x="1351" 
d="M675 2q-36 0 -61 25t-25 61v495l-526 842q-28 49 -5 91.5t74 42.5q41 0 69 -35l474 -772l465 757q30 50 80 50q51 0 73.5 -44t-6.5 -90l-525 -842v-495q0 -36 -25.5 -61t-61.5 -25zM631 1986q0 34 21 58l237 237q28 26 63 26q36 0 62 -24.5t26 -63.5q0 -36 -26 -61
l-236 -236q-26 -24 -59 -24q-36 0 -62 26t-26 62z" />
    <glyph glyph-name="germandbls" unicode="&#xdf;" horiz-adv-x="1253" 
d="M733 -10q-119 0 -219 52.5t-100 124.5q0 36 22 59.5t53 23.5q34 0 88 -36q23 -17 38 -25.5t47 -17t71 -8.5q110 0 164.5 39.5t54.5 127.5q0 86 -96 177q-7 6 -35.5 30.5t-37.5 33t-33 31.5t-33.5 35.5t-26 34.5t-23 39.5t-12.5 40t-6 45.5q0 18 3.5 36.5t7.5 32.5
t12.5 30t14.5 25.5t17 22.5t15.5 18.5t15 16.5t11.5 12l9.5 9.5t11.5 12t11.5 12.5t12 14.5t11 16t11 18.5t8.5 19.5t7.5 21.5t4.5 23t2 26q0 201 -219 201q-109 0 -176.5 -67t-67.5 -177v-1035q0 -35 -24.5 -59.5t-63.5 -24.5q-35 0 -60 25t-25 59v1054q0 171 117 284.5
t304 113.5q170 0 279 -100t109 -259q0 -57 -21 -109.5t-39.5 -76.5t-55.5 -66q-26 -29 -38 -44t-22.5 -38t-10.5 -46q0 -30 23.5 -59.5t74.5 -72.5q43 -38 58 -52.5t51.5 -54.5t52 -68t30 -72.5t14.5 -89.5q0 -143 -112 -241.5t-280 -98.5z" />
    <glyph glyph-name="agrave" unicode="&#xe0;" horiz-adv-x="1409" 
d="M675 -10q-244 0 -405 160.5t-161 404.5q0 161 73 290.5t202.5 202.5t290.5 73q235 0 392 -148v64q0 37 24.5 61.5t63.5 24.5q36 0 60.5 -25t24.5 -61v-949q0 -36 -24.5 -61t-60.5 -25q-39 0 -63.5 24.5t-24.5 61.5v64q-70 -77 -171.5 -119.5t-220.5 -42.5zM282 555
q0 -175 110.5 -287t282.5 -112q174 0 283 111.5t109 287.5q0 177 -109 289t-283 112q-172 0 -282.5 -112t-110.5 -289zM322 1822q0 39 25.5 63.5t62.5 24.5q35 0 61 -26l236 -236q22 -22 22 -58t-25 -62.5t-61 -26.5q-29 0 -60 23l-237 238q-24 24 -24 60z" />
    <glyph glyph-name="aacute" unicode="&#xe1;" horiz-adv-x="1409" 
d="M675 -10q-244 0 -405 160.5t-161 404.5q0 161 73 290.5t202.5 202.5t290.5 73q235 0 392 -148v64q0 37 24.5 61.5t63.5 24.5q36 0 60.5 -25t24.5 -61v-949q0 -36 -24.5 -61t-60.5 -25q-39 0 -63.5 24.5t-24.5 61.5v64q-70 -77 -171.5 -119.5t-220.5 -42.5zM282 555
q0 -175 110.5 -287t282.5 -112q174 0 283 111.5t109 287.5q0 177 -109 289t-283 112q-172 0 -282.5 -112t-110.5 -289zM586 1609q0 33 21 58l237 237q28 26 63 26q36 0 62 -25t26 -64q0 -35 -26 -60l-236 -236q-24 -24 -59 -24q-36 0 -62 26t-26 62z" />
    <glyph glyph-name="acircumflex" unicode="&#xe2;" horiz-adv-x="1409" 
d="M675 -10q-244 0 -405 160.5t-161 404.5q0 161 73 290.5t202.5 202.5t290.5 73q235 0 392 -148v64q0 37 24.5 61.5t63.5 24.5q36 0 60.5 -25t24.5 -61v-949q0 -36 -24.5 -61t-60.5 -25q-39 0 -63.5 24.5t-24.5 61.5v64q-70 -77 -171.5 -119.5t-220.5 -42.5zM282 555
q0 -175 110.5 -287t282.5 -112q174 0 283 111.5t109 287.5q0 177 -109 289t-283 112q-172 0 -282.5 -112t-110.5 -289zM352 1588q0 48 44 76l232 155q21 13 44 13q27 0 45 -13l232 -155q44 -28 44 -76q0 -37 -25 -62t-63 -25q-26 0 -52 16l-181 121l-179 -120
q-25 -17 -51 -17q-36 0 -63 25t-27 62z" />
    <glyph glyph-name="atilde" unicode="&#xe3;" horiz-adv-x="1409" 
d="M675 -10q-244 0 -405 160.5t-161 404.5q0 161 73 290.5t202.5 202.5t290.5 73q235 0 392 -148v64q0 37 24.5 61.5t63.5 24.5q36 0 60.5 -25t24.5 -61v-949q0 -36 -24.5 -61t-60.5 -25q-39 0 -63.5 24.5t-24.5 61.5v64q-70 -77 -171.5 -119.5t-220.5 -42.5zM282 555
q0 -175 110.5 -287t282.5 -112q174 0 283 111.5t109 287.5q0 177 -109 289t-283 112q-172 0 -282.5 -112t-110.5 -289zM288 1642q54 66 123.5 103t141.5 37q93 0 189 -68q4 -3 15.5 -10.5t14.5 -9t12 -7t12 -7t10 -4.5t12 -3.5t11.5 -1.5t13.5 -1q56 0 85 33q23 27 54 34.5
t55 -6.5q39 -19 48 -53.5t-15 -66.5q-86 -110 -227 -110q-40 0 -82.5 14.5t-60 24.5t-54.5 33q-37 26 -53 33t-40 7q-66 0 -124 -67q-20 -28 -54.5 -34.5t-61.5 11.5q-32 19 -39 53t14 66z" />
    <glyph glyph-name="adieresis" unicode="&#xe4;" horiz-adv-x="1409" 
d="M675 -10q-244 0 -405 160.5t-161 404.5q0 161 73 290.5t202.5 202.5t290.5 73q235 0 392 -148v64q0 37 24.5 61.5t63.5 24.5q36 0 60.5 -25t24.5 -61v-949q0 -36 -24.5 -61t-60.5 -25q-39 0 -63.5 24.5t-24.5 61.5v64q-70 -77 -171.5 -119.5t-220.5 -42.5zM282 555
q0 -175 110.5 -287t282.5 -112q174 0 283 111.5t109 287.5q0 177 -109 289t-283 112q-172 0 -282.5 -112t-110.5 -289zM368 1630q0 52 38 89.5t91 37.5t89.5 -37.5t36.5 -89.5q0 -54 -36 -91.5t-90 -37.5q-53 0 -91 38t-38 91zM752 1630q0 52 38 89.5t91 37.5t89.5 -37.5
t36.5 -89.5q0 -54 -36 -91.5t-90 -37.5q-53 0 -91 38t-38 91z" />
    <glyph glyph-name="aring" unicode="&#xe5;" horiz-adv-x="1409" 
d="M675 -10q-244 0 -405 160.5t-161 404.5q0 161 73 290.5t202.5 202.5t290.5 73q235 0 392 -148v64q0 37 24.5 61.5t63.5 24.5q36 0 60.5 -25t24.5 -61v-949q0 -36 -24.5 -61t-60.5 -25q-39 0 -63.5 24.5t-24.5 61.5v64q-70 -77 -171.5 -119.5t-220.5 -42.5zM282 555
q0 -175 110.5 -287t282.5 -112q174 0 283 111.5t109 287.5q0 177 -109 289t-283 112q-172 0 -282.5 -112t-110.5 -289zM446 1687q0 86 61 145.5t144 59.5q85 0 145.5 -60t60.5 -145q0 -84 -60 -145t-146 -61q-82 0 -143.5 62t-61.5 144zM578 1687q0 -33 20 -53t53 -20
q35 0 55 20t20 53q0 36 -19.5 55.5t-55.5 19.5q-33 0 -53 -20t-20 -55z" />
    <glyph glyph-name="ae" unicode="&#xe6;" horiz-adv-x="2200" 
d="M675 -10q-244 0 -405 160.5t-161 404.5q0 161 73 290.5t202.5 202.5t290.5 73q163 0 297 -77q54 -33 95 -71v64q0 37 24.5 61.5t63.5 24.5q36 0 60.5 -25t24.5 -61v-62q136 144 349 144q227 0 370 -152t143 -393q0 -36 -24.5 -59t-60.5 -23h-772q18 -155 118.5 -245
t254.5 -90q157 0 251 87q23 24 56 25t57 -20q31 -25 32 -60t-27 -60q-66 -60 -169.5 -98.5t-199.5 -38.5q-228 0 -378 153v-57q0 -36 -24.5 -61t-60.5 -25q-39 0 -63.5 24.5t-24.5 61.5v64q-70 -77 -171.5 -119.5t-220.5 -42.5zM282 555q0 -175 110.5 -287t282.5 -112
q174 0 283 111.5t109 287.5q0 177 -109 289t-283 112q-172 0 -282.5 -112t-110.5 -289zM1247 649h683q-20 142 -110 223.5t-231 81.5q-134 0 -225.5 -82.5t-116.5 -222.5z" />
    <glyph glyph-name="ccedilla" unicode="&#xe7;" horiz-adv-x="1171" 
d="M555 -496q-102 0 -172 46t-70 109q0 36 25.5 62.5t61.5 26.5q33 0 54 -19l30 -24q15 -11 21 -15t19.5 -8t30.5 -4q85 0 85 50q0 28 -17 41t-72 29q-50 15 -72 43t1 84l34 82q-185 46 -297 195t-112 353q0 245 146.5 404.5t375.5 159.5q268 0 424 -200q24 -29 18 -63
t-38 -54q-26 -20 -58 -15.5t-55 32.5q-115 135 -291 135q-157 0 -253 -108t-96 -291q0 -177 104 -288t274 -111q157 0 252 86q26 25 59 25.5t55 -21.5q28 -28 28 -62.5t-25 -56.5q-138 -126 -333 -136q-2 -13 -6 -24l-17 -41q89 -32 124 -80t35 -114q0 -95 -80 -161.5
t-193 -66.5z" />
    <glyph glyph-name="egrave" unicode="&#xe8;" horiz-adv-x="1238" 
d="M656 -8q-242 0 -396.5 157.5t-154.5 405.5t145.5 406t376.5 158q227 0 370 -152t143 -393q0 -36 -24.5 -59t-60.5 -23h-772q18 -154 118.5 -244.5t254.5 -90.5q71 0 140.5 24t110.5 63q23 24 56 25t57 -20q31 -25 32 -60t-27 -60q-66 -60 -169.5 -98.5t-199.5 -38.5z
M286 649h682q-20 142 -110 223.5t-231 81.5q-134 0 -225 -82t-116 -223zM294 1844q0 39 25.5 63.5t62.5 24.5q36 0 61 -25l236 -237q22 -20 22 -58q0 -36 -25 -62t-61 -26q-31 0 -60 22l-237 238q-24 24 -24 60z" />
    <glyph glyph-name="eacute" unicode="&#xe9;" horiz-adv-x="1238" 
d="M656 -8q-242 0 -396.5 157.5t-154.5 405.5t145.5 406t376.5 158q227 0 370 -152t143 -393q0 -36 -24.5 -59t-60.5 -23h-772q18 -154 118.5 -244.5t254.5 -90.5q71 0 140.5 24t110.5 63q23 24 56 25t57 -20q31 -25 32 -60t-27 -60q-66 -60 -169.5 -98.5t-199.5 -38.5z
M286 649h682q-20 142 -110 223.5t-231 81.5q-134 0 -225 -82t-116 -223zM581 1590q0 33 21 57l237 237q26 26 63 26t62.5 -24.5t25.5 -63.5q0 -35 -26 -60l-236 -237q-24 -24 -59 -24q-36 0 -62 26.5t-26 62.5z" />
    <glyph glyph-name="ecircumflex" unicode="&#xea;" horiz-adv-x="1238" 
d="M656 -8q-242 0 -396.5 157.5t-154.5 405.5t145.5 406t376.5 158q227 0 370 -152t143 -393q0 -36 -24.5 -59t-60.5 -23h-772q18 -154 118.5 -244.5t254.5 -90.5q71 0 140.5 24t110.5 63q23 24 56 25t57 -20q31 -25 32 -60t-27 -60q-66 -60 -169.5 -98.5t-199.5 -38.5z
M278 1588q0 48 44 76l232 155q21 13 44 13q26 0 46 -13l231 -155q44 -28 44 -76q0 -37 -24.5 -62t-63.5 -25q-26 0 -52 16l-181 121l-179 -120q-25 -17 -51 -17q-36 0 -63 25t-27 62zM286 649h682q-20 142 -110 223.5t-231 81.5q-134 0 -225 -82t-116 -223z" />
    <glyph glyph-name="edieresis" unicode="&#xeb;" horiz-adv-x="1238" 
d="M656 -8q-242 0 -396.5 157.5t-154.5 405.5t145.5 406t376.5 158q227 0 370 -152t143 -393q0 -36 -24.5 -59t-60.5 -23h-772q18 -154 118.5 -244.5t254.5 -90.5q71 0 140.5 24t110.5 63q23 24 56 25t57 -20q31 -25 32 -60t-27 -60q-66 -60 -169.5 -98.5t-199.5 -38.5z
M286 649h682q-20 142 -110 223.5t-231 81.5q-134 0 -225 -82t-116 -223zM298 1630q0 52 38 89.5t91 37.5t89.5 -37.5t36.5 -89.5q0 -54 -36 -91.5t-90 -37.5q-53 0 -91 38t-38 91zM682 1630q0 52 38 89.5t91 37.5t89.5 -37.5t36.5 -89.5q0 -54 -36 -91.5t-90 -37.5
q-53 0 -91 38t-38 91z" />
    <glyph glyph-name="igrave" unicode="&#xec;" horiz-adv-x="571" 
d="M316 2q-36 0 -61 25t-25 61v935q0 39 25 63t61 24q39 0 62.5 -24t23.5 -63v-935q0 -37 -23.5 -61.5t-62.5 -24.5zM-39 1795q0 39 26 64t62 25q33 0 61 -26l236 -237q22 -22 22 -58t-25.5 -62t-61.5 -26q-30 0 -59 22l-237 238q-24 22 -24 60z" />
    <glyph glyph-name="iacute" unicode="&#xed;" horiz-adv-x="548" 
d="M273 2q-36 0 -61 25t-25 61v935q0 39 25 63t61 24q39 0 63 -24t24 -63v-935q0 -36 -24 -61t-63 -25zM168 1566q0 34 22 57l237 237q24 26 62 26q37 0 62.5 -24.5t25.5 -63.5q0 -36 -25 -60l-237 -237q-24 -24 -58 -24q-36 0 -62.5 26.5t-26.5 62.5z" />
    <glyph glyph-name="icircumflex" unicode="&#xee;" horiz-adv-x="435" 
d="M10 1501q-35 0 -60 25.5t-25 61.5q0 43 39 75l210 156q20 13 43 13q28 0 43 -15l209 -154q40 -30 40 -75q0 -36 -24 -61.5t-59 -25.5q-28 0 -50 18l-159 118l-159 -118q-22 -18 -48 -18zM131 88v935q0 39 25 63t61 24q39 0 62.5 -24t23.5 -63v-935q0 -37 -23.5 -61.5
t-62.5 -24.5q-36 0 -61 25t-25 61z" />
    <glyph glyph-name="idieresis" unicode="&#xef;" horiz-adv-x="560" 
d="M281 2q-36 0 -61 25t-25 61v935q0 39 25 63t61 24q39 0 63 -24t24 -63v-935q0 -36 -24 -61t-63 -25zM-20 1628q0 52 38 89.5t91 37.5t89.5 -37.5t36.5 -89.5q0 -54 -36 -91t-90 -37q-53 0 -91 37.5t-38 90.5zM326 1628q0 52 37.5 89.5t90.5 37.5t90 -37.5t37 -89.5
q0 -54 -36.5 -91t-90.5 -37q-53 0 -90.5 37.5t-37.5 90.5z" />
    <glyph glyph-name="ntilde" unicode="&#xf1;" 
d="M256 2q-36 0 -61.5 25t-25.5 61v935q0 39 25 63t62 24q39 0 62.5 -24t23.5 -63v-24q140 124 336 124q144 0 263 -58q119 -63 185.5 -180t66.5 -280v-517q0 -36 -25.5 -61t-61.5 -25t-61 25t-25 61v517q0 170 -90.5 257.5t-251.5 87.5q-151 0 -243.5 -78t-92.5 -196v-588
q0 -37 -23.5 -61.5t-62.5 -24.5zM208 1642q54 66 123.5 103t141.5 37q93 0 189 -68l13.5 -9t13 -8.5t10.5 -7t11 -6.5t9.5 -4.5t10 -4t9.5 -2t12 -2t12 -0.5q55 0 84 33q24 27 55 34.5t55 -6.5q38 -19 47 -53.5t-15 -66.5q-84 -110 -226 -110q-40 0 -82.5 14t-61 25
t-53.5 33q-36 26 -52.5 33t-40.5 7q-67 0 -125 -67q-20 -28 -54.5 -34.5t-60.5 11.5q-32 19 -39.5 53t14.5 66z" />
    <glyph glyph-name="ograve" unicode="&#xf2;" horiz-adv-x="1334" 
d="M671 -10q-244 0 -405 160.5t-161 404.5q0 161 73 290.5t202.5 202.5t290.5 73q162 0 291 -73t201.5 -202.5t72.5 -290.5q0 -160 -73 -289.5t-202.5 -202.5t-289.5 -73zM278 555q0 -175 110.5 -287t282.5 -112q174 0 283 112t109 289q0 176 -109 287.5t-283 111.5
q-172 0 -282.5 -112t-110.5 -289zM318 1822q0 39 25.5 63.5t62.5 24.5t61 -26l236 -236q22 -20 22 -58q0 -36 -25 -62.5t-61 -26.5q-29 0 -60 23l-237 238q-24 24 -24 60z" />
    <glyph glyph-name="oacute" unicode="&#xf3;" horiz-adv-x="1334" 
d="M671 -10q-244 0 -405 160.5t-161 404.5q0 161 73 290.5t202.5 202.5t290.5 73q162 0 291 -73t201.5 -202.5t72.5 -290.5q0 -160 -73 -289.5t-202.5 -202.5t-289.5 -73zM278 555q0 -175 110.5 -287t282.5 -112q174 0 283 112t109 289q0 176 -109 287.5t-283 111.5
q-172 0 -282.5 -112t-110.5 -289zM582 1574q0 34 21 58l237 237q28 26 63 26q36 0 62 -24.5t26 -63.5q0 -36 -26 -61l-236 -236q-24 -24 -59 -24q-36 0 -62 26t-26 62z" />
    <glyph glyph-name="ocircumflex" unicode="&#xf4;" horiz-adv-x="1334" 
d="M671 -10q-244 0 -405 160.5t-161 404.5q0 161 73 290.5t202.5 202.5t290.5 73q162 0 291 -73t201.5 -202.5t72.5 -290.5q0 -160 -73 -289.5t-202.5 -202.5t-289.5 -73zM278 555q0 -175 110.5 -287t282.5 -112q174 0 283 112t109 289q0 176 -109 287.5t-283 111.5
q-172 0 -282.5 -112t-110.5 -289zM336 1588q0 48 45 76l232 155q19 13 44 13q27 0 45 -13l231 -155q45 -28 45 -76q0 -37 -25 -62t-64 -25q-24 0 -52 16l-180 121l-180 -120q-25 -17 -50 -17q-36 0 -63.5 25t-27.5 62z" />
    <glyph glyph-name="otilde" unicode="&#xf5;" horiz-adv-x="1334" 
d="M671 -10q-244 0 -405 160.5t-161 404.5q0 161 73 290.5t202.5 202.5t290.5 73q162 0 291 -73t201.5 -202.5t72.5 -290.5q0 -160 -73 -289.5t-202.5 -202.5t-289.5 -73zM278 555q0 -175 110.5 -287t282.5 -112q174 0 283 112t109 289q0 176 -109 287.5t-283 111.5
q-172 0 -282.5 -112t-110.5 -289zM280 1628q54 66 123.5 103t141.5 37q96 0 189 -68q24 -16 30.5 -20t21 -12t25 -9.5t24.5 -1.5q55 0 84 33q24 26 54.5 33.5t55.5 -6.5q38 -19 47 -53t-15 -67q-85 -109 -226 -109q-41 0 -82 13.5t-62 25.5t-53 33q-36 26 -52.5 32.5
t-40.5 6.5q-67 0 -125 -67q-20 -27 -54.5 -33.5t-60.5 10.5q-32 19 -39.5 53.5t14.5 65.5z" />
    <glyph glyph-name="odieresis" unicode="&#xf6;" horiz-adv-x="1334" 
d="M671 -10q-244 0 -405 160.5t-161 404.5q0 161 73 290.5t202.5 202.5t290.5 73q162 0 291 -73t201.5 -202.5t72.5 -290.5q0 -160 -73 -289.5t-202.5 -202.5t-289.5 -73zM278 555q0 -175 110.5 -287t282.5 -112q174 0 283 112t109 289q0 176 -109 287.5t-283 111.5
q-172 0 -282.5 -112t-110.5 -289zM364 1667q0 52 38 89t91 37q54 0 90.5 -37t36.5 -89q0 -54 -36.5 -91.5t-90.5 -37.5q-53 0 -91 38t-38 91zM748 1667q0 52 38 89t91 37q54 0 90.5 -37t36.5 -89q0 -54 -36.5 -91.5t-90.5 -37.5q-53 0 -91 38t-38 91z" />
    <glyph glyph-name="divide" unicode="&#xf7;" horiz-adv-x="1209" 
d="M293 624q-36 0 -61 25t-25 61q0 39 24.5 64t61.5 25h622q37 0 62 -25t25 -64q0 -36 -25.5 -61t-61.5 -25h-622zM497 420q0 45 31 75.5t76 30.5t75.5 -30.5t30.5 -75.5t-30.5 -76t-75.5 -31q-44 0 -75.5 31.5t-31.5 75.5zM497 1002q0 45 31.5 76.5t75.5 31.5
q45 0 75.5 -31.5t30.5 -76.5q0 -44 -30.5 -74.5t-75.5 -30.5t-76 30t-31 75z" />
    <glyph glyph-name="oslash" unicode="&#xf8;" horiz-adv-x="1364" 
d="M194 -31q-37 0 -63 26t-26 59t27 64l105 104q-102 142 -102 333q0 161 73 290.5t202.5 202.5t290.5 73q196 0 345 -107l67 67q24 29 66 29q59 0 80.5 -56t-17.5 -93l-75 -73q99 -145 99 -333q0 -160 -73 -289.5t-202.5 -202.5t-289.5 -73q-193 0 -343 106l-101 -101
q-28 -26 -63 -26zM308 555q0 -123 61 -222l559 556q-101 67 -227 67q-172 0 -282.5 -112t-110.5 -289zM491 212q91 -56 210 -56q174 0 283 112t109 289q0 116 -50 205z" />
    <glyph glyph-name="ugrave" unicode="&#xf9;" 
d="M684 -12q-230 0 -372.5 140t-142.5 379v516q0 36 25.5 61.5t61.5 25.5t61 -25.5t25 -61.5v-516q0 -169 88.5 -257.5t253.5 -88.5q148 0 242 77t94 198v587q0 39 25 63t61 24q39 0 63 -24t24 -63v-935q0 -36 -24 -61t-63 -25q-36 0 -61 25t-25 61v24q-137 -124 -336 -124z
M436 1822q0 39 26 63.5t63 24.5q36 0 60 -26l236 -236q22 -20 22 -58q0 -36 -25 -62.5t-61 -26.5q-28 0 -60 23l-237 238q-24 24 -24 60z" />
    <glyph glyph-name="uacute" unicode="&#xfa;" 
d="M684 -12q-230 0 -372.5 140t-142.5 379v516q0 36 25.5 61.5t61.5 25.5t61 -25.5t25 -61.5v-516q0 -169 88.5 -257.5t253.5 -88.5q148 0 242 77t94 198v587q0 39 25 63t61 24q39 0 63 -24t24 -63v-935q0 -36 -24 -61t-63 -25q-36 0 -61 25t-25 61v24q-137 -124 -336 -124z
M567 1584q0 33 21 58l237 237q26 26 63 26q36 0 62 -25t26 -64q0 -35 -26 -60l-236 -236q-24 -24 -59 -24q-36 0 -62 26t-26 62z" />
    <glyph glyph-name="ucircumflex" unicode="&#xfb;" 
d="M684 -12q-230 0 -372.5 140t-142.5 379v516q0 36 25.5 61.5t61.5 25.5t61 -25.5t25 -61.5v-516q0 -169 88.5 -257.5t253.5 -88.5q148 0 242 77t94 198v587q0 39 25 63t61 24q39 0 63 -24t24 -63v-935q0 -36 -24 -61t-63 -25q-36 0 -61 25t-25 61v24q-137 -124 -336 -124z
M341 1588q0 47 44 76l233 155q20 13 44 13q27 0 45 -13l231 -155q45 -28 45 -76q0 -37 -25 -62t-64 -25q-24 0 -52 16l-180 121l-180 -120q-25 -17 -50 -17q-37 0 -64 25t-27 62z" />
    <glyph glyph-name="udieresis" unicode="&#xfc;" 
d="M684 -12q-230 0 -372.5 140t-142.5 379v516q0 36 25.5 61.5t61.5 25.5t61 -25.5t25 -61.5v-516q0 -169 88.5 -257.5t253.5 -88.5q148 0 242 77t94 198v587q0 39 25 63t61 24q39 0 63 -24t24 -63v-935q0 -36 -24 -61t-63 -25q-36 0 -61 25t-25 61v24q-137 -124 -336 -124z
M347 1630q0 52 38 89.5t91 37.5t89.5 -37.5t36.5 -89.5q0 -54 -36 -91.5t-90 -37.5q-53 0 -91 38t-38 91zM731 1630q0 52 38 89.5t91 37.5t89.5 -37.5t36.5 -89.5q0 -54 -36 -91.5t-90 -37.5q-53 0 -91 38t-38 91z" />
    <glyph glyph-name="yacute" unicode="&#xfd;" horiz-adv-x="1206" 
d="M405 -453q-18 0 -37 8q-37 14 -49 44t5 66l185 400v1l-421 924q-17 34 -7 65.5t45 47.5q34 17 65.5 7t47.5 -45l364 -796l366 794q16 35 44 46t63 -3q37 -14 49.5 -44t-4.5 -66l-645 -1398q-24 -51 -71 -51zM490 1584q0 33 21 58l237 237q26 26 63 26q36 0 62 -25t26 -64
q0 -35 -26 -60l-236 -236q-24 -24 -59 -24q-36 0 -62 26t-26 62z" />
    <glyph glyph-name="ydieresis" unicode="&#xff;" horiz-adv-x="1206" 
d="M405 -453q-18 0 -37 8q-37 14 -49 44t5 66l185 400v1l-421 924q-17 34 -7 65.5t45 47.5q34 17 65.5 7t47.5 -45l364 -796l366 794q16 35 44 46t63 -3q37 -14 49.5 -44t-4.5 -66l-645 -1398q-24 -51 -71 -51zM276 1630q0 52 37.5 89.5t90.5 37.5t90 -37.5t37 -89.5
q0 -54 -36.5 -91.5t-90.5 -37.5q-53 0 -90.5 38t-37.5 91zM660 1630q0 52 37.5 89.5t90.5 37.5t90 -37.5t37 -89.5q0 -54 -36.5 -91.5t-90.5 -37.5q-53 0 -90.5 38t-37.5 91z" />
    <glyph glyph-name="Amacron" unicode="&#x100;" horiz-adv-x="1439" 
d="M132 2q-51 0 -74.5 42t-3.5 82l581 1375q25 58 82 58q58 0 83 -58l583 -1375q22 -42 -3.5 -83t-74.5 -41q-59 0 -81 55l-176 423h-659l-177 -423q-21 -55 -80 -55zM379 2004q0 36 25.5 62.5t61.5 26.5h509q36 0 61 -26.5t25 -62.5t-25 -61t-61 -25h-509q-36 0 -61.5 25
t-25.5 61zM457 641h522l-262 624z" />
    <glyph glyph-name="amacron" unicode="&#x101;" horiz-adv-x="1409" 
d="M675 -10q-244 0 -405 160.5t-161 404.5q0 161 73 290.5t202.5 202.5t290.5 73q235 0 392 -148v64q0 37 24.5 61.5t63.5 24.5q36 0 60.5 -25t24.5 -61v-949q0 -36 -24.5 -61t-60.5 -25q-39 0 -63.5 24.5t-24.5 61.5v64q-70 -77 -171.5 -119.5t-220.5 -42.5zM282 555
q0 -175 110.5 -287t282.5 -112q174 0 283 111.5t109 287.5q0 177 -109 289t-283 112q-172 0 -282.5 -112t-110.5 -289zM353 1588q0 36 25 62t61 26h509q36 0 61 -26t25 -62t-25 -61.5t-61 -25.5h-509q-36 0 -61 25.5t-25 61.5z" />
    <glyph glyph-name="Abreve" unicode="&#x102;" horiz-adv-x="1439" 
d="M132 2q-51 0 -74.5 42t-3.5 82l581 1375q25 58 82 58q58 0 83 -58l583 -1375q22 -42 -3.5 -83t-74.5 -41q-59 0 -81 55l-176 423h-659l-177 -423q-21 -55 -80 -55zM386 2160q0 36 26.5 62t62.5 26t61 -26t25 -62q0 -34 38 -57.5t108 -23.5q72 0 110 22.5t38 58.5t25 62
t61 26t61 -25.5t27 -60.5q-5 -108 -97.5 -176t-224.5 -68q-136 0 -228.5 72t-92.5 170zM457 641h522l-262 624z" />
    <glyph glyph-name="abreve" unicode="&#x103;" horiz-adv-x="1409" 
d="M675 -10q-244 0 -405 160.5t-161 404.5q0 161 73 290.5t202.5 202.5t290.5 73q235 0 392 -148v64q0 37 24.5 61.5t63.5 24.5q36 0 60.5 -25t24.5 -61v-949q0 -36 -24.5 -61t-60.5 -25q-39 0 -63.5 24.5t-24.5 61.5v64q-70 -77 -171.5 -119.5t-220.5 -42.5zM282 555
q0 -175 110.5 -287t282.5 -112q174 0 283 111.5t109 287.5q0 177 -109 289t-283 112q-172 0 -282.5 -112t-110.5 -289zM359 1743q0 36 26.5 62.5t62.5 26.5t61 -26.5t25 -62.5q0 -34 38 -57t108 -23q72 0 110 22.5t38 57.5q0 36 25 62.5t61 26.5t61.5 -26t27.5 -61
q-6 -108 -98.5 -176t-224.5 -68q-135 0 -228 72t-93 170z" />
    <glyph glyph-name="Cacute" unicode="&#x106;" horiz-adv-x="1540" 
d="M903 -17q-157 0 -301 63.5t-249 170.5t-167.5 255t-62.5 309q0 215 102.5 398t282.5 291t395 108q279 0 492 -177q26 -21 28 -57t-22 -64t-64 -28q-29 0 -67 30q-134 123 -367 123q-124 0 -236.5 -50.5t-193.5 -134.5t-129 -199t-48 -240q0 -173 81 -316.5t220.5 -226
t305.5 -82.5q217 0 379 133q26 18 56 16.5t54.5 -26.5t24.5 -62q0 -39 -22 -61q-173 -173 -492 -173zM723 1986q0 34 21 58l238 237q26 26 62 26t62 -24.5t26 -63.5q0 -36 -26 -61l-236 -236q-24 -24 -58 -24q-36 0 -62.5 26t-26.5 62z" />
    <glyph glyph-name="cacute" unicode="&#x107;" horiz-adv-x="1171" 
d="M656 -10q-239 0 -395 161t-156 404q0 245 146.5 404.5t375.5 159.5q268 0 424 -200q24 -29 18 -63t-38 -54q-26 -20 -58 -15.5t-55 32.5q-115 135 -291 135q-157 0 -253 -108t-96 -291q0 -177 104 -288t274 -111q157 0 252 86q26 25 59 25.5t55 -21.5q28 -28 28 -62.5
t-25 -56.5q-149 -137 -369 -137zM532 1574q0 34 21 58l237 237q28 26 63 26q36 0 62 -24.5t26 -63.5q0 -36 -26 -61l-236 -236q-24 -24 -58 -24q-36 0 -62.5 26t-26.5 62z" />
    <glyph glyph-name="Ccircumflex" unicode="&#x108;" horiz-adv-x="1540" 
d="M900 -17q-157 0 -301 63.5t-249 170.5t-167.5 255t-62.5 309q0 215 102.5 398t282.5 291t395 108q279 0 492 -177q26 -21 28 -57t-22 -64t-64 -28q-29 0 -66 30q-136 123 -368 123q-124 0 -236.5 -50.5t-193.5 -134.5t-129 -199t-48 -240q0 -173 81 -316.5t220.5 -226
t305.5 -82.5q217 0 379 133q26 18 56 16.5t54.5 -26.5t24.5 -62q0 -40 -22 -61q-173 -173 -492 -173zM500 1993q0 50 44 76l232 155q21 13 44 13q27 0 45 -13l232 -155q44 -27 44 -76q0 -37 -24.5 -61.5t-63.5 -24.5q-27 0 -52 15l-181 121l-179 -120q-25 -16 -51 -16
q-36 0 -63 24.5t-27 61.5z" />
    <glyph glyph-name="ccircumflex" unicode="&#x109;" horiz-adv-x="1207" 
d="M671 -10q-157 0 -283.5 73.5t-197 202.5t-70.5 289q0 245 147 404.5t376 159.5q267 0 423 -200q24 -29 18.5 -63t-37.5 -54q-27 -20 -59 -15.5t-54 32.5q-115 135 -291 135q-158 0 -254 -108t-96 -291q0 -177 104 -288t274 -111q159 0 252 86q26 25 59 25.5t55 -21.5
q29 -28 29 -62.5t-26 -56.5q-149 -137 -369 -137zM295 1588q0 47 44 76l233 155q19 13 44 13q26 0 45 -13l231 -155q44 -28 44 -76q0 -37 -24.5 -62t-63.5 -25q-26 0 -52 16l-180 121l-180 -120q-25 -17 -51 -17q-36 0 -63 25t-27 62z" />
    <glyph glyph-name="Cdotaccent" unicode="&#x10a;" horiz-adv-x="1540" 
d="M903 -17q-157 0 -301 63.5t-249 170.5t-167.5 255t-62.5 309q0 215 102.5 398t282.5 291t395 108q279 0 492 -177q26 -21 28 -57t-22 -64t-64 -28q-29 0 -67 30q-134 123 -367 123q-124 0 -236.5 -50.5t-193.5 -134.5t-129 -199t-48 -240q0 -173 81 -316.5t220.5 -226
t305.5 -82.5q217 0 379 133q26 18 56 16.5t54.5 -26.5t24.5 -62q0 -39 -22 -61q-173 -173 -492 -173zM752 1999q0 55 35.5 86t83.5 31q47 0 82 -31t35 -86q0 -50 -34.5 -84.5t-84.5 -34.5q-48 0 -82.5 34.5t-34.5 84.5z" />
    <glyph glyph-name="cdotaccent" unicode="&#x10b;" horiz-adv-x="1171" 
d="M656 -10q-239 0 -395 161t-156 404q0 245 146.5 404.5t375.5 159.5q268 0 424 -200q24 -29 18 -63t-38 -54q-26 -20 -58 -15.5t-55 32.5q-115 135 -291 135q-157 0 -253 -108t-96 -291q0 -177 104 -288t274 -111q157 0 252 86q26 25 59 25.5t55 -21.5q28 -28 28 -62.5
t-25 -56.5q-149 -137 -369 -137zM501 1620q0 55 35.5 86.5t83.5 31.5q47 0 82 -31.5t35 -86.5q0 -50 -34.5 -84.5t-84.5 -34.5q-48 0 -82.5 34.5t-34.5 84.5z" />
    <glyph glyph-name="Ccaron" unicode="&#x10c;" horiz-adv-x="1540" 
d="M903 -17q-157 0 -301 63.5t-249 170.5t-167.5 255t-62.5 309q0 215 102.5 398t282.5 291t395 108q279 0 492 -177q26 -21 28 -57t-22 -64t-64 -28q-29 0 -67 30q-134 123 -367 123q-124 0 -236.5 -50.5t-193.5 -134.5t-129 -199t-48 -240q0 -173 81 -316.5t220.5 -226
t305.5 -82.5q217 0 379 133q26 18 56 16.5t54.5 -26.5t24.5 -62q0 -39 -22 -61q-173 -173 -492 -173zM549 2160q0 52 43.5 73.5t97.5 -13.5l179 -123l180 120q55 35 98 15t43 -72q0 -44 -43 -76l-232 -152q-14 -14 -46 -14q-30 0 -46 14l-230 152q-44 26 -44 76z" />
    <glyph glyph-name="ccaron" unicode="&#x10d;" horiz-adv-x="1171" 
d="M656 -10q-239 0 -395 161t-156 404q0 245 146.5 404.5t375.5 159.5q268 0 424 -200q24 -29 18 -63t-38 -54q-26 -20 -58 -15.5t-55 32.5q-115 135 -291 135q-157 0 -253 -108t-96 -291q0 -177 104 -288t274 -111q157 0 252 86q26 25 59 25.5t55 -21.5q28 -28 28 -62.5
t-25 -56.5q-149 -137 -369 -137zM294 1743q0 52 43.5 74.5t97.5 -13.5l180 -124l179 120q56 35 98.5 15t42.5 -72q0 -44 -43 -75l-231 -153q-16 -14 -46 -14q-32 0 -46 14l-231 153q-44 27 -44 75z" />
    <glyph glyph-name="Dcaron" unicode="&#x10e;" horiz-adv-x="1559" 
d="M286 2q-36 0 -61.5 25t-25.5 61v1385q0 39 25.5 62.5t61.5 23.5h370q169 0 314 -57.5t247.5 -159.5t160.5 -247t58 -314q0 -170 -57.5 -315t-160 -247t-247.5 -159.5t-315 -57.5h-370zM308 2160q0 52 43.5 73.5t97.5 -13.5l179 -123l180 120q56 35 98.5 15t42.5 -72
q0 -45 -43 -76l-232 -152q-14 -14 -46 -14q-30 0 -46 14l-230 152q-44 26 -44 76zM372 163h284q271 0 439 172t168 446t-168 445.5t-439 171.5h-284v-1235z" />
    <glyph glyph-name="Dcaron" unicode="&#x10f;" horiz-adv-x="1559" 
d="M286 2q-36 0 -61.5 25t-25.5 61v1385q0 39 25.5 62.5t61.5 23.5h370q169 0 314 -57.5t247.5 -159.5t160.5 -247t58 -314q0 -170 -57.5 -315t-160 -247t-247.5 -159.5t-315 -57.5h-370zM308 2160q0 52 43.5 73.5t97.5 -13.5l179 -123l180 120q56 35 98.5 15t42.5 -72
q0 -45 -43 -76l-232 -152q-14 -14 -46 -14q-30 0 -46 14l-230 152q-44 26 -44 76zM372 163h284q271 0 439 172t168 446t-168 445.5t-439 171.5h-284v-1235z" />
    <glyph glyph-name="Dcroat" unicode="&#x110;" horiz-adv-x="1459" 
d="M211 2q-36 0 -61 25t-25 61v613h-111q-35 0 -58 22.5t-23 57.5t23 58t58 23h111v611q0 39 25 62.5t61 23.5h346q226 0 403.5 -98.5t276.5 -276t99 -403.5q0 -170 -57.5 -315t-159.5 -247t-247 -159.5t-315 -57.5h-346zM298 163h259q271 0 439 172t168 446t-168 445.5
t-439 171.5h-259v-536h288q35 0 57.5 -23t22.5 -58t-23 -57.5t-57 -22.5h-288v-538z" />
    <glyph glyph-name="Dcroat" unicode="&#x111;" horiz-adv-x="1459" 
d="M211 2q-36 0 -61 25t-25 61v613h-111q-35 0 -58 22.5t-23 57.5t23 58t58 23h111v611q0 39 25 62.5t61 23.5h346q226 0 403.5 -98.5t276.5 -276t99 -403.5q0 -170 -57.5 -315t-159.5 -247t-247 -159.5t-315 -57.5h-346zM298 163h259q271 0 439 172t168 446t-168 445.5
t-439 171.5h-259v-536h288q35 0 57.5 -23t22.5 -58t-23 -57.5t-57 -22.5h-288v-538z" />
    <glyph glyph-name="Emacron" unicode="&#x112;" horiz-adv-x="1423" 
d="M286 2q-36 0 -61.5 25t-25.5 61v1385q0 36 25.5 61t61.5 25h923q35 0 61 -25t26 -61q0 -35 -26 -61t-61 -26h-837v-518h685q36 0 61.5 -25.5t25.5 -61.5t-25.5 -62t-61.5 -26h-685v-518h837q35 0 61 -26.5t26 -60.5q0 -36 -26 -61t-61 -25h-923zM399 2004q0 36 25 62.5
t61 26.5h509q36 0 61.5 -26.5t25.5 -62.5t-25.5 -61t-61.5 -25h-509q-36 0 -61 25t-25 61z" />
    <glyph glyph-name="emacron" unicode="&#x113;" horiz-adv-x="1238" 
d="M656 -8q-242 0 -396.5 157.5t-154.5 405.5t145.5 406t376.5 158q227 0 370 -152t143 -393q0 -36 -24.5 -59t-60.5 -23h-772q18 -154 118.5 -244.5t254.5 -90.5q71 0 140.5 24t110.5 63q23 24 56 25t57 -20q31 -25 32 -60t-27 -60q-66 -60 -169.5 -98.5t-199.5 -38.5z
M252 1588q0 36 25 62t61 26h509q36 0 61 -26t25 -62t-25 -61.5t-61 -25.5h-509q-36 0 -61 25.5t-25 61.5zM286 649h682q-20 142 -110 223.5t-231 81.5q-134 0 -225 -82t-116 -223z" />
    <glyph glyph-name="Ebreve" unicode="&#x114;" horiz-adv-x="1387" 
d="M287 2q-36 0 -61.5 25t-25.5 61v1385q0 36 25.5 61t61.5 25h923q35 0 61 -25t26 -61q0 -35 -26.5 -61t-60.5 -26h-837v-518h685q36 0 61.5 -25.5t25.5 -61.5t-25.5 -62t-61.5 -26h-685v-518h837q34 0 60.5 -26.5t26.5 -60.5q0 -36 -26 -61t-61 -25h-923zM407 2160
q0 36 26 62t62 26t61 -26t25 -62q0 -34 38 -57.5t108 -23.5q72 0 110 22.5t38 58.5t25 62t61 26q37 0 62 -25.5t27 -60.5q-6 -108 -98.5 -176t-224.5 -68q-135 0 -227.5 72t-92.5 170z" />
    <glyph glyph-name="ebreve" unicode="&#x115;" horiz-adv-x="1235" 
d="M671 -8q-242 0 -396.5 157.5t-154.5 405.5t146 406t377 158q226 0 369 -152t143 -393q0 -36 -24 -59t-60 -23h-773q18 -154 118.5 -244.5t254.5 -90.5q71 0 140.5 24t110.5 63q24 24 57 25t56 -20q32 -25 33 -60t-28 -60q-65 -60 -169 -98.5t-200 -38.5zM290 1743
q0 36 26.5 62.5t62.5 26.5t61 -26.5t25 -62.5q0 -34 38 -57t108 -23q72 0 110 22.5t38 57.5q0 36 25 62.5t61 26.5t61.5 -26t27.5 -61q-6 -108 -98.5 -176t-224.5 -68q-135 0 -228 72t-93 170zM302 649h681q-20 142 -109.5 223.5t-230.5 81.5q-135 0 -226 -82t-115 -223z
" />
    <glyph glyph-name="Edotaccent" unicode="&#x116;" horiz-adv-x="1423" 
d="M286 2q-36 0 -61.5 25t-25.5 61v1385q0 36 25.5 61t61.5 25h923q35 0 61 -25t26 -61q0 -35 -26 -61t-61 -26h-837v-518h685q36 0 61.5 -25.5t25.5 -61.5t-25.5 -62t-61.5 -26h-685v-518h837q35 0 61 -26.5t26 -60.5q0 -36 -26 -61t-61 -25h-923zM684 1999q0 55 35.5 86
t83.5 31q47 0 82 -31t35 -86q0 -50 -34.5 -84.5t-84.5 -34.5q-48 0 -82.5 34.5t-34.5 84.5z" />
    <glyph glyph-name="edotaccent" unicode="&#x117;" horiz-adv-x="1238" 
d="M656 -8q-242 0 -396.5 157.5t-154.5 405.5t145.5 406t376.5 158q227 0 370 -152t143 -393q0 -36 -24.5 -59t-60.5 -23h-772q18 -154 118.5 -244.5t254.5 -90.5q71 0 140.5 24t110.5 63q23 24 56 25t57 -20q31 -25 32 -60t-27 -60q-66 -60 -169.5 -98.5t-199.5 -38.5z
M286 649h682q-20 142 -110 223.5t-231 81.5q-134 0 -225 -82t-116 -223zM494 1620q0 55 35.5 86.5t83.5 31.5q47 0 82 -31.5t35 -86.5q0 -50 -34.5 -84.5t-84.5 -34.5q-48 0 -82.5 34.5t-34.5 84.5z" />
    <glyph glyph-name="Ecaron" unicode="&#x11a;" horiz-adv-x="1423" 
d="M286 2q-36 0 -61.5 25t-25.5 61v1385q0 36 25.5 61t61.5 25h923q35 0 61 -25t26 -61q0 -35 -26 -61t-61 -26h-837v-518h685q36 0 61.5 -25.5t25.5 -61.5t-25.5 -62t-61.5 -26h-685v-518h837q35 0 61 -26.5t26 -60.5q0 -36 -26 -61t-61 -25h-923zM481 2160q0 52 43.5 73.5
t97.5 -13.5l179 -123l180 120q55 35 98 15t43 -72q0 -44 -43 -76l-232 -152q-14 -14 -46 -14q-30 0 -46 14l-230 152q-44 26 -44 76z" />
    <glyph glyph-name="ecaron" unicode="&#x11b;" horiz-adv-x="1238" 
d="M656 -8q-242 0 -396.5 157.5t-154.5 405.5t145.5 406t376.5 158q227 0 370 -152t143 -393q0 -36 -24.5 -59t-60.5 -23h-772q18 -154 118.5 -244.5t254.5 -90.5q71 0 140.5 24t110.5 63q23 24 56 25t57 -20q31 -25 32 -60t-27 -60q-66 -60 -169.5 -98.5t-199.5 -38.5z
M286 649h682q-20 142 -110 223.5t-231 81.5q-134 0 -225 -82t-116 -223zM294 1736q0 52 43.5 73.5t97.5 -13.5l180 -124l179 120q56 35 98.5 15.5t42.5 -71.5q0 -45 -43 -76l-231 -153q-16 -13 -46 -13q-31 0 -46 13l-231 153q-44 27 -44 76z" />
    <glyph glyph-name="Gcircumflex" unicode="&#x11c;" horiz-adv-x="1583" 
d="M900 -17q-157 0 -301 63.5t-249 170.5t-167.5 255t-62.5 309q0 215 102.5 398t282.5 291t395 108q279 0 492 -177q26 -21 28 -57t-22 -64t-64 -28q-29 0 -66 30q-136 123 -368 123q-124 0 -236.5 -50.5t-193.5 -134.5t-129 -199t-48 -240q0 -173 81 -316.5t220.5 -226
t305.5 -82.5q132 0 222 24.5t169 79.5v460h-381q-36 0 -61 24t-25 59q0 32 24.5 55t61.5 23h467q39 0 62.5 -23.5t23.5 -60.5v-580q0 -40 -22 -61q-94 -94 -227 -133.5t-314 -39.5zM490 1993q0 50 44 76l232 155q21 13 45 13q25 0 45 -13l231 -155q44 -26 44 -76
q0 -37 -24.5 -61.5t-63.5 -24.5q-27 0 -52 15l-180 121l-180 -120q-23 -16 -51 -16q-36 0 -63 24.5t-27 61.5z" />
    <glyph glyph-name="gcircumflex" unicode="&#x11d;" horiz-adv-x="1371" 
d="M694 -399q-301 0 -480 222q-21 32 -21 58q0 37 32 60q29 21 67 14.5t57 -36.5q131 -153 345 -153q164 0 269.5 106.5t114.5 278.5q-117 -126 -301 -155q-42 -6 -90 -6q-249 0 -408 158.5t-159 406.5q0 247 161 406.5t406 159.5q237 0 391 -143v59q0 37 25 61.5t64 24.5
q36 0 60 -25t24 -61v-858q0 -163 -71.5 -295.5t-199 -207.5t-286.5 -75zM293 555q0 -175 110.5 -287t283.5 -112t282 111.5t109 287.5q0 177 -109 289t-282 112t-283.5 -112t-110.5 -289zM341 1576q0 49 44 76l233 156q21 12 44 12q24 0 45 -12l231 -156q44 -26 44 -76
q0 -37 -24.5 -61.5t-63.5 -24.5q-24 0 -52 15l-180 121l-180 -120q-26 -16 -51 -16q-36 0 -63 24.5t-27 61.5z" />
    <glyph glyph-name="Gbreve" unicode="&#x11e;" horiz-adv-x="1603" 
d="M903 -17q-157 0 -301 63.5t-249 170.5t-167.5 255t-62.5 309q0 215 102.5 398t282.5 291t395 108q279 0 492 -177q26 -21 28 -57t-22 -64t-64 -28q-29 0 -67 30q-134 123 -367 123q-124 0 -236.5 -50.5t-193.5 -134.5t-129 -199t-48 -240q0 -173 81 -316.5t220.5 -226
t305.5 -82.5q131 0 222 24.5t169 79.5v460h-381q-36 0 -61 24t-25 59q0 32 24.5 55t61.5 23h467q39 0 62.5 -23.5t23.5 -60.5v-580q0 -39 -22 -61q-94 -94 -227 -133.5t-314 -39.5zM464 2160q0 36 26 62t62 26t61.5 -26t25.5 -62q0 -34 38 -57.5t108 -23.5q72 0 110 22.5
t38 58.5t25 62t61 26t61 -25.5t27 -60.5q-5 -108 -97.5 -176t-224.5 -68q-136 0 -228.5 72t-92.5 170z" />
    <glyph glyph-name="gbreve" unicode="&#x11f;" horiz-adv-x="1404" 
d="M679 -399q-301 0 -480 222q-21 32 -21 58q0 37 32 60q29 21 66.5 14.5t56.5 -36.5q131 -153 346 -153q164 0 269.5 106.5t113.5 278.5q-117 -127 -300 -155q-42 -6 -91 -6q-249 0 -407.5 158.5t-158.5 406.5q0 247 161 406.5t405 159.5q236 0 392 -143v59q0 37 24.5 61.5
t63.5 24.5q36 0 60.5 -25t24.5 -61v-858q0 -163 -71.5 -295.5t-199 -207.5t-286.5 -75zM278 555q0 -175 110.5 -287t282.5 -112q174 0 283 111.5t109 287.5q0 177 -109 289t-283 112q-172 0 -282.5 -112t-110.5 -289zM356 1743q0 36 26 62.5t62 26.5t61 -26.5t25 -62.5
q0 -34 38 -57t108 -23q72 0 110 22.5t38 57.5q0 36 25 62.5t61 26.5t61.5 -26t27.5 -61q-6 -108 -98.5 -176t-224.5 -68q-135 0 -227.5 72t-92.5 170z" />
    <glyph glyph-name="Gdotaccent" unicode="&#x120;" horiz-adv-x="1603" 
d="M903 -17q-157 0 -301 63.5t-249 170.5t-167.5 255t-62.5 309q0 215 102.5 398t282.5 291t395 108q279 0 492 -177q26 -21 28 -57t-22 -64t-64 -28q-29 0 -67 30q-134 123 -367 123q-124 0 -236.5 -50.5t-193.5 -134.5t-129 -199t-48 -240q0 -173 81 -316.5t220.5 -226
t305.5 -82.5q131 0 222 24.5t169 79.5v460h-381q-36 0 -61 24t-25 59q0 32 24.5 55t61.5 23h467q39 0 62.5 -23.5t23.5 -60.5v-580q0 -39 -22 -61q-94 -94 -227 -133.5t-314 -39.5zM742 1999q0 55 35.5 86t84.5 31q46 0 81.5 -31.5t35.5 -85.5q0 -50 -34.5 -84.5
t-84.5 -34.5q-49 0 -83.5 34.5t-34.5 84.5z" />
    <glyph glyph-name="gdotaccent" unicode="&#x121;" horiz-adv-x="1404" 
d="M679 -399q-301 0 -480 222q-21 32 -21 58q0 37 32 60q29 21 66.5 14.5t56.5 -36.5q131 -153 346 -153q164 0 269.5 106.5t113.5 278.5q-117 -127 -300 -155q-42 -6 -91 -6q-249 0 -407.5 158.5t-158.5 406.5q0 247 161 406.5t405 159.5q236 0 392 -143v59q0 37 24.5 61.5
t63.5 24.5q36 0 60.5 -25t24.5 -61v-858q0 -163 -71.5 -295.5t-199 -207.5t-286.5 -75zM278 555q0 -175 110.5 -287t282.5 -112q174 0 283 111.5t109 287.5q0 177 -109 289t-283 112q-172 0 -282.5 -112t-110.5 -289zM557 1620q0 55 35.5 86.5t83.5 31.5q47 0 82 -31.5
t35 -86.5q0 -50 -34.5 -84.5t-84.5 -34.5q-48 0 -82.5 34.5t-34.5 84.5z" />
    <glyph glyph-name="Itilde" unicode="&#x128;" horiz-adv-x="554" 
d="M279 2q-36 0 -61.5 25t-25.5 61v1385q0 36 25.5 61t61.5 25t61 -25t25 -61v-1385q0 -36 -25 -61t-61 -25zM14 1953q37 83 85.5 121t115.5 38q37 0 68.5 -11.5t47 -23t42.5 -35.5q33 -29 53 -39q10 -8 18 -8q9 0 23 39q14 34 44.5 50t58.5 8q40 -11 55 -42t1 -68
q-60 -146 -175 -146q-75 0 -159 72q-29 29 -43.5 38.5t-31.5 9.5q-12 0 -22.5 -13.5t-33.5 -53.5q-16 -30 -44 -42.5t-58 -4.5q-33 12 -46.5 43.5t1.5 67.5z" />
    <glyph glyph-name="itilde" unicode="&#x129;" horiz-adv-x="595" 
d="M298 2q-36 0 -61.5 25t-25.5 61v935q0 39 25 63t62 24q39 0 62.5 -24t23.5 -63v-935q0 -37 -23.5 -61.5t-62.5 -24.5zM-5 1728q70 159 202 159q37 0 68 -11t47.5 -23.5t41.5 -35.5q26 -22 54 -39q10 -8 17 -8q10 0 24 40q15 34 45 50t58 7q40 -10 55 -41t1 -68
q-60 -147 -175 -147q-78 0 -159 73q-31 30 -45 39t-30 9q-12 0 -22.5 -13.5t-33.5 -53.5q-16 -30 -44 -43t-58 -4q-34 11 -47.5 42.5t1.5 67.5z" />
    <glyph glyph-name="Imacron" unicode="&#x12a;" horiz-adv-x="634" 
d="M335 2q-36 0 -61 25t-25 61v1385q0 36 25 61t61 25t61.5 -25t25.5 -61v-1385q0 -36 -25.5 -61t-61.5 -25zM-25 2004q0 36 25.5 62.5t61.5 26.5h508q36 0 61.5 -26.5t25.5 -62.5t-25.5 -61t-61.5 -25h-508q-36 0 -61.5 25t-25.5 61z" />
    <glyph glyph-name="imacron" unicode="&#x12b;" horiz-adv-x="445" 
d="M222 2q-36 0 -61.5 25t-25.5 61v935q0 39 25 63t62 24q39 0 62.5 -24t23.5 -63v-935q0 -37 -23.5 -61.5t-62.5 -24.5zM-57 1357q0 37 22.5 63t52.5 26h407q31 0 53 -25.5t22 -63.5q0 -37 -22.5 -61.5t-52.5 -24.5h-407q-30 0 -52.5 24.5t-22.5 61.5z" />
    <glyph glyph-name="Ibreve" unicode="&#x12c;" horiz-adv-x="553" 
d="M277 2q-36 0 -61.5 25t-25.5 61v1385q0 36 25.5 61t61.5 25t61 -25t25 -61v-1385q0 -36 -25 -61t-61 -25zM-49 2160q0 36 26 62t62 26t61.5 -26t25.5 -62q0 -34 38 -57.5t108 -23.5q72 0 110 22.5t38 58.5t25 62t61 26t61 -25.5t27 -60.5q-5 -108 -97.5 -176t-224.5 -68
q-136 0 -228.5 72t-92.5 170z" />
    <glyph glyph-name="ibreve" unicode="&#x12d;" horiz-adv-x="596" 
d="M296 1501q-124 0 -208 72t-84 170q0 38 24.5 63.5t58.5 25.5q32 0 56 -25.5t24 -63.5q0 -34 33 -57t96 -23t96.5 22t33.5 58q0 38 23.5 63.5t57.5 25.5q32 0 56.5 -25.5t24.5 -62.5q-7 -107 -89.5 -175t-202.5 -68zM211 88v935q0 39 25 63t62 24q39 0 62.5 -24t23.5 -63
v-935q0 -37 -23.5 -61.5t-62.5 -24.5q-36 0 -61.5 25t-25.5 61z" />
    <glyph glyph-name="Idotaccent" unicode="&#x130;" horiz-adv-x="582" 
d="M282 2q-36 0 -61.5 25t-25.5 61v1385q0 36 25.5 61t61.5 25t61 -25t25 -61v-1385q0 -36 -25 -61t-61 -25zM173 2037q0 55 35.5 86t83.5 31q47 0 82 -31t35 -86q0 -50 -34 -84.5t-85 -34.5q-48 0 -82.5 34.5t-34.5 84.5z" />
    <glyph glyph-name="dotlessi" unicode="&#x131;" horiz-adv-x="511" 
d="M256 2q-36 0 -61.5 25t-25.5 61v935q0 39 25 63t62 24q39 0 62.5 -24t23.5 -63v-935q0 -37 -23.5 -61.5t-62.5 -24.5z" />
    <glyph glyph-name="Nacute" unicode="&#x143;" horiz-adv-x="1647" 
d="M286 2q-36 0 -61.5 25t-25.5 61v1385q0 36 25.5 61t61.5 25q42 0 66 -30l924 -1203v1147q0 36 25.5 61t61.5 25q35 0 60.5 -25t25.5 -61v-1385q0 -36 -25.5 -61t-60.5 -25q-38 0 -65 27l-926 1206v-1147q0 -36 -25 -61t-61 -25zM691 1986q0 34 21 58l237 237q26 26 62 26
t62.5 -24.5t26.5 -63.5q0 -36 -26 -61l-236 -236q-26 -24 -59 -24q-36 0 -62 26t-26 62z" />
    <glyph glyph-name="nacute" unicode="&#x144;" 
d="M256 2q-36 0 -61.5 25t-25.5 61v935q0 39 25 63t62 24q39 0 62.5 -24t23.5 -63v-24q140 124 336 124q144 0 263 -58q119 -63 185.5 -180t66.5 -280v-517q0 -36 -25.5 -61t-61.5 -25t-61 25t-25 61v517q0 170 -90.5 257.5t-251.5 87.5q-151 0 -243.5 -78t-92.5 -196v-588
q0 -37 -23.5 -61.5t-62.5 -24.5zM609 1762q0 33 21 57l237 237q26 26 63 26t62.5 -24.5t25.5 -63.5q0 -35 -26 -61l-236 -236q-24 -24 -59 -24q-36 0 -62 26.5t-26 62.5z" />
    <glyph glyph-name="Ncaron" unicode="&#x147;" horiz-adv-x="1647" 
d="M286 2q-36 0 -61.5 25t-25.5 61v1385q0 36 25.5 61t61.5 25q42 0 66 -30l924 -1203v1147q0 36 25.5 61t61.5 25q35 0 60.5 -25t25.5 -61v-1385q0 -36 -25.5 -61t-60.5 -25q-38 0 -65 27l-926 1206v-1147q0 -36 -25 -61t-61 -25zM516 2160q0 52 43.5 73.5t97.5 -13.5
l180 -123l179 120q56 35 98.5 15t42.5 -72q0 -45 -43 -76l-231 -152q-16 -14 -46 -14q-32 0 -46 14l-231 152q-44 26 -44 76z" />
    <glyph glyph-name="ncaron" unicode="&#x148;" 
d="M256 2q-36 0 -61.5 25t-25.5 61v935q0 39 25 63t62 24q39 0 62.5 -24t23.5 -63v-24q140 124 336 124q144 0 263 -58q119 -63 185.5 -180t66.5 -280v-517q0 -36 -25.5 -61t-61.5 -25t-61 25t-25 61v517q0 170 -90.5 257.5t-251.5 87.5q-151 0 -243.5 -78t-92.5 -196v-588
q0 -37 -23.5 -61.5t-62.5 -24.5zM350 1743q0 52 43.5 74.5t97.5 -13.5l180 -124l179 120q56 35 98.5 15t42.5 -72q0 -44 -43 -75l-231 -153q-16 -14 -46 -14q-31 0 -47 14l-230 153q-44 26 -44 75z" />
    <glyph glyph-name="Omacron" unicode="&#x14c;" horiz-adv-x="1842" 
d="M922 -17q-226 0 -409 103.5t-286.5 286t-103.5 408.5t103.5 408.5t286 285.5t409.5 103q226 0 408.5 -103t285.5 -285.5t103 -408.5t-103 -408.5t-285.5 -286t-408.5 -103.5zM296 781q0 -180 80 -322.5t223 -222.5t323 -80q272 0 448 176t176 449q0 133 -47 249
t-129.5 198.5t-198.5 129.5t-249 47q-180 0 -323 -80t-223 -222.5t-80 -321.5zM595 2004q0 36 25 62.5t61 26.5h509q36 0 61 -26.5t25 -62.5t-25 -61t-61 -25h-509q-36 0 -61 25t-25 61z" />
    <glyph glyph-name="omacron" unicode="&#x14d;" horiz-adv-x="1334" 
d="M671 -10q-244 0 -405 160.5t-161 404.5q0 161 73 290.5t202.5 202.5t290.5 73q162 0 291 -73t201.5 -202.5t72.5 -290.5q0 -160 -73 -289.5t-202.5 -202.5t-289.5 -73zM278 555q0 -175 110.5 -287t282.5 -112q174 0 283 112t109 289q0 176 -109 287.5t-283 111.5
q-172 0 -282.5 -112t-110.5 -289zM315 1588q0 36 25.5 62t61.5 26h508q36 0 61.5 -26t25.5 -62t-25.5 -61.5t-61.5 -25.5h-508q-36 0 -61.5 25.5t-25.5 61.5z" />
    <glyph glyph-name="Obreve" unicode="&#x14e;" horiz-adv-x="1836" 
d="M919 -17q-226 0 -409 103.5t-286.5 286t-103.5 408.5t103.5 408.5t286 285.5t409.5 103q226 0 408.5 -103t285.5 -285.5t103 -408.5t-103 -408.5t-285.5 -286t-408.5 -103.5zM293 781q0 -180 80 -322.5t223 -222.5t323 -80q272 0 448 176t176 449q0 133 -47 249
t-129.5 198.5t-198.5 129.5t-249 47q-180 0 -323 -80t-223 -222.5t-80 -321.5zM621 2160q0 36 26 62t62 26t61 -26t25 -62q0 -34 38 -57.5t108 -23.5q72 0 110 22.5t38 58.5t25 62t61 26q37 0 62 -25.5t27 -60.5q-6 -108 -98.5 -176t-224.5 -68q-135 0 -227.5 72t-92.5 170z
" />
    <glyph glyph-name="obreve" unicode="&#x14f;" horiz-adv-x="1371" 
d="M687 -10q-245 0 -406 160.5t-161 404.5q0 161 73 290.5t203 202.5t291 73t290 -73t201.5 -202.5t72.5 -290.5q0 -160 -73 -289.5t-202 -202.5t-289 -73zM293 555q0 -175 110.5 -287t283.5 -112t282 112t109 289q0 176 -109 287.5t-282 111.5t-283.5 -112t-110.5 -289z
M348 1751q0 36 26 62t62 26t61.5 -26t25.5 -62q0 -34 38 -57.5t108 -23.5q71 0 109 22.5t38 58.5t25.5 62t61.5 26t61 -25.5t27 -60.5q-6 -108 -98.5 -176t-223.5 -68q-136 0 -228.5 72t-92.5 170z" />
    <glyph glyph-name="OE" unicode="&#x152;" horiz-adv-x="2310" 
d="M922 2q-170 0 -318.5 59t-254 162t-166 247.5t-60.5 310.5t60.5 310.5t166.5 247t254 161.5t318 59h1173q35 0 61 -25t26 -61q0 -35 -26 -61t-61 -26h-760v-518h620q36 0 61 -25.5t25 -61.5t-25 -62t-61 -26h-620v-518h760q35 0 61 -26.5t26 -60.5q0 -36 -26 -61t-61 -25
h-1173zM296 781q0 -175 80 -314t223 -217t323 -78h240v1217h-240q-273 0 -449.5 -171.5t-176.5 -436.5z" />
    <glyph glyph-name="oe" unicode="&#x153;" horiz-adv-x="2196" 
d="M671 -10q-249 0 -407.5 158.5t-158.5 406.5q0 249 158.5 407.5t407.5 158.5q159 0 281.5 -68t192.5 -190q65 120 179.5 188t260.5 68q227 0 370 -152t143 -393q0 -36 -24.5 -59t-60.5 -23h-772q19 -155 119 -245t254 -90q71 0 140.5 24t110.5 63q23 24 56 25t57 -20
q31 -25 32 -60t-27 -60q-66 -60 -169.5 -98.5t-199.5 -38.5q-155 0 -276 69t-190 192q-71 -124 -194.5 -193.5t-282.5 -69.5zM278 555q0 -184 109.5 -291.5t283.5 -107.5q177 0 284.5 109.5t107.5 289.5q0 183 -107.5 292t-284.5 109q-174 0 -283.5 -108.5t-109.5 -292.5z
M1244 649h682q-20 142 -110 223.5t-231 81.5q-134 0 -225.5 -82.5t-115.5 -222.5z" />
    <glyph glyph-name="Racute" unicode="&#x154;" horiz-adv-x="1463" 
d="M286 2q-36 0 -61.5 25t-25.5 61v1385q0 39 25.5 62.5t61.5 23.5h578q223 0 365.5 -135.5t142.5 -348.5q0 -157 -82.5 -274.5t-224.5 -169.5l310 -497q33 -54 11.5 -93t-83.5 -39q-26 0 -42 10t-34 33l-345 552h-510v-509q0 -36 -23.5 -61t-62.5 -25zM372 770h492
q152 0 244 83t92 222q0 142 -92 226.5t-244 84.5h-492v-616zM588 1986q0 34 21 58l237 237q28 26 63 26q36 0 62 -24.5t26 -63.5q0 -36 -26 -61l-236 -236q-24 -24 -59 -24q-36 0 -62 26t-26 62z" />
    <glyph glyph-name="racute" unicode="&#x155;" horiz-adv-x="832" 
d="M256 2q-36 0 -61.5 25t-25.5 61v935q0 39 25 63t62 24q39 0 62.5 -24t23.5 -63v-17q135 117 337 117l65 -4q37 -5 58 -34t14 -66q-6 -35 -34.5 -55.5t-63.5 -15.5l-41 2q-151 0 -243 -78t-92 -196v-588q0 -37 -23.5 -61.5t-62.5 -24.5zM340 1574q0 34 21 58l238 237
q26 26 62 26t62 -24.5t26 -63.5q0 -37 -26 -61l-236 -236q-24 -24 -58 -24q-36 0 -62.5 26t-26.5 62z" />
    <glyph glyph-name="Rcaron" unicode="&#x158;" horiz-adv-x="1463" 
d="M286 2q-36 0 -61.5 25t-25.5 61v1385q0 39 25.5 62.5t61.5 23.5h578q223 0 365.5 -135.5t142.5 -348.5q0 -157 -82.5 -274.5t-224.5 -169.5l310 -497q33 -54 11.5 -93t-83.5 -39q-26 0 -42 10t-34 33l-345 552h-510v-509q0 -36 -23.5 -61t-62.5 -25zM372 770h492
q152 0 244 83t92 222q0 142 -92 226.5t-244 84.5h-492v-616zM413 2160q0 52 43.5 73.5t97.5 -13.5l180 -123l179 120q55 35 98.5 15t43.5 -72q0 -44 -44 -76l-231 -152q-16 -14 -46 -14q-32 0 -46 14l-231 152q-44 27 -44 76z" />
    <glyph glyph-name="rcaron" unicode="&#x159;" horiz-adv-x="801" 
d="M270 2q-36 0 -61 25t-25 61v935q0 39 25 63t61 24q39 0 63 -24t24 -63v-17q134 117 337 117l64 -4q37 -5 58 -34t15 -66q-7 -35 -35.5 -55.5t-63.5 -15.5l-40 2q-151 0 -243 -78t-92 -196v-588q0 -36 -24 -61t-63 -25zM124 1743q0 52 43.5 74.5t97.5 -13.5l180 -124
l179 120q56 35 99 15t43 -72q0 -43 -44 -75l-231 -153q-16 -14 -46 -14q-32 0 -46 14l-231 153q-44 27 -44 75z" />
    <glyph glyph-name="Sacute" unicode="&#x15a;" horiz-adv-x="1323" 
d="M688 -19q-207 0 -356.5 93t-200.5 243q-10 35 -1.5 61.5t30.5 39.5l3 1q36 21 74 5l-7 1l11 -3q29 -15 42 -50q36 -108 139 -168t266 -60q175 0 260 72.5t85 205.5q0 104 -83.5 166.5t-284.5 120.5q-119 34 -192.5 64.5t-138.5 74.5q-161 106 -161 298q0 182 139 307
t349 125q170 0 295 -81t187 -218q14 -35 3 -68t-42 -48q-30 -16 -62 1t-52 60q-49 99 -127.5 145t-201.5 46q-154 0 -236.5 -74.5t-82.5 -194.5q0 -82 59 -143q48 -33 84 -50q65 -32 105.5 -47.5t127.5 -40.5q120 -40 202 -79t148 -91.5t97.5 -119.5t31.5 -153
q0 -200 -138.5 -320.5t-370.5 -120.5zM598 1986q0 35 22 58l237 237q26 26 62 26t62 -24.5t26 -63.5q0 -37 -25 -61l-237 -236q-24 -24 -58 -24q-36 0 -62.5 26t-26.5 62z" />
    <glyph glyph-name="sacute" unicode="&#x15b;" horiz-adv-x="1079" 
d="M536 -10q-115 0 -228 41.5t-186 128.5q-24 28 -19 63t37 57q28 20 61.5 15t53.5 -31q92 -107 287 -107q267 0 267 164q0 64 -63.5 104t-205.5 61q-196 28 -298.5 110.5t-102.5 200.5q0 151 109.5 237.5t289.5 86.5q259 0 390 -184q23 -27 15.5 -63.5t-44.5 -55.5
q-27 -15 -59 -9t-53 33q-88 114 -253 114q-110 0 -168 -41t-58 -107q0 -67 59.5 -104.5t203.5 -58.5q154 -22 238 -69q169 -91 169 -261q0 -143 -127 -234t-315 -91zM404 1599q0 36 21 58l237 237q26 26 62 26t62.5 -24.5t26.5 -63.5q0 -36 -26 -61l-237 -236
q-24 -24 -58 -24q-36 0 -62 26t-26 62z" />
    <glyph glyph-name="Scircumflex" unicode="&#x15c;" horiz-adv-x="1331" 
d="M693 -19q-207 0 -356.5 93t-200.5 243q-11 35 -2 61.5t31 39.5l2 1q37 20 74 5l-6 1l11 -3q30 -16 41 -50q36 -108 139.5 -168t266.5 -60q175 0 260 72.5t85 205.5q0 104 -83.5 166.5t-284.5 120.5q-118 34 -192 64.5t-140 74.5q-160 107 -160 298q0 182 139 307t349 125
q170 0 295 -81t187 -218q14 -35 3 -68t-42 -48q-30 -16 -62 1t-52 60q-49 99 -127.5 145t-201.5 46q-154 0 -236.5 -74.5t-82.5 -194.5q0 -82 59 -143q48 -33 84 -50q65 -32 105 -47t127 -41q120 -40 202.5 -79t148 -91.5t97 -119.5t31.5 -153q0 -200 -138 -320.5
t-370 -120.5zM382 1993q0 49 45 76l232 155q19 13 44 13q27 0 45 -13l232 -155q44 -27 44 -76q0 -37 -25 -61.5t-64 -24.5q-26 0 -51 15l-181 121l-179 -120q-25 -16 -51 -16q-36 0 -63.5 24.5t-27.5 61.5z" />
    <glyph glyph-name="scircumflex" unicode="&#x15d;" horiz-adv-x="1096" 
d="M564 -10q-115 0 -228 41.5t-186 128.5q-24 28 -19.5 63t36.5 57q29 20 62.5 15t53.5 -31q92 -107 287 -107q267 0 267 164q0 64 -63.5 104t-205.5 61q-196 28 -299 110.5t-103 200.5q0 151 110 237.5t290 86.5q259 0 390 -184q23 -27 15.5 -63.5t-44.5 -55.5
q-27 -15 -59 -9t-54 33q-86 114 -252 114q-110 0 -168.5 -41t-58.5 -107q0 -67 59.5 -104.5t203.5 -58.5q155 -22 239 -69q169 -92 169 -261q0 -143 -127 -234t-315 -91zM225 1601q0 50 44 76l233 156q21 12 44 12q24 0 45 -12l231 -156q44 -26 44 -76q0 -37 -24.5 -61.5
t-63.5 -24.5q-25 0 -52 15l-180 121l-180 -120q-26 -16 -51 -16q-36 0 -63 24.5t-27 61.5z" />
    <glyph glyph-name="Scedilla" unicode="&#x15e;" horiz-adv-x="1323" 
d="M627 -499q-102 0 -172 46t-70 109q0 36 25.5 62.5t61.5 26.5q33 0 54 -19l30 -24q14 -10 21 -14.5t20 -8t30 -3.5q85 0 85 49q0 28 -16.5 41t-72.5 30q-50 14 -72 42t1 84l27 66q-166 23 -284.5 111.5t-163.5 217.5q-11 36 -1.5 62.5t31.5 38.5l4 2q37 18 72 4l-7 1
l11 -3q29 -15 42 -50q36 -108 139 -168t266 -60q175 0 260 72.5t85 205.5q0 104 -83.5 166.5t-284.5 120.5q-119 34 -192.5 64.5t-138.5 74.5q-161 106 -161 298q0 182 139 307t349 125q170 0 295 -81t187 -218q14 -35 3 -68t-42 -48q-30 -16 -62 1t-52 60
q-49 99 -127.5 145t-201.5 46q-154 0 -236.5 -74.5t-82.5 -194.5q0 -82 59 -143q48 -33 84 -50q65 -32 105.5 -47.5t127.5 -40.5q120 -40 202 -79t148 -91.5t97.5 -119.5t31.5 -153q0 -182 -117 -300t-317 -138q-1 -5 -5 -20l-17 -41q89 -32 124 -80t35 -114
q0 -95 -80 -161.5t-193 -66.5z" />
    <glyph glyph-name="scedilla" unicode="&#x15f;" horiz-adv-x="1079" 
d="M469 -501q-102 0 -172 46t-70 109q0 36 25 62.5t61 26.5q34 0 55 -19l30 -24q15 -11 21 -14.5t19 -7.5t31 -4q84 0 84 50q0 28 -16.5 40.5t-71.5 29.5q-50 14 -72.5 42t1.5 84l33 80q-198 34 -305 160q-24 28 -19 63t37 57q28 20 61.5 15t53.5 -31q92 -107 287 -107
q267 0 267 164q0 64 -63.5 104t-205.5 61q-196 28 -298.5 110.5t-102.5 200.5q0 151 109.5 237.5t289.5 86.5q259 0 390 -184q23 -27 15.5 -63.5t-44.5 -55.5q-27 -15 -59 -9t-53 33q-88 114 -253 114q-110 0 -168 -41t-58 -107q0 -67 59.5 -104.5t203.5 -58.5
q154 -22 238 -69q169 -91 169 -261q0 -129 -104.5 -216.5t-267.5 -104.5q-2 -18 -7 -31l-17 -42q89 -32 124 -79.5t35 -114.5q0 -95 -79.5 -161.5t-192.5 -66.5z" />
    <glyph glyph-name="Scaron" unicode="&#x160;" horiz-adv-x="1323" 
d="M688 -19q-207 0 -356.5 93t-200.5 243q-11 36 -1.5 62.5t31.5 38.5l4 2q37 18 72 4l-7 1l11 -3q29 -15 42 -50q36 -108 139 -168t266 -60q175 0 260 72.5t85 205.5q0 104 -83.5 166.5t-284.5 120.5q-119 34 -192.5 64.5t-138.5 74.5q-161 106 -161 298q0 182 139 307
t349 125q170 0 295 -81t187 -218q14 -35 3 -68t-42 -48q-30 -16 -62 1t-52 60q-49 99 -127.5 145t-201.5 46q-154 0 -236.5 -74.5t-82.5 -194.5q0 -82 59 -143q48 -33 84 -50q65 -32 105.5 -47.5t127.5 -40.5q120 -40 202 -79t148 -91.5t97.5 -119.5t31.5 -153
q0 -200 -138.5 -320.5t-370.5 -120.5zM336 2160q0 52 44 74t98 -14l179 -123l180 120q55 35 98 15t43 -72q0 -44 -44 -76l-231 -152q-14 -14 -46 -14q-30 0 -46 14l-230 152q-45 27 -45 76z" />
    <glyph glyph-name="scaron" unicode="&#x161;" horiz-adv-x="1079" 
d="M536 -10q-115 0 -228 41.5t-186 128.5q-24 28 -19 63t37 57q28 20 61.5 15t53.5 -31q92 -107 287 -107q267 0 267 164q0 64 -63.5 104t-205.5 61q-196 28 -298.5 110.5t-102.5 200.5q0 151 109.5 237.5t289.5 86.5q259 0 390 -184q23 -27 15.5 -63.5t-44.5 -55.5
q-27 -15 -59 -9t-53 33q-88 114 -253 114q-110 0 -168 -41t-58 -107q0 -67 59.5 -104.5t203.5 -58.5q154 -22 238 -69q169 -91 169 -261q0 -143 -127 -234t-315 -91zM203 1736q0 52 43.5 73.5t97.5 -13.5l180 -124l179 120q55 35 98 15.5t43 -71.5q0 -45 -43 -76l-231 -153
q-16 -13 -46 -13q-31 0 -47 13l-230 153q-44 26 -44 76z" />
    <glyph glyph-name="Utilde" unicode="&#x168;" horiz-adv-x="1612" 
d="M805 -29q-266 0 -435.5 153.5t-169.5 395.5v953q0 39 25.5 62.5t61.5 23.5q38 0 62 -24t24 -62v-953q0 -170 118.5 -273t313.5 -103q196 0 315 103t119 273v953q0 39 25 62.5t61 23.5q39 0 63 -24t24 -62v-953q0 -159 -77.5 -284.5t-216 -195t-313.5 -69.5zM503 1953
q37 83 85.5 121t115.5 38q37 0 68.5 -11.5t47 -23t42.5 -35.5q33 -29 53 -39q10 -8 18 -8q9 0 23 39q14 34 44.5 50t58.5 8q40 -11 55 -42t1 -68q-60 -146 -175 -146q-75 0 -159 72q-29 29 -43.5 38.5t-31.5 9.5q-12 0 -22.5 -13.5t-33.5 -53.5q-16 -30 -44 -42.5t-58 -4.5
q-33 12 -47 43.5t2 67.5z" />
    <glyph glyph-name="utilde" unicode="&#x169;" horiz-adv-x="1363" 
d="M674 -12q-230 0 -372 140t-142 379v516q0 36 25 61.5t61 25.5t61.5 -25.5t25.5 -61.5v-516q0 -169 88 -257.5t253 -88.5q148 0 242 77t94 198v587q0 39 25 63t62 24q39 0 62.5 -24t23.5 -63v-935q0 -37 -23.5 -61.5t-62.5 -24.5q-36 0 -61.5 25t-25.5 61v24
q-137 -124 -336 -124zM300 1637q54 66 123.5 103t141.5 37q96 0 189 -68q24 -16 30.5 -20t21 -12t25 -9.5t24.5 -1.5q56 0 84 32q24 27 55 34.5t55 -6.5q39 -19 47.5 -53.5t-15.5 -66.5q-83 -109 -226 -109q-41 0 -82 13.5t-62 25.5t-53 33q-37 25 -53 32t-40 7
q-67 0 -125 -67q-20 -28 -54.5 -34t-60.5 11q-32 19 -39.5 53.5t14.5 65.5z" />
    <glyph glyph-name="Umacron" unicode="&#x16a;" horiz-adv-x="1610" 
d="M804 -29q-266 0 -435.5 153.5t-169.5 395.5v953q0 39 25.5 62.5t61.5 23.5q38 0 62 -24t24 -62v-953q0 -170 118.5 -273t313.5 -103q196 0 315 103t119 273v953q0 39 25 62.5t61 23.5q39 0 63 -24t24 -62v-953q0 -159 -77.5 -284.5t-216 -195t-313.5 -69.5zM425 2004
q0 36 25 62.5t61 26.5h509q36 0 61 -26.5t25 -62.5t-25 -61t-61 -25h-509q-36 0 -61 25t-25 61z" />
    <glyph glyph-name="umacron" unicode="&#x16b;" 
d="M684 -12q-230 0 -372.5 140t-142.5 379v516q0 36 25.5 61.5t61.5 25.5t61 -25.5t25 -61.5v-516q0 -169 88.5 -257.5t253.5 -88.5q148 0 242 77t94 198v587q0 39 25 63t61 24q39 0 63 -24t24 -63v-935q0 -36 -24 -61t-63 -25q-36 0 -61 25t-25 61v24q-137 -124 -336 -124z
M339 1588q0 36 25.5 62t61.5 26h509q36 0 61 -26t25 -62t-25 -61.5t-61 -25.5h-509q-36 0 -61.5 25.5t-25.5 61.5z" />
    <glyph glyph-name="Ubreve" unicode="&#x16c;" horiz-adv-x="1612" 
d="M805 -29q-266 0 -435.5 153.5t-169.5 395.5v953q0 39 25.5 62.5t61.5 23.5q38 0 62 -24t24 -62v-953q0 -170 118.5 -273t313.5 -103q196 0 315 103t119 273v953q0 39 25 62.5t61 23.5q39 0 63 -24t24 -62v-953q0 -159 -77.5 -284.5t-216 -195t-313.5 -69.5zM433 2160
q0 36 26 62t62 26t61 -26t25 -62q0 -34 38 -57.5t108 -23.5q72 0 110 22.5t38 58.5t25 62t61 26q37 0 62 -25.5t27 -60.5q-6 -108 -98.5 -176t-224.5 -68q-135 0 -227.5 72t-92.5 170z" />
    <glyph glyph-name="ubreve" unicode="&#x16d;" horiz-adv-x="1363" 
d="M674 -12q-230 0 -372 140t-142 379v516q0 36 25 61.5t61 25.5t61.5 -25.5t25.5 -61.5v-516q0 -169 88 -257.5t253 -88.5q148 0 242 77t94 198v587q0 39 25 63t62 24q39 0 62.5 -24t23.5 -63v-935q0 -37 -23.5 -61.5t-62.5 -24.5q-36 0 -61.5 25t-25.5 61v24
q-137 -124 -336 -124zM336 1743q0 36 26.5 62.5t62.5 26.5t61 -26.5t25 -62.5q0 -34 38 -57t108 -23q72 0 110 22.5t38 57.5q0 36 25 62.5t61 26.5t61.5 -26t27.5 -61q-6 -108 -98.5 -176t-224.5 -68q-135 0 -228 72t-93 170z" />
    <glyph glyph-name="Uring" unicode="&#x16e;" horiz-adv-x="1610" 
d="M804 -29q-266 0 -435.5 153.5t-169.5 395.5v953q0 39 25.5 62.5t61.5 23.5q38 0 62 -24t24 -62v-953q0 -170 118.5 -273t313.5 -103q196 0 315 103t119 273v953q0 39 25 62.5t61 23.5q39 0 63 -24t24 -62v-953q0 -159 -77.5 -284.5t-216 -195t-313.5 -69.5zM602 2013
q0 86 61 146t145 60q85 0 145 -60.5t60 -145.5q0 -83 -59.5 -144t-145.5 -61q-82 0 -144 61.5t-62 143.5zM735 2013q0 -33 20 -53t53 -20q35 0 55 20t20 53q0 36 -19.5 55.5t-55.5 19.5q-33 0 -53 -20t-20 -55z" />
    <glyph glyph-name="uring" unicode="&#x16f;" 
d="M684 -12q-230 0 -372.5 140t-142.5 379v516q0 36 25.5 61.5t61.5 25.5t61 -25.5t25 -61.5v-516q0 -169 88.5 -257.5t253.5 -88.5q148 0 242 77t94 198v587q0 39 25 63t61 24q39 0 63 -24t24 -63v-935q0 -36 -24 -61t-63 -25q-36 0 -61 25t-25 61v24q-137 -124 -336 -124z
M441 1707q0 86 61 145.5t145 59.5q85 0 145 -60t60 -145q0 -84 -59.5 -145t-145.5 -61q-83 0 -144.5 61.5t-61.5 144.5zM574 1707q0 -33 19.5 -53t53.5 -20q35 0 54.5 20t19.5 53q0 75 -74 75q-34 0 -53.5 -20t-19.5 -55z" />
    <glyph glyph-name="Wcircumflex" unicode="&#x174;" horiz-adv-x="1821" 
d="M526 2q-28 0 -53 20t-34 50l-397 1364q-14 49 9.5 86t71.5 37q64 0 84 -65l319 -1105l303 1055q6 24 29.5 40.5t51.5 16.5q31 0 53.5 -17t30.5 -42l302 -1053l320 1111q16 59 83 59q48 0 70.5 -37t9.5 -86l-395 -1363q-10 -34 -34.5 -52.5t-53.5 -18.5q-33 0 -56 20
t-31 51l-299 1055l-294 -1055q-10 -32 -34 -51.5t-56 -19.5zM605 1993q0 50 44 76l233 155q20 13 44 13q25 0 45 -13l231 -155q44 -26 44 -76q0 -37 -24.5 -61.5t-63.5 -24.5q-27 0 -52 15l-180 121l-180 -120q-23 -16 -51 -16q-36 0 -63 24.5t-27 61.5z" />
    <glyph glyph-name="wcircumflex" unicode="&#x175;" horiz-adv-x="1573" 
d="M473 2q-30 0 -51.5 16t-29.5 41l-312 933q-10 56 9.5 87t62.5 31q27 0 49 -15t32 -39l242 -733l223 721q22 66 86 66q63 0 85 -66l225 -707l239 719q21 54 80 54q48 0 70.5 -38.5t2.5 -83.5l-309 -929q-8 -27 -30 -42t-52 -15t-51.5 16t-30.5 41l-233 723l-226 -723
q-7 -26 -29.5 -41.5t-51.5 -15.5zM426 1576q0 50 44 76l232 156q22 12 44 12q26 0 45 -12l232 -156q44 -27 44 -76q0 -36 -24.5 -61t-63.5 -25q-25 0 -52 15l-181 121l-179 -120q-27 -16 -51 -16q-36 0 -63 24.5t-27 61.5z" />
    <glyph glyph-name="Ycircumflex" unicode="&#x176;" horiz-adv-x="1351" 
d="M675 2q-36 0 -61 25t-25 61v495l-525 842q-29 49 -6 91.5t74 42.5q41 0 69 -35l474 -772l465 757q30 50 80 50q51 0 73.5 -44t-6.5 -90l-525 -842v-495q0 -36 -25.5 -61t-61.5 -25zM327 1993q0 50 44 76l232 155q21 13 44 13q27 0 45 -13l232 -155q44 -26 44 -76
q0 -37 -25 -61.5t-63 -24.5q-27 0 -52 15l-181 121l-179 -120q-25 -16 -51 -16q-36 0 -63 24.5t-27 61.5z" />
    <glyph glyph-name="ycircumflex" unicode="&#x177;" horiz-adv-x="1206" 
d="M405 -453q-18 0 -37 8q-37 14 -49 44t5 66l185 400v1l-421 924q-17 34 -7 65.5t45 47.5q34 17 65.5 7t47.5 -45l364 -796l366 794q16 35 44 46t63 -3q37 -14 49.5 -44t-4.5 -66l-645 -1398q-24 -51 -71 -51zM270 1588q0 48 44 76l233 155q19 13 44 13t45 -13l231 -155
q44 -28 44 -76q0 -37 -24.5 -62t-63.5 -25q-26 0 -52 16l-180 121l-180 -120q-25 -17 -51 -17q-36 0 -63 25t-27 62z" />
    <glyph glyph-name="Ydieresis" unicode="&#x178;" horiz-adv-x="1351" 
d="M675 2q-36 0 -61 25t-25 61v495l-525 842q-29 49 -6 91.5t74 42.5q41 0 69 -35l474 -772l465 757q30 50 80 50q51 0 73.5 -44t-6.5 -90l-525 -842v-495q0 -36 -25.5 -61t-61.5 -25zM390 2102q0 52 38 89.5t91 37.5q54 0 90 -37t36 -90q0 -54 -36 -91t-90 -37
q-53 0 -91 37.5t-38 90.5zM774 2102q0 52 38 89.5t91 37.5q54 0 90 -37t36 -90q0 -54 -36 -91t-90 -37q-53 0 -91 37.5t-38 90.5z" />
    <glyph glyph-name="Zacute" unicode="&#x179;" horiz-adv-x="1505" 
d="M216 2q-56 0 -78 50t11 91l991 1255h-924q-39 0 -62.5 21.5t-23.5 58.5q0 33 24.5 57t61.5 24h1078q54 0 78 -47.5t-7 -88.5l-999 -1260h928q38 0 62 -22t24 -58q0 -31 -25.5 -56t-60.5 -25h-1078zM674 1986q0 34 21 58l238 237q26 26 62 26t62 -24.5t26 -63.5
q0 -37 -26 -61l-236 -236q-24 -24 -58 -24q-36 0 -62.5 26t-26.5 62z" />
    <glyph glyph-name="zacute" unicode="&#x17a;" horiz-adv-x="1148" 
d="M212 2q-38 0 -59.5 22t-21.5 59q0 39 23 60l646 805h-588q-38 0 -59.5 22t-21.5 59t21.5 59t59.5 22h750q38 0 59.5 -22t21.5 -59q0 -31 -13 -50l-651 -816h583q37 0 59 -21.5t22 -58.5t-21.5 -59t-59.5 -22h-750zM513 1574q0 34 21 58l237 237q28 26 63 26
q36 0 62 -24.5t26 -63.5q0 -36 -26 -61l-236 -236q-24 -24 -59 -24q-36 0 -62 26t-26 62z" />
    <glyph glyph-name="Zdotaccent" unicode="&#x17b;" horiz-adv-x="1506" 
d="M216 2q-56 0 -78 50t11 91l991 1255h-924q-39 0 -62.5 21.5t-23.5 58.5q0 33 24.5 57t61.5 24h1078q54 0 78.5 -48.5t-7.5 -88.5l-999 -1259h928q38 0 62 -22t24 -58q0 -31 -25.5 -56t-60.5 -25h-1078zM608 1999q0 55 35.5 86t83.5 31q47 0 82 -31t35 -86
q0 -50 -34.5 -84.5t-84.5 -34.5q-48 0 -82.5 34.5t-34.5 84.5z" />
    <glyph glyph-name="Zdotaccent" unicode="&#x17c;" horiz-adv-x="1506" 
d="M216 2q-56 0 -78 50t11 91l991 1255h-924q-39 0 -62.5 21.5t-23.5 58.5q0 33 24.5 57t61.5 24h1078q54 0 78.5 -48.5t-7.5 -88.5l-999 -1259h928q38 0 62 -22t24 -58q0 -31 -25.5 -56t-60.5 -25h-1078zM608 1999q0 55 35.5 86t83.5 31q47 0 82 -31t35 -86
q0 -50 -34.5 -84.5t-84.5 -34.5q-48 0 -82.5 34.5t-34.5 84.5z" />
    <glyph glyph-name="Zcaron" unicode="&#x17d;" horiz-adv-x="1506" 
d="M216 2q-56 0 -78 50t11 91l991 1255h-924q-39 0 -62.5 21.5t-23.5 58.5q0 33 24.5 57t61.5 24h1078q54 0 78.5 -48.5t-7.5 -88.5l-999 -1259h928q38 0 62 -22t24 -58q0 -31 -25.5 -56t-60.5 -25h-1078zM442 2160q0 52 43.5 73.5t97.5 -13.5l180 -123l179 120
q56 35 98.5 15t42.5 -72q0 -45 -43 -76l-231 -152q-16 -14 -46 -14q-32 0 -46 14l-231 152q-44 26 -44 76z" />
    <glyph glyph-name="zcaron" unicode="&#x17e;" horiz-adv-x="1148" 
d="M212 2q-38 0 -59.5 22t-21.5 59q0 39 23 60l646 805h-588q-38 0 -59.5 22t-21.5 59t21.5 59t59.5 22h750q38 0 59.5 -22t21.5 -59q0 -31 -13 -50l-651 -816h583q37 0 59 -21.5t22 -58.5t-21.5 -59t-59.5 -22h-750zM284 1736q0 52 43.5 73.5t97.5 -13.5l179 -124l180 120
q56 35 98.5 15.5t42.5 -71.5q0 -44 -43 -76l-232 -153q-15 -13 -46 -13q-30 0 -46 13l-230 153q-44 26 -44 76z" />
    <glyph glyph-name="florin" unicode="&#x192;" horiz-adv-x="916" 
d="M68 -447q-36 0 -61 25t-25 61t25 62t61 26q158 0 231 72.5t73 229.5v848h-69q-36 0 -61.5 25.5t-25.5 61.5t25.5 62t61.5 26h69v31q0 235 120 355.5t356 120.5q36 0 61 -25t25 -61t-25 -62.5t-61 -26.5q-157 0 -230.5 -72.5t-73.5 -228.5v-31h227q36 0 61 -26t25 -62
t-25 -61.5t-61 -25.5h-225v-848q0 -236 -120.5 -356t-357.5 -120z" />
    <glyph glyph-name="Gcaron" unicode="&#x1e6;" horiz-adv-x="1583" 
d="M900 -17q-157 0 -301 63.5t-249 170.5t-167.5 255t-62.5 309q0 215 102.5 398t282.5 291t395 108q279 0 492 -177q26 -21 28 -57t-22 -64t-64 -28q-29 0 -66 30q-136 123 -368 123q-124 0 -236.5 -50.5t-193.5 -134.5t-129 -199t-48 -240q0 -173 81 -316.5t220.5 -226
t305.5 -82.5q132 0 222 24.5t169 79.5v460h-381q-36 0 -61 24t-25 59q0 32 24.5 55t61.5 23h467q39 0 62.5 -23.5t23.5 -60.5v-580q0 -40 -22 -61q-94 -94 -227 -133.5t-314 -39.5zM536 2160q0 52 43.5 73.5t97.5 -13.5l180 -123l179 120q56 35 98.5 15t42.5 -72
q0 -45 -43 -76l-231 -152q-16 -14 -46 -14q-32 0 -46 14l-231 152q-44 26 -44 76z" />
    <glyph glyph-name="gcaron" unicode="&#x1e7;" horiz-adv-x="1371" 
d="M694 -399q-301 0 -480 222q-21 32 -21 58q0 37 32 60q29 21 67 14.5t57 -36.5q131 -153 345 -153q164 0 269.5 106.5t114.5 278.5q-117 -126 -301 -155q-42 -6 -90 -6q-249 0 -408 158.5t-159 406.5q0 247 161 406.5t406 159.5q237 0 391 -143v59q0 37 25 61.5t64 24.5
q36 0 60 -25t24 -61v-858q0 -163 -71.5 -295.5t-199 -207.5t-286.5 -75zM293 555q0 -175 110.5 -287t283.5 -112t282 111.5t109 287.5q0 177 -109 289t-282 112t-283.5 -112t-110.5 -289zM354 1743q0 52 43.5 74.5t97.5 -13.5l179 -124l180 120q56 35 98.5 15t42.5 -72
q0 -44 -43 -75l-232 -153q-14 -14 -46 -14q-30 0 -46 14l-230 153q-44 26 -44 75z" />
    <glyph glyph-name="uni02BB" unicode="&#x2bb;" horiz-adv-x="517" 
d="M261 1083q-56 0 -88.5 45.5t-32.5 123.5q0 62 25 141.5t69 140t90 60.5q36 0 59 -30t8 -65q-19 -50 -26 -92.5t-5 -65.5t8 -59q8 -46 8 -76q0 -57 -32 -90t-83 -33z" />
    <glyph glyph-name="uni02BC" unicode="&#x2bc;" horiz-adv-x="366" 
d="M68 388q-34 0 -56.5 29t-10.5 65q19 52 26 94.5t5 64.5t-8 58q-7 40 -7 77q0 57 33 90t82 33q55 0 88 -46t33 -123q0 -62 -25.5 -141.5t-69.5 -140t-90 -60.5z" />
    <glyph glyph-name="circumflex" unicode="&#x2c6;" horiz-adv-x="815" 
d="M172 1208q-36 0 -63 24.5t-27 61.5q0 50 44 76l232 155q21 13 45 13q25 0 45 -13l231 -155q44 -26 44 -76q0 -37 -24.5 -61.5t-63.5 -24.5q-30 0 -53 16l-179 120l-180 -120q-23 -16 -51 -16z" />
    <glyph glyph-name="caron" unicode="&#x2c7;" horiz-adv-x="815" 
d="M403 1208q-33 0 -47 13l-230 153q-44 26 -44 76q0 52 43.5 73.5t97.5 -13.5l180 -124l179 120q56 35 98.5 15.5t42.5 -71.5q0 -45 -43 -76l-231 -153q-14 -13 -46 -13z" />
    <glyph glyph-name="uni02C9" unicode="&#x2c9;" horiz-adv-x="815" 
d="M170 1202q-36 0 -62 26t-26 62t26 62.5t62 26.5h465q39 0 63.5 -26t24.5 -63t-24.5 -62.5t-63.5 -25.5h-465z" />
    <glyph glyph-name="breve" unicode="&#x2d8;" horiz-adv-x="815" 
d="M403 1208q-136 0 -228.5 72t-92.5 170q0 36 26 62t62 26t61.5 -26t25.5 -62q0 -35 37.5 -58t108.5 -23q72 0 109.5 22.5t37.5 58.5t25.5 62t61.5 26t61 -25.5t27 -60.5q-6 -108 -98.5 -176t-223.5 -68z" />
    <glyph glyph-name="dotaccent" unicode="&#x2d9;" horiz-adv-x="439" 
d="M212 1208q-53 0 -89.5 37t-36.5 89q0 53 37 89t89 36q53 0 89 -35.5t36 -87.5q0 -54 -35.5 -91t-89.5 -37z" />
    <glyph glyph-name="ring" unicode="&#x2da;" horiz-adv-x="589" 
d="M289 1148q-82 0 -143.5 62t-61.5 144q0 86 61 145.5t144 59.5q85 0 145.5 -60t60.5 -145q0 -84 -60 -145t-146 -61zM216 1354q0 -34 20 -53.5t53 -19.5q35 0 55 19.5t20 53.5q0 74 -75 74q-33 0 -53 -19.5t-20 -54.5z" />
    <glyph glyph-name="tilde" unicode="&#x2dc;" horiz-adv-x="964" 
d="M658 1212q-42 0 -83 13t-62 25.5t-52 33.5q-37 24 -55.5 31.5t-37.5 7.5q-65 0 -125 -67q-20 -28 -54 -34t-61 11q-33 20 -39.5 54t13.5 64q116 141 266 141q39 0 81 -14t58 -23.5t50 -30.5q33 -24 53.5 -34t47.5 -10q55 0 84 33q22 24 52 31.5t56 -3.5q40 -18 49.5 -53
t-15.5 -67q-79 -109 -226 -109z" />
    <glyph glyph-name="hungarumlaut" unicode="&#x2dd;" horiz-adv-x="740" 
d="M451 1133q-26 0 -46 19t-20 48v12q0 10 5 18l89 272q8 24 29.5 40.5t49.5 16.5q39 0 63.5 -26t24.5 -60q0 -17 -5 -32l-126 -265q-20 -43 -64 -43zM84 1200q0 22 5 30l87 273q10 26 32 41t49 15q38 0 63 -26t25 -60q0 -11 -6 -31l-126 -267q-22 -42 -64 -42
q-26 0 -45.5 19t-19.5 48z" />
    <glyph glyph-name="uni0374" unicode="&#x374;" horiz-adv-x="550" 
d="M172 1046q-40 0 -64 25.5t-24 55.5q0 24 8 43l190 455q25 61 84 61q43 0 65.5 -26t22.5 -55t-8 -45l-189 -453q-27 -61 -85 -61z" />
    <glyph glyph-name="uni0375" unicode="&#x375;" horiz-adv-x="551" 
d="M185 -497q-41 0 -65 25.5t-24 54.5q0 15 3 25l4 17l191 457q25 60 85 60q43 0 65.5 -26t22.5 -55q0 -22 -8 -43l-190 -455q-25 -60 -84 -60z" />
    <glyph glyph-name="uni037E" unicode="&#x37e;" horiz-adv-x="456" 
d="M188 -296q-30 0 -48 17t-18 45q0 30 32 73q1 1 6 8t5.5 8.5t4.5 7.5t5 8.5t3.5 8t3 9t1.5 9t1 10.5q0 20 -6 36.5t-11.5 24.5t-20.5 26q-47 54 -47 109q0 56 38.5 89.5t88.5 33.5q65 0 106.5 -51t41.5 -138q0 -130 -55 -232t-131 -102zM80 857q0 52 37 88.5t90 36.5
t89 -37t36 -88q0 -53 -36.5 -89.5t-88.5 -36.5t-89.5 36.5t-37.5 89.5z" />
    <glyph glyph-name="anoteleia" unicode="&#x387;" horiz-adv-x="439" 
d="M212 741q-52 0 -89 36.5t-37 90.5q0 52 36.5 88.5t89.5 36.5t89 -37t36 -88q0 -53 -36.5 -90t-88.5 -37z" />
    <glyph glyph-name="Wgrave" unicode="&#x1e80;" horiz-adv-x="1821" 
d="M526 2q-28 0 -53 20t-34 50l-397 1364q-14 49 9.5 86t71.5 37q64 0 84 -65l319 -1105l303 1055q6 24 29.5 40.5t51.5 16.5q31 0 53.5 -17t30.5 -42l302 -1053l320 1111q16 59 83 59q48 0 70.5 -37t9.5 -86l-395 -1363q-10 -34 -34.5 -52.5t-53.5 -18.5q-33 0 -56 20
t-31 51l-299 1055l-294 -1055q-10 -32 -34 -51.5t-56 -19.5zM577 2256q0 39 26 63.5t63 24.5q36 0 60 -26l236 -236q22 -20 22 -58q0 -36 -25 -62.5t-61 -26.5q-29 0 -60 22l-237 239q-24 24 -24 60z" />
    <glyph glyph-name="wgrave" unicode="&#x1e81;" horiz-adv-x="1573" 
d="M473 2q-30 0 -51.5 16t-29.5 41l-312 933q-10 56 9.5 87t62.5 31q27 0 49 -15t32 -39l242 -733l223 721q22 66 86 66q63 0 85 -66l225 -707l239 719q21 54 80 54q48 0 70.5 -38.5t2.5 -83.5l-309 -929q-8 -27 -30 -42t-52 -15t-51.5 16t-30.5 41l-233 723l-226 -723
q-7 -26 -29.5 -41.5t-51.5 -15.5zM459 1822q0 39 25.5 63.5t62.5 24.5t61 -26l236 -236q22 -20 22 -58q0 -36 -25 -62.5t-61 -26.5q-29 0 -60 23l-237 238q-24 24 -24 60z" />
    <glyph glyph-name="Wacute" unicode="&#x1e82;" horiz-adv-x="1821" 
d="M526 2q-28 0 -53 20t-34 50l-397 1364q-14 49 9.5 86t71.5 37q64 0 84 -65l319 -1105l303 1055q6 24 29.5 40.5t51.5 16.5q31 0 53.5 -17t30.5 -42l302 -1053l320 1111q16 59 83 59q48 0 70.5 -37t9.5 -86l-395 -1363q-10 -34 -34.5 -52.5t-53.5 -18.5q-33 0 -56 20
t-31 51l-299 1055l-294 -1055q-10 -32 -34 -51.5t-56 -19.5zM869 1986q0 34 21 58l237 237q28 26 63 26q36 0 62 -24.5t26 -63.5q0 -36 -26 -61l-236 -236q-24 -24 -59 -24q-36 0 -62 26t-26 62z" />
    <glyph glyph-name="wacute" unicode="&#x1e83;" horiz-adv-x="1573" 
d="M473 2q-30 0 -51.5 16t-29.5 41l-312 933q-10 56 9.5 87t62.5 31q27 0 49 -15t32 -39l242 -733l223 721q22 66 86 66q63 0 85 -66l225 -707l239 719q21 54 80 54q48 0 70.5 -38.5t2.5 -83.5l-309 -929q-8 -27 -30 -42t-52 -15t-51.5 16t-30.5 41l-233 723l-226 -723
q-7 -26 -29.5 -41.5t-51.5 -15.5zM686 1574q0 36 21 58l237 237q26 26 62 26t62.5 -24.5t26.5 -63.5q0 -36 -26 -61l-236 -236q-26 -24 -59 -24q-36 0 -62 26t-26 62z" />
    <glyph glyph-name="Wdieresis" unicode="&#x1e84;" horiz-adv-x="1821" 
d="M526 2q-28 0 -53 20t-34 50l-397 1364q-14 49 9.5 86t71.5 37q64 0 84 -65l319 -1105l303 1055q6 24 29.5 40.5t51.5 16.5q31 0 53.5 -17t30.5 -42l302 -1053l320 1111q16 59 83 59q48 0 70.5 -37t9.5 -86l-395 -1363q-10 -34 -34.5 -52.5t-53.5 -18.5q-33 0 -56 20
t-31 51l-299 1055l-294 -1055q-10 -32 -34 -51.5t-56 -19.5zM588 2049q0 52 37.5 89t90.5 37q54 0 90.5 -37t36.5 -89q0 -54 -36.5 -91.5t-90.5 -37.5q-53 0 -90.5 38t-37.5 91zM972 2049q0 52 37.5 89t90.5 37q54 0 90.5 -37t36.5 -89q0 -54 -36.5 -91.5t-90.5 -37.5
q-53 0 -90.5 38t-37.5 91z" />
    <glyph glyph-name="wdieresis" unicode="&#x1e85;" horiz-adv-x="1573" 
d="M473 2q-30 0 -51.5 16t-29.5 41l-312 933q-10 56 9.5 87t62.5 31q27 0 49 -15t32 -39l242 -733l223 721q22 66 86 66q63 0 85 -66l225 -707l239 719q21 54 80 54q48 0 70.5 -38.5t2.5 -83.5l-309 -929q-8 -27 -30 -42t-52 -15t-51.5 16t-30.5 41l-233 723l-226 -723
q-7 -26 -29.5 -41.5t-51.5 -15.5zM445 1630q0 52 37.5 89.5t90.5 37.5t90 -37.5t37 -89.5q0 -54 -36.5 -91.5t-90.5 -37.5q-53 0 -90.5 38t-37.5 91zM829 1630q0 52 37.5 89.5t90.5 37.5t90 -37.5t37 -89.5q0 -54 -36.5 -91.5t-90.5 -37.5q-53 0 -90.5 38t-37.5 91z" />
    <glyph glyph-name="uni1E9E" unicode="&#x1e9e;" horiz-adv-x="1366" 
d="M786 -10q-153 0 -279 73q-17 12 -26 20.5t-17 25.5t-8 39q0 44 40.5 69t86.5 3l27 -13q12 -4 40 -18q55 -26 136 -26q131 0 214 91.5t83 231.5q0 152 -78 238t-219 86h-79q-35 0 -59.5 25.5t-24.5 61.5q0 41 27 64l290 326q-41 47 -113.5 77t-146.5 30q-151 0 -229 -83
t-78 -261v-967q0 -33 -24 -57t-64 -24q-41 0 -63 24.5t-22 56.5v1006q0 160 65 268q126 202 421 202q131 0 248.5 -60.5t168.5 -151.5q39 -70 -25 -147l-206 -226q177 -31 280.5 -163.5t103.5 -324.5q0 -210 -134 -353t-336 -143z" />
    <glyph glyph-name="Ygrave" unicode="&#x1ef2;" horiz-adv-x="1351" 
d="M675 2q-36 0 -61 25t-25 61v495l-526 842q-28 49 -5 91.5t74 42.5q41 0 69 -35l474 -772l465 757q30 50 80 50q51 0 73.5 -44t-6.5 -90l-525 -842v-495q0 -36 -25.5 -61t-61.5 -25zM344 2256q0 39 25.5 63.5t62.5 24.5q35 0 61 -26l236 -236q22 -22 22 -58t-25 -62.5
t-61 -26.5q-29 0 -60 22l-237 239q-24 24 -24 60z" />
    <glyph glyph-name="ygrave" unicode="&#x1ef3;" horiz-adv-x="1206" 
d="M405 -453q-18 0 -37 8q-37 14 -49 44t5 66l185 400v1l-421 924q-17 34 -7 65.5t45 47.5q34 17 65.5 7t47.5 -45l364 -796l366 794q16 35 44 46t63 -3q37 -14 49.5 -44t-4.5 -66l-645 -1398q-24 -51 -71 -51zM305 1822q0 39 25.5 63.5t62.5 24.5q36 0 60 -26l237 -236
q22 -22 22 -58t-25.5 -62.5t-61.5 -26.5q-28 0 -59 23l-237 238q-24 22 -24 60z" />
    <glyph glyph-name="uni2010" unicode="&#x2010;" horiz-adv-x="608" 
d="M49 468q-36 0 -61 25.5t-25 61.5q0 39 24.5 63.5t61.5 24.5h467q37 0 62.5 -24.5t25.5 -63.5q0 -36 -26 -61.5t-62 -25.5h-467z" />
    <glyph glyph-name="endash" unicode="&#x2013;" horiz-adv-x="953" 
d="M89 468q-36 0 -62.5 25.5t-26.5 61.5q0 39 26 63.5t63 24.5h777q37 0 62 -24.5t25 -63.5q0 -36 -25.5 -61.5t-61.5 -25.5h-777z" />
    <glyph glyph-name="emdash" unicode="&#x2014;" horiz-adv-x="2041" 
d="M87 468q-36 0 -61.5 25.5t-25.5 61.5q0 39 25 63.5t62 24.5h1868q37 0 61.5 -24.5t24.5 -63.5q0 -36 -25 -61.5t-61 -25.5h-1868z" />
    <glyph glyph-name="uni2015" unicode="&#x2015;" horiz-adv-x="1575" 
d="M89 468q-36 0 -62.5 25.5t-26.5 61.5q0 39 26 63.5t63 24.5h1399q37 0 62 -24.5t25 -63.5q0 -36 -25.5 -61.5t-61.5 -25.5h-1399z" />
    <glyph glyph-name="quoteleft" unicode="&#x2018;" horiz-adv-x="571" 
d="M278 1083q-56 0 -88.5 45.5t-32.5 123.5q0 62 25 141.5t69 140t90 60.5q36 0 59.5 -30t7.5 -65q-27 -71 -30 -127t7 -90q8 -46 8 -76q0 -57 -32 -90t-83 -33z" />
    <glyph glyph-name="quoteright" unicode="&#x2019;" horiz-adv-x="569" 
d="M228 388q-34 0 -56.5 29t-10.5 65q27 73 30 128.5t-7 88.5q-8 46 -8 77q0 56 33 89.5t82 33.5q55 0 88 -46t33 -123q0 -62 -25 -141.5t-69 -140t-90 -60.5z" />
    <glyph glyph-name="quotesinglbase" unicode="&#x201a;" horiz-adv-x="569" 
d="M228 -284q-34 0 -56.5 29t-10.5 65q27 73 30 128.5t-7 88.5q-8 46 -8 77q0 56 33 89.5t82 33.5q55 0 88 -46t33 -123q0 -62 -25 -141.5t-69 -140t-90 -60.5z" />
    <glyph glyph-name="quotereversed" unicode="&#x201b;" horiz-adv-x="571" 
d="M341 1060q-46 0 -90 60.5t-69 140t-25 141.5q0 77 33 123t88 46q51 0 83 -33t32 -90q0 -31 -8 -77q-10 -33 -7 -88t30 -128q16 -35 -7.5 -65t-59.5 -30z" />
    <glyph glyph-name="quotedblleft" unicode="&#x201c;" horiz-adv-x="840" 
d="M547 1083q-56 0 -88.5 45.5t-32.5 123.5q0 62 25 141.5t69 140t90 60.5q36 0 59 -30t8 -65q-27 -71 -30 -127t7 -90q8 -46 8 -76q0 -57 -32 -90t-83 -33zM157 1252q0 62 25 141.5t69 140t90 60.5q36 0 59.5 -30t7.5 -65q-27 -71 -30 -127t7 -90q8 -46 8 -76
q0 -57 -32 -90t-83 -33q-56 0 -88.5 45.5t-32.5 123.5z" />
    <glyph glyph-name="quotedblright" unicode="&#x201d;" horiz-adv-x="838" 
d="M560 1083q-49 0 -82 33t-33 90q0 30 8 76q10 35 7 91t-30 127q-12 36 10 65t57 29q46 0 90 -60.5t69 -140t25 -141.5q0 -78 -32.5 -123.5t-88.5 -45.5zM161 1500q-12 36 10 65t57 29q46 0 90 -60.5t69 -140t25 -141.5q0 -78 -32.5 -123.5t-88.5 -45.5q-49 0 -82 33
t-33 90q0 30 8 76q10 35 7 91t-30 127z" />
    <glyph glyph-name="quotedblbase" unicode="&#x201e;" horiz-adv-x="684" 
d="M228 -284q-34 0 -56.5 29t-10.5 65q27 73 30 128.5t-7 88.5q-8 46 -8 77q0 56 33 89.5t82 33.5q30 0 56 -16q26 16 60 16q55 0 87.5 -46t32.5 -123q0 -62 -25 -141.5t-69 -140t-90 -60.5q-34 0 -56 27q-29 -27 -59 -27z" />
    <glyph glyph-name="dagger" unicode="&#x2020;" horiz-adv-x="1114" 
d="M556 -447q-39 0 -63.5 24.5t-24.5 59.5v1298h-302q-36 0 -61 26t-25 62t25 61.5t61 25.5h302v380q0 36 25 61t61 25q39 0 64 -24.5t25 -61.5v-380h301q36 0 61 -25.5t25 -61.5t-25 -62t-61 -26h-301v-1298q0 -34 -25.5 -59t-61.5 -25z" />
    <glyph glyph-name="daggerdbl" unicode="&#x2021;" horiz-adv-x="1114" 
d="M556 -447q-39 0 -63.5 24.5t-24.5 59.5v365h-302q-36 0 -61 25t-25 61t25 62.5t61 26.5h302v758h-302q-36 0 -61 26t-25 62t25 61.5t61 25.5h302v380q0 36 25 61t61 25q39 0 64 -24.5t25 -61.5v-380h301q36 0 61 -25.5t25 -61.5t-25 -62t-61 -26h-301v-758h301
q36 0 61 -26.5t25 -62.5t-25 -61t-61 -25h-301v-365q0 -34 -25.5 -59t-61.5 -25z" />
    <glyph glyph-name="bullet" unicode="&#x2022;" horiz-adv-x="1112" 
d="M571 547q-103 0 -172.5 70.5t-69.5 171.5q0 104 72.5 173t169.5 69q102 0 173 -72.5t71 -169.5q0 -102 -72.5 -172t-171.5 -70z" />
    <glyph glyph-name="ellipsis" unicode="&#x2026;" horiz-adv-x="1488" 
d="M1203 2q-53 0 -89.5 37.5t-36.5 89.5t36.5 88t89.5 36q52 0 88.5 -35.5t36.5 -88.5t-36.5 -90t-88.5 -37zM182 129q0 53 37 88.5t88 35.5q53 0 89.5 -35.5t36.5 -86.5q0 -54 -35 -91.5t-91 -37.5q-52 0 -88.5 37t-36.5 90zM629 129q0 53 37 88.5t90 35.5q52 0 88.5 -36
t36.5 -88t-36 -89.5t-89 -37.5t-90 37t-37 90z" />
    <glyph glyph-name="minute" unicode="&#x2032;" horiz-adv-x="439" 
d="M149 1133q-26 0 -45.5 19t-19.5 48q0 22 5 30l87 273q10 26 32 41t49 15q38 0 63 -26t25 -60q0 -11 -6 -31l-126 -266q-18 -43 -64 -43z" />
    <glyph glyph-name="second" unicode="&#x2033;" horiz-adv-x="740" 
d="M451 1133q-26 0 -46 19t-20 48v12q0 10 5 18l89 272q8 24 29.5 40.5t49.5 16.5q39 0 63.5 -26t24.5 -60q0 -17 -5 -32l-126 -265q-20 -43 -64 -43zM84 1200q0 22 5 30l87 273q10 26 32 41t49 15q38 0 63 -26t25 -60q0 -11 -6 -31l-126 -267q-22 -42 -64 -42
q-26 0 -45.5 19t-19.5 48z" />
    <glyph glyph-name="guilsinglleft" unicode="&#x2039;" horiz-adv-x="589" 
d="M401 2q-52 0 -80 52l-229 456q-10 27 -10 47q0 18 9 38l230 461q28 52 80 52q36 0 62 -25.5t26 -61.5q0 -21 -9 -37l-214 -429l213 -427q10 -17 10 -40q0 -36 -26 -61t-62 -25z" />
    <glyph glyph-name="guilsinglright" unicode="&#x203a;" horiz-adv-x="589" 
d="M168 2q-36 0 -61 25t-25 61q0 11 6 35l215 432l-215 432q-6 24 -6 34q0 36 25 61.5t61 25.5q52 0 80 -52l230 -459q11 -19 11 -42q0 -17 -13 -45l-228 -456q-28 -52 -80 -52z" />
    <glyph glyph-name="uni203E" unicode="&#x203e;" horiz-adv-x="952" 
d="M18 783q-36 0 -62 26.5t-26 62.5t26 62t62 26h933q36 0 61.5 -26t25.5 -62t-25.5 -62.5t-61.5 -26.5h-933z" />
    <glyph glyph-name="fraction" unicode="&#x2044;" horiz-adv-x="507" 
d="M-213 2q-54 0 -73.5 46t10.5 89l926 1406q23 33 70 33q55 0 74.5 -43.5t-12.5 -90.5l-920 -1396q-26 -44 -75 -44z" />
    <glyph glyph-name="Euro" unicode="&#x20ac;" horiz-adv-x="1642" 
d="M1031 -17q-259 0 -467 161.5t-281 412.5h-152q-35 0 -58 23t-23 57q0 35 23 58t58 23h124q-3 32 -3 63q0 47 4 83h-125q-35 0 -58 23t-23 58q0 34 23 57t58 23h157q76 244 279 398.5t464 154.5q280 0 493 -177q26 -21 28 -57t-22 -64t-65 -28q-29 0 -66 30
q-136 123 -368 123q-184 0 -334 -105t-222 -275h762q35 0 57.5 -22.5t22.5 -57.5t-23 -58t-57 -23h-807q-5 -45 -5 -83q0 -21 2 -63h675q35 0 58 -23t23 -58q0 -34 -23 -57t-58 -23h-637q66 -181 219 -291t347 -110q216 0 380 133q26 18 56 16.5t54.5 -26.5t24.5 -62
q0 -39 -22 -61q-174 -173 -493 -173z" />
    <glyph glyph-name="trademark" unicode="&#x2122;" horiz-adv-x="1520" 
d="M782 902q-31 0 -52 20.5t-21 49.5v520q0 34 29.5 54.5t65 14.5t51.5 -38l220 -381l221 382q16 29 52 35t65 -13.5t29 -53.5v-520q0 -29 -21.5 -49.5t-51.5 -20.5q-32 0 -53.5 21t-21.5 49v280l-155 -274q-21 -37 -65.5 -35.5t-65.5 39.5l-151 264v-274q0 -28 -21.5 -49
t-53.5 -21zM66 1494q0 27 20 46t49 19h462q31 0 51 -18.5t20 -46.5q0 -29 -20 -47.5t-51 -18.5h-157v-456q0 -29 -21.5 -49.5t-51.5 -20.5t-51.5 20.5t-21.5 49.5v456h-159q-29 0 -49 19t-20 47z" />
    <glyph glyph-name="uni2126" unicode="&#x2126;" horiz-adv-x="1719" 
d="M209 2q-38 0 -62.5 23.5t-24.5 57.5q0 33 24.5 56.5t62.5 23.5h418v25q-235 73 -371 258t-136 431q0 326 199 513.5t541 187.5t540.5 -187.5t198.5 -513.5q0 -249 -137.5 -433t-369.5 -256v-25h418q39 0 63 -22.5t24 -57.5q0 -36 -24 -58.5t-63 -22.5h-485q-35 0 -61 25
t-26 61v183q0 17 16 39.5t44 25.5q197 30 312.5 179.5t115.5 361.5q0 253 -148 390.5t-418 137.5t-418.5 -137.5t-148.5 -390.5q0 -211 116 -361t311 -180q31 -3 46 -24.5t15 -40.5v-183q0 -36 -25.5 -61t-61.5 -25h-485z" />
    <glyph glyph-name="arrowleft" unicode="&#x2190;" horiz-adv-x="2156" 
d="M585 157q-38 0 -61 27l-316 313q-22 29 -22 58q0 37 24 58l314 314q22 27 61 27q36 0 61.5 -25t25.5 -61q0 -39 -27 -64l-162 -161h1344q39 0 64 -24.5t25 -63.5q0 -37 -25 -62t-64 -25h-1344l164 -163q25 -28 25 -61q0 -36 -25.5 -61.5t-61.5 -25.5z" />
    <glyph glyph-name="arrowup" unicode="&#x2191;" horiz-adv-x="1413" 
d="M705 -309q-36 0 -61 26t-25 62v1344l-162 -162q-28 -26 -63 -26q-36 0 -61 26t-25 62q0 37 26 61l314 315q31 22 57 22q33 0 59 -24l315 -313q26 -26 26 -61q0 -36 -25.5 -62t-61.5 -26q-39 0 -63 27l-161 161v-1344q0 -36 -25 -62t-64 -26z" />
    <glyph glyph-name="arrowright" unicode="&#x2192;" horiz-adv-x="2156" 
d="M1572 157q-36 0 -61 25.5t-25 61.5q0 32 22 61l164 163h-1344q-36 0 -62 25.5t-26 61.5q0 39 25.5 63.5t62.5 24.5h1344l-162 162q-24 24 -24 59q0 39 23 64.5t63 25.5q35 0 61 -26l313 -315q24 -24 24 -58q0 -27 -23 -58l-314 -314q-28 -26 -61 -26z" />
    <glyph glyph-name="arrowdown" unicode="&#x2193;" horiz-adv-x="1413" 
d="M705 -309q-26 0 -57 22l-314 315q-26 24 -26 60t25 62.5t61 26.5q35 0 63 -26l162 -163v1344q0 36 25 62.5t61 26.5q39 0 64 -26t25 -63v-1344l160 162q22 27 64 27q36 0 61.5 -26.5t25.5 -62.5q0 -34 -26 -60l-315 -313q-24 -24 -59 -24z" />
    <glyph glyph-name="arrowboth" unicode="&#x2194;" horiz-adv-x="2102" 
d="M585 161q-38 0 -61 27l-316 313q-22 29 -22 58q0 36 24 58l314 314q22 27 61 27q36 0 61.5 -25t25.5 -61q0 -39 -27 -64l-162 -161h1135l-162 162q-24 24 -24 59q0 39 23 64.5t63 25.5q33 0 61 -26l313 -315q24 -24 24 -58q0 -27 -22 -58l-314 -313q-25 -27 -62 -27
q-36 0 -61 25.5t-25 61.5q0 32 22 61l164 163h-1135l164 -163q25 -28 25 -61q0 -36 -25.5 -61.5t-61.5 -25.5z" />
    <glyph glyph-name="arrowupdn" unicode="&#x2195;" horiz-adv-x="1415" 
d="M707 -305q-28 0 -57 22l-314 315q-26 24 -26 60t25 62t61 26t63 -25l162 -163v1135l-162 -162q-26 -26 -63 -26q-36 0 -61 26t-25 62q0 35 26 61l314 315q31 22 57 22q33 0 59 -24l314 -312q27 -25 27 -62q0 -36 -25.5 -62t-61.5 -26q-41 0 -63 27l-161 161v-1135
l161 162q23 26 63 26q36 0 61.5 -26t25.5 -62q0 -34 -26 -60l-315 -313q-24 -24 -59 -24z" />
    <glyph glyph-name="partialdiff" unicode="&#x2202;" horiz-adv-x="1264" 
d="M633 2q-151 0 -279 75t-202 202t-74 276q0 112 44 215t118.5 177.5t177.5 118.5t215 44q193 0 367 -144q-26 117 -84 202q-77 115 -190.5 174.5t-249.5 59.5q-98 0 -168 -25q-18 -8 -36 -8q-36 0 -61 26t-25 62q0 119 290 119q143 0 274.5 -56.5t227 -151.5t152 -226
t56.5 -274v-313q0 -149 -74.5 -276.5t-202 -202t-276.5 -74.5zM253 555q0 -160 109.5 -269t270.5 -109t269.5 108t108.5 270q0 163 -108 271.5t-270 108.5q-163 0 -271.5 -108.5t-108.5 -271.5z" />
    <glyph glyph-name="uni2206" unicode="&#x2206;" horiz-adv-x="1420" 
d="M128 2q-36 0 -62 25t-26 61q0 22 11 48l580 1385q16 55 79 55q27 0 49 -15t31 -39l580 -1386q10 -23 10 -48q0 -36 -25.5 -61t-61.5 -25h-1165zM256 177h908l-454 1078z" />
    <glyph glyph-name="summation" unicode="&#x2211;" horiz-adv-x="1414" 
d="M176 -449q-47 0 -73.5 24.5t-26.5 61.5q0 31 20 57l732 861l-733 861q-19 28 -19 57q0 36 26 61t62 25h1089q36 0 61.5 -25t25.5 -61t-25.5 -62.5t-61.5 -26.5h-903l658 -772q20 -24 20 -57q0 -34 -20 -55l-658 -775h903q36 0 61.5 -26t25.5 -62t-25.5 -61t-61.5 -25
h-1077z" />
    <glyph glyph-name="minus" unicode="&#x2212;" horiz-adv-x="1114" 
d="M166 624q-36 0 -61 25t-25 61q0 39 24.5 64t61.5 25h778q37 0 61.5 -25t24.5 -64q0 -36 -25 -61t-61 -25h-778z" />
    <glyph glyph-name="uni2215" unicode="&#x2215;" horiz-adv-x="1063" 
d="M236 -154q-46 0 -72.5 38t-8.5 84l620 1544q9 24 31 39.5t50 15.5q50 0 73 -39.5t6 -84.5l-619 -1546q-10 -24 -31.5 -37.5t-48.5 -13.5z" />
    <glyph glyph-name="uni2219" unicode="&#x2219;" horiz-adv-x="657" 
d="M331 403q-98 0 -164.5 66.5t-66.5 164.5q0 95 66.5 160.5t164.5 65.5q96 0 161 -65t65 -161q0 -98 -66.5 -164.5t-159.5 -66.5z" />
    <glyph glyph-name="radical" unicode="&#x221a;" horiz-adv-x="1563" 
d="M474 2q-55 0 -76 47l-313 622q-9 18 -9 39q0 39 25 64t62 25q50 0 79 -52l232 -462l698 1394q25 53 79 53h156q36 0 62 -26t26 -62t-26 -61.5t-62 -25.5h-101l-756 -1508q-29 -47 -76 -47z" />
    <glyph glyph-name="infinity" unicode="&#x221e;" horiz-adv-x="1596" 
d="M483 221q-174 0 -288.5 114t-114.5 287q0 174 114 287.5t287 113.5q98 0 180.5 -38.5t136.5 -107.5q56 69 137.5 107.5t179.5 38.5q174 0 287.5 -113.5t113.5 -287.5q0 -173 -113.5 -287t-287.5 -114q-98 0 -179.5 39t-137.5 109q-54 -70 -136 -109t-179 -39zM249 622
q0 -102 65 -167t167 -65q104 0 168.5 65t64.5 167q0 104 -64 168t-167 64q-105 0 -169.5 -64t-64.5 -168zM883 622q0 -102 65 -167t167 -65q104 0 168 64.5t64 167.5q0 105 -63.5 168.5t-168.5 63.5q-103 0 -167.5 -64t-64.5 -168z" />
    <glyph glyph-name="integral" unicode="&#x222b;" horiz-adv-x="1115" 
d="M324 -211q-102 0 -172 61.5t-70 153.5q0 39 24.5 66.5t61.5 27.5q36 0 60.5 -22t26.5 -52q4 -28 21 -44t42 -16q67 0 73 60l154 1561q8 89 79 150.5t160 63.5q106 5 174.5 -59.5t68.5 -155.5q0 -43 -21 -68.5t-56 -25.5q-38 0 -64 23t-32 59q-9 52 -73 52q-57 0 -64 -58
l-153 -1561q-8 -101 -77 -158.5t-163 -57.5z" />
    <glyph glyph-name="notequal" unicode="&#x2260;" horiz-adv-x="1040" 
d="M322 2q-36 0 -61 25t-25 61q0 19 7 35l82 267h-160q-36 2 -60.5 26.5t-24.5 61.5q0 36 25 61t61 25h214l91 294h-305q-36 0 -61 25.5t-25 61.5t25 61t61 25h361l101 329q18 61 84 61q36 0 61 -25.5t25 -61.5v-11q0 -10 -6 -22l-83 -270h158q36 0 61.5 -25t25.5 -61
t-25.5 -61.5t-61.5 -25.5h-213l-91 -294h304q36 0 61.5 -25t25.5 -61t-25.5 -61t-61.5 -25l-361 -2l-101 -326q-10 -30 -32.5 -46t-50.5 -16z" />
    <glyph glyph-name="uni27E8" unicode="&#x27e8;" horiz-adv-x="562" 
d="M418 -8q-52 0 -80 52l-346 689q-12 19 -12 47q0 21 9 40l355 710q28 52 80 52q36 0 62 -25t26 -61q0 -22 -9 -38l-339 -678l332 -662q10 -15 10 -39q0 -36 -26 -61.5t-62 -25.5z" />
    <glyph glyph-name="uni27E9" unicode="&#x27e9;" horiz-adv-x="562" 
d="M144 -8q-36 0 -62 25.5t-26 61.5q0 24 10 39l332 662l-339 678q-9 16 -9 38q0 36 26.5 61t62.5 25q56 0 79 -53l355 -709q9 -19 9 -40q0 -27 -11 -47l-347 -689q-28 -52 -80 -52z" />
    <glyph glyph-name="uniF8FF" unicode="&#xf8ff;" horiz-adv-x="1943" 
d="M955 243q-190 0 -352 95t-256 257.5t-94 352.5q0 144 56 274t150.5 224t225 149.5t273.5 55.5q189 0 351 -94.5t257 -256.5t95 -352q0 -143 -55.5 -273.5t-150 -225t-225.5 -150.5t-275 -56zM252 -40h74q62 0 90 43q12 19 12 49q0 60 -46 81q-21 11 -56 11h-74v-184z
M296 -6v118h28q39 0 54 -26q6 -10 6 -34q0 -40 -27 -53q-13 -5 -33 -5h-28zM338 949q0 -169 82.5 -312.5t225.5 -227t312 -83.5q168 0 310.5 83t226 226t83.5 311t-83 311t-225.5 226.5t-309.5 84.5q-127 0 -242 -49t-198.5 -131.5t-132.5 -197.5t-49 -241zM444 30
q0 -46 37 -63q22 -9 42 -9q39 0 57 20q10 9 12 21l-39 4q-6 -11 -17 -15q-4 -1 -13 -1q-22 0 -32 16q-3 6 -3 17h107v10q0 33 -23 53q-20 17 -53 17q-46 0 -65 -34q-10 -14 -10 -36zM488 44q2 16 15 23q5 4 17 4q22 0 29 -15q3 -5 4 -12h-65zM557 1073q8 -2 15 -5
q68 -27 124 -34q50 -5 90 2q47 12 59 16q4 0 11 3t10 4q-6 3 -20.5 10t-21.5 11t-17 11.5t-17 15.5h24q48 0 94 24q80 50 172 77q31 9 73 14q5 0 24.5 1t29.5 0q66 -2 112 -42q11 -12 36 -41v-3q-4 1 -8 3q-57 22 -104.5 5t-78.5 -68q-8 -14 -31 -70q-4 -9 -59 -141
q-41 -78 -82 -127q-35 -42 -84 -73q-54 -42 -146 -69h-5h-1q2 2 30 27q14 13 32 56q46 129 56 160q29 90 72 165v4q-3 -6 -14 -17q-2 -2 -6 -7.5t-6 -7.5q-27 -39 -39 -72q-3 -7 -10 -7q-125 3 -223 84q-50 48 -75 70q-2 2 -7 9.5t-9 11.5zM606 1q6 -43 71 -43q44 0 60 23
q9 11 9 22q0 31 -45 38l-28 4q-20 5 -20 15q0 5 7 9.5t17 4.5q22 0 26 -18l39 4q-6 40 -67 40q-41 0 -58 -20q-7 -8 -7 -23q0 -31 45 -39l27 -5q20 -3 20 -14q0 -13 -25 -13q-24 0 -29 17zM762 136q0 -19 24 -19q23 0 23 19q0 18 -23 18q-24 0 -24 -18zM765 -40h43v138h-43
v-138zM827 30q0 -45 31 -61q14 -6 32 -6q23 0 36 11l9 10h1v-24q0 -26 -31 -26q-21 0 -27 7q-2 2 -4 5l-3 3l-39 -4q9 -39 71 -39q47 0 66 24q11 11 11 29v139h-44v-23h-1q-7 14 -23 21q-8 4 -22 4q-37 0 -55 -31q-8 -13 -8 -39zM871 30q0 26 15 35q12 5 19 5q20 0 27 -19
q4 -8 4 -21q0 -38 -31 -38q-23 0 -31 18q-3 8 -3 20zM1005 -40h43v81q0 16 14 24q10 4 17 4q26 0 26 -28v-81h44v89q0 32 -25 45q-12 6 -29 6q-34 0 -47 -26v24h-43v-138zM1168 30q0 -44 35 -63q23 -9 42 -9q48 0 68 34q9 17 9 38q0 42 -36 61q-14 9 -41 9q-49 0 -68 -34
q-9 -18 -9 -36zM1212 30q0 26 15 35q7 6 18 6q21 0 30 -20q0 -1 2 -9t2 -12q0 -27 -15 -37q-6 -5 -19 -5q-20 0 -29 19q-4 11 -4 23zM1324 98l54 -138h50l54 138h-46l-32 -99h-2l-32 99h-46zM1483 -1q0 -26 26 -36q10 -5 27 -5q21 0 34 11q7 4 11 12v-21h42v94q0 25 -19 35
q-22 11 -47 11q-38 0 -56 -19q-6 -5 -13 -21l40 -4q7 17 28 17q24 0 24 -18v-1q0 -9 -16 -9q-18 -3 -22 -4q-23 0 -40 -10q-19 -10 -19 -32zM1525 -1q0 12 11 16q6 3 15 3q3 1 9.5 2t12 2.5t7.5 2.5v-14q0 -16 -15 -23q-10 -4 -18 -4q-9 0 -15.5 4.5t-6.5 10.5zM1596 147
q0 19 14 32.5t34 13.5t33.5 -13t13.5 -33t-13.5 -34t-33.5 -14t-34 14t-14 34zM1612 147q0 -14 9 -24t23 -10t23.5 10t9.5 24t-9.5 23.5t-23.5 9.5t-23 -9.5t-9 -23.5zM1628 125v45h18q6 0 10.5 -4.5t4.5 -9.5q0 -6 -7 -13l10 -18h-12l-8 14h-6v-14h-10zM1638 151h8q6 0 6 3
q0 4 -6 4h-8v-7z" />
    <glyph glyph-name="_Designova" horiz-adv-x="2369" 
d="M1182 -169q-146 0 -283.5 46t-248.5 129.5t-195 195t-129.5 249t-45.5 284.5q1 184 73 350.5t193 287.5t288 192.5t350 71.5t350.5 -71.5t289 -192t193.5 -288t72 -350.5q0 -184 -72 -351.5t-194 -288.5t-289.5 -192.5t-351.5 -71.5zM389 735q0 -163 62.5 -310.5
t169 -254t254 -169.5t309.5 -63t309 63t254 169.5t170 254t63 309.5t-63 309.5t-169 254t-253 169.5t-309 63t-309.5 -62.5t-254.5 -169t-170 -254t-63 -309.5zM672 893q8 0 18 -5q78 -31 161 -44q64 -7 114 4q40 7 74 20q6 0 15.5 4.5t12.5 5.5q-8 5 -25 13t-27 13.5
t-23 14.5t-22 20h30q53 0 120 28q118 74 221 103q54 14 93 14q8 0 37 2t34 0q91 -3 143 -54q9 -7 46 -52v-3q-4 3 -10 3q-74 28 -133.5 6.5t-100.5 -83.5q-7 -12 -14 -28t-15 -35.5t-13 -30.5q-8 -19 -34.5 -82t-42.5 -96q-48 -100 -103 -166q-27 -37 -104 -93
q-70 -52 -190 -88h-10l39 34q26 24 42 71q7 22 33.5 95.5t39.5 113.5q43 125 91 210v1q-7 -7 -15 -18q-13 -10 -16 -22q-30 -36 -53 -91q-4 -7 -13 -7q-165 6 -285 109q-16 16 -48.5 46t-44.5 42q-12 15 -22 25z" />
    <glyph glyph-name="_Origin" horiz-adv-x="3073" 
d="M168 1301v70h2737v-70h-2737zM168 154v70h2737v-70h-2737zM277 435v248h59v-248h-59zM322 851v248h207v-45h-150v-54h136v-44h-136v-59h150v-46h-207zM375 435v248h48l124 -150v150h56v-248h-46l-123 153v-153h-59zM571 851v248h48l123 -150v150h56v-248h-46l-123 153
v-153h-58zM734 435v248h121q101 0 101 -63q0 -39 -36 -56q4 0 4 -3q39 -15 39 -58q0 -68 -99 -68h-130zM792 479h68q44 0 44 31q0 30 -44 30h-68v-61zM792 587h59q46 0 46 28q0 30 -46 30h-59v-58zM839 1054v45h218v-45h-80v-203h-57v203h-81zM991 435v248h207v-46h-149v-53
h134v-44h-134v-57h147v-48h-205zM1082 1099h62l56 -174l59 174h53l56 -176l59 176h54l-80 -248h-63l-54 170l-58 -170h-60zM1238 435v248h113q40 0 59 -8q50 -28 50 -80q0 -29 -14 -49q-20 -26 -40 -32l51 -79h-60l-49 70h-52v-70h-58zM1296 552h52q53 0 53 43q0 42 -53 42
h-52v-85zM1488 435v248h56v-200h149v-48h-205zM1492 976q0 53 40 91q34 36 96 36q61 0 97 -36q39 -36 39 -91q0 -54 -39 -91q-36 -38 -95 -38q-63 0 -98 38q-40 40 -40 91zM1551 976q0 -35 21.5 -57t55.5 -22t55.5 22t21.5 57t-21.5 58t-55.5 23t-55.5 -23t-21.5 -58z
M1733 435v248h58v-248h-58zM1796 851v248h114q40 0 57 -8q50 -25 50 -80q0 -29 -14 -49q-12 -20 -40 -32l54 -79h-63l-46 70h-54v-70h-58zM1831 435v248h49l122 -150v150h59v-248h-48l-124 153v-153h-58zM1854 967h51q54 0 54 44q0 43 -54 43h-51v-87zM2045 851v248h208v-45
h-150v-54h134v-44h-134v-105h-58zM2097 469q0 15 10 24.5t25 9.5t24.5 -10t9.5 -24q0 -15 -10 -35l-20 -53h-36l17 57q-20 6 -20 31zM2275 851v248h206v-45h-149v-54h133v-44h-133v-59h149v-46h-206zM2307 435v248h112q43 0 73 -15q64 -28 64 -108q0 -39 -16 -66
q-33 -59 -121 -59h-112zM2366 483h52q23 0 43 10q37 19 37 67q0 28 -9 41q-19 36 -71 36h-52v-154zM2523 851v248h46l126 -150v150h56v-248h-48l-124 153v-153h-56zM2590 435v248h206v-46h-150v-53h136v-44h-136v-57h148v-48h-204z" />
    <glyph glyph-name="_VendorID" horiz-adv-x="1562" 
d="M102 -6v1662h1364v-1662h-1364zM106 -133q0 19 11 29t26 10q12 0 17 -4l5 -7v36h18v-100h-18v12l-5 -10q-18 -7 -21 -7q-15 0 -24 11.5t-9 29.5zM126 -133q0 -24 18 -24q21 0 21 24v1q0 26 -18 26q-9 0 -15 -7.5t-6 -19.5zM176 66h1217v1517h-1217v-1517zM197 -133
q0 18 10.5 28.5t27.5 10.5q16 0 26.5 -10.5t10.5 -27.5q0 -2 -3 -7h-52q1 -18 18 -18q13 0 17 13h17q-6 -30 -34 -30q-17 0 -27.5 10.5t-10.5 30.5zM217 -127h35q-5 21 -17 21q-17 0 -18 -21zM277 -148h20q4 -13 12 -13q13 0 13 10q0 2 -0.5 3.5t-2.5 2.5t-3.5 1.5t-4.5 2
t-6 2.5q-25 8 -25 23q0 10 8.5 16t20.5 6q30 0 30 -22h-20q-1 10 -10 10t-9 -9q0 -6 16 -12q24 -7 24 -21q0 -26 -31 -26q-27 0 -32 26zM336 416q0 45 14 84.5t50 90.5l136 192h90l-118 -168q20 4 32 4q88 0 144.5 -58t56.5 -145q0 -86 -58.5 -145.5t-142.5 -59.5
q-85 0 -144.5 60t-59.5 145zM336 1075q0 45 15 83.5t49 88.5l136 199h90l-118 -171q10 3 32 3q88 0 144.5 -57.5t56.5 -145.5q0 -85 -58 -143t-143 -58t-144.5 58.5t-59.5 142.5zM351 -78q0 9 12 9q11 0 11 -9q0 -12 -11 -12q-12 0 -12 12zM353 -169v75h19v-75h-19z
M386 -133q0 19 10.5 29t26.5 10q12 0 17 -4l5 -7v11h20v-57q0 -11 -3 -16q0 -33 -38 -33q-16 0 -26 7t-10 18v1h19v-1q0 -11 17 -11q16 0 21 18v11l-5 -10q-12 -2 -20 -2q-34 0 -34 36zM407 -132q0 -25 17 -25q9 0 15 6.5t6 17.5v1q0 26 -21 26q-17 0 -17 -26zM412 416
q0 -60 35.5 -96t92.5 -36q55 0 90.5 36.5t35.5 95.5q0 55 -35.5 90.5t-90.5 35.5q-56 0 -92 -35.5t-36 -90.5zM412 1075q0 -58 36 -94t92 -36q55 0 90.5 37t35.5 93q0 57 -35.5 93t-90.5 36q-57 0 -92.5 -35t-35.5 -94zM480 -169v75h20v-14l5 10q7 4 19 4q23 0 28 -21
q1 -4 1 -12v-42h-21v47q0 16 -14 16q-18 0 -18 -30v-33h-20zM563 -133q0 18 10.5 28.5t27.5 10.5q39 0 39 -39q0 -18 -10.5 -29.5t-28.5 -11.5q-17 0 -27.5 11.5t-10.5 29.5zM582 -133q0 -24 19 -24q21 0 21 24q0 27 -21 27q-19 0 -19 -27zM647 -94h19l20 -63l18 63h20
l-27 -75h-25zM731 -148q0 22 42 22h4v10q0 10 -13 10q-15 0 -15 -13h-18q0 25 33 25q27 0 30 -21v-54h-17v8l-4 -7q-12 -6 -20 -6q-9 0 -15.5 7t-6.5 19zM749 -148q0 -9 11 -9q17 0 17 13v8q-28 3 -28 -12zM806 -109v12h9v12q0 21 26 21h9v-16q-16 3 -16 -7v-10h16v-12h-16
v-60h-19v60h-9zM825 416q0 47 13 85.5t48 89.5l136 192h92l-120 -168q20 4 35 4q85 0 142.5 -58.5t57.5 -144.5t-58 -145.5t-142 -59.5q-85 0 -144.5 59.5t-59.5 145.5zM825 1075q0 46 13.5 83.5t47.5 88.5l136 199h92l-121 -171q11 3 36 3q85 0 142.5 -58t57.5 -145
q0 -85 -58 -143t-142 -58q-85 0 -144.5 58.5t-59.5 142.5zM855 -133q0 39 40 39q17 0 27 -10.5t10 -28.5t-10 -29.5t-27 -11.5q-40 0 -40 41zM875 -133q0 -24 20 -24q7 0 12.5 6.5t5.5 17.5q0 12 -5.5 19.5t-12.5 7.5q-20 0 -20 -27zM899 416q0 -60 36.5 -96t93.5 -36
q54 0 88 36.5t34 95.5q0 55 -34.5 90.5t-87.5 35.5q-58 0 -94 -35t-36 -91zM899 1075q0 -57 36.5 -93.5t93.5 -36.5q53 0 87.5 37t34.5 93q0 57 -34.5 93t-87.5 36q-58 0 -94 -36t-36 -93zM945 -169v75h17v-14l8 10q6 4 18 4q22 0 27 -21v-54h-20v47q-4 16 -12 16
q-21 0 -21 -30v-33h-17zM1025 -109v12h11v19h20v-19h14v-12h-14v-39q2 -14 12 -9v-14h-11q-21 0 -21 14v48h-11zM1075 -148h21q3 -13 14 -13t11 10q0 2 -0.5 3.5t-2 2.5t-3 1.5t-5 2t-5.5 2.5q-24 8 -24 23q0 22 28 22q27 0 33 -22h-22q0 10 -13 10q-7 0 -7 -9q0 -6 16 -12
q26 -9 26 -21q0 -26 -32 -26q-29 0 -35 26zM1148 -162q0 5 4 9.5t9 4.5q12 0 12 -14q0 -12 -12 -12q-5 0 -9 4t-4 8zM1182 -133q0 18 11 28.5t25 10.5q16 0 25.5 -7.5t9.5 -20.5h-18q-4 16 -17 16q-17 0 -17 -27q0 -11 5.5 -17.5t11.5 -6.5q13 0 17 13h18q-1 -30 -35 -30
q-36 0 -36 41zM1260 -133q0 39 41 39q36 0 36 -39q0 -18 -9.5 -29.5t-26.5 -11.5q-20 0 -30.5 11t-10.5 30zM1280 -133q0 -24 21 -24q18 0 18 24q0 27 -18 27q-21 0 -21 -27zM1351 -169v75h20v-12l7 8q4 4 12 4q19 0 25 -14l7 10q5 4 16 4q10 0 17 -5t7 -12q1 -5 1 -16v-42
h-18v37q0 3 -1 7t-1 6q0 13 -14 13q-12 0 -12 -26v-37h-18v50q-8 13 -14 13q-14 0 -14 -26v-37h-20z" />
    <glyph glyph-name="brevecombcy" horiz-adv-x="935" 
d="M468 1187q-148 0 -248 74t-100 189q0 38 25 63t62 25t61.5 -27t24.5 -71q0 -43 46.5 -67.5t128.5 -24.5q81 0 128 24.5t47 67.5q0 44 24.5 71t61.5 27t61.5 -25t24.5 -63q0 -114 -99.5 -188.5t-247.5 -74.5z" />
    </font>
</defs>
</svg>
