<?xml version="1.0" standalone="no"?>
<!DOCTYPE svg PUBLIC "-//W3C//DTD SVG 1.1//EN" "http://www.w3.org/Graphics/SVG/1.1/DTD/svg11.dtd" >
<svg xmlns="http://www.w3.org/2000/svg" xmlns:xlink="http://www.w3.org/1999/xlink" version="1.1">
<metadata>
Created by FontForge 20201107 at Sat Dec 30 21:03:10 2023
 By 
Copyright (c) 2023 by Designova. All rights reserved.
</metadata>
<defs>
<font id="Rojerflint-Bold" horiz-adv-x="1384" >
  <font-face 
    font-family="Rojerflint Bold"
    font-weight="700"
    font-stretch="normal"
    units-per-em="2048"
    panose-1="0 0 0 0 0 0 0 0 0 0"
    ascent="1638"
    descent="-410"
    x-height="1122"
    cap-height="1556"
    bbox="-293.704 -488 2905 2308"
    underline-thickness="100"
    underline-position="-255"
    unicode-range="U+000D-F8FF"
  />
<missing-glyph horiz-adv-x="1491" 
d="M200 18v1529h1091v-1529h-1091zM335 282l331 500l-331 502v-1002zM401 144h688l-343 521zM401 1421l345 -522l343 522h-688zM823 782l333 -501v1003z" />
    <glyph glyph-name="t_t.liga" unicode="tt" horiz-adv-x="1521" 
d="M486 -1q-110 0 -164 73.5t-54 199.5v597h-84q-46 0 -77.5 32t-31.5 78t31.5 77.5t77.5 31.5h84v240q0 51 33.5 84t81.5 33q50 0 83.5 -33t33.5 -84v-240h420v240q0 51 33.5 84t81.5 33q51 0 84 -33t33 -84v-240h183q47 0 78.5 -31.5t31.5 -77.5q0 -47 -31.5 -78.5
t-78.5 -31.5h-183v-597q0 -40 2.5 -47t17.5 -7h163q46 0 78 -31.5t32 -77.5q0 -47 -31.5 -78.5t-78.5 -31.5h-196q-110 0 -164.5 73.5t-54.5 199.5v597h-420v-597q0 -40 2.5 -47t16.5 -7h164q46 0 78 -31.5t32 -77.5q0 -47 -31.5 -78.5t-78.5 -31.5h-197z" />
    <glyph glyph-name=".notdef" horiz-adv-x="1491" 
d="M200 18v1529h1091v-1529h-1091zM335 282l331 500l-331 502v-1002zM401 144h688l-343 521zM401 1421l345 -522l343 522h-688zM823 782l333 -501v1003z" />
    <glyph glyph-name=".null" horiz-adv-x="0" 
 />
    <glyph glyph-name="nonmarkingreturn" horiz-adv-x="682" 
 />
    <glyph glyph-name="CR" unicode="&#xd;" horiz-adv-x="539" 
 />
    <glyph glyph-name="space" unicode=" " horiz-adv-x="607" 
 />
    <glyph glyph-name="exclam" unicode="!" horiz-adv-x="708" 
d="M355 316q-45 0 -80.5 33t-35.5 82v1010q0 51 34.5 84t81.5 33q48 0 81.5 -33t33.5 -84v-1010q0 -49 -35 -82t-80 -33zM202 153q0 64 45.5 108t107.5 44q63 0 107.5 -45t44.5 -107q0 -64 -44 -109t-108 -45t-108.5 45t-44.5 109z" />
    <glyph glyph-name="quotedbl" unicode="&#x22;" horiz-adv-x="947" 
d="M342 1066q-40 0 -68.5 26.5t-30.5 67.5l-18 280q-1 50 33.5 84t83.5 34t82.5 -34.5t32.5 -83.5l-19 -280q-3 -40 -30.5 -67t-65.5 -27zM490 1440q-1 50 33.5 84t83.5 34t82.5 -34.5t32.5 -83.5l-19 -280q-1 -40 -29 -67t-67 -27q-41 0 -69.5 27t-29.5 67z" />
    <glyph glyph-name="numbersign" unicode="#" horiz-adv-x="1331" 
d="M273 -1q-52 0 -82 36t-22 86l60 336h-101q-44 0 -73 29t-29 73q0 50 34 80t85 30h123l40 235h-93q-55 0 -83.5 31t-28.5 75t34 75t90 31h120l61 348q8 45 45.5 76.5t83.5 31.5q49 0 79.5 -35.5t21.5 -87.5l-59 -333h289l60 348q8 45 45 76.5t82 31.5q57 0 84 -37.5
t17 -86.5l-56 -332h93q54 0 82 -31t28 -69q0 -50 -33.5 -81t-96.5 -31h-112l-41 -235h102q44 0 74 -28.5t30 -73.5q0 -47 -34.5 -78.5t-95.5 -31.5h-114l-62 -350q-9 -49 -44.5 -78.5t-83.5 -29.5q-56 0 -83.5 35.5t-16.5 87.5l58 335h-287l-63 -349q-8 -48 -45 -78.5
t-82 -30.5zM500 669h288l40 235h-288z" />
    <glyph glyph-name="dollar" unicode="$" horiz-adv-x="1266" 
d="M642 -179q-39 0 -68.5 28t-29.5 79v58q-140 19 -246 95t-159 195q-21 49 -1 92.5t66 58.5q43 14 80.5 -4.5t56.5 -58.5q55 -122 203 -151v498q-172 47 -270 159.5t-98 273.5q0 157 99.5 261t268.5 131v35q0 54 29.5 81t68.5 27t69 -27t30 -81v-33q115 -19 207.5 -82
t138.5 -157q24 -46 9 -92t-58 -64q-39 -16 -79 -2.5t-62 48.5q-56 93 -156 118v-418q196 -50 296.5 -167.5t100.5 -292.5q0 -178 -108 -294t-289 -146v-61q0 -51 -29.5 -79t-69.5 -28zM404 1139q0 -71 32 -119t108 -80v368q-75 -15 -107.5 -54t-32.5 -115zM741 219
q86 21 126.5 72t40.5 138t-40 145.5t-127 91.5v-447z" />
    <glyph glyph-name="percent" unicode="%" horiz-adv-x="1873" 
d="M415 -1q-48 0 -81.5 34t-33.5 81q0 43 25 75l493 626q-112 -85 -254 -85q-173 0 -294 120.5t-121 293.5q0 174 120.5 294t294.5 120t294.5 -120t120.5 -294q0 -87 -36 -170l424 539q43 45 91 45t81.5 -33t33.5 -84q0 -40 -21 -69l-495 -630q109 85 252 85q173 0 294 -121
t121 -294q0 -174 -120.5 -293.5t-294.5 -119.5q-173 0 -293 120t-120 293q0 91 36 172l-431 -547q-46 -38 -86 -38zM377 1144q0 -84 52 -136t135 -52q84 0 136.5 52t52.5 136t-52.5 135.5t-136.5 51.5q-79 0 -133 -51.5t-54 -135.5zM1121 412q0 -83 52 -135t136 -52
q85 0 137 51.5t52 135.5t-52.5 136.5t-136.5 52.5t-136 -52.5t-52 -136.5z" />
    <glyph glyph-name="ampersand" unicode="&#x26;" horiz-adv-x="1383" 
d="M553 -5q-201 0 -324.5 110t-123.5 280q0 130 72.5 241.5t238.5 240.5l-24 -18l-53 53q-65 64 -104.5 148t-39.5 168q0 146 103 244.5t264 98.5q163 0 270 -101.5t104 -254.5q0 -202 -227 -381l10 8l279 -279l119 127q76 79 156 10q23 -20 33.5 -46.5t4.5 -57.5t-32 -57
l-124 -132l163 -163q41 -37 43.5 -79t-34.5 -80q-38 -38 -83 -38t-80 39l-160 160l-13 -12q-110 -114 -215 -171.5t-223 -57.5zM335 379q0 -77 54.5 -121t166.5 -44q68 0 130.5 37.5t143.5 124.5l16 18l-303 303l-2 -1q-91 -71 -130 -125q-43 -52 -59.5 -96t-16.5 -96z
M425 1218q0 -48 18.5 -86t60.5 -84l64 -65l4 3q138 106 138 219q0 137 -148 137q-65 0 -101 -33t-36 -91z" />
    <glyph glyph-name="quotesingle" unicode="'" horiz-adv-x="681" 
d="M342 1066q-41 0 -69.5 27t-29.5 67l-18 280q-1 50 33.5 84t83.5 34t82.5 -34.5t32.5 -83.5l-19 -280q-1 -40 -29 -67t-67 -27z" />
    <glyph glyph-name="parenleft" unicode="(" horiz-adv-x="777" 
d="M551 -431q-72 0 -109 70q-227 458 -227 928q0 468 226 923q33 71 110 71q46 0 79.5 -33t33.5 -78q0 -25 -15 -61q-206 -406 -206 -824q0 -412 209 -829q14 -42 14 -56q0 -46 -33 -78.5t-82 -32.5z" />
    <glyph glyph-name="parenright" unicode=")" horiz-adv-x="778" 
d="M226 -431q-49 0 -82 32.5t-33 78.5q0 14 14 56q209 417 209 829q0 418 -206 824q-15 32 -15 61q0 45 33.5 78t79.5 33q75 0 110 -71q226 -458 226 -923q0 -467 -227 -928q-38 -70 -109 -70z" />
    <glyph glyph-name="asterisk" unicode="*" horiz-adv-x="879" 
d="M300 926q-49 0 -82 35t-33 82t33 78l58 50l-54 6q-52 8 -81.5 42.5t-27.5 78.5q7 50 37 80.5t78 30.5q32 0 66 -22l43 -24l-8 43l-3 7q-3 27 -3 30q0 47 33.5 81t81.5 34q47 0 82 -33.5t35 -81.5q0 -17 -5 -32v-1q-1 -1 -1 -3l-10 -46l66 37l6 3l1 1l11 3q18 4 26 4
q45 0 81 -33t36 -84q0 -50 -31 -81t-80 -34l-49 -5l41 -36q46 -39 46 -93q0 -48 -34 -82.5t-85 -34.5q-63 0 -104 69l-32 68l-31 -62q-12 -33 -40 -54t-67 -21z" />
    <glyph glyph-name="plus" unicode="+" horiz-adv-x="1379" 
d="M689 224q-48 0 -81.5 33.5t-33.5 81.5v258h-257q-48 0 -81.5 34t-33.5 81q0 48 33.5 81.5t81.5 33.5h257v259q0 47 33.5 81t81.5 34q51 0 83.5 -33.5t32.5 -81.5v-259h257q48 0 81.5 -33.5t33.5 -81.5q0 -47 -33.5 -81t-81.5 -34h-257v-258q0 -48 -32.5 -81.5
t-83.5 -33.5z" />
    <glyph glyph-name="comma" unicode="," horiz-adv-x="673" 
d="M250 -286q-41 0 -68 25.5t-27 65.5q0 39 37 89q22 30 22 47q0 14 -3.5 24.5t-8 16.5l-16.5 22q-16 19 -24 30t-18.5 38.5t-10.5 56.5q0 68 47 109t107 41q76 0 125 -58.5t49 -154.5q0 -137 -60.5 -244.5t-150.5 -107.5z" />
    <glyph glyph-name="hyphen" unicode="-" horiz-adv-x="971" 
d="M262 446q-47 0 -81 34t-34 81q0 51 33.5 84t81.5 33h447q48 0 82.5 -32.5t34.5 -84.5q0 -48 -34.5 -81.5t-82.5 -33.5h-447z" />
    <glyph glyph-name="period" unicode="." horiz-adv-x="678" 
d="M341 -30q-64 0 -109 44.5t-45 108.5q0 65 45.5 108.5t108.5 43.5q62 0 106.5 -44.5t44.5 -107.5t-44 -108t-107 -45z" />
    <glyph glyph-name="slash" unicode="/" horiz-adv-x="912" 
d="M159 -150q-60 0 -95 50t-12 111l594 1479q12 33 41.5 53t66.5 20q66 0 97 -51.5t9 -111.5l-594 -1481q-12 -33 -41.5 -51t-65.5 -18z" />
    <glyph glyph-name="zero" unicode="0" horiz-adv-x="1223" 
d="M612 -1q-232 0 -360.5 210t-128.5 571q0 237 57 412.5t168 272t264 96.5q156 0 266.5 -97.5t166 -272t55.5 -411.5q0 -238 -55.5 -413t-166 -271.5t-266.5 -96.5zM355 780q0 -551 257 -551q128 0 192 142t64 409q0 263 -64.5 406t-191.5 143t-192 -141.5t-65 -407.5z" />
    <glyph glyph-name="one" unicode="1" horiz-adv-x="842" 
d="M528 -1q-48 0 -82.5 33.5t-34.5 81.5v1168l-143 -48h-1q-2 -1 -4 -1q-19 -7 -35 -7q-48 0 -81.5 34t-33.5 81q0 37 20 67.5t55 42.5l280 94q33 13 60 13q47 0 81 -34t34 -81v-1329q0 -47 -34 -81t-81 -34z" />
    <glyph glyph-name="two" unicode="2" horiz-adv-x="1294" 
d="M297 -1q-47 0 -82 33.5t-35 81.5q0 45 32 79l582 693q33 35 54.5 86t21.5 97q0 118 -64 187.5t-174 69.5q-109 0 -173.5 -69.5t-64.5 -187.5q0 -47 -34 -81t-81 -34q-48 0 -82.5 33.5t-34.5 81.5q0 211 134 350t336 139q204 0 337 -139t133 -350q0 -172 -144 -342
l-422 -496h488q48 0 81.5 -34.5t33.5 -82.5q0 -47 -33.5 -81t-81.5 -34h-727z" />
    <glyph glyph-name="three" unicode="3" horiz-adv-x="1310" 
d="M657 -17q-210 0 -352 138t-142 345q0 49 31.5 84.5t85.5 35.5q52 0 83.5 -35.5t31.5 -84.5q0 -115 71.5 -184t190.5 -69q135 0 202.5 66t67.5 185q0 125 -67.5 190.5t-193.5 65.5h-81q-47 0 -81 34t-34 81q0 48 34 81.5t81 33.5h81q90 0 144 55t54 143q0 93 -50.5 143.5
t-152.5 50.5q-107 0 -162.5 -47t-55.5 -134q0 -48 -33 -81.5t-84 -33.5q-52 0 -83.5 34.5t-31.5 80.5q0 177 127.5 293t322.5 116q186 0 310.5 -120.5t124.5 -301.5q0 -75 -40 -155.5t-110 -139.5q101 -58 156.5 -159t55.5 -230q0 -208 -142 -344.5t-359 -136.5z" />
    <glyph glyph-name="four" unicode="4" horiz-adv-x="1449" 
d="M986 -1q-47 0 -81 34t-34 81v242h-630q-68 0 -102 62t8 122l747 973q39 45 92 45q48 0 81.5 -33t33.5 -84v-866h110q51 0 83 -28.5t32 -82.5q0 -42 -33 -75t-82 -33h-110v-242q0 -47 -33.5 -81t-81.5 -34zM458 575h413v534z" />
    <glyph glyph-name="five" unicode="5" horiz-adv-x="1326" 
d="M676 -1q-224 0 -374.5 150.5t-150.5 374.5q0 51 33.5 84t81.5 33t82.5 -32.5t34.5 -84.5q0 -134 79.5 -213.5t213.5 -79.5t214 79.5t80 213.5q0 136 -80 216t-214 80h-335q-47 0 -81 33.5t-34 81.5v508q0 47 34 81t81 34h670q48 0 82.5 -33.5t34.5 -81.5t-34.5 -82.5
t-82.5 -34.5h-555v-276h220q225 0 375.5 -150t150.5 -376q0 -224 -151 -374.5t-375 -150.5z" />
    <glyph glyph-name="six" unicode="6" horiz-adv-x="1226" 
d="M614 -1q-138 0 -250.5 63.5t-176.5 175.5t-64 250q0 168 91 292l439 718q37 60 102 60q70 0 103 -60t-3 -118l-249 -402h8q210 0 349 -140t139 -350t-139 -349.5t-349 -139.5zM351 488q0 -121 73 -191t190 -70q120 0 190 70.5t70 190.5q0 121 -70 191.5t-190 70.5
q-118 0 -190.5 -70t-72.5 -192z" />
    <glyph glyph-name="seven" unicode="7" horiz-adv-x="1212" 
d="M380 -1q-48 0 -82.5 33.5t-34.5 81.5q0 13 7 39q2 2 2 3l2 5l3 7l1 1v2l2 7l527 1148h-593q-47 0 -82 34.5t-35 82.5t35 81.5t82 33.5h782q48 0 81.5 -34t33.5 -81q0 -30 -16 -59l-610 -1316q-14 -33 -42 -51t-63 -18z" />
    <glyph glyph-name="eight" unicode="8" horiz-adv-x="1232" 
d="M617 -14q-212 0 -353 142t-141 356q0 121 51 222t142 166q-108 119 -108 287q0 170 117 283.5t292 113.5q176 2 293 -111.5t115 -285.5q0 -169 -106 -286q91 -65 141 -166t49 -223q0 -214 -140.5 -356t-351.5 -142zM359 484q0 -129 69 -204t189 -75t188.5 77t68.5 202
q3 121 -66.5 191.5t-190.5 70.5q-117 0 -187.5 -69.5t-70.5 -192.5zM432 1158q-1 -88 48.5 -138.5t136.5 -50.5q85 0 134 51t49 140q3 79 -45.5 126t-137.5 47q-85 0 -134 -47t-51 -128z" />
    <glyph glyph-name="nine" unicode="9" horiz-adv-x="1226" 
d="M470 -1q-68 0 -100.5 57.5t1.5 118.5l248 404h-7q-210 0 -349.5 140t-139.5 350q0 211 139.5 350t351.5 139q209 0 348.5 -139t139.5 -350q0 -167 -91 -293l-439 -717q-37 -60 -102 -60zM351 1069q0 -118 70 -190t193 -72q119 0 189.5 71.5t70.5 192.5q0 119 -70.5 188.5
t-191.5 69.5q-120 0 -190.5 -70t-70.5 -190z" />
    <glyph glyph-name="colon" unicode=":" horiz-adv-x="682" 
d="M341 697q-64 0 -109 44.5t-45 109.5q0 63 45 107.5t109 44.5t107.5 -45t43.5 -107q0 -64 -44.5 -109t-106.5 -45zM191 123q0 65 45 108.5t108 43.5t107.5 -44.5t44.5 -107.5t-44 -108t-108 -45t-108.5 44.5t-44.5 108.5z" />
    <glyph glyph-name="semicolon" unicode=";" horiz-adv-x="665" 
d="M269 -286q-42 0 -68.5 25.5t-26.5 65.5q0 42 37 89q22 32 22 47q0 14 -4 25t-7.5 16t-17.5 22q-52 62 -52 125q0 68 47 109t106 41q77 0 125.5 -58.5t48.5 -154.5q0 -137 -60 -244.5t-150 -107.5zM133 851q0 63 45 107.5t109 44.5t108 -45t44 -107q0 -64 -44.5 -109
t-107.5 -45q-64 0 -109 44.5t-45 109.5z" />
    <glyph glyph-name="less" unicode="&#x3c;" horiz-adv-x="1421" 
d="M286 609q-64 33 -64 101q0 61 61 102l744 448q54 32 113 3t59 -98q0 -65 -58 -101l-585 -350l585 -350q58 -37 58 -101q0 -65 -59.5 -100.5t-114.5 -0.5z" />
    <glyph glyph-name="equal" unicode="=" horiz-adv-x="1429" 
d="M376 371q-47 2 -80 35.5t-33 81.5q0 47 33.5 81t81.5 34h672q47 0 81 -34t34 -81q0 -48 -34 -81.5t-81 -33.5zM263 935q0 47 33.5 81t81.5 34h672q47 0 81 -34t34 -81q0 -48 -34 -81.5t-81 -33.5h-672q-48 0 -81.5 33.5t-33.5 81.5z" />
    <glyph glyph-name="greater" unicode="&#x3e;" horiz-adv-x="1421" 
d="M396 162q-54 -35 -114 0.5t-60 100.5q0 63 58 101l585 350l-585 350q-58 37 -58 101q0 69 59.5 98t112.5 -3l745 -448q60 -41 60 -102q0 -68 -63 -101z" />
    <glyph glyph-name="question" unicode="?" horiz-adv-x="1147" 
d="M564 316q-49 0 -82 34.5t-33 81.5q0 88 39.5 184t102.5 160q109 107 120 116q58 54 84.5 105.5t26.5 130.5q0 107 -68 167t-190 60q-120 0 -188.5 -66.5t-68.5 -190.5q0 -48 -32 -80.5t-83 -32.5q-47 0 -82 32t-35 81q0 214 137.5 350.5t351.5 136.5q212 0 350 -133
t138 -335q0 -117 -44 -202q-8 -15 -18 -30t-17.5 -26t-22 -28t-20.5 -24t-24.5 -25.5t-22.5 -23t-25.5 -25.5t-24.5 -24q-54 -49 -71 -67q-82 -82 -82 -210q0 -47 -32.5 -81.5t-83.5 -34.5zM412 153q0 63 43.5 107.5t108.5 44.5q62 0 107.5 -44t45.5 -108q0 -65 -45 -109.5
t-108 -44.5q-65 0 -108.5 45.5t-43.5 108.5z" />
    <glyph glyph-name="at" unicode="@" horiz-adv-x="2157" 
d="M1078 -430q-215 0 -400 74t-315 204.5t-204 315t-74 399.5q0 216 74 401.5t204 315.5t315 204t400 74q216 0 401 -74t315.5 -204t204 -315.5t73.5 -401.5q0 -176 -47 -312q-51 -147 -144 -231.5t-216 -84.5q-91 0 -159 50.5t-92 133.5q-149 -111 -336 -111
q-242 0 -398.5 156.5t-156.5 398.5q0 244 156.5 400.5t398.5 156.5q185 0 323 -93v-32q0 48 33 81.5t84 33.5q48 0 80.5 -33.5t32.5 -81.5v-382q2 -32 2 -50v-329q0 -50 4.5 -59.5t27.5 -9.5q80 0 128.5 107.5t48.5 290.5q0 227 -95 400.5t-268.5 269t-400.5 95.5t-401 -96
t-268 -269.5t-94 -399.5q0 -345 209 -554t554 -209q80 0 166.5 18.5t146.5 46.5q66 32 118 4.5t52 -97.5q0 -60 -72 -107t-181 -71t-230 -24zM753 563q0 -152 86.5 -238.5t238.5 -86.5q140 0 225 75.5t98 210.5v79q-13 135 -97.5 211t-225.5 76q-152 0 -238.5 -87
t-86.5 -240z" />
    <glyph glyph-name="A" unicode="A" horiz-adv-x="1447" 
d="M160 -1q-67 0 -99 55.5t-5 109.5l557 1317q15 35 44 55t65 20q35 0 64 -20t44 -55l559 -1317q29 -56 -5.5 -110.5t-98.5 -54.5q-36 0 -65 19t-42 54l-161 385h-589l-161 -385q-13 -35 -42 -54t-65 -19zM521 676h403l-202 482z" />
    <glyph glyph-name="B" unicode="B" horiz-adv-x="1503" 
d="M331 -1q-59 0 -95.5 32t-36.5 83v1327q0 52 33.5 83.5t81.5 31.5h550q182 0 308.5 -116t126.5 -292q0 -180 -134 -296q99 -56 154.5 -152.5t55.5 -222.5q0 -210 -136 -344t-347 -134h-561zM429 229h463q120 0 186.5 65t66.5 183q0 114 -66.5 178t-186.5 64h-463v-490z
M429 949h435q99 0 152 51t53 148q0 178 -205 178h-435v-377z" />
    <glyph glyph-name="C" unicode="C" horiz-adv-x="1550" 
d="M902 -19q-209 0 -388.5 107t-285 290.5t-105.5 399.5q0 161 60.5 307.5t164 254t248.5 171t306 63.5q278 0 493 -177q36 -29 38.5 -77t-30 -85.5t-85.5 -37.5q-39 0 -84 36q-122 111 -332 111q-114 0 -216 -45t-175 -121t-115.5 -180.5t-42.5 -219.5q0 -159 72.5 -289.5
t198 -204t278.5 -73.5q197 0 344 120q23 20 55 22.5t60 -10t47.5 -41t19.5 -65.5q0 -51 -32 -81q-175 -175 -494 -175z" />
    <glyph glyph-name="D" unicode="D" horiz-adv-x="1571" 
d="M314 -1q-47 0 -81 34t-34 81v1327q0 52 33.5 83.5t81.5 31.5h355q225 0 403 -99t277 -276.5t99 -402.5q0 -226 -99 -403.5t-276.5 -276.5t-403.5 -99h-355zM429 218h240q249 0 399 153.5t150 406.5t-150 406t-399 153h-240v-1119z" />
    <glyph glyph-name="E" unicode="E" horiz-adv-x="1441" 
d="M314 -1q-47 0 -81 34t-34 81v1327q0 47 34 81t81 34h885q46 0 80.5 -33.5t34.5 -81.5q0 -47 -34 -81t-81 -34h-770v-433h625q47 0 81 -33.5t34 -81.5q0 -47 -33.5 -82t-81.5 -35h-625v-432h770q47 0 81 -34.5t34 -80.5q0 -48 -34.5 -81.5t-80.5 -33.5h-885z" />
    <glyph glyph-name="F" unicode="F" horiz-adv-x="1451" 
d="M314 -1q-47 0 -81 34t-34 81v1327q0 47 34 81t81 34h885q46 0 80.5 -33.5t34.5 -81.5q0 -47 -34 -81t-81 -34h-770v-433h619q48 0 81.5 -33.5t33.5 -81.5q0 -47 -33 -82t-82 -35h-619v-547q0 -47 -33.5 -81t-81.5 -34z" />
    <glyph glyph-name="G" unicode="G" horiz-adv-x="1612" 
d="M902 -19q-209 0 -388.5 107t-285 290.5t-105.5 399.5q0 161 60.5 307.5t164 254t248.5 171t306 63.5q278 0 493 -177q36 -29 38.5 -77t-30 -85.5t-85.5 -37.5q-39 0 -84 36q-122 111 -332 111q-114 0 -216 -45t-175 -121t-115.5 -180.5t-42.5 -219.5q0 -159 72.5 -289.5
t198 -204t278.5 -73.5q117 0 195.5 19.5t147.5 65.5v391h-332q-48 0 -81.5 32t-33.5 80q0 44 32.5 75.5t82.5 31.5h447q51 0 83 -32.5t32 -80.5v-556q0 -51 -32 -81q-95 -95 -228.5 -135t-312.5 -40z" />
    <glyph glyph-name="H" unicode="H" horiz-adv-x="1668" 
d="M314 -1q-47 0 -81 34t-34 81v1327q0 47 34 81t81 34q48 0 81.5 -34t33.5 -81v-548h810v548q0 47 33.5 81t81.5 34q46 0 80.5 -33.5t34.5 -81.5v-1327q0 -48 -34.5 -81.5t-80.5 -33.5q-48 0 -81.5 34t-33.5 81v560h-810v-560q0 -47 -33.5 -81t-81.5 -34z" />
    <glyph glyph-name="I" unicode="I" horiz-adv-x="627" 
d="M314 -1q-47 0 -81 34t-34 81v1327q0 47 34 81t81 34q48 0 81.5 -34t33.5 -81v-1327q0 -47 -33.5 -81t-81.5 -34z" />
    <glyph glyph-name="J" unicode="J" horiz-adv-x="1361" 
d="M633 -23q-103 -1 -199.5 30t-175 89.5t-126 154t-47.5 213.5q0 52 33.5 83.5t81.5 31.5t81.5 -31.5t33.5 -83.5q0 -126 86 -190.5t221 -66.5q136 0 223.5 65.5t87.5 191.5v977q0 48 34.5 81.5t80.5 33.5q48 0 81.5 -34t33.5 -81v-977q0 -93 -29.5 -172.5t-80.5 -136
t-119 -97t-144 -60.5t-157 -21z" />
    <glyph glyph-name="K" unicode="K" horiz-adv-x="1290" 
d="M314 -1q-46 0 -80.5 33.5t-34.5 81.5v1327q0 48 34.5 81.5t80.5 33.5q48 0 81.5 -34t33.5 -81v-532l612 612q34 35 85 35q36 0 64.5 -20.5t41.5 -50.5t7 -65t-33 -62l-492 -491l504 -684q26 -42 22 -83t-36 -71t-77 -30q-61 0 -96 50l-482 651l-120 -119v-467
q0 -47 -33.5 -81t-81.5 -34z" />
    <glyph glyph-name="L" unicode="L" horiz-adv-x="1418" 
d="M314 -1q-46 0 -80.5 33.5t-34.5 81.5v1327q0 48 34.5 81.5t80.5 33.5q48 0 81.5 -34t33.5 -81v-1210h772q50 0 82.5 -32t32.5 -90q0 -47 -32.5 -78.5t-82.5 -31.5h-887z" />
    <glyph glyph-name="M" unicode="M" horiz-adv-x="1954" 
d="M314 -1q-47 0 -81 34t-34 81v1327q0 47 34 81t81 34q75 0 103 -62l565 -1114l558 1116q34 60 103 60q48 0 80.5 -34t32.5 -81v-1327q0 -47 -32.5 -81t-80.5 -34t-82.5 33.5t-34.5 81.5v871l-446 -910q-31 -58 -102 -58q-69 0 -105 68l-444 887v-858q0 -47 -33.5 -81
t-81.5 -34z" />
    <glyph glyph-name="N" unicode="N" horiz-adv-x="1659" 
d="M314 -1q-47 0 -81 34t-34 81v1327q0 47 34 81t81 34q56 0 89 -41l828 -1078v1004q0 47 34 81t81 34q46 0 80.5 -33.5t34.5 -81.5v-1327q0 -48 -34.5 -81.5t-80.5 -33.5q-52 0 -85 37l-832 1082v-1004q0 -47 -33.5 -81t-81.5 -34z" />
    <glyph glyph-name="O" unicode="O" horiz-adv-x="1840" 
d="M921 -19q-225 0 -408 103.5t-286.5 286t-103.5 407.5q0 226 103.5 408t286 285t408.5 103q225 0 407.5 -103t285.5 -285t103 -408q0 -225 -103 -407.5t-285.5 -286t-407.5 -103.5zM353 778q0 -252 157.5 -409.5t410.5 -157.5q251 0 408.5 157.5t157.5 409.5
q0 250 -158 408t-408 158q-253 0 -410.5 -157.5t-157.5 -408.5z" />
    <glyph glyph-name="P" unicode="P" horiz-adv-x="1517" 
d="M314 -1q-47 0 -81 34t-34 81v1327q0 52 33.5 83.5t81.5 31.5h565q227 0 373.5 -146.5t146.5 -373.5q0 -229 -146.5 -375.5t-373.5 -146.5h-450v-400q0 -48 -31.5 -81.5t-83.5 -33.5zM429 744h450q137 0 213.5 77t76.5 215q0 136 -76.5 213t-213.5 77h-450v-582z" />
    <glyph glyph-name="Q" unicode="Q" horiz-adv-x="1840" 
d="M921 -19q-225 0 -408 103.5t-286.5 286t-103.5 407.5q0 226 103.5 408t286 285t408.5 103q225 0 407.5 -103t285.5 -285t103 -408q0 -300 -178 -516l68 -69q34 -34 34 -79q0 -48 -34 -80q-32 -35 -79 -35t-81 34l-76 77q-198 -129 -450 -129zM353 778
q0 -252 157.5 -409.5t410.5 -157.5q251 0 408.5 157.5t157.5 409.5q0 250 -158 408t-408 158q-253 0 -410.5 -157.5t-157.5 -408.5z" />
    <glyph glyph-name="R" unicode="R" horiz-adv-x="1478" 
d="M314 -1q-47 0 -81 34t-34 81v1327q0 52 33.5 83.5t81.5 31.5h554q228 0 374 -139t146 -357q0 -150 -75 -266.5t-204 -175.5l277 -442q42 -68 11.5 -122.5t-108.5 -54.5q-24 0 -44 9t-30.5 19t-24.5 27l-322 515h-439v-455q0 -48 -31.5 -81.5t-83.5 -33.5zM429 799h439
q137 0 213.5 69t76.5 192q0 125 -76.5 195.5t-213.5 70.5h-439v-527z" />
    <glyph glyph-name="S" unicode="S" horiz-adv-x="1342" 
d="M696 -21q-208 0 -359.5 95t-204.5 249q-14 45 -1 81.5t44 53.5l5 2q45 26 96 6l4 -1q41 -21 58 -68q67 -197 358 -197q159 0 229 58.5t70 175.5q0 87 -71 138.5t-259 105.5q-213 61 -326 137q-82 55 -125 135t-43 178q0 188 143 317t357 129q173 0 300.5 -83t190.5 -223
q19 -46 4 -89.5t-56 -63.5q-42 -22 -85 0t-68 74q-44 88 -109.5 126t-176.5 38q-138 0 -206 -60t-68 -165q0 -64 45 -112q34 -25 74 -44q90 -45 219 -83q94 -31 163.5 -61.5t132 -70.5t101.5 -85.5t61.5 -105.5t22.5 -132q0 -205 -142 -330t-378 -125z" />
    <glyph glyph-name="T" unicode="T" horiz-adv-x="1460" 
d="M731 -1q-47 0 -81 34t-34 81v1223h-406q-46 0 -77.5 31.5t-31.5 77.5t31.5 78t77.5 32h1042q46 0 77.5 -32t31.5 -78t-31.5 -77.5t-77.5 -31.5h-406v-1223q0 -47 -33.5 -81t-81.5 -34z" />
    <glyph glyph-name="U" unicode="U" horiz-adv-x="1624" 
d="M811 -30q-177 0 -316.5 70.5t-217.5 198t-78 289.5v913q0 52 33.5 83.5t81.5 31.5q50 0 82.5 -32.5t32.5 -82.5v-913q0 -152 102.5 -240t279.5 -88q179 0 281.5 88t102.5 240v913q0 52 33.5 83.5t81.5 31.5q50 0 82.5 -32.5t32.5 -82.5v-913q0 -245 -173 -401.5
t-441 -156.5z" />
    <glyph glyph-name="V" unicode="V" horiz-adv-x="1429" 
d="M715 -1q-75 0 -105 73l-552 1310q-30 73 4 123.5t99 50.5q71 0 108 -75l448 -1072l441 1063q33 84 116 84q64 0 94.5 -54t1.5 -120l-551 -1312q-32 -71 -104 -71z" />
    <glyph glyph-name="W" unicode="W" horiz-adv-x="1813" 
d="M538 -1q-38 0 -70 25.5t-45 64.5l-380 1308q-18 61 14 110t95 49q88 0 111 -87l275 -949l259 901q10 34 41 57t68 23t68.5 -22t42.5 -58l259 -901l275 955q9 35 38 58t74 23q62 0 93 -48.5t14 -110.5l-379 -1307q-12 -43 -44 -67t-71 -24q-44 0 -74 26t-41 66l-255 900
l-251 -902q-13 -40 -44 -65t-73 -25z" />
    <glyph glyph-name="X" unicode="X" horiz-adv-x="1344" 
d="M164 -1q-69 0 -101.5 58.5t9.5 125.5l449 619l-414 572q-42 58 -13.5 120t100.5 62q56 0 93 -48l385 -532l383 532q37 48 93 48q48 0 80.5 -32t35 -72.5t-21.5 -77.5l-417 -575l445 -613q26 -38 25 -80t-33 -74.5t-79 -32.5q-59 0 -91 44l-418 580l-420 -582
q-35 -42 -90 -42z" />
    <glyph glyph-name="Y" unicode="Y" horiz-adv-x="1363" 
d="M681 -1q-47 0 -81 34t-34 81v465l-499 799q-36 64 -5 121t98 57q56 0 92 -46l429 -699l418 681q39 64 105 64q68 0 98 -59.5t-7 -119.5l-499 -798v-465q0 -47 -33.5 -81t-81.5 -34z" />
    <glyph glyph-name="Z" unicode="Z" horiz-adv-x="1517" 
d="M245 -1q-37 0 -65 19t-40.5 47.5t-9 61.5t24.5 60l908 1150h-818q-51 0 -83 30t-32 79q0 44 32.5 77t82.5 33h1032q72 0 103.5 -63.5t-9.5 -118.5l-917 -1156h823q49 0 82 -30.5t33 -78.5q0 -43 -34 -76.5t-81 -33.5h-1032z" />
    <glyph glyph-name="bracketleft" unicode="[" horiz-adv-x="890" 
d="M345 -431q-48 0 -81.5 33.5t-33.5 81.5v1759q0 47 33.5 81t81.5 34h298q47 0 82 -33.5t35 -81.5t-35 -82.5t-82 -34.5h-183v-1526h183q47 0 82 -34.5t35 -81.5q0 -49 -35 -82t-82 -33h-298z" />
    <glyph glyph-name="backslash" unicode="\" horiz-adv-x="914" 
d="M756 -150q-75 0 -105 68l-597 1474q-11 21 -11 49q0 51 34.5 84t81.5 33q35 0 65 -19.5t41 -49.5l595 -1475q11 -24 11 -49q0 -47 -34 -81t-81 -34z" />
    <glyph glyph-name="bracketright" unicode="]" horiz-adv-x="890" 
d="M246 -431q-47 0 -81.5 33t-34.5 82q0 47 34.5 81.5t81.5 34.5h184v1526h-184q-47 0 -81.5 34.5t-34.5 82.5t34.5 81.5t81.5 33.5h299q47 0 81 -34t34 -81v-1759q0 -48 -34 -81.5t-81 -33.5h-299z" />
    <glyph glyph-name="asciicircum" unicode="^" horiz-adv-x="979" 
d="M192 880q-48 0 -82.5 33.5t-34.5 81.5q0 14 6 34l1 2l32 -7l-31 10q0 2 1 3q1 2 3 7t2 6l3 5l304 457q38 46 94 46q57 0 94 -48l300 -450q19 -26 19 -65q0 -47 -34 -81t-81 -34q-62 0 -94 45l-204 309l-207 -313q-38 -41 -91 -41z" />
    <glyph glyph-name="underscore" unicode="_" horiz-adv-x="1085" 
d="M96 -115q-48 0 -82.5 34.5t-34.5 82.5q0 47 34.5 82t82.5 35h894q48 0 81.5 -35t33.5 -82q0 -48 -33.5 -82.5t-81.5 -34.5h-894z" />
    <glyph glyph-name="grave" unicode="`" horiz-adv-x="637" 
d="M436 1101q-39 0 -78 29l-229 230q-33 31 -33 81q0 52 34.5 84.5t82.5 32.5q47 0 81 -34l226 -227q31 -31 31 -79q0 -47 -33.5 -82t-81.5 -35z" />
    <glyph glyph-name="a" unicode="a" horiz-adv-x="1426" 
d="M684 -12q-247 0 -411 163.5t-164 409.5q0 163 74.5 294.5t206 206t294.5 74.5q198 0 343 -106v-7q0 48 33 81.5t84 33.5q49 0 81 -33.5t32 -81.5v-909q0 -47 -32 -81t-81 -34q-51 0 -84 33.5t-33 81.5v-13q-143 -113 -343 -113zM339 561q0 -158 95 -254t250 -96
q156 0 249.5 96t93.5 254q0 161 -93.5 257t-249.5 96q-155 0 -250 -96.5t-95 -256.5z" />
    <glyph glyph-name="b" unicode="b" horiz-adv-x="1424" 
d="M743 -12q-194 0 -344 106v22q0 -48 -32.5 -81.5t-83.5 -33.5q-49 0 -81.5 33.5t-32.5 81.5v1325q0 51 34 83t81 32q51 0 83 -32.5t32 -82.5v-409q149 106 344 106q247 0 411 -164t164 -411t-164 -411t-411 -164zM399 563q0 -159 94 -254.5t250 -95.5q155 0 250 96t95 254
q0 129 -77 229q-97 122 -268 122q-155 0 -249.5 -96t-94.5 -255z" />
    <glyph glyph-name="c" unicode="c" horiz-adv-x="1195" 
d="M665 -12q-160 0 -288.5 75t-200 206t-71.5 292q0 163 67.5 294t189 205t275.5 74q273 0 431 -204q32 -38 24.5 -85t-49.5 -74q-36 -26 -79 -19.5t-73 41.5q-53 63 -113 91t-141 28q-141 0 -221.5 -92.5t-80.5 -258.5q0 -160 88.5 -255t241.5 -95q138 0 219 74
q35 33 79.5 33.5t73.5 -30.5q38 -37 37.5 -83.5t-35.5 -77.5q-149 -139 -374 -139z" />
    <glyph glyph-name="d" unicode="d" horiz-adv-x="1422" 
d="M680 -12q-163 0 -295 74.5t-206 206t-74 294.5t74 294.5t206 206t295 74.5q194 0 343 -106v409q0 50 32.5 82.5t82.5 32.5q47 0 81 -32t34 -83v-1325q0 -48 -32.5 -81.5t-80.5 -33.5q-51 0 -84 33.5t-33 81.5v-22q-150 -106 -343 -106zM335 563q0 -158 95 -254t250 -96
q156 0 249.5 95.5t93.5 254.5t-94 255t-249 96q-170 0 -269 -122q-76 -99 -76 -229z" />
    <glyph glyph-name="e" unicode="e" horiz-adv-x="1259" 
d="M665 -10q-246 0 -403 160t-157 411q0 250 149 411.5t383 161.5q231 0 377.5 -155.5t146.5 -398.5q0 -49 -33 -80.5t-80 -31.5h-703q24 -121 107.5 -188t212.5 -67q63 0 122.5 20t95.5 53q30 31 74.5 32.5t76.5 -25.5q41 -34 42.5 -81.5t-36.5 -82.5q-67 -61 -172 -100
t-203 -39zM350 684h575q-25 110 -98.5 169t-189.5 59q-110 0 -184 -59t-103 -169z" />
    <glyph glyph-name="f" unicode="f" horiz-adv-x="833" 
d="M404 -1q-48 0 -81.5 34t-33.5 81l-2 755h-82q-47 0 -78.5 31.5t-31.5 78.5q0 46 31.5 77.5t78.5 31.5h82v194q0 127 54 200.5t164 73.5h197q46 0 77.5 -32t31.5 -78t-31.5 -77.5t-77.5 -31.5h-164q-14 0 -16.5 -7t-2.5 -48v-194h185q46 0 77.5 -31.5t31.5 -77.5
t-31.5 -78t-77.5 -32h-184v-755q0 -48 -32.5 -81.5t-83.5 -33.5z" />
    <glyph glyph-name="g" unicode="g" horiz-adv-x="1421" 
d="M687 -385q-307 0 -486 226q-26 37 -26 74q0 54 44 85q38 27 87 18.5t76 -47.5q116 -134 305 -134q125 0 210 68t114 187q-103 -77 -240 -98q-43 -6 -91 -6q-252 0 -413.5 161t-161.5 412q0 165 75 297t206 205t294 73q195 0 343 -102v-11q0 48 33 81.5t84 33.5
q48 0 80.5 -33.5t32.5 -81.5v-822q0 -251 -161 -418.5t-405 -167.5zM335 561q0 -158 95 -254t250 -96q156 0 249.5 96t93.5 254q0 161 -93.5 257t-249.5 96q-155 0 -250 -96.5t-95 -256.5z" />
    <glyph glyph-name="h" unicode="h" 
d="M284 -1q-47 0 -81 34t-34 81v1327q0 51 34 83t81 32q51 0 83 -32.5t32 -82.5v-389q128 86 290 86q144 0 267 -60q122 -64 190.5 -184t68.5 -285v-495q0 -47 -34 -81t-81 -34q-48 0 -81.5 34t-33.5 81v495q0 299 -296 299q-135 0 -212.5 -64t-77.5 -167v-563
q0 -48 -31.5 -81.5t-83.5 -33.5z" />
    <glyph glyph-name="i" unicode="i" horiz-adv-x="572" 
d="M281 -1q-47 0 -81 34t-34 81v896q0 51 34 83t81 32q51 0 83 -32.5t32 -82.5v-896q0 -48 -31.5 -81.5t-83.5 -33.5zM141 1363q0 67 44 106t102 39q57 0 100.5 -39t43.5 -106q0 -61 -42.5 -103.5t-103.5 -42.5q-59 0 -101.5 42t-42.5 104z" />
    <glyph glyph-name="j" unicode="j" horiz-adv-x="523" 
d="M-141 -431q-46 0 -77.5 31.5t-31.5 77.5t31.5 77.5t77.5 31.5h243q15 0 17.5 7t2.5 48v1168q0 52 33.5 83.5t81.5 31.5q50 0 83.5 -32t33.5 -83v-1168q0 -126 -54.5 -199.5t-164.5 -73.5h-276zM90 1363q0 67 44 106t103 39q57 0 100.5 -39t43.5 -106q0 -61 -42.5 -103.5
t-103.5 -42.5q-59 0 -102 42.5t-43 103.5z" />
    <glyph glyph-name="k" unicode="k" horiz-adv-x="1104" 
d="M284 -1q-47 0 -81 34t-34 81v1327q0 51 34 83t81 32q51 0 83 -32.5t32 -82.5v-765l473 430q36 28 75 28q45 0 78 -38q31 -37 31 -77q0 -49 -40 -79l-346 -315l365 -447q31 -33 28.5 -78t-42.5 -78q-32 -31 -78 -27.5t-79 43.5l-360 438l-105 -95v-267q0 -48 -31.5 -81.5
t-83.5 -33.5z" />
    <glyph glyph-name="l" unicode="l" horiz-adv-x="640" 
d="M468 -1q-130 0 -214.5 101.5t-84.5 261.5v1079q0 51 34 83t81 32q51 0 83 -32.5t32 -82.5v-1079q0 -133 69 -133h46q43 0 74.5 -30.5t31.5 -84.5q0 -48 -31.5 -81.5t-83.5 -33.5h-37z" />
    <glyph glyph-name="m" unicode="m" horiz-adv-x="1899" 
d="M284 -1q-47 0 -81 34t-34 81v896q0 51 34 83t81 32q72 0 103 -60q107 73 242 73q99 0 182.5 -39.5t142.5 -110.5q62 72 149.5 111t187.5 39q194 0 316.5 -139t122.5 -353v-532q0 -48 -31.5 -81.5t-83.5 -33.5q-48 0 -81.5 34t-33.5 81v532q0 126 -55 194t-154 68
q-110 0 -169 -63.5t-55 -184.5v-546q0 -48 -31.5 -81.5t-83.5 -33.5q-47 0 -81 34t-34 81v532q0 125 -54.5 193.5t-153.5 68.5q-110 0 -170 -60.5t-60 -170.5v-563q0 -48 -31.5 -81.5t-83.5 -33.5z" />
    <glyph glyph-name="n" unicode="n" 
d="M284 -1q-47 0 -81 34t-34 81v896q0 51 34 83t81 32q40 0 69.5 -20.5t40.5 -55.5q130 89 295 89q144 0 267 -60q122 -64 190.5 -184t68.5 -285v-495q0 -47 -34 -81t-81 -34q-48 0 -81.5 34t-33.5 81v495q0 299 -296 299q-135 0 -212.5 -64t-77.5 -167v-563
q0 -48 -31.5 -81.5t-83.5 -33.5z" />
    <glyph glyph-name="o" unicode="o" horiz-adv-x="1351" 
d="M680 -12q-248 0 -411.5 163.5t-163.5 409.5q0 163 74 294.5t206 206t295 74.5t294.5 -74.5t205 -206t73.5 -294.5q0 -162 -74.5 -293t-205.5 -205.5t-293 -74.5zM335 561q0 -158 95 -254t250 -96q156 0 249.5 96t93.5 256q0 159 -93.5 255t-249.5 96q-155 0 -250 -96.5
t-95 -256.5z" />
    <glyph glyph-name="p" unicode="p" horiz-adv-x="1424" 
d="M284 -431q-47 0 -81 33.5t-34 81.5v1339q0 48 32.5 81.5t81.5 33.5q51 0 83.5 -33.5t32.5 -81.5v8q60 42 130 68q99 37 214 37q247 0 411 -164t164 -411q0 -246 -164 -409.5t-411 -163.5q-200 0 -344 113v-417q0 -48 -31.5 -81.5t-83.5 -33.5zM399 561q0 -158 94.5 -254
t249.5 -96t250 96t95 254q0 160 -95 256.5t-250 96.5t-249.5 -96.5t-94.5 -256.5z" />
    <glyph glyph-name="q" unicode="q" horiz-adv-x="1422" 
d="M1138 -431q-52 0 -83.5 33.5t-31.5 81.5v417q-143 -113 -343 -113q-248 0 -411.5 163.5t-163.5 409.5q0 163 74 294.5t206 206t295 74.5q116 0 213 -37q70 -26 130 -68v-8q0 48 33 81.5t84 33.5q48 0 80.5 -33.5t32.5 -81.5v-1339q0 -48 -34 -81.5t-81 -33.5zM335 561
q0 -158 95 -254t250 -96t249 96t94 254q0 160 -94 256.5t-249 96.5t-250 -96.5t-95 -256.5z" />
    <glyph glyph-name="r" unicode="r" horiz-adv-x="893" 
d="M284 -1q-47 0 -81 34t-34 81v896q0 51 34 83t81 32q39 0 67.5 -19.5t40.5 -53.5q128 86 299 86l65 -4q49 -7 77.5 -46t19.5 -88q-8 -46 -45.5 -73.5t-84.5 -20.5l-36 2q-135 0 -211.5 -64t-76.5 -167v-563q0 -48 -31.5 -81.5t-83.5 -33.5z" />
    <glyph glyph-name="s" unicode="s" horiz-adv-x="1106" 
d="M550 -12q-116 0 -231 42.5t-190 131.5q-33 38 -26.5 85t49.5 77q37 27 81.5 20.5t71.5 -41.5q43 -49 103 -69.5t147 -20.5q127 0 175.5 31t48.5 93q0 50 -50 79t-180 47q-200 29 -306 116.5t-106 213.5q0 159 115.5 251t299.5 92q264 0 399 -189q31 -37 21 -86.5
t-60 -75.5q-35 -20 -77 -11.5t-70 42.5q-39 52 -89.5 75t-127.5 23q-185 0 -185 -110q0 -52 46.5 -79t178.5 -45q156 -24 239 -70q178 -97 178 -279q0 -152 -131.5 -247.5t-323.5 -95.5z" />
    <glyph glyph-name="t" unicode="t" horiz-adv-x="869" 
d="M486 -1q-110 0 -164 73.5t-54 199.5v597h-84q-46 0 -77.5 32t-31.5 78t31.5 77.5t77.5 31.5h84v240q0 51 33.5 84t81.5 33q50 0 83.5 -33t33.5 -84v-240h183q47 0 78.5 -31.5t31.5 -77.5q0 -47 -31.5 -78.5t-78.5 -31.5h-183v-597q0 -40 2.5 -47t16.5 -7h164
q46 0 78 -31.5t32 -77.5q0 -47 -31.5 -78.5t-78.5 -31.5h-197z" />
    <glyph glyph-name="u" unicode="u" 
d="M695 -14q-234 0 -380 143.5t-146 385.5v495q0 48 34 81.5t81 33.5q48 0 81.5 -33.5t33.5 -81.5v-495q0 -299 296 -299q132 0 211 63t79 168v563q0 52 33.5 83.5t81.5 31.5q50 0 82.5 -32.5t32.5 -82.5v-896q0 -47 -32 -81t-83 -34q-37 0 -66.5 21t-42.5 55
q-130 -89 -296 -89z" />
    <glyph glyph-name="v" unicode="v" horiz-adv-x="1225" 
d="M611 -3q-73 0 -105 75l-421 900q-16 39 -0.5 81.5t57.5 62.5q44 20 86 4t62 -58l323 -700l318 702q19 42 63.5 58t87.5 -4q45 -21 61 -64.5t-4 -83.5l-414 -900q-37 -73 -114 -73z" />
    <glyph glyph-name="w" unicode="w" horiz-adv-x="1579" 
d="M489 -1q-40 0 -69 22t-39 54l-300 897q-14 71 15 112t86 41q36 0 65.5 -20.5t41.5 -52.5l202 -609l183 595q12 39 42 63t71 24t70 -23.5t42 -61.5l186 -584l198 596q14 35 43 54t65 19q63 0 93.5 -51t6.5 -109l-296 -890q-12 -35 -41 -55.5t-69 -20.5t-69.5 22t-39.5 56
l-193 597l-186 -599q-13 -37 -43 -56.5t-65 -19.5z" />
    <glyph glyph-name="x" unicode="x" horiz-adv-x="1168" 
d="M213 -1q-49 0 -81 32.5t-33 74.5t26 81l313 389l-275 361q-45 59 -12.5 123.5t103.5 64.5q49 0 86 -37l250 -334l261 318q49 53 102 53q37 0 64.5 -19t38.5 -47.5t6.5 -62t-26.5 -60.5l-296 -353l299 -398q38 -50 30 -91.5t-41 -68t-70 -26.5q-38 0 -62 15t-46 42
l-264 350l-286 -366q-30 -41 -87 -41z" />
    <glyph glyph-name="y" unicode="y" horiz-adv-x="1227" 
d="M424 -437q-21 0 -48 9q-48 19 -64.5 61.5t4.5 88.5l172 370l-398 872q-22 44 -8 87.5t60 64.5q44 22 87.5 8t64.5 -60l319 -700l321 698q21 44 60 60t85 -2q48 -19 64.5 -61.5t-4.5 -88.5l-619 -1340q-34 -67 -96 -67z" />
    <glyph glyph-name="z" unicode="z" horiz-adv-x="1174" 
d="M240 -1q-49 0 -79 30.5t-30 79.5q0 50 30 80l576 717h-497q-49 0 -79 30.5t-30 79.5t30 79t79 30h719q49 0 79.5 -30t30.5 -79q0 -43 -19 -67l-583 -731h492q49 0 79.5 -30t30.5 -79t-30.5 -79.5t-79.5 -30.5h-719z" />
    <glyph glyph-name="braceleft" unicode="{" horiz-adv-x="956" 
d="M709 -431q-164 0 -250.5 86.5t-86.5 250.5v433q0 66 -21 86.5t-87 20.5q-47 0 -82 33.5t-35 81.5q0 52 34.5 84.5t82.5 32.5q66 0 87 20.5t21 87.5v432q0 164 86.5 252t250.5 88q51 0 84 -33.5t33 -83.5q0 -48 -33 -81.5t-84 -33.5q-64 0 -84.5 -21t-20.5 -87v-432
q0 -130 -66 -224q66 -95 66 -223v-433q0 -65 20.5 -85.5t84.5 -20.5q51 0 84 -34.5t33 -81.5q0 -48 -33 -81.5t-84 -33.5z" />
    <glyph glyph-name="bar" unicode="|" horiz-adv-x="892" 
d="M441 -431q-48 0 -81.5 33.5t-33.5 81.5v1759q0 47 33.5 81t81.5 34q47 0 82 -33.5t35 -81.5v-1759q0 -49 -35 -82t-82 -33z" />
    <glyph glyph-name="braceright" unicode="}" horiz-adv-x="955" 
d="M246 -431q-47 0 -81.5 33t-34.5 82q0 47 34.5 81.5t81.5 34.5q65 0 85.5 20.5t20.5 85.5v433q0 130 66 223q-66 94 -66 224v432q0 66 -20.5 87t-85.5 21q-47 0 -81.5 33t-34.5 82q0 51 34.5 84t81.5 33q164 0 251 -88t87 -252v-432q0 -67 20.5 -87.5t87.5 -20.5
q47 0 82 -33t35 -84q0 -48 -35 -81.5t-82 -33.5q-67 0 -87.5 -20.5t-20.5 -86.5v-433q0 -164 -87 -250.5t-251 -86.5z" />
    <glyph glyph-name="asciitilde" unicode="~" horiz-adv-x="1181" 
d="M747 1158q-101 0 -206 75q-50 32 -72 32q-46 0 -94 -52q-26 -36 -71.5 -44t-80.5 14q-45 26 -53 74t19 85q56 71 128.5 110t151.5 39q17 0 34.5 -2.5t31 -5.5t29.5 -9t25.5 -10t24.5 -12t20.5 -11t19 -11.5t15.5 -9.5q29 -21 44 -28t34 -7q25 0 36 3.5t21 16.5
q28 30 66 40t74 -5q53 -24 65.5 -72.5t-19.5 -91.5q-88 -118 -243 -118z" />
    <glyph glyph-name="uni00A0" unicode="&#xa0;" horiz-adv-x="539" 
 />
    <glyph glyph-name="exclamdown" unicode="&#xa1;" horiz-adv-x="708" 
d="M355 -431q-47 0 -81.5 34.5t-34.5 81.5v1011q0 49 35.5 82t80.5 33t80 -33t35 -82v-1011q0 -47 -33 -81.5t-82 -34.5zM202 973q0 64 44.5 109t108.5 45t108 -45t44 -109q0 -62 -44.5 -106.5t-107.5 -44.5t-108 43.5t-45 107.5z" />
    <glyph glyph-name="cent" unicode="&#xa2;" horiz-adv-x="1195" 
d="M380 -181q-59 0 -88 47.5t-5 111.5l44 117q-106 77 -166 198.5t-60 267.5q0 163 67.5 294t189 205t275.5 74q46 0 81 -4l42 106q13 37 42 58t67 21q57 0 86 -48t9 -104l-39 -104q80 -47 143 -129q32 -38 24.5 -85t-49.5 -74q-36 -26 -79 -19.5t-73 42.5q-23 27 -47 47
l-236 -627q26 -3 57 -3q138 0 219 74q35 33 79.5 33.5t73.5 -30.5q38 -37 37.5 -83.5t-35.5 -77.5q-149 -139 -374 -139q-63 0 -136 15l-38 -100q-12 -39 -41.5 -61.5t-69.5 -22.5zM335 561q0 -146 80 -241l221 592q-140 0 -220.5 -92.5t-80.5 -258.5z" />
    <glyph glyph-name="sterling" unicode="&#xa3;" horiz-adv-x="1397" 
d="M326 -1q-49 0 -82 34t-33 81l1 19q1 3 1 7l2 6v-2l3 13q91 213 102 433h-70q-48 0 -81.5 34.5t-33.5 80.5q0 47 34 81t81 34h40l-28 83q-51 148 -51 245q0 172 120 291.5t293 119.5h129q171 0 291 -118q77 -70 77 -135q0 -47 -34 -81t-81 -34q-58 0 -91 45
q-34 50 -70.5 71t-91.5 21h-129q-79 0 -131 -49t-52 -131q0 -49 11 -93q7 -28 44 -140l32 -95h245q47 0 81 -34t34 -81q0 -46 -33.5 -80.5t-81.5 -34.5h-221q-8 -179 -61 -361h483q3 4 9.5 15.5t10.5 17.5q6 11 26 53q26 61 102 61q48 0 81.5 -33.5t33.5 -81.5
q0 -30 -12 -52l-70 -143q-14 -30 -42.5 -48.5t-63.5 -18.5h-723z" />
    <glyph glyph-name="currency" unicode="&#xa4;" horiz-adv-x="1027" 
d="M213 319q-51 0 -85.5 36t-34.5 87q0 50 36 84l52 50q-76 159 -2 323l-51 53q-35 35 -35 86q0 50 35 85t85 35q44 0 83 -30l53 -58q81 37 162.5 36.5t157.5 -34.5l58 58q47 28 82 28q50 0 85.5 -35t35.5 -85q0 -55 -37 -89l-52 -49q77 -159 2 -319l51 -54q36 -35 36 -85
q0 -51 -35 -87t-86 -36q-41 0 -82 32l-54 57q-74 -37 -158 -37q-83 0 -162 37l-61 -59q-36 -30 -79 -30zM387 740q0 -58 34.5 -93t89.5 -35q58 0 91 34.5t33 93.5t-34 92.5t-90 33.5t-90 -33.5t-34 -92.5z" />
    <glyph glyph-name="yen" unicode="&#xa5;" horiz-adv-x="1312" 
d="M656 -1q-47 0 -81 34t-34 81v203h-177q-46 0 -78 31.5t-32 78.5q0 46 31.5 77.5t78.5 31.5h177v2h-177q-46 0 -78 32t-32 78t32 77.5t78 31.5h67l-389 621q-36 64 -5 121t98 57q56 0 92 -46l429 -699l418 681q39 64 105 64q68 0 98 -59.5t-7 -119.5l-388 -620h67
q46 0 77.5 -31.5t31.5 -77.5t-31.5 -78t-77.5 -32h-178v-2h178q46 0 77.5 -31.5t31.5 -77.5t-31.5 -78t-77.5 -32h-178v-203q0 -47 -33.5 -81t-81.5 -34z" />
    <glyph glyph-name="brokenbar" unicode="&#xa6;" horiz-adv-x="578" 
d="M281 820q-48 0 -81.5 33.5t-33.5 81.5v669q0 48 33 82.5t82 34.5q47 0 82 -34.5t35 -82.5v-669q0 -49 -35 -82t-82 -33zM166 -316v655q0 47 33.5 81t81.5 34q47 0 82 -33.5t35 -81.5v-655q0 -49 -35 -82t-82 -33q-48 0 -81.5 33.5t-33.5 81.5z" />
    <glyph glyph-name="section" unicode="&#xa7;" horiz-adv-x="997" 
d="M496 -431q-173 0 -293.5 118t-120.5 289q0 48 34 81.5t81 33.5q48 0 81.5 -33.5t33.5 -81.5q0 -80 51 -128.5t133 -48.5q81 0 132 48.5t51 128.5t-51 129t-132 49q-173 0 -293.5 118t-120.5 289q0 173 125 295q-125 117 -125 292q0 171 120.5 289.5t293.5 118.5
t293 -118.5t120 -289.5q0 -47 -34 -81t-81 -34q-48 0 -81.5 34t-33.5 81q0 81 -50.5 129.5t-132.5 48.5q-84 0 -134 -49t-50 -129q0 -81 50.5 -130t133.5 -49q173 0 293 -118t120 -290q0 -83 -32 -159.5t-91 -132.5q123 -121 123 -293q0 -171 -120 -289t-293 -118zM312 561
q0 -80 49 -128.5t135 -48.5q83 0 133 48.5t50 128.5q0 81 -50.5 130.5t-132.5 49.5q-80 0 -132 -49t-52 -131z" />
    <glyph glyph-name="dieresis" unicode="&#xa8;" horiz-adv-x="1009" 
d="M722 1153q-64 0 -110 45.5t-46 109.5q0 63 46 108.5t110 45.5q65 0 109 -45t44 -109t-44 -109.5t-109 -45.5zM198 1308q0 63 46 108.5t110 45.5q65 0 109 -45t44 -109t-44 -109.5t-109 -45.5q-64 0 -110 45.5t-46 109.5z" />
    <glyph glyph-name="copyright" unicode="&#xa9;" horiz-adv-x="1800" 
d="M899 31q-154 0 -292.5 58t-238 157t-158 238.5t-58.5 295.5q0 152 59 290t159 238.5t238.5 159.5t290.5 59q150 0 288 -59t238.5 -158.5t160.5 -238t60 -291.5q0 -156 -58.5 -295.5t-158 -238.5t-238 -157t-292.5 -58zM310 780q0 -164 77.5 -299.5t212.5 -213t299 -77.5
q163 0 299 79t214 214.5t78 296.5q0 164 -78 299.5t-213.5 212.5t-299.5 77q-161 0 -296 -78t-214 -213.5t-79 -297.5zM424 780q0 214 129.5 354.5t328.5 140.5q234 0 374 -177q23 -33 16.5 -66t-37.5 -54q-27 -19 -59.5 -13.5t-54.5 31.5q-95 110 -239 110
q-127 0 -204 -88.5t-77 -237.5q0 -147 83.5 -236.5t223.5 -89.5q125 0 204 70q26 24 58.5 25t58.5 -21q26 -26 27 -60.5t-26 -60.5q-127 -120 -322 -120q-209 0 -346.5 140.5t-137.5 352.5z" />
    <glyph glyph-name="ordfeminine" unicode="&#xaa;" horiz-adv-x="874" 
d="M439 775q-167 0 -276.5 109t-109.5 275q0 167 109 276t275 109q126 0 223 -66v-25q0 35 22 58.5t61 23.5q34 0 56.5 -23.5t22.5 -58.5v-594q0 -35 -22.5 -59t-56.5 -24q-39 0 -61 24t-22 59v-3q-98 -81 -221 -81zM215 1159q0 -97 62.5 -159.5t159.5 -62.5q100 0 161.5 62
t61.5 160q0 100 -61 161.5t-160 61.5q-101 0 -162.5 -61.5t-61.5 -161.5z" />
    <glyph glyph-name="guillemotleft" unicode="&#xab;" horiz-adv-x="1135" 
d="M859 -1q-67 0 -105 67l-218 435q-14 25 -14 60q0 31 11 53l221 442q35 67 105 67q51 0 84 -33.5t33 -81.5q0 -29 -12 -50l-198 -397l197 -394q13 -21 13 -53q0 -48 -33 -81.5t-84 -33.5zM141 561q0 31 11 53l221 442q37 67 105 67q48 0 82.5 -33t34.5 -82q0 -31 -12 -50
l-198 -397l197 -394q13 -21 13 -53q0 -48 -34.5 -81.5t-82.5 -33.5q-65 0 -105 67l-219 438q-13 26 -13 57z" />
    <glyph glyph-name="logicalnot" unicode="&#xac;" horiz-adv-x="1174" 
d="M961 448q-47 0 -81 34t-34 81v183h-630q-48 0 -81.5 34.5t-33.5 82.5q0 47 33.5 81t81.5 34h745q48 0 81.5 -34t33.5 -81v-300q0 -47 -33.5 -81t-81.5 -34z" />
    <glyph glyph-name="uni00AD" unicode="&#xad;" horiz-adv-x="971" 
d="M262 446q-47 0 -81 34t-34 81q0 51 33.5 84t81.5 33h447q48 0 82.5 -32.5t34.5 -84.5q0 -48 -34.5 -81.5t-82.5 -33.5h-447z" />
    <glyph glyph-name="registered" unicode="&#xae;" horiz-adv-x="1672" 
d="M835 31q-154 0 -292.5 58t-238 157t-158 238.5t-58.5 295.5q0 152 59 290t159 238.5t238.5 159.5t290.5 59q150 0 288 -59t238.5 -158.5t160.5 -238t60 -291.5q0 -156 -58.5 -295.5t-158 -238.5t-238 -157t-292.5 -58zM246 780q0 -164 77.5 -299.5t212.5 -213t299 -77.5
q163 0 299 79t214 214.5t78 296.5q0 164 -78 299.5t-213.5 212.5t-299.5 77q-161 0 -296 -78t-214 -213.5t-79 -297.5zM535 385v818q0 38 23 60.5t58 22.5h225q148 0 241 -87t93 -227q0 -91 -47 -163.5t-127 -112.5l170 -267q31 -49 12 -88t-74 -39q-45 0 -70 40l-201 319
h-141v-276q0 -35 -23 -59t-58 -24t-58 24t-23 59zM697 815h144q174 0 174 158q0 78 -45.5 118.5t-128.5 40.5h-144v-317z" />
    <glyph glyph-name="macron" unicode="&#xaf;" horiz-adv-x="1162" 
d="M335 1160q-47 0 -81 34t-34 81q0 48 33.5 82.5t81.5 34.5h488q48 0 81.5 -34.5t33.5 -82.5q0 -47 -34 -81t-81 -34h-488z" />
    <glyph glyph-name="degree" unicode="&#xb0;" horiz-adv-x="997" 
d="M496 744q-174 0 -294 120.5t-120 294.5q0 173 120.5 293t293.5 120q174 0 293.5 -119.5t119.5 -293.5q0 -173 -120 -294t-293 -121zM312 1159q0 -83 50.5 -133t133.5 -50q82 0 132.5 50t50.5 133q0 81 -51 131t-132 50q-80 0 -132 -49.5t-52 -131.5z" />
    <glyph glyph-name="plusminus" unicode="&#xb1;" horiz-adv-x="1387" 
d="M321 273q-48 0 -81.5 34t-33.5 81q0 51 33.5 84t81.5 33h256v193h-256q-48 0 -81.5 34t-33.5 81q0 48 33.5 81.5t81.5 33.5h256v259q0 47 34 81t81 34q51 0 84 -33.5t33 -81.5v-259h257q47 0 81 -33.5t34 -81.5q0 -47 -34 -81t-81 -34h-257v-193h257q48 0 81.5 -33
t33.5 -84q0 -47 -34 -81t-81 -34h-745z" />
    <glyph glyph-name="uni00B2" unicode="&#xb2;" horiz-adv-x="655" 
d="M150 742q-37 0 -61.5 24.5t-24.5 61.5q0 38 22 62l301 335q26 30 26 67q0 44 -27 69.5t-70 25.5q-54 0 -85 -28t-31 -75q0 -38 -20.5 -62t-56.5 -24q-33 0 -54.5 24.5t-21.5 61.5q0 110 78 183t195 73q108 0 180 -70.5t72 -175.5q0 -40 -18.5 -80t-34.5 -59t-47 -53
l-189 -206h224q38 0 62.5 -22t24.5 -57t-24 -55t-63 -20h-357z" />
    <glyph glyph-name="uni00B3" unicode="&#xb3;" horiz-adv-x="598" 
d="M298 730q-114 0 -191 72t-77 179q0 38 21.5 62t59.5 24q34 0 51 -23.5t17 -62.5q0 -45 32.5 -73t84.5 -28q46 0 73 24.5t27 67.5q0 48 -21.5 75.5t-59.5 27.5h-36q-46 0 -69 21t-23 54q0 39 22 59t61 20h36q39 0 55 18t16 63q0 38 -20 57t-68 19q-53 0 -76.5 -19.5
t-30.5 -60.5q-2 -28 -23 -49.5t-47 -21.5q-35 0 -58 22t-23 57q0 97 72.5 160.5t181.5 63.5q105 0 177 -64t72 -162q0 -44 -21 -87t-54 -71q93 -63 93 -181q0 -107 -74 -175t-180 -68z" />
    <glyph glyph-name="acute" unicode="&#xb4;" horiz-adv-x="637" 
d="M201 1099q-47 0 -82 35t-35 82q0 45 30 78l227 228q34 34 83 34q47 0 82 -33t35 -84q0 -47 -34 -81l-227 -226q-31 -33 -79 -33z" />
    <glyph glyph-name="uni00B5" unicode="&#xb5;" horiz-adv-x="1371" 
d="M280 -431q-48 0 -81.5 33.5t-33.5 81.5v1326q0 52 33.5 83.5t81.5 31.5q50 0 82.5 -32.5t32.5 -82.5v-495q0 -141 80 -220t215 -79q139 0 214.5 62.5t75.5 168.5v563q0 52 33.5 83.5t81.5 31.5q50 0 82.5 -32.5t32.5 -82.5v-896q0 -48 -31.5 -81.5t-83.5 -33.5
q-38 0 -68 22t-42 57q-125 -92 -295 -92q-175 0 -295 92v-394q0 -48 -31.5 -81.5t-83.5 -33.5z" />
    <glyph glyph-name="paragraph" unicode="&#xb6;" horiz-adv-x="1155" 
d="M576 -1q-47 0 -81 34t-34 81v619q-165 19 -268 133.5t-103 276.5q0 174 119.5 294.5t293.5 120.5h447q48 0 81.5 -33t33.5 -84q0 -33 -20 -61.5t-54 -41.5v-1224q0 -47 -33.5 -81t-81.5 -34q-47 0 -81.5 33.5t-34.5 81.5v1212h-67v-1212q0 -48 -33 -81.5t-84 -33.5z" />
    <glyph glyph-name="periodcentered" unicode="&#xb7;" horiz-adv-x="678" 
d="M341 595q-64 0 -109 44.5t-45 109.5q0 63 45 107.5t109 44.5t107.5 -45t43.5 -107q0 -64 -44.5 -109t-106.5 -45z" />
    <glyph glyph-name="cedilla" unicode="&#xb8;" horiz-adv-x="707" 
d="M340 -428q-110 0 -187 53t-77 128q0 48 33.5 82.5t81.5 34.5q43 0 73 -25l27 -22q18 -13 25.5 -16t23.5 -3q32 0 40.5 3t8.5 13q0 14 -7.5 18t-54.5 18q-140 39 -88 164l36 89q29 80 120 80q59 0 91 -47.5t9 -104.5l-4 -10q142 -63 142 -204q0 -104 -86 -177.5
t-207 -73.5z" />
    <glyph glyph-name="uni00B9" unicode="&#xb9;" horiz-adv-x="782" 
d="M432 742q-37 0 -59 22.5t-22 59.5l2 513l-122 -41q-36 -11 -65.5 0t-42.5 42q-11 33 4 60.5t48 38.5l197 72q32 10 63 12.5t53.5 -19t22.5 -65.5v-614q-3 -81 -79 -81z" />
    <glyph glyph-name="ordmasculine" unicode="&#xba;" horiz-adv-x="874" 
d="M439 775q-167 0 -276.5 109t-109.5 275q0 167 109 276t275 109q167 0 276 -109t109 -276q0 -165 -109 -274.5t-274 -109.5zM215 1159q0 -97 62.5 -159.5t159.5 -62.5q100 0 161.5 62t61.5 160q0 100 -61 161.5t-160 61.5q-101 0 -162.5 -61.5t-61.5 -161.5z" />
    <glyph glyph-name="guillemotright" unicode="&#xbb;" horiz-adv-x="1135" 
d="M649 -1q-48 0 -81.5 34t-33.5 81q0 18 5 38l1 3l3 7l199 399l-199 399l-3 8q0 2 -1 3q-5 17 -5 37q0 48 33.5 81.5t81.5 33.5q68 0 105 -67l220 -440q14 -23 14 -55q0 -21 -15 -57l-219 -438q-37 -67 -105 -67zM153 114q0 18 5 38l1 3l3 7l199 399l-199 399l-3 8
q0 2 -1 3q-5 17 -5 37q0 48 33.5 81.5t81.5 33.5q68 0 105 -67l220 -440q14 -23 14 -55q0 -19 -14 -57l-220 -438q-37 -67 -105 -67q-48 0 -81.5 34t-33.5 81z" />
    <glyph glyph-name="questiondown" unicode="&#xbf;" horiz-adv-x="1147" 
d="M584 -325q-213 0 -351 133t-138 336q0 120 46 202q21 38 53.5 78t56 63.5t69.5 66.5q42 40 65 64q82 82 82 210q0 52 34.5 84.5t82.5 32.5q51 0 83 -33.5t32 -83.5q0 -88 -39.5 -183.5t-102.5 -159.5q-41 -44 -118 -115q-59 -53 -86.5 -105.5t-27.5 -132.5
q0 -107 70 -167t189 -60q123 0 190 69t67 188q0 48 33.5 80.5t81.5 32.5q50 0 83 -32.5t33 -80.5q0 -213 -137.5 -350t-350.5 -137zM430 1108q0 65 45 109t109 44t108 -45.5t44 -107.5q0 -63 -43.5 -107.5t-106.5 -44.5q-65 0 -110.5 43.5t-45.5 108.5z" />
    <glyph glyph-name="Agrave" unicode="&#xc0;" horiz-adv-x="1447" 
d="M160 -1q-67 0 -99 55.5t-5 109.5l557 1317q15 35 44 55t65 20q35 0 64 -20t44 -55l559 -1317q29 -56 -5.5 -110.5t-98.5 -54.5q-36 0 -65 19t-42 54l-161 385h-589l-161 -385q-13 -35 -42 -54t-65 -19zM336 2191q0 52 34.5 84.5t82.5 32.5q47 0 81 -34l226 -226
q31 -31 31 -79t-33.5 -82.5t-81.5 -34.5q-38 0 -79 28l-229 230q-32 34 -32 81zM521 676h403l-202 482z" />
    <glyph glyph-name="Aacute" unicode="&#xc1;" horiz-adv-x="1447" 
d="M160 -1q-67 0 -99 55.5t-5 109.5l557 1317q15 35 44 55t65 20q35 0 64 -20t44 -55l559 -1317q29 -56 -5.5 -110.5t-98.5 -54.5q-36 0 -65 19t-42 54l-161 385h-589l-161 -385q-13 -35 -42 -54t-65 -19zM521 676h403l-202 482zM611 1933q0 46 30 77l227 228q32 34 83 34
q47 0 82 -32.5t35 -83.5q0 -49 -35 -81l-226 -227q-32 -32 -79 -32t-82 34.5t-35 82.5z" />
    <glyph glyph-name="Acircumflex" unicode="&#xc2;" horiz-adv-x="1447" 
d="M160 -1q-67 0 -99 55.5t-5 109.5l557 1317q15 35 44 55t65 20q35 0 64 -20t44 -55l559 -1317q29 -56 -5.5 -110.5t-98.5 -54.5q-36 0 -65 19t-42 54l-161 385h-589l-161 -385q-13 -35 -42 -54t-65 -19zM400 1939q0 65 57 100l222 149q26 17 60 17q35 0 61 -17l222 -149
q57 -35 57 -100q0 -48 -33 -81.5t-84 -33.5q-32 0 -67 20l-156 105l-154 -103q-36 -22 -67 -22q-47 0 -82.5 33t-35.5 82zM521 676h403l-202 482z" />
    <glyph glyph-name="Atilde" unicode="&#xc3;" horiz-adv-x="1447" 
d="M160 -1q-67 0 -99 55.5t-5 109.5l557 1317q15 35 44 55t65 20q35 0 64 -20t44 -55l559 -1317q29 -56 -5.5 -110.5t-98.5 -54.5q-36 0 -65 19t-42 54l-161 385h-589l-161 -385q-13 -35 -42 -54t-65 -19zM412 1914q76 172 223 172q41 0 76 -13t53.5 -26.5t42.5 -36.5
q27 -22 36 -27q1 1 3 8q19 45 59 65.5t79 8.5q53 -14 73.5 -56.5t0.5 -91.5q-66 -161 -197 -161q-83 0 -174 78q-27 27 -34.5 32.5t-15.5 5.5q2 0 -25 -48q-20 -38 -58.5 -54.5t-77.5 -4.5q-46 14 -65 57.5t1 91.5zM521 676h403l-202 482z" />
    <glyph glyph-name="Adieresis" unicode="&#xc4;" horiz-adv-x="1447" 
d="M160 -1q-67 0 -99 55.5t-5 109.5l557 1317q15 35 44 55t65 20q35 0 64 -20t44 -55l559 -1317q29 -56 -5.5 -110.5t-98.5 -54.5q-36 0 -65 19t-42 54l-161 385h-589l-161 -385q-13 -35 -42 -54t-65 -19zM380 1993q0 62 46 107.5t110 45.5q65 0 109 -45t44 -108
q0 -65 -44 -110.5t-109 -45.5q-64 0 -110 45.5t-46 110.5zM521 676h403l-202 482zM748 1993q0 62 46 107.5t110 45.5q65 0 109 -45t44 -108q0 -65 -44 -110.5t-109 -45.5q-64 0 -110 45.5t-46 110.5z" />
    <glyph glyph-name="Aring" unicode="&#xc5;" horiz-adv-x="1447" 
d="M160 -1q-67 0 -99 55.5t-5 109.5l557 1317q15 35 44 55t65 20q35 0 64 -20t44 -55l559 -1317q29 -56 -5.5 -110.5t-98.5 -54.5q-36 0 -65 19t-42 54l-161 385h-589l-161 -385q-13 -35 -42 -54t-65 -19zM484 1959q0 95 68.5 162t160.5 67q95 0 162 -67t67 -162
q0 -93 -66.5 -161t-162.5 -68q-92 0 -160.5 68.5t-68.5 160.5zM521 676h403l-202 482zM676 1959q0 -22 7.5 -30t29.5 -8q24 0 32 7.5t8 30.5q0 25 -7.5 32t-32.5 7q-22 0 -29.5 -8t-7.5 -31z" />
    <glyph glyph-name="AE" unicode="&#xc6;" horiz-adv-x="1887" 
d="M160 -1q-68 0 -100 57.5t-1 111.5l769 1307q50 81 149 81h668q46 0 80.5 -33.5t34.5 -81.5q0 -47 -34 -81t-81 -34h-586v-433h435q48 0 81.5 -33.5t33.5 -81.5q0 -47 -33 -82t-82 -35h-435v-432h586q47 0 81 -34.5t34 -80.5q0 -48 -34.5 -81.5t-80.5 -33.5h-701
q-47 0 -81 34t-34 81v343h-334l-230 -390q-13 -32 -41 -50t-64 -18zM624 676h205v349z" />
    <glyph glyph-name="Ccedilla" unicode="&#xc7;" horiz-adv-x="1550" 
d="M769 -488q-110 0 -187 53t-77 129q0 47 33.5 81.5t81.5 34.5q43 0 73 -24l27 -22q17 -13 24.5 -16.5t24.5 -3.5q32 0 40.5 3t8.5 13q0 14 -8 18t-54 18q-140 39 -88 164l21 52q-247 73 -406.5 285t-159.5 481q0 161 60.5 307.5t164 254t248.5 171t306 63.5
q278 0 493 -177q36 -29 38.5 -77t-30 -85.5t-85.5 -37.5q-39 0 -84 36q-122 111 -332 111q-114 0 -216 -45t-175 -121t-115.5 -180.5t-42.5 -219.5q0 -159 72.5 -289.5t198 -204t278.5 -73.5q197 0 344 120q23 20 55 22.5t60 -10t47.5 -41t19.5 -65.5q0 -51 -32 -81
q-170 -170 -471 -175l-1 -4l-4 -10q142 -63 142 -203q0 -105 -86 -178.5t-207 -73.5z" />
    <glyph glyph-name="Egrave" unicode="&#xc8;" horiz-adv-x="1441" 
d="M314 -1q-47 0 -81 34t-34 81v1327q0 47 34 81t81 34h885q46 0 80.5 -33.5t34.5 -81.5q0 -47 -34 -81t-81 -34h-770v-433h625q47 0 81 -33.5t34 -81.5q0 -47 -33.5 -82t-81.5 -35h-625v-432h770q47 0 81 -34.5t34 -80.5q0 -48 -34.5 -81.5t-80.5 -33.5h-885zM361 2191
q0 52 34.5 84.5t82.5 32.5q47 0 81 -34l226 -226q30 -30 30 -79q0 -48 -33 -82.5t-82 -34.5q-37 0 -78 28l-229 230q-32 34 -32 81z" />
    <glyph glyph-name="Eacute" unicode="&#xc9;" horiz-adv-x="1441" 
d="M314 -1q-47 0 -81 34t-34 81v1327q0 47 34 81t81 34h885q46 0 80.5 -33.5t34.5 -81.5q0 -47 -34 -81t-81 -34h-770v-433h625q47 0 81 -33.5t34 -81.5q0 -47 -33.5 -82t-81.5 -35h-625v-432h770q47 0 81 -34.5t34 -80.5q0 -48 -34.5 -81.5t-80.5 -33.5h-885zM636 1933
q0 46 30 77l227 228q32 34 83 34q47 0 81.5 -32.5t34.5 -83.5q0 -50 -35 -81l-225 -227q-32 -32 -79 -32q-48 0 -82.5 34.5t-34.5 82.5z" />
    <glyph glyph-name="Ecircumflex" unicode="&#xca;" horiz-adv-x="1441" 
d="M314 -1q-47 0 -81 34t-34 81v1327q0 47 34 81t81 34h885q46 0 80.5 -33.5t34.5 -81.5q0 -47 -34 -81t-81 -34h-770v-433h625q47 0 81 -33.5t34 -81.5q0 -47 -33.5 -82t-81.5 -35h-625v-432h770q47 0 81 -34.5t34 -80.5q0 -48 -34.5 -81.5t-80.5 -33.5h-885zM424 1939
q0 65 58 100l222 149q26 17 60 17q36 0 61 -17l221 -149q57 -35 57 -100q0 -48 -32.5 -81.5t-83.5 -33.5q-31 0 -68 20l-155 105l-155 -103q-34 -22 -66 -22q-47 0 -83 33t-36 82z" />
    <glyph glyph-name="Edieresis" unicode="&#xcb;" horiz-adv-x="1441" 
d="M314 -1q-47 0 -81 34t-34 81v1327q0 47 34 81t81 34h885q46 0 80.5 -33.5t34.5 -81.5q0 -47 -34 -81t-81 -34h-770v-433h625q47 0 81 -33.5t34 -81.5q0 -47 -33.5 -82t-81.5 -35h-625v-432h770q47 0 81 -34.5t34 -80.5q0 -48 -34.5 -81.5t-80.5 -33.5h-885zM405 1993
q0 62 46 107.5t110 45.5q65 0 109 -45t44 -108q0 -65 -44 -110.5t-109 -45.5t-110.5 45.5t-45.5 110.5zM773 1993q0 62 46 107.5t110 45.5q65 0 109 -45t44 -108q0 -65 -44 -110.5t-109 -45.5t-110.5 45.5t-45.5 110.5z" />
    <glyph glyph-name="Igrave" unicode="&#xcc;" horiz-adv-x="679" 
d="M366 -1q-47 0 -81 34t-34 81v1327q0 47 34 81t81 34q48 0 81.5 -34t33.5 -81v-1327q0 -47 -33.5 -81t-81.5 -34zM-7 2191q0 51 34.5 84t81.5 33t81 -34l227 -226q30 -32 30 -79q0 -48 -33.5 -82.5t-81.5 -34.5q-37 0 -78 28l-229 230q-32 32 -32 81z" />
    <glyph glyph-name="Iacute" unicode="&#xcd;" horiz-adv-x="666" 
d="M314 -1q-47 0 -81 34t-34 81v1327q0 47 34 81t81 34q48 0 81.5 -34t33.5 -81v-1327q0 -47 -33.5 -81t-81.5 -34zM207 1933q0 44 30 77l227 228q32 34 83 34q47 0 82 -32.5t35 -83.5q0 -49 -35 -81l-226 -227q-32 -32 -79 -32t-82 34.5t-35 82.5z" />
    <glyph glyph-name="Icircumflex" unicode="&#xce;" horiz-adv-x="595" 
d="M295 -1q-47 0 -81 34t-34 81v1327q0 47 34 81t81 34q48 0 81.5 -34t33.5 -81v-1327q0 -47 -33.5 -81t-81.5 -34zM-42 1939q0 65 57 100l223 149q26 17 60 17q36 0 61 -17l221 -149q57 -35 57 -100q0 -48 -33 -81.5t-84 -33.5q-32 0 -67 20l-155 105l-155 -103
q-34 -22 -66 -22q-47 0 -83 33t-36 82z" />
    <glyph glyph-name="Idieresis" unicode="&#xcf;" horiz-adv-x="700" 
d="M335 -1q-48 0 -81.5 34t-33.5 81v1327q0 47 33.5 81t81.5 34q47 0 81 -34t34 -81v-1327q0 -47 -34 -81t-81 -34zM12 1993q0 62 46 107.5t110 45.5q65 0 109 -45t44 -108q0 -65 -44 -110.5t-109 -45.5q-64 0 -110 45.5t-46 110.5zM380 1993q0 62 46 107.5t110 45.5
q65 0 109 -45t44 -108q0 -65 -44 -110.5t-109 -45.5q-64 0 -110 45.5t-46 110.5z" />
    <glyph glyph-name="Eth" unicode="&#xd0;" horiz-adv-x="1540" 
d="M306 -1q-47 0 -81 34t-34 81v555h-74q-46 0 -78 31.5t-32 77.5t31.5 78t78.5 32h74v553q0 51 34 83t81 32h332q225 0 402.5 -99t277 -276.5t99.5 -402.5q0 -226 -99 -403.5t-276.5 -276.5t-403.5 -99h-332zM421 218h217q249 0 399 153.5t150 406.5t-150 406t-399 153
h-217v-449h244q47 0 78.5 -32t31.5 -78t-32 -77.5t-78 -31.5h-244v-451z" />
    <glyph glyph-name="Eth" unicode="&#xf0;" horiz-adv-x="1540" 
d="M306 -1q-47 0 -81 34t-34 81v555h-74q-46 0 -78 31.5t-32 77.5t31.5 78t78.5 32h74v553q0 51 34 83t81 32h332q225 0 402.5 -99t277 -276.5t99.5 -402.5q0 -226 -99 -403.5t-276.5 -276.5t-403.5 -99h-332zM421 218h217q249 0 399 153.5t150 406.5t-150 406t-399 153
h-217v-449h244q47 0 78.5 -32t31.5 -78t-32 -77.5t-78 -31.5h-244v-451z" />
    <glyph glyph-name="Ntilde" unicode="&#xd1;" horiz-adv-x="1659" 
d="M314 -1q-47 0 -81 34t-34 81v1327q0 47 34 81t81 34q59 0 90 -43l827 -1076v1004q0 47 34 81t81 34q46 0 80.5 -33.5t34.5 -81.5v-1327q0 -48 -34.5 -81.5t-80.5 -33.5q-52 0 -85 37l-832 1082v-1004q0 -47 -33.5 -81t-81.5 -34zM510 1914q76 172 223 172q41 0 76 -13
t52.5 -26t43.5 -37q25 -21 36 -27l2 8q19 44 59.5 65t78.5 9q53 -14 74 -56.5t1 -91.5q-66 -161 -197 -161q-81 0 -175 78q-28 28 -34.5 33t-14.5 5q1 0 -25 -48q-21 -38 -59.5 -54.5t-76.5 -4.5q-46 14 -65 57.5t1 91.5z" />
    <glyph glyph-name="Ograve" unicode="&#xd2;" horiz-adv-x="1840" 
d="M921 -19q-225 0 -408 103.5t-286.5 286t-103.5 407.5q0 226 103.5 408t286 285t408.5 103q225 0 407.5 -103t285.5 -285t103 -408q0 -225 -103 -407.5t-285.5 -286t-407.5 -103.5zM353 778q0 -252 157.5 -409.5t410.5 -157.5q251 0 408.5 157.5t157.5 409.5
q0 250 -158 408t-408 158q-253 0 -410.5 -157.5t-157.5 -408.5zM588 2191q0 52 34.5 84.5t82.5 32.5q45 0 81 -34l226 -226q30 -32 30 -79q0 -48 -33 -82.5t-82 -34.5q-37 0 -78 28l-229 230q-32 34 -32 81z" />
    <glyph glyph-name="Oacute" unicode="&#xd3;" horiz-adv-x="1840" 
d="M921 -19q-225 0 -408 103.5t-286.5 286t-103.5 407.5q0 226 103.5 408t286 285t408.5 103q225 0 407.5 -103t285.5 -285t103 -408q0 -225 -103 -407.5t-285.5 -286t-407.5 -103.5zM353 778q0 -252 157.5 -409.5t410.5 -157.5q251 0 408.5 157.5t157.5 409.5
q0 250 -158 408t-408 158q-253 0 -410.5 -157.5t-157.5 -408.5zM819 1933q0 45 29 77l227 228q34 34 83 34q47 0 82 -32.5t35 -83.5q0 -50 -35 -81l-225 -227q-34 -32 -79 -32q-48 0 -82.5 34.5t-34.5 82.5z" />
    <glyph glyph-name="Ocircumflex" unicode="&#xd4;" horiz-adv-x="1840" 
d="M921 -19q-225 0 -408 103.5t-286.5 286t-103.5 407.5q0 226 103.5 408t286 285t408.5 103q225 0 407.5 -103t285.5 -285t103 -408q0 -225 -103 -407.5t-285.5 -286t-407.5 -103.5zM353 778q0 -252 157.5 -409.5t410.5 -157.5q251 0 408.5 157.5t157.5 409.5
q0 250 -158 408t-408 158q-253 0 -410.5 -157.5t-157.5 -408.5zM572 1928q0 66 57 100l223 149q25 17 60 17q36 0 60 -17l222 -149q57 -34 57 -100q0 -48 -33 -81.5t-84 -33.5q-32 0 -67 20l-155 105l-155 -104q-35 -21 -66 -21q-47 0 -83 33t-36 82z" />
    <glyph glyph-name="Otilde" unicode="&#xd5;" horiz-adv-x="1840" 
d="M921 -19q-225 0 -408 103.5t-286.5 286t-103.5 407.5q0 226 103.5 408t286 285t408.5 103q225 0 407.5 -103t285.5 -285t103 -408q0 -225 -103 -407.5t-285.5 -286t-407.5 -103.5zM353 778q0 -252 157.5 -409.5t410.5 -157.5q251 0 408.5 157.5t157.5 409.5
q0 250 -158 408t-408 158q-253 0 -410.5 -157.5t-157.5 -408.5zM611 1914q75 172 222 172q41 0 76.5 -13t53 -26t42.5 -37q27 -22 36 -27q1 1 3 8q19 45 59 65.5t79 8.5q52 -14 73 -56.5t2 -91.5q-66 -161 -197 -161q-84 0 -175 78q-27 27 -34.5 32.5t-15.5 5.5q2 0 -25 -48
q-20 -38 -58.5 -54.5t-77.5 -4.5q-46 15 -65 58t2 91z" />
    <glyph glyph-name="Odieresis" unicode="&#xd6;" horiz-adv-x="1840" 
d="M921 -19q-225 0 -408 103.5t-286.5 286t-103.5 407.5q0 226 103.5 408t286 285t408.5 103q225 0 407.5 -103t285.5 -285t103 -408q0 -225 -103 -407.5t-285.5 -286t-407.5 -103.5zM353 778q0 -252 157.5 -409.5t410.5 -157.5q251 0 408.5 157.5t157.5 409.5
q0 250 -158 408t-408 158q-253 0 -410.5 -157.5t-157.5 -408.5zM591 1993q0 63 45.5 108t109.5 45q65 0 109.5 -45t44.5 -108q0 -65 -44.5 -110.5t-109.5 -45.5q-64 0 -109.5 45.5t-45.5 110.5zM959 1993q0 63 45.5 108t109.5 45q65 0 109.5 -45t44.5 -108
q0 -65 -44.5 -110.5t-109.5 -45.5q-64 0 -109.5 45.5t-45.5 110.5z" />
    <glyph glyph-name="multiply" unicode="&#xd7;" horiz-adv-x="1233" 
d="M318 297q-48 0 -81.5 34t-33.5 81q0 53 30 83l217 215l-217 217q-34 35 -30 81q2 49 33 83t82 34q47 0 83 -34l215 -216l215 216q34 34 83 34q47 0 81 -33.5t34 -81.5q0 -50 -33 -83l-215 -217l219 -218q29 -39 29 -80q0 -47 -34 -81t-81 -34q-48 0 -79 30l-219 219
l-217 -218q-31 -31 -81 -31z" />
    <glyph glyph-name="Oslash" unicode="&#xd8;" horiz-adv-x="1843" 
d="M924 -19q-283 0 -494 159l-109 -109q-32 -32 -81 -32q-39 0 -68 21.5t-41 51.5t-6.5 64.5t30.5 58.5l114 114q-142 201 -142 469q0 226 103.5 408t285.5 285t408 103q275 0 485 -154l104 104q34 32 81 32q36 0 65.5 -20t43.5 -48.5t9 -63.5t-33 -62l-107 -106
q148 -208 148 -478q0 -226 -103 -408t-285 -285.5t-408 -103.5zM357 778q0 -177 85 -312l792 793q-138 85 -310 85q-252 0 -409.5 -157.5t-157.5 -408.5zM605 302q140 -91 319 -91q251 0 408.5 157.5t157.5 409.5q0 178 -91 318z" />
    <glyph glyph-name="Ugrave" unicode="&#xd9;" horiz-adv-x="1624" 
d="M811 -30q-177 0 -316.5 70.5t-217.5 198t-78 289.5v913q0 52 33.5 83.5t81.5 31.5q50 0 82.5 -32.5t32.5 -82.5v-913q0 -152 102.5 -240t279.5 -88q179 0 281.5 88t102.5 240v913q0 52 33.5 83.5t81.5 31.5q50 0 82.5 -32.5t32.5 -82.5v-913q0 -245 -173 -401.5
t-441 -156.5zM493 2191q0 51 34.5 84t81.5 33t81 -34l227 -226q30 -32 30 -79q0 -48 -33.5 -82.5t-81.5 -34.5q-37 0 -78 28l-229 230q-32 32 -32 81z" />
    <glyph glyph-name="Uacute" unicode="&#xda;" horiz-adv-x="1624" 
d="M811 -30q-177 0 -316.5 70.5t-217.5 198t-78 289.5v913q0 52 33.5 83.5t81.5 31.5q50 0 82.5 -32.5t32.5 -82.5v-913q0 -152 102.5 -240t279.5 -88q179 0 281.5 88t102.5 240v913q0 52 33.5 83.5t81.5 31.5q50 0 82.5 -32.5t32.5 -82.5v-913q0 -245 -173 -401.5
t-441 -156.5zM661 1933q0 45 29 77l228 228q32 34 82 34q47 0 82 -32.5t35 -83.5q0 -50 -35 -81l-225 -227q-32 -32 -79 -32q-48 0 -82.5 34.5t-34.5 82.5z" />
    <glyph glyph-name="Ucircumflex" unicode="&#xdb;" horiz-adv-x="1624" 
d="M811 -30q-177 0 -316.5 70.5t-217.5 198t-78 289.5v913q0 52 33.5 83.5t81.5 31.5q50 0 82.5 -32.5t32.5 -82.5v-913q0 -152 102.5 -240t279.5 -88q179 0 281.5 88t102.5 240v913q0 52 33.5 83.5t81.5 31.5q50 0 82.5 -32.5t32.5 -82.5v-913q0 -245 -173 -401.5
t-441 -156.5zM449 1939q0 65 57 100l223 149q26 17 60 17q35 0 61 -17l221 -149q57 -35 57 -100q0 -48 -33 -81.5t-84 -33.5q-32 0 -67 20l-155 105l-155 -103q-34 -22 -66 -22q-47 0 -83 33t-36 82z" />
    <glyph glyph-name="Udieresis" unicode="&#xdc;" horiz-adv-x="1624" 
d="M811 -30q-177 0 -316.5 70.5t-217.5 198t-78 289.5v913q0 52 33.5 83.5t81.5 31.5q50 0 82.5 -32.5t32.5 -82.5v-913q0 -152 102.5 -240t279.5 -88q179 0 281.5 88t102.5 240v913q0 52 33.5 83.5t81.5 31.5q50 0 82.5 -32.5t32.5 -82.5v-913q0 -245 -173 -401.5
t-441 -156.5zM430 1993q0 62 45.5 107.5t109.5 45.5q65 0 109.5 -45t44.5 -108q0 -65 -44.5 -110.5t-109.5 -45.5q-64 0 -109.5 46t-45.5 110zM798 1993q0 62 45.5 107.5t109.5 45.5q65 0 109.5 -45t44.5 -108q0 -65 -44.5 -110.5t-109.5 -45.5q-64 0 -109.5 46t-45.5 110z
" />
    <glyph glyph-name="Yacute" unicode="&#xdd;" horiz-adv-x="1363" 
d="M681 -1q-47 0 -81 34t-34 81v465l-499 799q-36 64 -5 121t98 57q56 0 92 -46l429 -699l418 681q39 64 105 64q68 0 98 -59.5t-7 -119.5l-499 -798v-465q0 -47 -33.5 -81t-81.5 -34zM607 1933q0 45 29 77l227 228q32 34 83 34q47 0 82 -32.5t35 -83.5q0 -50 -35 -81
l-225 -227q-34 -32 -80 -32q-47 0 -81.5 34.5t-34.5 82.5z" />
    <glyph glyph-name="germandbls" unicode="&#xdf;" horiz-adv-x="1278" 
d="M743 -12q-95 0 -185 35.5t-129 93.5v-5q0 -46 -33 -79.5t-84 -33.5q-46 0 -79.5 33.5t-33.5 79.5v1010q0 177 121.5 295t313.5 118q176 0 290 -104.5t114 -271.5q0 -46 -10.5 -86t-32 -75t-35.5 -53t-41 -48q-33 -38 -46 -58t-13 -44q0 -20 18 -41t64 -61
q40 -36 56.5 -51.5t52.5 -55.5t52.5 -70t31.5 -76t15 -94q0 -151 -117 -254.5t-290 -103.5zM429 261q30 40 80 40q45 0 102 -40q22 -15 34.5 -22.5t38.5 -14t59 -6.5q98 0 137.5 28t39.5 100q0 71 -82 145q-5 5 -34 29.5t-37.5 32.5t-33 32t-34 36.5t-26.5 36.5t-24 42.5
t-13 43t-6 49.5q0 18 2.5 35.5t8 33t10.5 28.5t14 27t14 22.5t16 20.5t14.5 16.5t13.5 14.5l10 10q1 1 12.5 13.5t15 17t13.5 16.5t14 21t9.5 21.5t8 26t2.5 27.5q0 88 -41.5 124.5t-135.5 36.5q-95 0 -148.5 -53t-53.5 -148v-843z" />
    <glyph glyph-name="agrave" unicode="&#xe0;" horiz-adv-x="1426" 
d="M684 -12q-247 0 -411 163.5t-164 409.5q0 163 74.5 294.5t206 206t294.5 74.5q198 0 343 -106v-7q0 48 33 81.5t84 33.5q49 0 81 -33.5t32 -81.5v-909q0 -47 -32 -81t-81 -34q-51 0 -84 33.5t-33 81.5v-13q-143 -113 -343 -113zM314 1776q0 51 34.5 83.5t81.5 32.5
q49 0 81 -34l227 -226q30 -32 30 -79q0 -48 -33.5 -82.5t-81.5 -34.5q-38 0 -78 29l-229 230q-32 30 -32 81zM339 561q0 -158 95 -254t250 -96q156 0 249.5 96t93.5 254q0 161 -93.5 257t-249.5 96q-155 0 -250 -96.5t-95 -256.5z" />
    <glyph glyph-name="aacute" unicode="&#xe1;" horiz-adv-x="1426" 
d="M684 -12q-247 0 -411 163.5t-164 409.5q0 163 74.5 294.5t206 206t294.5 74.5q198 0 343 -106v-7q0 48 33 81.5t84 33.5q49 0 81 -33.5t32 -81.5v-909q0 -47 -32 -81t-81 -34q-51 0 -84 33.5t-33 81.5v-13q-143 -113 -343 -113zM339 561q0 -158 95 -254t250 -96
q156 0 249.5 96t93.5 254q0 161 -93.5 257t-249.5 96q-155 0 -250 -96.5t-95 -256.5zM567 1571q0 46 29 78l227 228q34 34 83 34q48 0 82.5 -32.5t34.5 -84.5q0 -47 -35 -81l-226 -226q-30 -32 -79 -32q-47 0 -81.5 34.5t-34.5 81.5z" />
    <glyph glyph-name="acircumflex" unicode="&#xe2;" horiz-adv-x="1426" 
d="M684 -12q-247 0 -411 163.5t-164 409.5q0 163 74.5 294.5t206 206t294.5 74.5q198 0 343 -106v-7q0 48 33 81.5t84 33.5q49 0 81 -33.5t32 -81.5v-909q0 -47 -32 -81t-81 -34q-51 0 -84 33.5t-33 81.5v-13q-143 -113 -343 -113zM339 561q0 -158 95 -254t250 -96
q156 0 249.5 96t93.5 254q0 161 -93.5 257t-249.5 96q-155 0 -250 -96.5t-95 -256.5zM342 1551q0 65 57 99l223 150q25 17 60 17q36 0 60 -17l222 -150q57 -34 57 -99q0 -48 -33 -81.5t-84 -33.5q-34 0 -67 19l-155 105l-155 -103q-32 -21 -66 -21q-47 0 -83 33t-36 82z" />
    <glyph glyph-name="atilde" unicode="&#xe3;" horiz-adv-x="1426" 
d="M684 -12q-247 0 -411 163.5t-164 409.5q0 163 74.5 294.5t206 206t294.5 74.5q198 0 343 -106v-7q0 48 33 81.5t84 33.5q49 0 81 -33.5t32 -81.5v-909q0 -47 -32 -81t-81 -34q-51 0 -84 33.5t-33 81.5v-13q-143 -113 -343 -113zM288 1622q56 69 129 108t150 39
q103 0 200 -71q35 -24 47.5 -30t30.5 -6q25 0 35.5 4t21.5 17q30 33 70 43t74 -9q50 -25 62 -72.5t-20 -90.5q-92 -118 -243 -118q-43 0 -88 15t-65.5 26.5t-53.5 33.5q-33 23 -42.5 27.5t-28.5 4.5q-46 0 -94 -53q-27 -35 -72 -43t-80 14q-43 25 -53 72.5t20 88.5zM339 561
q0 -158 95 -254t250 -96q156 0 249.5 96t93.5 254q0 161 -93.5 257t-249.5 96q-155 0 -250 -96.5t-95 -256.5z" />
    <glyph glyph-name="adieresis" unicode="&#xe4;" horiz-adv-x="1426" 
d="M684 -12q-247 0 -411 163.5t-164 409.5q0 163 74.5 294.5t206 206t294.5 74.5q198 0 343 -106v-7q0 48 33 81.5t84 33.5q49 0 81 -33.5t32 -81.5v-909q0 -47 -32 -81t-81 -34q-51 0 -84 33.5t-33 81.5v-13q-143 -113 -343 -113zM339 561q0 -158 95 -254t250 -96
q156 0 249.5 96t93.5 254q0 161 -93.5 257t-249.5 96q-155 0 -250 -96.5t-95 -256.5zM358 1592q0 62 45.5 107.5t109.5 45.5q65 0 109.5 -45t44.5 -108q0 -65 -44.5 -110.5t-109.5 -45.5q-64 0 -109.5 46t-45.5 110zM726 1592q0 62 45.5 107.5t109.5 45.5q65 0 109.5 -45
t44.5 -108q0 -65 -44.5 -110.5t-109.5 -45.5q-64 0 -109.5 46t-45.5 110z" />
    <glyph glyph-name="aring" unicode="&#xe5;" horiz-adv-x="1426" 
d="M684 -12q-247 0 -411 163.5t-164 409.5q0 163 74.5 294.5t206 206t294.5 74.5q198 0 343 -106v-7q0 48 33 81.5t84 33.5q49 0 81 -33.5t32 -81.5v-909q0 -47 -32 -81t-81 -34q-51 0 -84 33.5t-33 81.5v-13q-143 -113 -343 -113zM339 561q0 -158 95 -254t250 -96
q156 0 249.5 96t93.5 254q0 161 -93.5 257t-249.5 96q-155 0 -250 -96.5t-95 -256.5zM432 1646q0 96 68.5 162.5t160.5 66.5q95 0 162 -67.5t67 -161.5q0 -93 -66.5 -161t-162.5 -68q-91 0 -160 68.5t-69 160.5zM624 1646q0 -22 7.5 -30t29.5 -8q24 0 32 7.5t8 30.5
q0 25 -7.5 32t-32.5 7q-22 0 -29.5 -8t-7.5 -31z" />
    <glyph glyph-name="ae" unicode="&#xe6;" horiz-adv-x="2182" 
d="M684 -12q-247 0 -411 163.5t-164 409.5q0 163 74.5 294.5t206 206t294.5 74.5q168 0 301 -78q27 -16 42 -28v-7q0 48 33 81.5t84 33.5q49 0 81 -33.5t32 -81.5v13q131 98 303 98q231 0 377.5 -155.5t146.5 -398.5q0 -49 -33 -80.5t-81 -31.5h-702q25 -123 108 -189
t212 -66q137 0 218 73q31 31 75 32.5t76 -25.5q41 -34 42.5 -81.5t-36.5 -82.5q-67 -61 -172.5 -100t-202.5 -39q-190 0 -331 108v16q0 -47 -32 -81t-81 -34q-51 0 -84 33.5t-33 81.5v-13q-143 -113 -343 -113zM339 561q0 -158 95 -254t250 -96q156 0 249.5 96t93.5 254
q0 161 -93.5 257t-249.5 96q-155 0 -250 -96.5t-95 -256.5zM1272 684h576q-25 110 -98.5 169t-189.5 59q-110 0 -184.5 -59.5t-103.5 -168.5z" />
    <glyph glyph-name="ccedilla" unicode="&#xe7;" horiz-adv-x="1195" 
d="M568 -478q-110 0 -187 53t-77 128q0 47 33.5 82t81.5 35q43 0 73 -25l28 -22q13 -10 18 -13t11.5 -5t18.5 -2q32 0 40.5 3t8.5 13q0 13 -7.5 18t-54.5 18q-139 42 -88 165l18 45q-173 55 -276.5 202.5t-103.5 343.5q0 163 67.5 294t189 205t275.5 74q273 0 431 -204
q32 -38 24.5 -85t-49.5 -74q-36 -26 -79 -19.5t-73 41.5q-53 63 -113 91t-141 28q-141 0 -221.5 -92.5t-80.5 -258.5q0 -160 88.5 -255t241.5 -95q138 0 219 74q35 33 79.5 33.5t73.5 -30.5q38 -37 37.5 -83.5t-35.5 -77.5q-130 -119 -314 -136q0 -1 -0.5 -2.5t-0.5 -2.5
l-5 -10q143 -63 143 -203q0 -105 -86.5 -178t-207.5 -73z" />
    <glyph glyph-name="egrave" unicode="&#xe8;" horiz-adv-x="1259" 
d="M665 -10q-246 0 -403 160t-157 411q0 250 149 411.5t383 161.5q231 0 377.5 -155.5t146.5 -398.5q0 -49 -33 -80.5t-80 -31.5h-703q24 -121 107.5 -188t212.5 -67q63 0 122.5 20t95.5 53q30 31 74.5 32.5t76.5 -25.5q41 -34 42.5 -81.5t-36.5 -82.5q-67 -61 -172 -100
t-203 -39zM286 1797q0 52 34.5 84.5t82.5 32.5q45 0 81 -34l226 -227q30 -32 30 -79t-33 -82t-82 -35q-38 0 -78 29l-229 230q-32 32 -32 81zM350 684h575q-25 110 -98.5 169t-189.5 59q-110 0 -184 -59t-103 -169z" />
    <glyph glyph-name="eacute" unicode="&#xe9;" horiz-adv-x="1259" 
d="M665 -10q-246 0 -403 160t-157 411q0 250 149 411.5t383 161.5q231 0 377.5 -155.5t146.5 -398.5q0 -49 -33 -80.5t-80 -31.5h-703q24 -121 107.5 -188t212.5 -67q63 0 122.5 20t95.5 53q30 31 74.5 32.5t76.5 -25.5q41 -34 42.5 -81.5t-36.5 -82.5q-67 -61 -172 -100
t-203 -39zM350 684h575q-25 110 -98.5 169t-189.5 59q-110 0 -184 -59t-103 -169zM561 1553q0 45 29 77l228 228q32 34 82 34q47 0 82 -32.5t35 -83.5q0 -50 -35 -81l-225 -227q-32 -32 -79 -32q-48 0 -82.5 34.5t-34.5 82.5z" />
    <glyph glyph-name="ecircumflex" unicode="&#xea;" horiz-adv-x="1259" 
d="M665 -10q-246 0 -403 160t-157 411q0 250 149 411.5t383 161.5q231 0 377.5 -155.5t146.5 -398.5q0 -49 -33 -80.5t-80 -31.5h-703q24 -121 107.5 -188t212.5 -67q63 0 122.5 20t95.5 53q30 31 74.5 32.5t76.5 -25.5q41 -34 42.5 -81.5t-36.5 -82.5q-67 -61 -172 -100
t-203 -39zM270 1551q0 64 57 99l223 150q25 17 60 17q36 0 60 -17l222 -150q57 -34 57 -99q0 -48 -33 -81.5t-84 -33.5q-34 0 -67 19l-155 105l-155 -103q-32 -21 -66 -21q-47 0 -83 33t-36 82zM350 684h575q-25 110 -98.5 169t-189.5 59q-110 0 -184 -59t-103 -169z" />
    <glyph glyph-name="edieresis" unicode="&#xeb;" horiz-adv-x="1259" 
d="M665 -10q-246 0 -403 160t-157 411q0 250 149 411.5t383 161.5q231 0 377.5 -155.5t146.5 -398.5q0 -49 -33 -80.5t-80 -31.5h-703q24 -121 107.5 -188t212.5 -67q63 0 122.5 20t95.5 53q30 31 74.5 32.5t76.5 -25.5q41 -34 42.5 -81.5t-36.5 -82.5q-67 -61 -172 -100
t-203 -39zM290 1592q0 63 45.5 108t109.5 45q65 0 109.5 -45t44.5 -108q0 -65 -44.5 -110.5t-109.5 -45.5q-64 0 -109.5 45.5t-45.5 110.5zM350 684h575q-25 110 -98.5 169t-189.5 59q-110 0 -184 -59t-103 -169zM658 1592q0 63 45.5 108t109.5 45q65 0 109.5 -45t44.5 -108
q0 -65 -44.5 -110.5t-109.5 -45.5q-64 0 -109.5 45.5t-45.5 110.5z" />
    <glyph glyph-name="igrave" unicode="&#xec;" horiz-adv-x="618" 
d="M334 -1q-48 0 -81.5 34t-33.5 81v896q0 52 33.5 83.5t81.5 31.5q50 0 82.5 -32.5t32.5 -82.5v-896q0 -48 -31.5 -81.5t-83.5 -33.5zM-39 1750q0 52 34.5 84.5t82.5 32.5q47 0 81 -34l226 -227q31 -31 31 -79q0 -47 -33.5 -82t-81.5 -35q-39 0 -79 29l-229 230
q-32 32 -32 81z" />
    <glyph glyph-name="iacute" unicode="&#xed;" horiz-adv-x="595" 
d="M300 -1q-47 0 -81 34t-34 81v896q0 52 33.5 83.5t81.5 31.5q50 0 82.5 -32.5t32.5 -82.5v-896q0 -48 -31.5 -81.5t-83.5 -33.5zM168 1530q0 45 29 77l227 228q32 34 83 34q47 0 82 -32.5t35 -83.5q0 -50 -35 -81l-225 -227q-34 -32 -80 -32q-47 0 -81.5 34.5t-34.5 82.5z
" />
    <glyph glyph-name="icircumflex" unicode="&#xee;" horiz-adv-x="475" 
d="M237 -1q-48 0 -81.5 34t-33.5 81v896q0 52 33.5 83.5t81.5 31.5q50 0 82.5 -32.5t32.5 -82.5v-896q0 -48 -31.5 -81.5t-83.5 -33.5zM-75 1551q0 58 50 98l202 151q29 17 60 17q39 0 62 -21l197 -147q53 -35 53 -98q0 -47 -32.5 -81t-79.5 -34q-37 0 -67 23l-133 99
l-134 -99q-27 -23 -65 -23q-46 0 -79.5 34t-33.5 81z" />
    <glyph glyph-name="idieresis" unicode="&#xef;" horiz-adv-x="599" 
d="M301 -1q-48 0 -81.5 34t-33.5 81v896q0 52 33.5 83.5t81.5 31.5q50 0 82.5 -32.5t32.5 -82.5v-896q0 -48 -31.5 -81.5t-83.5 -33.5zM-20 1590q0 62 45.5 107.5t109.5 45.5q65 0 109.5 -45t44.5 -108q0 -65 -44.5 -110.5t-109.5 -45.5q-64 0 -109.5 46t-45.5 110z
M311 1590q0 62 45.5 107.5t109.5 45.5q65 0 109.5 -45t44.5 -108q0 -65 -44.5 -110.5t-109.5 -45.5q-64 0 -109.5 46t-45.5 110z" />
    <glyph glyph-name="ntilde" unicode="&#xf1;" 
d="M284 -1q-47 0 -81 34t-34 81v896q0 51 34 83t81 32q40 0 69.5 -20.5t40.5 -55.5q130 89 295 89q144 0 267 -60q122 -64 190.5 -184t68.5 -285v-495q0 -47 -34 -81t-81 -34q-48 0 -81.5 34t-33.5 81v495q0 299 -296 299q-135 0 -212.5 -64t-77.5 -167v-563
q0 -48 -31.5 -81.5t-83.5 -33.5zM213 1622q56 69 129 108t150 39q103 0 200 -71q27 -18 35 -23t19 -9t24 -4q25 0 35.5 4t21.5 17q30 33 70 43t74 -9q50 -25 62 -72.5t-20 -90.5q-92 -118 -243 -118q-43 0 -88 15t-65.5 26.5t-53.5 33.5q-33 23 -42.5 27.5t-28.5 4.5
q-46 0 -94 -53q-27 -35 -72 -43t-80 14q-43 25 -53 72.5t20 88.5z" />
    <glyph glyph-name="ograve" unicode="&#xf2;" horiz-adv-x="1351" 
d="M680 -12q-248 0 -411.5 163.5t-163.5 409.5q0 163 74 294.5t206 206t295 74.5t294.5 -74.5t205 -206t73.5 -294.5q0 -162 -74.5 -293t-205.5 -205.5t-293 -74.5zM309 1776q0 51 35 83.5t82 32.5t81 -34l226 -226q30 -32 30 -79q0 -48 -33 -82.5t-82 -34.5q-38 0 -78 29
l-229 230q-32 32 -32 81zM335 561q0 -158 95 -254t250 -96q156 0 249.5 96t93.5 256q0 159 -93.5 255t-249.5 96q-155 0 -250 -96.5t-95 -256.5z" />
    <glyph glyph-name="oacute" unicode="&#xf3;" horiz-adv-x="1351" 
d="M680 -12q-248 0 -411.5 163.5t-163.5 409.5q0 163 74 294.5t206 206t295 74.5t294.5 -74.5t205 -206t73.5 -294.5q0 -162 -74.5 -293t-205.5 -205.5t-293 -74.5zM335 561q0 -158 95 -254t250 -96q156 0 249.5 96t93.5 256q0 159 -93.5 255t-249.5 96q-155 0 -250 -96.5
t-95 -256.5zM562 1538q0 46 29 78l228 228q34 34 82 34t82.5 -32.5t34.5 -84.5q0 -49 -35 -81l-225 -226q-33 -33 -79 -33q-48 0 -82.5 35t-34.5 82z" />
    <glyph glyph-name="ocircumflex" unicode="&#xf4;" horiz-adv-x="1351" 
d="M680 -12q-248 0 -411.5 163.5t-163.5 409.5q0 163 74 294.5t206 206t295 74.5t294.5 -74.5t205 -206t73.5 -294.5q0 -162 -74.5 -293t-205.5 -205.5t-293 -74.5zM326 1551q0 64 57 99l223 150q26 17 60 17q36 0 61 -17l221 -150q57 -34 57 -99q0 -48 -33 -81.5t-84 -33.5
q-34 0 -67 19l-155 105l-155 -103q-32 -21 -66 -21q-47 0 -83 33t-36 82zM335 561q0 -158 95 -254t250 -96q156 0 249.5 96t93.5 256q0 159 -93.5 255t-249.5 96q-155 0 -250 -96.5t-95 -256.5z" />
    <glyph glyph-name="otilde" unicode="&#xf5;" horiz-adv-x="1351" 
d="M680 -12q-248 0 -411.5 163.5t-163.5 409.5q0 163 74 294.5t206 206t295 74.5t294.5 -74.5t205 -206t73.5 -294.5q0 -162 -74.5 -293t-205.5 -205.5t-293 -74.5zM278 1609q57 69 130 108t150 39q101 0 200 -71q34 -23 46.5 -29t31.5 -6q25 0 35.5 3.5t21.5 16.5
q30 33 69.5 42.5t74.5 -8.5q50 -25 62 -72.5t-20 -90.5q-92 -118 -243 -118q-94 0 -207 75q-33 23 -42.5 27.5t-28.5 4.5q-47 0 -95 -52q-26 -36 -71 -44t-80 14q-43 25 -53 72.5t19 88.5zM335 561q0 -158 95 -254t250 -96q156 0 249.5 96t93.5 256q0 159 -93.5 255
t-249.5 96q-155 0 -250 -96.5t-95 -256.5z" />
    <glyph glyph-name="odieresis" unicode="&#xf6;" horiz-adv-x="1351" 
d="M680 -12q-248 0 -411.5 163.5t-163.5 409.5q0 163 74 294.5t206 206t295 74.5t294.5 -74.5t205 -206t73.5 -294.5q0 -162 -74.5 -293t-205.5 -205.5t-293 -74.5zM335 561q0 -158 95 -254t250 -96q156 0 249.5 96t93.5 256q0 159 -93.5 255t-249.5 96q-155 0 -250 -96.5
t-95 -256.5zM353 1627q0 62 45.5 107.5t109.5 45.5q65 0 109.5 -45t44.5 -108q0 -65 -44.5 -110.5t-109.5 -45.5q-64 0 -109.5 46t-45.5 110zM721 1627q0 62 45.5 107.5t109.5 45.5q65 0 109.5 -45t44.5 -108q0 -65 -44.5 -110.5t-109.5 -45.5q-64 0 -109.5 46t-45.5 110z
" />
    <glyph glyph-name="divide" unicode="&#xf7;" horiz-adv-x="1241" 
d="M322 595q-47 0 -81 34t-34 81q0 51 33.5 84t81.5 33h597q48 0 81.5 -33t33.5 -84q0 -47 -34 -81t-81 -34h-597zM485 432q0 57 40 95.5t96 38.5t94.5 -39t38.5 -95q0 -55 -38.5 -95t-94.5 -40t-96 39.5t-40 95.5zM485 990q0 56 40 95.5t96 39.5t94.5 -39.5t38.5 -95.5
t-38.5 -94.5t-94.5 -38.5t-96 38.5t-40 94.5z" />
    <glyph glyph-name="oslash" unicode="&#xf8;" horiz-adv-x="1379" 
d="M222 -32q-37 0 -66 20.5t-42 50t-7 65t33 62.5l81 81q-88 137 -88 314q0 163 74.5 294.5t206 206t294.5 74.5q182 0 327 -94l44 45q31 38 87 38q38 0 67 -21.5t40.5 -52t5.5 -65t-31 -59.5l-52 -51q85 -138 85 -315q0 -162 -74 -293t-205.5 -205.5t-293.5 -74.5
q-182 0 -325 92l-78 -78q-34 -34 -83 -34zM363 561q0 -86 34 -159l476 473q-72 39 -165 39q-155 0 -250 -96.5t-95 -256.5zM560 240q67 -29 148 -29q156 0 249.5 96t93.5 256q0 79 -25 142z" />
    <glyph glyph-name="ugrave" unicode="&#xf9;" 
d="M695 -14q-234 0 -380 143.5t-146 385.5v495q0 48 34 81.5t81 33.5q48 0 81.5 -33.5t33.5 -81.5v-495q0 -299 296 -299q132 0 211 63t79 168v563q0 52 33.5 83.5t81.5 31.5q50 0 82.5 -32.5t32.5 -82.5v-896q0 -47 -32 -81t-83 -34q-37 0 -66.5 21t-42.5 55
q-130 -89 -296 -89zM425 1776q0 51 35 83.5t82 32.5q49 0 81 -34l226 -226q31 -31 31 -79t-33.5 -82.5t-81.5 -34.5q-39 0 -78 29l-230 230q-32 32 -32 81z" />
    <glyph glyph-name="uacute" unicode="&#xfa;" 
d="M695 -14q-234 0 -380 143.5t-146 385.5v495q0 48 34 81.5t81 33.5q48 0 81.5 -33.5t33.5 -81.5v-495q0 -299 296 -299q132 0 211 63t79 168v563q0 52 33.5 83.5t81.5 31.5q50 0 82.5 -32.5t32.5 -82.5v-896q0 -47 -32 -81t-83 -34q-37 0 -66.5 21t-42.5 55
q-130 -89 -296 -89zM550 1547q0 45 30 78l227 228q34 34 83 34q48 0 82.5 -32.5t34.5 -84.5q0 -47 -35 -81l-226 -226q-30 -32 -79 -32q-47 0 -82 34.5t-35 81.5z" />
    <glyph glyph-name="ucircumflex" unicode="&#xfb;" 
d="M695 -14q-234 0 -380 143.5t-146 385.5v495q0 48 34 81.5t81 33.5q48 0 81.5 -33.5t33.5 -81.5v-495q0 -299 296 -299q132 0 211 63t79 168v563q0 52 33.5 83.5t81.5 31.5q50 0 82.5 -32.5t32.5 -82.5v-896q0 -47 -32 -81t-83 -34q-37 0 -66.5 21t-42.5 55
q-130 -89 -296 -89zM334 1551q0 65 57 99l223 150q25 17 60 17q36 0 60 -17l222 -150q57 -34 57 -99q0 -48 -33 -81.5t-84 -33.5q-34 0 -67 19l-155 105l-155 -103q-32 -21 -66 -21q-47 0 -83 33t-36 82z" />
    <glyph glyph-name="udieresis" unicode="&#xfc;" 
d="M695 -14q-234 0 -380 143.5t-146 385.5v495q0 48 34 81.5t81 33.5q48 0 81.5 -33.5t33.5 -81.5v-495q0 -299 296 -299q132 0 211 63t79 168v563q0 52 33.5 83.5t81.5 31.5q50 0 82.5 -32.5t32.5 -82.5v-896q0 -47 -32 -81t-83 -34q-37 0 -66.5 21t-42.5 55
q-130 -89 -296 -89zM340 1592q0 62 45.5 107.5t109.5 45.5q65 0 109.5 -45t44.5 -108q0 -65 -44.5 -110.5t-109.5 -45.5q-64 0 -109.5 46t-45.5 110zM708 1592q0 62 45.5 107.5t109.5 45.5q65 0 109.5 -45t44.5 -108q0 -65 -44.5 -110.5t-109.5 -45.5q-64 0 -109.5 46
t-45.5 110z" />
    <glyph glyph-name="yacute" unicode="&#xfd;" horiz-adv-x="1227" 
d="M424 -437q-21 0 -48 9q-48 19 -64.5 61.5t4.5 88.5l171 371l-397 871q-22 44 -8 87.5t60 64.5q44 22 87.5 8t64.5 -60l319 -700l321 698q21 44 60 60t85 -2q48 -19 64.5 -61.5t-4.5 -88.5l-619 -1340q-31 -67 -96 -67zM472 1547q0 45 30 78l227 228q34 34 83 34
q48 0 82.5 -32.5t34.5 -84.5q0 -47 -35 -81l-226 -226q-30 -32 -79 -32q-47 0 -82 34.5t-35 81.5z" />
    <glyph glyph-name="ydieresis" unicode="&#xff;" horiz-adv-x="1227" 
d="M424 -437q-21 0 -48 9q-48 19 -64.5 61.5t4.5 88.5l171 371l-397 871q-22 44 -8 87.5t60 64.5q44 22 87.5 8t64.5 -60l319 -700l321 698q21 44 60 60t85 -2q48 -19 64.5 -61.5t-4.5 -88.5l-619 -1340q-31 -67 -96 -67zM267 1592q0 62 46 107.5t110 45.5q65 0 109 -45
t44 -108q0 -65 -44 -110.5t-109 -45.5t-110.5 46t-45.5 110zM635 1592q0 62 46 107.5t110 45.5q65 0 109 -45t44 -108q0 -65 -44 -110.5t-109 -45.5t-110.5 46t-45.5 110z" />
    <glyph glyph-name="Amacron" unicode="&#x100;" horiz-adv-x="1447" 
d="M160 -1q-67 0 -99 55.5t-5 109.5l557 1317q15 35 44 55t65 20q35 0 64 -20t44 -55l559 -1317q29 -56 -5.5 -110.5t-98.5 -54.5q-36 0 -65 19t-42 54l-161 385h-589l-161 -385q-13 -35 -42 -54t-65 -19zM366 1950q0 48 33 82.5t82 34.5h487q48 0 81.5 -34.5t33.5 -82.5
q0 -47 -33.5 -81t-81.5 -34h-487q-48 0 -81.5 34t-33.5 81zM521 676h403l-202 482z" />
    <glyph glyph-name="amacron" unicode="&#x101;" horiz-adv-x="1426" 
d="M684 -12q-247 0 -411 163.5t-164 409.5q0 163 74.5 294.5t206 206t294.5 74.5q198 0 343 -106v-7q0 48 33 81.5t84 33.5q49 0 81 -33.5t32 -81.5v-909q0 -47 -32 -81t-81 -34q-51 0 -84 33.5t-33 81.5v-13q-143 -113 -343 -113zM339 561q0 -158 95 -254t250 -96
q156 0 249.5 96t93.5 254q0 161 -93.5 257t-249.5 96q-155 0 -250 -96.5t-95 -256.5zM343 1551q0 48 33.5 82.5t81.5 34.5h488q48 0 81.5 -34.5t33.5 -82.5q0 -47 -34 -81t-81 -34h-488q-48 0 -81.5 34t-33.5 81z" />
    <glyph glyph-name="Abreve" unicode="&#x102;" horiz-adv-x="1447" 
d="M160 -1q-67 0 -99 55.5t-5 109.5l557 1317q15 35 44 55t65 20q35 0 64 -20t44 -55l559 -1317q29 -56 -5.5 -110.5t-98.5 -54.5q-36 0 -65 19t-42 54l-161 385h-589l-161 -385q-13 -35 -42 -54t-65 -19zM372 2099q0 48 34.5 82.5t82.5 34.5t81.5 -34.5t33.5 -82.5
q0 -45 107 -45q110 0 110 45q0 48 33.5 82.5t81.5 34.5q49 0 82 -34.5t35 -80.5q-6 -118 -104.5 -192t-237.5 -74q-142 0 -240.5 78t-98.5 186zM521 676h403l-202 482z" />
    <glyph glyph-name="abreve" unicode="&#x103;" horiz-adv-x="1426" 
d="M684 -12q-247 0 -411 163.5t-164 409.5q0 163 74.5 294.5t206 206t294.5 74.5q198 0 343 -106v-7q0 48 33 81.5t84 33.5q49 0 81 -33.5t32 -81.5v-909q0 -47 -32 -81t-81 -34q-51 0 -84 33.5t-33 81.5v-13q-143 -113 -343 -113zM339 561q0 -158 95 -254t250 -96
q156 0 249.5 96t93.5 254q0 161 -93.5 257t-249.5 96q-155 0 -250 -96.5t-95 -256.5zM349 1700q0 48 35 82.5t82 34.5q49 0 82 -34.5t33 -82.5q0 -45 108 -45q109 0 109 45q0 48 33.5 82.5t81.5 34.5q49 0 82 -34.5t35 -80.5q-5 -118 -104 -192t-237 -74q-142 0 -241 78
t-99 186z" />
    <glyph glyph-name="Cacute" unicode="&#x106;" horiz-adv-x="1550" 
d="M902 -19q-209 0 -388.5 107t-285 290.5t-105.5 399.5q0 161 60.5 307.5t164 254t248.5 171t306 63.5q278 0 493 -177q36 -29 38.5 -77t-30 -85.5t-85.5 -37.5q-39 0 -84 36q-122 111 -332 111q-114 0 -216 -45t-175 -121t-115.5 -180.5t-42.5 -219.5q0 -159 72.5 -289.5
t198 -204t278.5 -73.5q197 0 344 120q23 20 55 22.5t60 -10t47.5 -41t19.5 -65.5q0 -51 -32 -81q-175 -175 -494 -175zM698 1933q0 46 30 77l227 228q32 34 83 34q47 0 81.5 -32.5t34.5 -83.5q0 -50 -34 -81l-226 -227q-32 -32 -79 -32t-82 34.5t-35 82.5z" />
    <glyph glyph-name="cacute" unicode="&#x107;" horiz-adv-x="1195" 
d="M665 -12q-160 0 -288.5 75t-200 206t-71.5 292q0 163 67.5 294t189 205t275.5 74q273 0 431 -204q32 -38 24.5 -85t-49.5 -74q-36 -26 -79 -19.5t-73 41.5q-53 63 -113 91t-141 28q-141 0 -221.5 -92.5t-80.5 -258.5q0 -160 88.5 -255t241.5 -95q138 0 219 74
q35 33 79.5 33.5t73.5 -30.5q38 -37 37.5 -83.5t-35.5 -77.5q-149 -139 -374 -139zM514 1538q0 46 29 78l228 228q34 34 82 34t82.5 -32.5t34.5 -84.5q0 -49 -35 -81l-225 -226q-31 -33 -79 -33t-82.5 35t-34.5 82z" />
    <glyph glyph-name="Ccircumflex" unicode="&#x108;" horiz-adv-x="1550" 
d="M900 -19q-157 0 -301 63.5t-249 170t-167.5 254.5t-62.5 309t60.5 307.5t164 254t249 171t306.5 63.5q277 0 492 -177q36 -29 38.5 -77t-29.5 -85.5t-86 -37.5q-39 0 -84 36q-122 111 -331 111q-152 0 -278.5 -76t-199 -206.5t-72.5 -283.5q0 -119 43 -224.5t116 -180.5
t175 -118.5t216 -43.5q197 0 343 120q23 20 55 22.5t60 -10t47.5 -41t19.5 -65.5q0 -51 -31 -81q-176 -175 -494 -175zM484 1939q0 65 57 100l222 149q26 17 60 17q35 0 61 -17l222 -149q57 -35 57 -100q0 -48 -33 -81.5t-84 -33.5q-32 0 -67 20l-156 105l-154 -103
q-36 -22 -67 -22q-47 0 -82.5 33t-35.5 82z" />
    <glyph glyph-name="ccircumflex" unicode="&#x109;" horiz-adv-x="1231" 
d="M681 -12q-160 0 -288.5 75t-200.5 206t-72 292q0 248 150 410.5t383 162.5q273 0 431 -204q32 -38 24.5 -85t-49.5 -74q-36 -26 -79 -19.5t-73 41.5q-53 63 -113 91t-141 28q-141 0 -222 -92.5t-81 -258.5q0 -160 89 -255t242 -95q138 0 219 74q35 33 79.5 33.5
t73.5 -30.5q38 -37 37.5 -83.5t-35.5 -77.5q-149 -139 -374 -139zM288 1551q0 65 57 99l223 150q25 17 59 17q35 0 61 -17l222 -150q57 -35 57 -99q0 -48 -33 -81.5t-84 -33.5q-34 0 -67 19l-156 105l-154 -103q-32 -21 -66 -21q-47 0 -83 33t-36 82z" />
    <glyph glyph-name="Cdotaccent" unicode="&#x10a;" horiz-adv-x="1550" 
d="M902 -19q-209 0 -388.5 107t-285 290.5t-105.5 399.5q0 161 60.5 307.5t164 254t248.5 171t306 63.5q278 0 493 -177q36 -29 38.5 -77t-30 -85.5t-85.5 -37.5q-39 0 -84 36q-122 111 -332 111q-114 0 -216 -45t-175 -121t-115.5 -180.5t-42.5 -219.5q0 -159 72.5 -289.5
t198 -204t278.5 -73.5q197 0 344 120q23 20 55 22.5t60 -10t47.5 -41t19.5 -65.5q0 -51 -32 -81q-175 -175 -494 -175zM726 1945q0 67 43.5 105.5t102.5 38.5q57 0 100.5 -38.5t43.5 -105.5q0 -61 -42 -103.5t-104 -42.5q-59 0 -101.5 42t-42.5 104z" />
    <glyph glyph-name="cdotaccent" unicode="&#x10b;" horiz-adv-x="1195" 
d="M665 -12q-160 0 -288.5 75t-200 206t-71.5 292q0 163 67.5 294t189 205t275.5 74q273 0 431 -204q32 -38 24.5 -85t-49.5 -74q-36 -26 -79 -19.5t-73 41.5q-53 63 -113 91t-141 28q-141 0 -221.5 -92.5t-80.5 -258.5q0 -160 88.5 -255t241.5 -95q138 0 219 74
q35 33 79.5 33.5t73.5 -30.5q38 -37 37.5 -83.5t-35.5 -77.5q-149 -139 -374 -139zM484 1582q0 67 44 106t102 39q57 0 100.5 -39t43.5 -106q0 -61 -42.5 -103.5t-103.5 -42.5q-59 0 -101.5 42t-42.5 104z" />
    <glyph glyph-name="Ccaron" unicode="&#x10c;" horiz-adv-x="1550" 
d="M902 -19q-209 0 -388.5 107t-285 290.5t-105.5 399.5q0 161 60.5 307.5t164 254t248.5 171t306 63.5q278 0 493 -177q36 -29 38.5 -77t-30 -85.5t-85.5 -37.5q-39 0 -84 36q-122 111 -332 111q-114 0 -216 -45t-175 -121t-115.5 -180.5t-42.5 -219.5q0 -159 72.5 -289.5
t198 -204t278.5 -73.5q197 0 344 120q23 20 55 22.5t60 -10t47.5 -41t19.5 -65.5q0 -51 -32 -81q-175 -175 -494 -175zM531 2099q0 44 28 75.5t69 35.5t89 -26l153 -107l154 103q70 45 128 16.5t58 -97.5q0 -59 -56 -99l-220 -145q-23 -20 -64 -20q-40 0 -63 20l-219 145
q-57 34 -57 99z" />
    <glyph glyph-name="ccaron" unicode="&#x10d;" horiz-adv-x="1195" 
d="M665 -12q-160 0 -288.5 75t-200 206t-71.5 292q0 163 67.5 294t189 205t275.5 74q273 0 431 -204q32 -38 24.5 -85t-49.5 -74q-36 -26 -79 -19.5t-73 41.5q-53 63 -113 91t-141 28q-141 0 -221.5 -92.5t-80.5 -258.5q0 -160 88.5 -255t241.5 -95q138 0 219 74
q35 33 79.5 33.5t73.5 -30.5q38 -37 37.5 -83.5t-35.5 -77.5q-149 -139 -374 -139zM286 1700q0 44 28 75.5t69.5 35.5t88.5 -26l153 -107l154 103q49 30 90 26.5t68.5 -33.5t27.5 -74q0 -58 -55 -99l-221 -146q-22 -19 -64 -19q-41 0 -63 19l-219 146q-57 34 -57 99z" />
    <glyph glyph-name="Dcaron" unicode="&#x10e;" horiz-adv-x="1571" 
d="M314 -1q-47 0 -81 34t-34 81v1327q0 52 33.5 83.5t81.5 31.5h355q225 0 403 -99t277 -276.5t99 -402.5q0 -226 -99 -403.5t-276.5 -276.5t-403.5 -99h-355zM303 2099q0 44 28 75.5t69.5 35.5t88.5 -26l154 -107l153 103q70 45 128 16.5t58 -97.5q0 -59 -55 -99l-221 -145
q-23 -20 -63 -20q-41 0 -64 20l-219 145q-57 34 -57 99zM429 218h240q249 0 399 153.5t150 406.5t-150 406t-399 153h-240v-1119z" />
    <glyph glyph-name="Dcaron" unicode="&#x10f;" horiz-adv-x="1571" 
d="M314 -1q-47 0 -81 34t-34 81v1327q0 52 33.5 83.5t81.5 31.5h355q225 0 403 -99t277 -276.5t99 -402.5q0 -226 -99 -403.5t-276.5 -276.5t-403.5 -99h-355zM303 2099q0 44 28 75.5t69.5 35.5t88.5 -26l154 -107l153 103q70 45 128 16.5t58 -97.5q0 -59 -55 -99l-221 -145
q-23 -20 -63 -20q-41 0 -64 20l-219 145q-57 34 -57 99zM429 218h240q249 0 399 153.5t150 406.5t-150 406t-399 153h-240v-1119z" />
    <glyph glyph-name="Dcroat" unicode="&#x110;" horiz-adv-x="1466" 
d="M232 -1q-47 0 -81 34t-34 81v555h-74q-46 0 -78 31.5t-32 77.5t31.5 78t78.5 32h74v553q0 51 34 83t81 32h332q225 0 402.5 -99t277 -276.5t99.5 -402.5q0 -226 -99 -403.5t-276.5 -276.5t-403.5 -99h-332zM347 218h217q249 0 399 153.5t150 406.5t-150 406t-399 153
h-217v-449h244q47 0 78.5 -32t31.5 -78t-32 -77.5t-78 -31.5h-244v-451z" />
    <glyph glyph-name="Dcroat" unicode="&#x111;" horiz-adv-x="1466" 
d="M232 -1q-47 0 -81 34t-34 81v555h-74q-46 0 -78 31.5t-32 77.5t31.5 78t78.5 32h74v553q0 51 34 83t81 32h332q225 0 402.5 -99t277 -276.5t99.5 -402.5q0 -226 -99 -403.5t-276.5 -276.5t-403.5 -99h-332zM347 218h217q249 0 399 153.5t150 406.5t-150 406t-399 153
h-217v-449h244q47 0 78.5 -32t31.5 -78t-32 -77.5t-78 -31.5h-244v-451z" />
    <glyph glyph-name="Emacron" unicode="&#x112;" horiz-adv-x="1441" 
d="M314 -1q-47 0 -81 34t-34 81v1327q0 47 34 81t81 34h885q46 0 80.5 -33.5t34.5 -81.5q0 -47 -34 -81t-81 -34h-770v-433h625q47 0 81 -33.5t34 -81.5q0 -47 -33.5 -82t-81.5 -35h-625v-432h770q47 0 81 -34.5t34 -80.5q0 -48 -34.5 -81.5t-80.5 -33.5h-885zM390 1950
q0 48 33.5 82.5t81.5 34.5h488q48 0 81.5 -34.5t33.5 -82.5q0 -47 -33.5 -81t-81.5 -34h-488q-47 0 -81 34t-34 81z" />
    <glyph glyph-name="emacron" unicode="&#x113;" horiz-adv-x="1259" 
d="M665 -10q-246 0 -403 160t-157 411q0 250 149 411.5t383 161.5q231 0 377.5 -155.5t146.5 -398.5q0 -49 -33 -80.5t-80 -31.5h-703q24 -121 107.5 -188t212.5 -67q63 0 122.5 20t95.5 53q30 31 74.5 32.5t76.5 -25.5q41 -34 42.5 -81.5t-36.5 -82.5q-67 -61 -172 -100
t-203 -39zM245 1551q0 48 33.5 82.5t81.5 34.5h488q48 0 81.5 -34.5t33.5 -82.5q0 -47 -34 -81t-81 -34h-488q-47 0 -81 34t-34 81zM350 684h575q-25 110 -98.5 169t-189.5 59q-110 0 -184 -59t-103 -169z" />
    <glyph glyph-name="Ebreve" unicode="&#x114;" horiz-adv-x="1405" 
d="M315 -1q-47 0 -81 34t-34 81v1327q0 47 34 81t81 34h885q46 0 80.5 -33.5t34.5 -81.5q0 -47 -34.5 -81t-80.5 -34h-770v-433h625q47 0 81 -33.5t34 -81.5q0 -47 -33.5 -82t-81.5 -35h-625v-432h770q46 0 80.5 -34.5t34.5 -80.5q0 -48 -34.5 -81.5t-80.5 -33.5h-885z
M398 2099q0 48 34.5 82.5t82.5 34.5t81.5 -34.5t33.5 -82.5q0 -45 107 -45q110 0 110 45q0 48 33 82.5t82 34.5t82 -34.5t35 -80.5q-6 -118 -104.5 -192t-237.5 -74q-142 0 -240.5 78t-98.5 186z" />
    <glyph glyph-name="ebreve" unicode="&#x115;" horiz-adv-x="1257" 
d="M681 -10q-122 0 -226.5 42.5t-178 117.5t-115 181t-41.5 230q0 165 67.5 295.5t189 204t276.5 73.5q231 0 377.5 -155.5t146.5 -398.5q0 -49 -33 -80.5t-81 -31.5h-702q24 -121 107.5 -188t212.5 -67q63 0 122.5 20t95.5 53q30 31 74.5 32.5t76.5 -25.5
q41 -34 42.5 -81.5t-36.5 -82.5q-67 -61 -172.5 -100t-202.5 -39zM283 1700q0 48 35 82.5t82 34.5q48 0 81.5 -34.5t33.5 -82.5q0 -45 108 -45q109 0 109 45q0 48 33.5 82.5t81.5 34.5q49 0 82 -34.5t35 -80.5q-5 -118 -104 -192t-237 -74q-143 0 -241.5 78t-98.5 186z
M366 684h575q-25 110 -98.5 169t-189.5 59q-110 0 -184 -59t-103 -169z" />
    <glyph glyph-name="Edotaccent" unicode="&#x116;" horiz-adv-x="1441" 
d="M314 -1q-47 0 -81 34t-34 81v1327q0 47 34 81t81 34h885q46 0 80.5 -33.5t34.5 -81.5q0 -47 -34 -81t-81 -34h-770v-433h625q47 0 81 -33.5t34 -81.5q0 -47 -33.5 -82t-81.5 -35h-625v-432h770q47 0 81 -34.5t34 -80.5q0 -48 -34.5 -81.5t-80.5 -33.5h-885zM664 1945
q0 67 43.5 105.5t102.5 38.5q57 0 100.5 -38.5t43.5 -105.5q0 -61 -42 -103.5t-104 -42.5q-59 0 -101.5 42t-42.5 104z" />
    <glyph glyph-name="edotaccent" unicode="&#x117;" horiz-adv-x="1259" 
d="M665 -10q-246 0 -403 160t-157 411q0 250 149 411.5t383 161.5q231 0 377.5 -155.5t146.5 -398.5q0 -49 -33 -80.5t-80 -31.5h-703q24 -121 107.5 -188t212.5 -67q63 0 122.5 20t95.5 53q30 31 74.5 32.5t76.5 -25.5q41 -34 42.5 -81.5t-36.5 -82.5q-67 -61 -172 -100
t-203 -39zM350 684h575q-25 110 -98.5 169t-189.5 59q-110 0 -184 -59t-103 -169zM477 1582q0 67 44 106t102 39q57 0 101 -39t44 -106q0 -61 -42.5 -103.5t-103.5 -42.5q-60 0 -102.5 42t-42.5 104z" />
    <glyph glyph-name="Ecaron" unicode="&#x11a;" horiz-adv-x="1441" 
d="M314 -1q-47 0 -81 34t-34 81v1327q0 47 34 81t81 34h885q46 0 80.5 -33.5t34.5 -81.5q0 -47 -34 -81t-81 -34h-770v-433h625q47 0 81 -33.5t34 -81.5q0 -47 -33.5 -82t-81.5 -35h-625v-432h770q47 0 81 -34.5t34 -80.5q0 -48 -34.5 -81.5t-80.5 -33.5h-885zM469 2099
q0 69 58.5 99.5t126.5 -14.5l154 -107l154 103q70 45 128 16.5t58 -97.5q0 -59 -56 -99l-220 -145q-23 -20 -64 -20t-63 20l-219 145q-57 34 -57 99z" />
    <glyph glyph-name="ecaron" unicode="&#x11b;" horiz-adv-x="1259" 
d="M665 -10q-246 0 -403 160t-157 411q0 250 149 411.5t383 161.5q231 0 377.5 -155.5t146.5 -398.5q0 -49 -33 -80.5t-80 -31.5h-703q24 -121 107.5 -188t212.5 -67q63 0 122.5 20t95.5 53q30 31 74.5 32.5t76.5 -25.5q41 -34 42.5 -81.5t-36.5 -82.5q-67 -61 -172 -100
t-203 -39zM286 1693q0 68 59 99t127 -15l153 -106l154 103q71 44 128.5 15.5t57.5 -96.5q0 -59 -55 -100l-221 -145q-22 -19 -64 -19q-41 0 -63 19l-219 145q-57 35 -57 100zM350 684h575q-25 110 -98.5 169t-189.5 59q-110 0 -184 -59t-103 -169z" />
    <glyph glyph-name="Gcircumflex" unicode="&#x11c;" horiz-adv-x="1592" 
d="M900 -19q-157 0 -301 63.5t-249 170t-167.5 254.5t-62.5 309t60.5 307.5t164 254t249 171t306.5 63.5q277 0 492 -177q36 -29 38.5 -77t-29.5 -85.5t-86 -37.5q-39 0 -84 36q-122 111 -331 111q-152 0 -278.5 -76t-199 -206.5t-72.5 -283.5q0 -119 43 -224.5t116 -180.5
t175 -118.5t216 -43.5q117 0 195.5 20t146.5 65v391h-332q-48 0 -81.5 32t-33.5 80q0 44 33 75.5t82 31.5h447q51 0 83 -32.5t32 -80.5v-556q0 -51 -31 -81q-96 -95 -229 -135t-312 -40zM475 1939q0 65 57 100l222 149q26 17 60 17q35 0 61 -17l222 -149q57 -35 57 -100
q0 -48 -33 -81.5t-84 -33.5q-32 0 -67 20l-156 105l-154 -103q-36 -22 -67 -22q-47 0 -82.5 33t-35.5 82z" />
    <glyph glyph-name="gcircumflex" unicode="&#x11d;" horiz-adv-x="1389" 
d="M703 -385q-307 0 -486 226q-27 37 -27 74q0 53 44 85q39 27 87.5 18.5t75.5 -47.5q116 -134 306 -134q125 0 210 68t114 187q-105 -77 -241 -98q-42 -6 -91 -6q-251 0 -413 161.5t-162 411.5q0 165 75 297t206.5 205t293.5 73q196 0 344 -102v-11q0 48 32.5 81.5
t83.5 33.5q49 0 81.5 -33.5t32.5 -81.5v-822q0 -165 -73 -299t-202.5 -210.5t-290.5 -76.5zM332 1540q0 64 57 99l223 149q24 18 59 18q36 0 61 -18l222 -149q57 -35 57 -99q0 -48 -33 -81.5t-84 -33.5q-34 0 -67 19l-156 105l-154 -103q-32 -21 -66 -21q-47 0 -83 33
t-36 82zM350 561q0 -158 95 -254t250 -96q156 0 250 96t94 254q0 160 -94 256.5t-250 96.5q-155 0 -250 -96.5t-95 -256.5z" />
    <glyph glyph-name="Gbreve" unicode="&#x11e;" horiz-adv-x="1612" 
d="M902 -19q-209 0 -388.5 107t-285 290.5t-105.5 399.5q0 161 60.5 307.5t164 254t248.5 171t306 63.5q278 0 493 -177q36 -29 38.5 -77t-30 -85.5t-85.5 -37.5q-39 0 -84 36q-122 111 -332 111q-114 0 -216 -45t-175 -121t-115.5 -180.5t-42.5 -219.5q0 -159 72.5 -289.5
t198 -204t278.5 -73.5q117 0 195.5 19.5t147.5 65.5v391h-332q-48 0 -81.5 32t-33.5 80q0 44 32.5 75.5t82.5 31.5h447q51 0 83 -32.5t32 -80.5v-556q0 -51 -32 -81q-95 -95 -228.5 -135t-312.5 -40zM450 2099q0 48 34.5 82.5t82.5 34.5t81.5 -34.5t33.5 -82.5
q0 -45 107 -45q110 0 110 45q0 48 33 82.5t82 34.5t82 -34.5t35 -80.5q-6 -118 -104.5 -192t-237.5 -74q-142 0 -240.5 78t-98.5 186z" />
    <glyph glyph-name="gbreve" unicode="&#x11f;" horiz-adv-x="1421" 
d="M687 -385q-307 0 -486 226q-26 37 -26 74q0 54 44 85q38 27 87 18.5t76 -47.5q116 -134 305 -134q125 0 210 68t114 187q-103 -77 -240 -98q-43 -6 -91 -6q-252 0 -413.5 161t-161.5 412q0 165 75 297t206 205t294 73q195 0 343 -102v-11q0 48 33 81.5t84 33.5
q48 0 80.5 -33.5t32.5 -81.5v-822q0 -251 -161 -418.5t-405 -167.5zM335 561q0 -158 95 -254t250 -96q156 0 249.5 96t93.5 254q0 161 -93.5 257t-249.5 96q-155 0 -250 -96.5t-95 -256.5zM345 1700q0 48 34.5 82.5t82.5 34.5t81.5 -34.5t33.5 -82.5q0 -45 107 -45
q110 0 110 45q0 48 33 82.5t82 34.5t82 -34.5t35 -80.5q-6 -118 -104.5 -192t-237.5 -74q-142 0 -240.5 78t-98.5 186z" />
    <glyph glyph-name="Gdotaccent" unicode="&#x120;" horiz-adv-x="1612" 
d="M902 -19q-209 0 -388.5 107t-285 290.5t-105.5 399.5q0 161 60.5 307.5t164 254t248.5 171t306 63.5q278 0 493 -177q36 -29 38.5 -77t-30 -85.5t-85.5 -37.5q-39 0 -84 36q-122 111 -332 111q-114 0 -216 -45t-175 -121t-115.5 -180.5t-42.5 -219.5q0 -159 72.5 -289.5
t198 -204t278.5 -73.5q117 0 195.5 19.5t147.5 65.5v391h-332q-48 0 -81.5 32t-33.5 80q0 44 32.5 75.5t82.5 31.5h447q51 0 83 -32.5t32 -80.5v-556q0 -51 -32 -81q-95 -95 -228.5 -135t-312.5 -40zM717 1945q0 67 43.5 105.5t102.5 38.5q57 0 100.5 -38.5t43.5 -105.5
q0 -61 -42.5 -103.5t-103.5 -42.5q-59 0 -101.5 42t-42.5 104z" />
    <glyph glyph-name="gdotaccent" unicode="&#x121;" horiz-adv-x="1421" 
d="M687 -385q-307 0 -486 226q-26 37 -26 74q0 54 44 85q38 27 87 18.5t76 -47.5q116 -134 305 -134q125 0 210 68t114 187q-103 -77 -240 -98q-43 -6 -91 -6q-252 0 -413.5 161t-161.5 412q0 165 75 297t206 205t294 73q195 0 343 -102v-11q0 48 33 81.5t84 33.5
q48 0 80.5 -33.5t32.5 -81.5v-822q0 -251 -161 -418.5t-405 -167.5zM335 561q0 -158 95 -254t250 -96q156 0 249.5 96t93.5 254q0 161 -93.5 257t-249.5 96q-155 0 -250 -96.5t-95 -256.5zM538 1582q0 67 44 106t102 39q57 0 101 -39t44 -106q0 -61 -43 -103.5t-104 -42.5
q-59 0 -101.5 42t-42.5 104z" />
    <glyph glyph-name="Itilde" unicode="&#x128;" horiz-adv-x="592" 
d="M300 -1q-47 0 -81 34t-34 81v1327q0 47 34 81t81 34t81 -34t34 -81v-1327q0 -47 -34 -81t-81 -34zM17 1914q75 172 222 172q41 0 76.5 -13t53 -26t42.5 -37q27 -22 36 -27q1 1 3 8q19 45 59 65.5t79 8.5q53 -14 73.5 -56.5t0.5 -91.5q-66 -161 -196 -161q-84 0 -175 78
q-27 27 -34.5 32.5t-15.5 5.5q2 0 -25 -48q-20 -38 -58.5 -54.5t-77.5 -4.5q-46 15 -65 58t2 91z" />
    <glyph glyph-name="itilde" unicode="&#x129;" horiz-adv-x="632" 
d="M316 -1q-47 0 -81 34t-34 81v896q0 51 34 83t81 32q51 0 83 -32.5t32 -82.5v-896q0 -48 -31.5 -81.5t-83.5 -33.5zM-3 1698q76 172 223 172q41 0 76 -12.5t53 -26t43 -36.5q20 -17 36 -28q2 4 2 9q19 44 59.5 65t78.5 9q53 -14 74 -57t1 -91q-66 -161 -197 -161
q-85 0 -175 78q-27 28 -34 33t-15 5q1 0 -25 -48q-21 -38 -59 -54.5t-77 -5.5q-46 15 -65 58.5t1 90.5z" />
    <glyph glyph-name="Imacron" unicode="&#x12a;" horiz-adv-x="670" 
d="M352 -1q-47 0 -81 34t-34 81v1327q0 47 34 81t81 34q48 0 81.5 -34t33.5 -81v-1327q0 -47 -33.5 -81t-81.5 -34zM-25 1950q0 48 33.5 82.5t81.5 34.5h488q48 0 81.5 -34.5t33.5 -82.5q0 -47 -34 -81t-81 -34h-488q-47 0 -81 34t-34 81z" />
    <glyph glyph-name="imacron" unicode="&#x12b;" horiz-adv-x="486" 
d="M242 -1q-48 0 -81.5 34t-33.5 81v896q0 52 33.5 83.5t81.5 31.5q50 0 82.5 -32.5t32.5 -82.5v-896q0 -47 -32 -81t-83 -34zM-57 1330q0 50 30.5 83.5t73.5 33.5h390q43 0 73.5 -33.5t30.5 -83.5t-31 -82.5t-73 -32.5h-390q-42 0 -73 32.5t-31 82.5z" />
    <glyph glyph-name="Ibreve" unicode="&#x12c;" horiz-adv-x="591" 
d="M295 -1q-47 0 -81 34t-34 81v1327q0 47 34 81t81 34t81 -34t34 -81v-1327q0 -47 -34 -81t-81 -34zM-49 2099q0 48 34.5 82.5t82.5 34.5t81.5 -34.5t33.5 -82.5q0 -45 107 -45q110 0 110 45q0 48 33.5 82.5t81.5 34.5q49 0 82 -34.5t35 -80.5q-6 -118 -104.5 -192
t-237.5 -74q-142 0 -240.5 78t-98.5 186z" />
    <glyph glyph-name="ibreve" unicode="&#x12d;" horiz-adv-x="635" 
d="M317 -1q-47 0 -81 34t-34 81v896q0 51 34 83t81 32q51 0 83 -32.5t32 -82.5v-896q0 -48 -31.5 -81.5t-83.5 -33.5zM4 1700q0 50 33 83.5t78 33.5q44 0 76.5 -34t32.5 -83q0 -45 92 -45q51 0 71.5 11.5t20.5 33.5q0 50 32 83.5t78 33.5q44 0 77 -34t32 -83
q-7 -116 -95.5 -190t-215.5 -74q-133 0 -222.5 78t-89.5 186z" />
    <glyph glyph-name="Idotaccent" unicode="&#x130;" horiz-adv-x="637" 
d="M309 -1q-47 0 -81 34t-34 81v1327q0 47 34 81t81 34q48 0 81.5 -34t33.5 -81v-1327q0 -47 -33.5 -81t-81.5 -34zM173 1982q0 67 44 105.5t102 38.5q57 0 101 -39t44 -105q0 -61 -42.5 -104t-103.5 -43q-60 0 -102.5 42.5t-42.5 104.5z" />
    <glyph glyph-name="dotlessi" unicode="&#x131;" horiz-adv-x="568" 
d="M284 -1q-47 0 -81 34t-34 81v896q0 51 34 83t81 32q51 0 83 -32.5t32 -82.5v-896q0 -48 -31.5 -81.5t-83.5 -33.5z" />
    <glyph glyph-name="Nacute" unicode="&#x143;" horiz-adv-x="1659" 
d="M314 -1q-47 0 -81 34t-34 81v1327q0 47 34 81t81 34q56 0 89 -41l828 -1078v1004q0 47 34 81t81 34q46 0 80.5 -33.5t34.5 -81.5v-1327q0 -48 -34.5 -81.5t-80.5 -33.5q-52 0 -85 37l-832 1082v-1004q0 -47 -33.5 -81t-81.5 -34zM670 1933q0 46 30 77l227 228
q32 34 83 34q47 0 81.5 -32.5t34.5 -83.5q0 -50 -35 -81l-225 -227q-32 -32 -79 -32q-48 0 -82.5 34.5t-34.5 82.5z" />
    <glyph glyph-name="nacute" unicode="&#x144;" 
d="M284 -1q-47 0 -81 34t-34 81v896q0 51 34 83t81 32q40 0 69.5 -20.5t40.5 -55.5q130 89 295 89q144 0 267 -60q122 -64 190.5 -184t68.5 -285v-495q0 -47 -34 -81t-81 -34q-48 0 -81.5 34t-33.5 81v495q0 299 -296 299q-135 0 -212.5 -64t-77.5 -167v-563
q0 -48 -31.5 -81.5t-83.5 -33.5zM591 1718q0 45 29 77l228 228q34 34 82 34t82.5 -32.5t34.5 -84.5q0 -48 -35 -81l-225 -226q-34 -32 -79 -32q-48 0 -82.5 34.5t-34.5 82.5z" />
    <glyph glyph-name="Ncaron" unicode="&#x147;" horiz-adv-x="1659" 
d="M314 -1q-47 0 -81 34t-34 81v1327q0 47 34 81t81 34q56 0 89 -41l828 -1078v1004q0 47 34 81t81 34q46 0 80.5 -33.5t34.5 -81.5v-1327q0 -48 -34.5 -81.5t-80.5 -33.5q-52 0 -85 37l-832 1082v-1004q0 -47 -33.5 -81t-81.5 -34zM503 2099q0 44 28 75.5t69 35.5t89 -26
l153 -107l154 103q70 45 128 16.5t58 -97.5q0 -59 -56 -99l-220 -145q-23 -20 -64 -20t-63 20l-219 145q-57 34 -57 99z" />
    <glyph glyph-name="ncaron" unicode="&#x148;" 
d="M284 -1q-47 0 -81 34t-34 81v896q0 51 34 83t81 32q40 0 69.5 -20.5t40.5 -55.5q130 89 295 89q144 0 267 -60q122 -64 190.5 -184t68.5 -285v-495q0 -47 -34 -81t-81 -34q-48 0 -81.5 34t-33.5 81v495q0 299 -296 299q-135 0 -212.5 -64t-77.5 -167v-563
q0 -48 -31.5 -81.5t-83.5 -33.5zM342 1700q0 44 28 75.5t69.5 35.5t88.5 -26l154 -107l154 103q48 30 89 26.5t68.5 -33.5t27.5 -74q0 -59 -55 -99l-221 -146q-21 -19 -63 -19t-64 19l-219 146q-57 35 -57 99z" />
    <glyph glyph-name="Omacron" unicode="&#x14c;" horiz-adv-x="1840" 
d="M921 -19q-225 0 -408 103.5t-286.5 286t-103.5 407.5q0 226 103.5 408t286 285t408.5 103q225 0 407.5 -103t285.5 -285t103 -408q0 -225 -103 -407.5t-285.5 -286t-407.5 -103.5zM353 778q0 -252 157.5 -409.5t410.5 -157.5q251 0 408.5 157.5t157.5 409.5
q0 250 -158 408t-408 158q-253 0 -410.5 -157.5t-157.5 -408.5zM575 1950q0 48 33.5 82.5t81.5 34.5h487q49 0 82 -34.5t33 -82.5q0 -47 -33.5 -81t-81.5 -34h-487q-48 0 -81.5 34t-33.5 81z" />
    <glyph glyph-name="omacron" unicode="&#x14d;" horiz-adv-x="1351" 
d="M680 -12q-248 0 -411.5 163.5t-163.5 409.5q0 163 74 294.5t206 206t295 74.5t294.5 -74.5t205 -206t73.5 -294.5q0 -162 -74.5 -293t-205.5 -205.5t-293 -74.5zM306 1551q0 48 33.5 82.5t81.5 34.5h488q48 0 81.5 -34.5t33.5 -82.5q0 -47 -34 -81t-81 -34h-488
q-47 0 -81 34t-34 81zM335 561q0 -158 95 -254t250 -96q156 0 249.5 96t93.5 256q0 159 -93.5 255t-249.5 96q-155 0 -250 -96.5t-95 -256.5z" />
    <glyph glyph-name="Obreve" unicode="&#x14e;" horiz-adv-x="1834" 
d="M918 -19q-225 0 -408 103.5t-286.5 286t-103.5 407.5q0 226 103.5 408t286 285t408.5 103q225 0 407.5 -103t285.5 -285t103 -408q0 -225 -103 -407.5t-285.5 -286t-407.5 -103.5zM350 778q0 -252 157.5 -409.5t410.5 -157.5q251 0 408.5 157.5t157.5 409.5
q0 250 -158 408t-408 158q-253 0 -410.5 -157.5t-157.5 -408.5zM600 2099q0 48 34.5 82.5t82.5 34.5t81.5 -34.5t33.5 -82.5q0 -45 107 -45q110 0 110 45q0 48 33 82.5t82 34.5t82 -34.5t35 -80.5q-6 -118 -104.5 -192t-237.5 -74q-142 0 -240.5 78t-98.5 186z" />
    <glyph glyph-name="obreve" unicode="&#x14f;" horiz-adv-x="1389" 
d="M695 -12q-247 0 -411 163.5t-164 409.5q0 247 164 411t411 164q123 0 229.5 -43.5t182 -119.5t119 -183t43.5 -229q0 -162 -74.5 -293t-206 -205.5t-293.5 -74.5zM338 1708q0 47 35 81.5t82 34.5q49 0 82 -34.5t33 -81.5q0 -46 108 -46q109 0 109 46q0 47 33.5 81.5
t81.5 34.5q49 0 82 -34.5t35 -80.5q-5 -118 -104 -192t-237 -74q-143 0 -241.5 78.5t-98.5 186.5zM350 561q0 -158 95 -254t250 -96q156 0 250 96t94 256q0 159 -94 255t-250 96q-155 0 -250 -96.5t-95 -256.5z" />
    <glyph glyph-name="OE" unicode="&#x152;" horiz-adv-x="2288" 
d="M921 -1q-169 0 -317 59t-253.5 162t-166.5 248t-61 310t61 310t166.5 247.5t253.5 161.5t317 59h1124q46 0 80.5 -33.5t34.5 -81.5q0 -47 -34 -81t-81 -34h-696v-433h562q47 0 81 -33.5t34 -81.5q0 -47 -33.5 -82t-81.5 -35h-562v-432h696q47 0 81 -34.5t34 -80.5
q0 -48 -34.5 -81.5t-80.5 -33.5h-1124zM353 778q0 -244 158 -398t410 -154h198v1102h-198q-252 0 -410 -153.5t-158 -396.5z" />
    <glyph glyph-name="oe" unicode="&#x153;" horiz-adv-x="2177" 
d="M680 -12q-252 0 -413.5 161t-161.5 412q0 252 161.5 413.5t413.5 161.5q145 0 261.5 -57.5t190.5 -161.5q70 103 179 160t244 57q231 0 377.5 -155.5t146.5 -398.5q0 -49 -33 -80.5t-80 -31.5h-703q25 -123 108 -189t212 -66q64 0 123 20t95 53q30 31 75 32.5t76 -25.5
q41 -34 42.5 -81.5t-36.5 -82.5q-67 -61 -172 -100t-203 -39q-143 0 -258 58.5t-189 163.5q-75 -107 -192.5 -165.5t-263.5 -58.5zM335 561q0 -165 94 -257.5t251 -92.5q159 0 251 94t92 256q0 165 -92 259t-251 94q-157 0 -251 -93t-94 -260zM1267 684h576
q-25 110 -98.5 169t-189.5 59q-109 0 -184 -59.5t-104 -168.5z" />
    <glyph glyph-name="Racute" unicode="&#x154;" horiz-adv-x="1478" 
d="M314 -1q-47 0 -81 34t-34 81v1327q0 52 33.5 83.5t81.5 31.5h554q228 0 374 -139t146 -357q0 -150 -75 -266.5t-204 -175.5l277 -442q42 -68 11.5 -122.5t-108.5 -54.5q-24 0 -44 9t-30.5 19t-24.5 27l-322 515h-439v-455q0 -48 -31.5 -81.5t-83.5 -33.5zM429 799h439
q137 0 213.5 69t76.5 192q0 125 -76.5 195.5t-213.5 70.5h-439v-527zM572 1933q0 45 29 77l227 228q34 34 83 34q47 0 82 -32.5t35 -83.5q0 -50 -35 -81l-225 -227q-34 -32 -79 -32q-48 0 -82.5 34.5t-34.5 82.5z" />
    <glyph glyph-name="racute" unicode="&#x155;" horiz-adv-x="869" 
d="M284 -1q-47 0 -81 34t-34 81v896q0 51 34 83t81 32q39 0 67.5 -19.5t40.5 -53.5q128 86 299 86l65 -4q49 -7 77.5 -46t19.5 -88q-8 -46 -45.5 -73.5t-84.5 -20.5l-36 2q-135 0 -211.5 -64t-76.5 -167v-563q0 -48 -31.5 -81.5t-83.5 -33.5zM333 1538q0 45 30 78l227 228
q34 34 83 34q47 0 82 -33t35 -84q0 -47 -35 -81l-226 -226q-31 -33 -79 -33q-47 0 -82 35t-35 82z" />
    <glyph glyph-name="Rcaron" unicode="&#x158;" horiz-adv-x="1478" 
d="M314 -1q-47 0 -81 34t-34 81v1327q0 52 33.5 83.5t81.5 31.5h554q228 0 374 -139t146 -357q0 -150 -75 -266.5t-204 -175.5l277 -442q42 -68 11.5 -122.5t-108.5 -54.5q-24 0 -44 9t-30.5 19t-24.5 27l-322 515h-439v-455q0 -48 -31.5 -81.5t-83.5 -33.5zM404 2099
q0 44 28 75.5t69.5 35.5t88.5 -26l154 -107l153 103q71 45 128.5 16.5t57.5 -97.5q0 -59 -55 -99l-221 -145q-23 -20 -63 -20q-41 0 -64 20l-219 145q-57 35 -57 99zM429 799h439q137 0 213.5 69t76.5 192q0 125 -76.5 195.5t-213.5 70.5h-439v-527z" />
    <glyph glyph-name="rcaron" unicode="&#x159;" horiz-adv-x="836" 
d="M296 -1q-47 0 -81 34t-34 81v896q0 52 33.5 83.5t81.5 31.5q39 0 67.5 -19.5t40.5 -53.5q127 86 299 86l64 -4q50 -7 78.5 -46t19.5 -88q-8 -46 -45.5 -73.5t-84.5 -20.5l-36 2q-135 0 -211.5 -64t-76.5 -167v-563q0 -48 -31.5 -81.5t-83.5 -33.5zM124 1700q0 44 28 75.5
t69.5 35.5t88.5 -26l154 -107l153 103q49 30 90 26.5t68.5 -33.5t27.5 -74q0 -59 -55 -99l-221 -146q-22 -19 -63 -19q-42 0 -64 19l-219 146q-57 34 -57 99z" />
    <glyph glyph-name="Sacute" unicode="&#x15a;" horiz-adv-x="1342" 
d="M696 -21q-208 0 -359.5 95t-204.5 249q-14 45 -1 81.5t44 53.5l5 2q45 26 96 6l4 -1q41 -21 58 -68q67 -197 358 -197q159 0 229 58.5t70 175.5q0 87 -71 138.5t-259 105.5q-213 61 -326 137q-82 55 -125 135t-43 178q0 188 143 317t357 129q173 0 300.5 -83t190.5 -223
q19 -46 4 -89.5t-56 -63.5q-42 -22 -85 0t-68 74q-44 88 -109.5 126t-176.5 38q-138 0 -206 -60t-68 -165q0 -64 45 -112q34 -25 74 -44q90 -45 219 -83q94 -31 163.5 -61.5t132 -70.5t101.5 -85.5t61.5 -105.5t22.5 -132q0 -205 -142 -330t-378 -125zM579 1933q0 45 29 77
l227 228q32 34 83 34q47 0 82 -32.5t35 -83.5q0 -50 -35 -81l-225 -227q-34 -32 -80 -32q-47 0 -81.5 34.5t-34.5 82.5z" />
    <glyph glyph-name="sacute" unicode="&#x15b;" horiz-adv-x="1106" 
d="M550 -12q-116 0 -231 42.5t-190 131.5q-33 38 -26.5 85t49.5 77q37 27 81.5 20.5t71.5 -41.5q43 -49 103 -69.5t147 -20.5q127 0 175.5 31t48.5 93q0 50 -50 79t-180 47q-200 29 -306 116.5t-106 213.5q0 159 115.5 251t299.5 92q264 0 399 -189q31 -37 21 -86.5
t-60 -75.5q-35 -20 -77 -11.5t-70 42.5q-39 52 -89.5 75t-127.5 23q-185 0 -185 -110q0 -52 46.5 -79t178.5 -45q156 -24 239 -70q178 -97 178 -279q0 -152 -131.5 -247.5t-323.5 -95.5zM391 1562q0 45 29 77l227 229q36 34 83 34q48 0 82.5 -32.5t34.5 -84.5q0 -49 -35 -81
l-225 -226q-33 -33 -79 -33q-48 0 -82.5 35t-34.5 82z" />
    <glyph glyph-name="Scircumflex" unicode="&#x15c;" horiz-adv-x="1351" 
d="M701 -21q-209 0 -360 95t-204 249q-14 45 -1.5 81.5t43.5 53.5l6 2q44 26 95 6l4 -1q42 -21 59 -68q65 -197 358 -197q159 0 229 58.5t70 175.5q0 87 -71.5 138t-258.5 106q-114 32 -187.5 62.5t-138.5 74.5q-82 55 -125 135t-43 178q0 188 142.5 317t356.5 129
q173 0 300.5 -83t190.5 -223q18 -46 3.5 -89.5t-54.5 -63.5q-42 -22 -85.5 0t-68.5 74q-44 88 -109.5 126t-176.5 38q-137 0 -205 -60t-68 -165q0 -65 45 -112q29 -22 74 -44q92 -46 219 -83q94 -31 163 -61.5t131.5 -70.5t102 -85.5t62 -105.5t22.5 -132q0 -205 -142 -330
t-378 -125zM372 1939q0 65 57 100l222 149q26 17 60 17q35 0 61 -17l221 -149q58 -35 58 -100q0 -48 -33 -81.5t-84 -33.5q-32 0 -67 20l-156 105l-155 -103q-34 -22 -66 -22q-47 0 -82.5 33t-35.5 82z" />
    <glyph glyph-name="scircumflex" unicode="&#x15d;" horiz-adv-x="1124" 
d="M579 -12q-116 0 -231 42.5t-191 131.5q-32 38 -25.5 85t48.5 77q38 27 82.5 20.5t71.5 -41.5q43 -49 103 -69.5t147 -20.5q127 0 175.5 31t48.5 93q0 50 -50.5 79t-179.5 47q-200 29 -306 116.5t-106 213.5q0 159 115 251t299 92q265 0 400 -189q31 -37 20.5 -87
t-59.5 -75q-36 -20 -77.5 -11.5t-69.5 42.5q-40 52 -90 75t-127 23q-185 0 -185 -110q0 -52 46.5 -79t177.5 -45q157 -24 240 -70q178 -98 178 -279q0 -152 -131.5 -247.5t-323.5 -95.5zM222 1564q0 64 57 99l222 149q28 18 60 18q36 0 61 -18l222 -149q57 -35 57 -99
q0 -48 -33 -81.5t-84 -33.5q-34 0 -67 19l-156 105l-154 -103q-34 -21 -67 -21q-47 0 -82.5 33t-35.5 82z" />
    <glyph glyph-name="Scedilla" unicode="&#x15e;" horiz-adv-x="1343" 
d="M639 -481q-110 0 -187 53t-77 128q0 48 33.5 82.5t81.5 34.5q45 0 73 -25l28 -22q17 -13 24 -16t24 -3q33 0 41 2.5t8 12.5q0 14 -8 18.5t-54 17.5q-139 42 -88 165l10 27q-154 29 -263.5 116.5t-151.5 212.5q-14 46 -0.5 82.5t45.5 52.5l4 2q48 25 94 6l5 -1
q41 -21 58 -68q67 -197 358 -197q159 0 229 58.5t70 175.5q0 87 -71 138.5t-259 105.5q-213 61 -326 137q-82 55 -125 135t-43 178q0 188 143 317t357 129q173 0 300.5 -83t190.5 -223q19 -46 4 -89.5t-56 -63.5q-42 -22 -85 0t-68 74q-44 88 -109.5 126t-176.5 38
q-138 0 -206 -60t-68 -165q0 -64 45 -112q34 -25 74 -44q90 -45 219 -83q94 -31 163.5 -61.5t132 -70.5t101.5 -85.5t61.5 -105.5t22.5 -132q0 -182 -114 -303t-308 -147l-5 -11q143 -61 143 -203q0 -105 -86.5 -178t-207.5 -73z" />
    <glyph glyph-name="scedilla" unicode="&#x15f;" horiz-adv-x="1106" 
d="M485 -483q-110 0 -187 53t-77 128q0 48 33.5 82.5t81.5 34.5q45 0 73 -25l28 -22q13 -10 17.5 -12.5t11.5 -4.5t19 -2q33 0 41 3t8 12q0 14 -7.5 18.5t-53.5 17.5q-140 42 -89 165l17 41q-175 40 -272 156q-33 38 -26.5 85t49.5 77q37 27 81.5 20.5t71.5 -41.5
q43 -49 103 -69.5t147 -20.5q127 0 175.5 31t48.5 93q0 50 -50 79t-180 47q-200 29 -306 116.5t-106 213.5q0 159 115.5 251t299.5 92q264 0 399 -189q31 -37 21 -86.5t-60 -75.5q-35 -20 -77 -11.5t-70 42.5q-39 52 -89.5 75t-127.5 23q-185 0 -185 -110q0 -52 46.5 -79
t178.5 -45q156 -24 239 -70q178 -97 178 -279q0 -131 -101 -222.5t-259 -114.5q0 -1 -1 -3.5t-2 -4.5t-1 -4l-5 -11q143 -61 143 -203q0 -105 -86.5 -178t-207.5 -73z" />
    <glyph glyph-name="Scaron" unicode="&#x160;" horiz-adv-x="1343" 
d="M697 -21q-208 0 -359.5 95t-204.5 249q-14 46 -0.5 82.5t45.5 52.5l4 2q48 25 94 6l5 -1q41 -21 58 -68q67 -197 358 -197q159 0 229 58.5t70 175.5q0 87 -71 138.5t-259 105.5q-213 61 -326 137q-82 55 -125 135t-43 178q0 188 143 317t357 129q173 0 300.5 -83
t190.5 -223q19 -46 4 -89.5t-56 -63.5q-42 -22 -85 0t-68 74q-44 88 -109.5 126t-176.5 38q-138 0 -206 -60t-68 -165q0 -64 45 -112q34 -25 74 -44q90 -45 219 -83q94 -31 163.5 -61.5t132 -70.5t101.5 -85.5t61.5 -105.5t22.5 -132q0 -205 -142 -330t-378 -125zM328 2099
q0 44 28 75.5t69.5 35.5t88.5 -26l154 -107l154 103q70 45 127.5 16.5t57.5 -97.5q0 -59 -55 -99l-221 -145q-22 -20 -63 -20t-64 20l-219 145q-57 35 -57 99z" />
    <glyph glyph-name="scaron" unicode="&#x161;" horiz-adv-x="1106" 
d="M550 -12q-116 0 -231 42.5t-190 131.5q-33 38 -26.5 85t49.5 77q37 27 81.5 20.5t71.5 -41.5q43 -49 103 -69.5t147 -20.5q127 0 175.5 31t48.5 93q0 50 -50 79t-180 47q-200 29 -306 116.5t-106 213.5q0 159 115.5 251t299.5 92q264 0 399 -189q31 -37 21 -86.5
t-60 -75.5q-35 -20 -77 -11.5t-70 42.5q-39 52 -89.5 75t-127.5 23q-185 0 -185 -110q0 -52 46.5 -79t178.5 -45q156 -24 239 -70q178 -97 178 -279q0 -152 -131.5 -247.5t-323.5 -95.5zM198 1693q0 68 59 99t127 -15l154 -106l154 103q70 44 127.5 15.5t57.5 -96.5
q0 -60 -55 -100l-221 -145q-21 -19 -63 -19t-64 19l-219 145q-57 35 -57 100z" />
    <glyph glyph-name="Utilde" unicode="&#x168;" horiz-adv-x="1625" 
d="M812 -30q-177 0 -316.5 70.5t-217.5 198t-78 289.5v913q0 52 33.5 83.5t81.5 31.5q50 0 82.5 -32.5t32.5 -82.5v-913q0 -152 102 -240t280 -88q179 0 281 88t102 240v913q0 51 34 83t81 32q51 0 83 -32.5t32 -82.5v-913q0 -245 -172.5 -401.5t-440.5 -156.5zM493 1914
q75 172 222 172q41 0 76.5 -13t53 -26t42.5 -37q27 -22 36 -27q1 1 3 8q19 45 59 65.5t79 8.5q53 -14 73.5 -56.5t0.5 -91.5q-66 -161 -196 -161q-84 0 -175 78q-27 27 -34.5 32.5t-15.5 5.5q2 0 -25 -48q-20 -38 -58.5 -54.5t-77.5 -4.5q-46 15 -65 58t2 91z" />
    <glyph glyph-name="utilde" unicode="&#x169;" horiz-adv-x="1385" 
d="M686 -14q-234 0 -380 143.5t-146 385.5v495q0 48 34 81.5t81 33.5q48 0 81.5 -33.5t33.5 -81.5v-495q0 -299 296 -299q132 0 210.5 63t78.5 168v563q0 51 34 83t81 32q50 0 82.5 -32.5t32.5 -82.5v-896q0 -48 -31.5 -81.5t-83.5 -33.5q-36 0 -66 21.5t-42 54.5
q-130 -89 -296 -89zM301 1617q56 69 129.5 108.5t150.5 39.5q99 0 199 -71q35 -24 47.5 -30t30.5 -6q25 0 35.5 4t22.5 16q29 33 69 43t74 -9q50 -25 62 -72.5t-20 -90.5q-90 -117 -243 -117q-93 0 -207 74q-33 23 -42.5 27.5t-27.5 4.5q-47 0 -95 -52q-26 -36 -71.5 -44
t-80.5 14q-43 25 -53 72.5t20 88.5z" />
    <glyph glyph-name="Umacron" unicode="&#x16a;" horiz-adv-x="1624" 
d="M811 -30q-177 0 -316.5 70.5t-217.5 198t-78 289.5v913q0 52 33.5 83.5t81.5 31.5q50 0 82.5 -32.5t32.5 -82.5v-913q0 -152 102.5 -240t279.5 -88q179 0 281.5 88t102.5 240v913q0 52 33.5 83.5t81.5 31.5q50 0 82.5 -32.5t32.5 -82.5v-913q0 -245 -173 -401.5
t-441 -156.5zM415 1950q0 48 33.5 82.5t81.5 34.5h488q48 0 81.5 -34.5t33.5 -82.5q0 -47 -34 -81t-81 -34h-488q-47 0 -81 34t-34 81z" />
    <glyph glyph-name="umacron" unicode="&#x16b;" 
d="M695 -14q-234 0 -380 143.5t-146 385.5v495q0 48 34 81.5t81 33.5q48 0 81.5 -33.5t33.5 -81.5v-495q0 -299 296 -299q132 0 211 63t79 168v563q0 52 33.5 83.5t81.5 31.5q50 0 82.5 -32.5t32.5 -82.5v-896q0 -47 -32 -81t-83 -34q-37 0 -66.5 21t-42.5 55
q-130 -89 -296 -89zM332 1551q0 48 33.5 82.5t81.5 34.5h488q48 0 81.5 -34.5t33.5 -82.5q0 -47 -34 -81t-81 -34h-488q-47 0 -81 34t-34 81z" />
    <glyph glyph-name="Ubreve" unicode="&#x16c;" horiz-adv-x="1625" 
d="M812 -30q-177 0 -316.5 70.5t-217.5 198t-78 289.5v913q0 52 33.5 83.5t81.5 31.5q50 0 82.5 -32.5t32.5 -82.5v-913q0 -152 102 -240t280 -88q179 0 281 88t102 240v913q0 51 34 83t81 32q51 0 83 -32.5t32 -82.5v-913q0 -245 -172.5 -401.5t-440.5 -156.5zM423 2099
q0 48 34.5 82.5t81.5 34.5q49 0 82 -34.5t33 -82.5q0 -45 108 -45q110 0 110 45q0 48 33 82.5t82 34.5t82 -34.5t34 -80.5q-5 -118 -104 -192t-237 -74q-142 0 -240.5 78t-98.5 186z" />
    <glyph glyph-name="ubreve" unicode="&#x16d;" horiz-adv-x="1385" 
d="M686 -14q-234 0 -380 143.5t-146 385.5v495q0 48 34 81.5t81 33.5q48 0 81.5 -33.5t33.5 -81.5v-495q0 -299 296 -299q132 0 210.5 63t78.5 168v563q0 51 34 83t81 32q50 0 82.5 -32.5t32.5 -82.5v-896q0 -48 -31.5 -81.5t-83.5 -33.5q-36 0 -66 21.5t-42 54.5
q-130 -89 -296 -89zM329 1700q0 48 35 82.5t82 34.5q49 0 82 -34.5t33 -82.5q0 -45 108 -45q109 0 109 45q0 48 33.5 82.5t81.5 34.5q49 0 82 -34.5t35 -80.5q-5 -118 -104 -192t-237 -74q-142 0 -241 78t-99 186z" />
    <glyph glyph-name="Uring" unicode="&#x16e;" horiz-adv-x="1624" 
d="M811 -30q-177 0 -316.5 70.5t-217.5 198t-78 289.5v913q0 52 33.5 83.5t81.5 31.5q50 0 82.5 -32.5t32.5 -82.5v-913q0 -152 102.5 -240t279.5 -88q179 0 281.5 88t102.5 240v913q0 52 33.5 83.5t81.5 31.5q50 0 82.5 -32.5t32.5 -82.5v-913q0 -245 -173 -401.5
t-441 -156.5zM585 1959q0 95 68.5 162t161.5 67q95 0 162 -67t67 -162q0 -93 -66.5 -161t-162.5 -68q-92 0 -161 68.5t-69 160.5zM777 1959q0 -23 7.5 -30.5t30.5 -7.5t31 7.5t8 30.5q0 25 -7 32t-32 7q-23 0 -30.5 -8t-7.5 -31z" />
    <glyph glyph-name="uring" unicode="&#x16f;" 
d="M695 -14q-234 0 -380 143.5t-146 385.5v495q0 48 34 81.5t81 33.5q48 0 81.5 -33.5t33.5 -81.5v-495q0 -299 296 -299q132 0 211 63t79 168v563q0 52 33.5 83.5t81.5 31.5q50 0 82.5 -32.5t32.5 -82.5v-896q0 -47 -32 -81t-83 -34q-37 0 -66.5 21t-42.5 55
q-130 -89 -296 -89zM430 1665q0 96 68 162.5t161 66.5q95 0 162 -67t67 -162q0 -92 -66.5 -160.5t-162.5 -68.5q-91 0 -160 69t-69 160zM621 1665q0 -22 8 -30t30 -8q23 0 31 8t8 30q0 25 -7 32.5t-32 7.5q-22 0 -30 -8.5t-8 -31.5z" />
    <glyph glyph-name="Wcircumflex" unicode="&#x174;" horiz-adv-x="1813" 
d="M538 -1q-38 0 -70 25.5t-45 64.5l-380 1308q-18 61 14 110t95 49q86 0 111 -86l275 -950l259 901q10 34 41 57t68 23q41 0 71 -23t41 -58l258 -900l275 956q11 37 40.5 58.5t71.5 21.5q62 0 93 -48.5t14 -110.5l-379 -1307q-12 -43 -44 -67t-71 -24q-44 0 -74 26t-41 66
l-255 900l-251 -901q-12 -41 -43.5 -66t-73.5 -25zM582 1939q0 65 57 100l222 149q26 17 60 17q35 0 61 -17l222 -149q57 -35 57 -100q0 -48 -33 -81.5t-84 -33.5q-32 0 -67 20l-156 105l-154 -103q-36 -22 -67 -22q-47 0 -82.5 33t-35.5 82z" />
    <glyph glyph-name="wcircumflex" unicode="&#x175;" horiz-adv-x="1579" 
d="M489 -1q-40 0 -69 22t-39 54l-300 897q-14 71 15 112t86 41q36 0 65.5 -20.5t41.5 -52.5l202 -609l184 596q12 39 41.5 62.5t70.5 23.5t70 -23.5t42 -61.5l186 -584l198 596q14 35 43 54t65 19q63 0 93.5 -51t6.5 -109l-296 -890q-12 -35 -41 -55.5t-69 -20.5
q-39 0 -68.5 22t-39.5 54l-194 598l-185 -597q-10 -35 -40 -56t-69 -21zM412 1540q0 64 57 99l222 149q25 18 60 18q36 0 61 -18l222 -149q57 -35 57 -99q0 -48 -33 -81.5t-84 -33.5q-34 0 -67 19l-156 105l-154 -103q-34 -21 -67 -21q-47 0 -82.5 33t-35.5 82z" />
    <glyph glyph-name="Ycircumflex" unicode="&#x176;" horiz-adv-x="1364" 
d="M682 -1q-47 0 -81 34t-34 81v465l-499 799q-37 64 -5.5 121t98.5 57q56 0 92 -46l429 -699l418 681q39 64 105 64q68 0 98 -59.5t-7 -119.5l-499 -798v-465q0 -47 -33.5 -81t-81.5 -34zM316 1939q0 65 57 100l223 149q25 17 59 17q35 0 61 -17l222 -149q57 -35 57 -100
q0 -48 -33 -81.5t-84 -33.5q-32 0 -67 20l-156 105l-154 -103q-34 -22 -66 -22q-47 0 -83 33t-36 82z" />
    <glyph glyph-name="ycircumflex" unicode="&#x177;" horiz-adv-x="1227" 
d="M424 -437q-21 0 -48 9q-48 19 -64.5 61.5t4.5 88.5l171 371l-397 871q-22 44 -8 87.5t60 64.5q44 22 87.5 8t64.5 -60l319 -700l321 698q21 44 60 60t85 -2q48 -19 64.5 -61.5t-4.5 -88.5l-619 -1340q-31 -67 -96 -67zM262 1551q0 65 57 99l222 150q26 17 60 17
q35 0 61 -17l222 -150q57 -35 57 -99q0 -48 -33 -81.5t-84 -33.5q-34 0 -67 19l-156 105l-154 -103q-34 -21 -67 -21q-47 0 -82.5 33t-35.5 82z" />
    <glyph glyph-name="Ydieresis" unicode="&#x178;" horiz-adv-x="1364" 
d="M682 -1q-47 0 -81 34t-34 81v465l-499 799q-37 64 -5.5 121t98.5 57q56 0 92 -46l429 -699l418 681q39 64 105 64q68 0 98 -59.5t-7 -119.5l-499 -798v-465q0 -47 -33.5 -81t-81.5 -34zM377 2044q0 63 45.5 108.5t109.5 45.5q65 0 109.5 -45t44.5 -109t-44.5 -109.5
t-109.5 -45.5q-64 0 -109.5 45.5t-45.5 109.5zM745 2044q0 63 45.5 108.5t109.5 45.5q65 0 109.5 -45t44.5 -109t-44.5 -109.5t-109.5 -45.5q-64 0 -109.5 45.5t-45.5 109.5z" />
    <glyph glyph-name="Zacute" unicode="&#x179;" horiz-adv-x="1517" 
d="M245 -1q-37 0 -65 19t-40.5 47.5t-9 61.5t24.5 60l908 1150h-818q-51 0 -83 30t-32 79q0 44 32.5 77t82.5 33h1032q72 0 103.5 -63.5t-9.5 -118.5l-917 -1156h823q49 0 82 -30.5t33 -78.5q0 -43 -34 -76.5t-81 -33.5h-1032zM651 1933q0 44 30 77l227 228q32 34 83 34
q47 0 82 -32.5t35 -83.5q0 -49 -35 -81l-226 -227q-32 -32 -79 -32t-82 34.5t-35 82.5z" />
    <glyph glyph-name="zacute" unicode="&#x17a;" horiz-adv-x="1174" 
d="M240 -1q-49 0 -79 30.5t-30 79.5q0 50 30 80l576 717h-497q-49 0 -79 30.5t-30 79.5t30 79t79 30h719q49 0 79.5 -30t30.5 -79q0 -43 -19 -67l-583 -731h492q49 0 79.5 -30t30.5 -79t-30.5 -79.5t-79.5 -30.5h-719zM497 1538q0 46 29 78l227 228q36 34 83 34
q48 0 82.5 -32.5t34.5 -84.5q0 -49 -35 -81l-225 -226q-33 -33 -79 -33q-48 0 -82.5 35t-34.5 82z" />
    <glyph glyph-name="Zdotaccent" unicode="&#x17b;" horiz-adv-x="1518" 
d="M245 -1q-37 0 -65 19t-40.5 47.5t-9 61.5t24.5 60l908 1150h-818q-51 0 -83 30t-32 79q0 44 32.5 77t82.5 33h1032q47 0 80 -31.5t36 -72.5t-22 -80l-917 -1154h823q49 0 82 -30.5t33 -78.5q0 -43 -34 -76.5t-81 -33.5h-1032zM588 1945q0 67 43.5 105.5t102.5 38.5
q57 0 100.5 -38.5t43.5 -105.5q0 -61 -42 -103.5t-104 -42.5q-59 0 -101.5 42t-42.5 104z" />
    <glyph glyph-name="Zdotaccent" unicode="&#x17c;" horiz-adv-x="1518" 
d="M245 -1q-37 0 -65 19t-40.5 47.5t-9 61.5t24.5 60l908 1150h-818q-51 0 -83 30t-32 79q0 44 32.5 77t82.5 33h1032q47 0 80 -31.5t36 -72.5t-22 -80l-917 -1154h823q49 0 82 -30.5t33 -78.5q0 -43 -34 -76.5t-81 -33.5h-1032zM588 1945q0 67 43.5 105.5t102.5 38.5
q57 0 100.5 -38.5t43.5 -105.5q0 -61 -42 -103.5t-104 -42.5q-59 0 -101.5 42t-42.5 104z" />
    <glyph glyph-name="Zcaron" unicode="&#x17d;" horiz-adv-x="1518" 
d="M245 -1q-37 0 -65 19t-40.5 47.5t-9 61.5t24.5 60l908 1150h-818q-51 0 -83 30t-32 79q0 44 32.5 77t82.5 33h1032q47 0 80 -31.5t36 -72.5t-22 -80l-917 -1154h823q49 0 82 -30.5t33 -78.5q0 -43 -34 -76.5t-81 -33.5h-1032zM429 2099q0 69 58.5 99.5t126.5 -14.5
l154 -107l154 103q70 45 128 16.5t58 -97.5q0 -59 -56 -99l-220 -145q-23 -20 -64 -20t-63 20l-219 145q-57 34 -57 99z" />
    <glyph glyph-name="zcaron" unicode="&#x17e;" horiz-adv-x="1174" 
d="M240 -1q-49 0 -79 30.5t-30 79.5q0 50 30 80l576 717h-497q-49 0 -79 30.5t-30 79.5t30 79t79 30h719q49 0 79.5 -30t30.5 -79q0 -43 -19 -67l-583 -731h492q49 0 79.5 -30t30.5 -79t-30.5 -79.5t-79.5 -30.5h-719zM277 1693q0 68 59 99t127 -15l153 -106l154 103
q70 44 128 15.5t58 -96.5q0 -59 -55 -100l-221 -145q-22 -19 -64 -19q-41 0 -63 19l-219 145q-57 35 -57 100z" />
    <glyph glyph-name="florin" unicode="&#x192;" horiz-adv-x="941" 
d="M97 -431q-47 0 -81 33.5t-34 81.5q0 47 33.5 81.5t81.5 34.5q141 0 200 58.5t59 198.5v781h-34q-48 0 -81.5 34t-33.5 81q0 48 33.5 82.5t81.5 34.5h34v-3q0 239 124.5 364t363.5 125q48 0 81.5 -34t33.5 -81q0 -48 -33 -82.5t-82 -34.5q-139 0 -198 -58t-60 -196h185
q48 0 81.5 -34.5t33.5 -82.5q0 -47 -34 -81t-81 -34h-183v-781q0 -239 -125 -363.5t-366 -124.5z" />
    <glyph glyph-name="Gcaron" unicode="&#x1e6;" horiz-adv-x="1592" 
d="M900 -19q-157 0 -301 63.5t-249 170t-167.5 254.5t-62.5 309t60.5 307.5t164 254t249 171t306.5 63.5q277 0 492 -177q36 -29 38.5 -77t-29.5 -85.5t-86 -37.5q-39 0 -84 36q-122 111 -331 111q-152 0 -278.5 -76t-199 -206.5t-72.5 -283.5q0 -119 43 -224.5t116 -180.5
t175 -118.5t216 -43.5q117 0 195.5 20t146.5 65v391h-332q-48 0 -81.5 32t-33.5 80q0 44 33 75.5t82 31.5h447q51 0 83 -32.5t32 -80.5v-556q0 -51 -31 -81q-96 -95 -229 -135t-312 -40zM519 2099q0 44 28 75.5t69.5 35.5t88.5 -26l153 -107l154 103q70 45 128 16.5
t58 -97.5q0 -58 -55 -99l-221 -145q-23 -20 -64 -20q-40 0 -63 20l-219 145q-57 34 -57 99z" />
    <glyph glyph-name="gcaron" unicode="&#x1e7;" horiz-adv-x="1389" 
d="M703 -385q-307 0 -486 226q-27 37 -27 74q0 53 44 85q39 27 87.5 18.5t75.5 -47.5q116 -134 306 -134q125 0 210 68t114 187q-105 -77 -241 -98q-42 -6 -91 -6q-251 0 -413 161.5t-162 411.5q0 165 75 297t206.5 205t293.5 73q196 0 344 -102v-11q0 48 32.5 81.5
t83.5 33.5q49 0 81.5 -33.5t32.5 -81.5v-822q0 -165 -73 -299t-202.5 -210.5t-290.5 -76.5zM344 1700q0 44 28 75.5t69.5 35.5t88.5 -26l153 -107l154 103q49 30 90 26.5t68.5 -33.5t27.5 -74q0 -59 -55 -99l-221 -146q-22 -19 -64 -19q-41 0 -63 19l-219 146q-57 34 -57 99
zM350 561q0 -158 95 -254t250 -96q156 0 250 96t94 254q0 160 -94 256.5t-250 96.5q-155 0 -250 -96.5t-95 -256.5z" />
    <glyph glyph-name="uni02BB" unicode="&#x2bb;" horiz-adv-x="570" 
d="M288 1035q-68 0 -108 53.5t-40 140.5q0 66 26 148.5t76 147t107 64.5q51 0 83 -42.5t10 -92.5q-24 -63 -26 -110t7 -81q8 -44 8 -78q0 -69 -40 -109.5t-103 -40.5z" />
    <glyph glyph-name="uni02BC" unicode="&#x2bc;" horiz-adv-x="418" 
d="M97 369q-50 0 -81 40.5t-14 92.5q25 66 27.5 112.5t-7.5 79.5q-7 38 -7 79q0 69 41.5 109.5t100.5 40.5q68 0 108 -53.5t40 -140.5q0 -66 -26 -148.5t-76 -147t-106 -64.5z" />
    <glyph glyph-name="circumflex" unicode="&#x2c6;" horiz-adv-x="853" 
d="M201 1155q-47 0 -83 33t-36 82q0 64 57 99l223 149q26 17 60 17q36 0 61 -17l221 -149q57 -34 57 -99q0 -48 -32.5 -81.5t-83.5 -33.5q-35 0 -69 21l-154 103l-155 -103q-32 -21 -66 -21z" />
    <glyph glyph-name="caron" unicode="&#x2c7;" horiz-adv-x="853" 
d="M422 1155q-42 0 -64 19l-219 145q-57 35 -57 100q0 68 59 99t127 -15l154 -106l154 103q70 44 127.5 15.5t57.5 -96.5q0 -60 -55 -100l-221 -145q-21 -19 -63 -19z" />
    <glyph glyph-name="uni02C9" unicode="&#x2c9;" horiz-adv-x="853" 
d="M199 1149q-47 0 -82 34.5t-35 82.5q0 47 35 82t82 35h446q51 0 83.5 -35t32.5 -82t-32.5 -82t-83.5 -35h-446z" />
    <glyph glyph-name="breve" unicode="&#x2d8;" horiz-adv-x="853" 
d="M422 1155q-143 0 -241.5 78t-98.5 186q0 47 35 81.5t82 34.5q49 0 82 -34.5t33 -81.5q0 -45 108 -45q109 0 109 45q0 47 33.5 81.5t81.5 34.5q49 0 82 -34.5t35 -80.5q-5 -118 -103.5 -191.5t-237.5 -73.5z" />
    <glyph glyph-name="dotaccent" unicode="&#x2d9;" horiz-adv-x="494" 
d="M240 1155q-65 0 -109.5 45t-44.5 108q0 65 45.5 108.5t108.5 43.5t107.5 -43t44.5 -107t-43.5 -109.5t-108.5 -45.5z" />
    <glyph glyph-name="ring" unicode="&#x2da;" horiz-adv-x="636" 
d="M313 1098q-92 0 -160.5 68.5t-68.5 160.5q0 95 68.5 162t160.5 67q95 0 162 -67t67 -162q0 -93 -66.5 -161t-162.5 -68zM276 1327q0 -22 7.5 -30t29.5 -8q24 0 32 7.5t8 30.5q0 25 -7.5 32t-32.5 7q-22 0 -29.5 -8t-7.5 -31z" />
    <glyph glyph-name="tilde" unicode="&#x2dc;" horiz-adv-x="993" 
d="M666 1158q-101 0 -206 75q-51 32 -72 32q-47 0 -95 -52q-26 -36 -71.5 -44t-80.5 14q-44 26 -52.5 74t18.5 85q119 149 281 149q17 0 34.5 -2.5t31 -5.5t29.5 -9t25.5 -10t24.5 -12t20.5 -11t19 -11.5t15.5 -9.5q28 -21 43 -28t35 -7q25 0 35.5 3.5t21.5 16.5
q28 30 66 40t74 -5q52 -25 65 -73t-19 -91q-88 -118 -243 -118z" />
    <glyph glyph-name="hungarumlaut" unicode="&#x2dd;" horiz-adv-x="782" 
d="M468 1083q-37 0 -66 27t-29 69v11q0 17 8 31l84 258q10 33 39 55t67 22q51 0 84 -35t33 -80q0 -16 -8 -43l-121 -255q-13 -27 -37 -43.5t-54 -16.5zM84 1179q0 28 8 42l82 260q13 34 43 54.5t65 20.5q51 0 84 -35t33 -80q0 -12 -7 -42l-123 -258q-30 -58 -90 -58
q-37 0 -66 27t-29 69z" />
    <glyph glyph-name="uni0374" unicode="&#x374;" horiz-adv-x="600" 
d="M201 1000q-53 0 -85 34.5t-32 75.5q0 26 10 53l183 436q30 78 110 78q56 0 86.5 -34.5t30.5 -74.5q0 -35 -11 -57l-181 -433q-31 -78 -111 -78z" />
    <glyph glyph-name="uni0375" unicode="&#x375;" horiz-adv-x="600" 
d="M213 -479q-53 0 -85 34t-32 75q0 19 4 31l5 19l184 440q32 78 110 78q56 0 86.5 -35t30.5 -75q0 -26 -10 -53l-182 -436q-31 -78 -111 -78z" />
    <glyph glyph-name="uni037E" unicode="&#x37e;" horiz-adv-x="508" 
d="M215 -286q-41 0 -68 25.5t-27 65.5q0 42 37 89q22 30 22 47q0 20 -5.5 31t-23.5 32q-52 62 -52 125q0 68 47 109t107 41q76 0 125 -58.5t49 -154.5q0 -137 -60.5 -244.5t-150.5 -107.5zM80 851q0 63 44.5 107.5t108.5 44.5q65 0 108.5 -45t43.5 -107q0 -64 -44.5 -109
t-107.5 -45t-108 44.5t-45 109.5z" />
    <glyph glyph-name="anoteleia" unicode="&#x387;" horiz-adv-x="494" 
d="M240 707q-64 0 -109 44.5t-45 109.5q0 63 45 107.5t109 44.5t108 -45t44 -107q0 -64 -45 -109t-107 -45z" />
    <glyph glyph-name="Wgrave" unicode="&#x1e80;" horiz-adv-x="1813" 
d="M538 -1q-38 0 -70 25.5t-45 64.5l-380 1308q-18 61 14 110t95 49q86 0 111 -86l275 -950l259 901q10 34 41 57t68 23q41 0 71 -23t41 -58l258 -900l275 956q11 37 40.5 58.5t71.5 21.5q62 0 93 -48.5t14 -110.5l-379 -1307q-12 -43 -44 -67t-71 -24q-44 0 -74 26t-41 66
l-255 900l-251 -901q-12 -41 -43.5 -66t-73.5 -25zM555 2191q0 52 34.5 84.5t82.5 32.5q47 0 81 -34l226 -226q30 -30 30 -79q0 -48 -33 -82.5t-82 -34.5q-37 0 -78 28l-229 230q-32 34 -32 81z" />
    <glyph glyph-name="wgrave" unicode="&#x1e81;" horiz-adv-x="1579" 
d="M489 -1q-40 0 -69 22t-39 54l-300 897q-14 71 15 112t86 41q36 0 65.5 -20.5t41.5 -52.5l202 -609l184 596q12 39 41.5 62.5t70.5 23.5t70 -23.5t42 -61.5l186 -584l198 596q14 35 43 54t65 19q63 0 93.5 -51t6.5 -109l-296 -890q-12 -35 -41 -55.5t-69 -20.5
q-39 0 -68.5 22t-39.5 54l-194 598l-185 -597q-10 -35 -40 -56t-69 -21zM444 1776q0 51 35 83.5t82 32.5q49 0 81 -34l226 -226q30 -30 30 -79q0 -48 -33 -82.5t-82 -34.5q-38 0 -78 29l-229 230q-32 32 -32 81z" />
    <glyph glyph-name="Wacute" unicode="&#x1e82;" horiz-adv-x="1813" 
d="M538 -1q-38 0 -70 25.5t-45 64.5l-380 1308q-18 61 14 110t95 49q86 0 111 -86l275 -950l259 901q10 34 41 57t68 23q41 0 71 -23t41 -58l258 -900l275 956q11 37 40.5 58.5t71.5 21.5q62 0 93 -48.5t14 -110.5l-379 -1307q-12 -43 -44 -67t-71 -24q-44 0 -74 26t-41 66
l-255 900l-251 -901q-12 -41 -43.5 -66t-73.5 -25zM835 1933q0 45 29 77l227 228q34 34 83 34q47 0 82 -32.5t35 -83.5q0 -50 -35 -81l-225 -227q-34 -32 -79 -32q-48 0 -82.5 34.5t-34.5 82.5z" />
    <glyph glyph-name="wacute" unicode="&#x1e83;" horiz-adv-x="1579" 
d="M489 -1q-40 0 -69 22t-39 54l-300 897q-14 71 15 112t86 41q36 0 65.5 -20.5t41.5 -52.5l202 -609l184 596q12 39 41.5 62.5t70.5 23.5t70 -23.5t42 -61.5l186 -584l198 596q14 35 43 54t65 19q63 0 93.5 -51t6.5 -109l-296 -890q-12 -35 -41 -55.5t-69 -20.5
q-39 0 -68.5 22t-39.5 54l-194 598l-185 -597q-10 -35 -40 -56t-69 -21zM661 1538q0 46 29 78l228 228q34 34 83 34q47 0 81.5 -33t34.5 -84q0 -49 -35 -81l-225 -226q-31 -33 -79 -33t-82.5 35t-34.5 82z" />
    <glyph glyph-name="Wdieresis" unicode="&#x1e84;" horiz-adv-x="1813" 
d="M538 -1q-38 0 -70 25.5t-45 64.5l-380 1308q-18 61 14 110t95 49q86 0 111 -86l275 -950l259 901q10 34 41 57t68 23q41 0 71 -23t41 -58l258 -900l275 956q11 37 40.5 58.5t71.5 21.5q62 0 93 -48.5t14 -110.5l-379 -1307q-12 -43 -44 -67t-71 -24q-44 0 -74 26t-41 66
l-255 900l-251 -901q-12 -41 -43.5 -66t-73.5 -25zM565 1993q0 62 46 107.5t110 45.5q65 0 109 -45t44 -108q0 -65 -44 -110.5t-109 -45.5t-110.5 45.5t-45.5 110.5zM933 1993q0 62 46 107.5t110 45.5q65 0 109 -45t44 -108q0 -65 -44 -110.5t-109 -45.5t-110.5 45.5
t-45.5 110.5z" />
    <glyph glyph-name="wdieresis" unicode="&#x1e85;" horiz-adv-x="1579" 
d="M489 -1q-40 0 -69 22t-39 54l-300 897q-14 71 15 112t86 41q36 0 65.5 -20.5t41.5 -52.5l202 -609l184 596q12 39 41.5 62.5t70.5 23.5t70 -23.5t42 -61.5l186 -584l198 596q14 35 43 54t65 19q63 0 93.5 -51t6.5 -109l-296 -890q-12 -35 -41 -55.5t-69 -20.5
q-39 0 -68.5 22t-39.5 54l-194 598l-185 -597q-10 -35 -40 -56t-69 -21zM430 1592q0 62 46 107.5t110 45.5q65 0 109 -45t44 -108q0 -65 -44 -110.5t-109 -45.5q-64 0 -110 46t-46 110zM798 1592q0 62 46 107.5t110 45.5q65 0 109 -45t44 -108q0 -65 -44 -110.5t-109 -45.5
q-64 0 -110 46t-46 110z" />
    <glyph glyph-name="uni1E9E" unicode="&#x1e9e;" horiz-adv-x="1386" 
d="M793 -12q-156 0 -284 75q-19 13 -30 23t-22.5 33t-11.5 52q0 59 53.5 93t114.5 6l25 -12l29 -13l10 -5q44 -22 116 -22q115 0 184 75.5t69 201.5q0 137 -64 208t-189 71h-75q-47 0 -80 33.5t-33 81.5q0 52 36 84l256 288q-38 33 -93 52.5t-112 19.5q-135 0 -198.5 -68.5
t-63.5 -228.5v-927q0 -44 -32 -77t-85 -33t-83 34t-30 76v964q0 162 67 274q66 106 178 157.5t253 51.5q133 0 254 -62.5t173 -157.5q21 -32 18 -68t-15 -62t-31 -48l-160 -175q158 -46 248.5 -177t90.5 -311q0 -140 -62 -256t-173 -183.5t-248 -67.5z" />
    <glyph glyph-name="Ygrave" unicode="&#x1ef2;" horiz-adv-x="1363" 
d="M681 -1q-47 0 -81 34t-34 81v465l-499 799q-36 64 -5 121t98 57q56 0 92 -46l429 -699l418 681q39 64 105 64q68 0 98 -59.5t-7 -119.5l-499 -798v-465q0 -47 -33.5 -81t-81.5 -34zM332 2191q0 51 34.5 84t81.5 33t81 -34l227 -226q30 -32 30 -79q0 -48 -33.5 -82.5
t-81.5 -34.5q-37 0 -78 28l-229 230q-32 32 -32 81z" />
    <glyph glyph-name="ygrave" unicode="&#x1ef3;" horiz-adv-x="1227" 
d="M424 -437q-21 0 -48 9q-48 19 -64.5 61.5t4.5 88.5l171 371l-397 871q-22 44 -8 87.5t60 64.5q44 22 87.5 8t64.5 -60l319 -700l321 698q21 44 60 60t85 -2q48 -19 64.5 -61.5t-4.5 -88.5l-619 -1340q-31 -67 -96 -67zM295 1776q0 51 35 83.5t82 32.5q49 0 81 -34
l226 -226q30 -32 30 -79q0 -48 -33 -82.5t-82 -34.5q-38 0 -78 29l-229 230q-32 32 -32 81z" />
    <glyph glyph-name="uni2010" unicode="&#x2010;" horiz-adv-x="646" 
d="M78 446q-48 0 -81.5 34t-33.5 81q0 51 33.5 84t81.5 33h447q48 0 82.5 -32.5t34.5 -84.5q0 -48 -34.5 -81.5t-82.5 -33.5h-447z" />
    <glyph glyph-name="endash" unicode="&#x2013;" horiz-adv-x="977" 
d="M117 446q-48 0 -82.5 33.5t-34.5 81.5q0 52 34.5 84.5t82.5 32.5h745q48 0 81.5 -33t33.5 -84q0 -47 -33.5 -81t-81.5 -34h-745z" />
    <glyph glyph-name="emdash" unicode="&#x2014;" horiz-adv-x="2020" 
d="M115 446q-47 0 -81 34t-34 81q0 51 33.5 84t81.5 33h1790q48 0 81.5 -33t33.5 -84q0 -47 -33.5 -81t-81.5 -34h-1790z" />
    <glyph glyph-name="uni2015" unicode="&#x2015;" horiz-adv-x="1573" 
d="M117 446q-48 0 -82.5 33.5t-34.5 81.5q0 52 34.5 84.5t82.5 32.5h1341q48 0 81.5 -33t33.5 -84q0 -47 -33.5 -81t-81.5 -34h-1341z" />
    <glyph glyph-name="quoteleft" unicode="&#x2018;" horiz-adv-x="625" 
d="M306 1035q-68 0 -108.5 53.5t-40.5 140.5q0 66 26.5 148.5t76.5 147t106 64.5q52 0 84 -42.5t10 -92.5q-24 -63 -26.5 -110t7.5 -81q7 -51 7 -78q0 -68 -40 -109t-102 -41z" />
    <glyph glyph-name="quoteright" unicode="&#x2019;" horiz-adv-x="623" 
d="M257 369q-50 0 -81 40.5t-14 92.5q25 66 27.5 112.5t-7.5 79.5q-7 51 -7 79q0 69 41.5 109.5t100.5 40.5q68 0 108.5 -53.5t40.5 -140.5q0 -66 -26.5 -148.5t-76.5 -147t-106 -64.5z" />
    <glyph glyph-name="quotesinglbase" unicode="&#x201a;" horiz-adv-x="623" 
d="M257 -275q-50 0 -81 40.5t-14 92.5q25 66 27.5 112.5t-7.5 79.5q-7 51 -7 79q0 69 41.5 109.5t100.5 40.5q68 0 108.5 -53.5t40.5 -140.5q0 -66 -26.5 -148.5t-76.5 -147t-106 -64.5z" />
    <glyph glyph-name="quotereversed" unicode="&#x201b;" horiz-adv-x="626" 
d="M366 1013q-56 0 -106 64.5t-76.5 147t-26.5 148.5q0 87 40.5 140.5t108.5 53.5q62 0 102 -41t40 -109q0 -28 -7 -79q-9 -32 -6.5 -78.5t26.5 -111.5q21 -50 -11.5 -92.5t-83.5 -42.5z" />
    <glyph glyph-name="quotedblleft" unicode="&#x201c;" horiz-adv-x="950" 
d="M693 1586q50 0 81 -40.5t14 -92.5q-25 -66 -27.5 -112.5t7.5 -79.5q7 -51 7 -79q0 -69 -41.5 -109.5t-100.5 -40.5q-68 0 -108.5 53.5t-40.5 140.5q0 66 26.5 148.5t76.5 147t106 64.5zM157 1226q0 66 26.5 148.5t76.5 147t106 64.5q50 0 81 -40.5t14 -92.5
q-25 -66 -27.5 -112.5t7.5 -79.5q7 -51 7 -79q0 -69 -41.5 -109.5t-100.5 -40.5q-68 0 -108.5 53.5t-40.5 140.5z" />
    <glyph glyph-name="quotedblright" unicode="&#x201d;" horiz-adv-x="950" 
d="M257 1586q56 0 106 -64.5t76.5 -147t26.5 -148.5q0 -87 -40.5 -140.5t-108.5 -53.5q-59 0 -100.5 40.5t-41.5 109.5q0 28 7 79q10 33 7.5 79.5t-27.5 112.5q-17 52 14 92.5t81 40.5zM489 1453q-17 52 14 92.5t81 40.5q56 0 106 -64.5t76.5 -147t26.5 -148.5
q0 -87 -40.5 -140.5t-108.5 -53.5q-59 0 -100.5 40.5t-41.5 109.5q0 28 7 79q10 33 7.5 79.5t-27.5 112.5z" />
    <glyph glyph-name="quotedblbase" unicode="&#x201e;" horiz-adv-x="950" 
d="M257 -275q-50 0 -81 40.5t-14 92.5q25 66 27.5 112.5t-7.5 79.5q-7 51 -7 79q0 69 41.5 109.5t100.5 40.5q68 0 108.5 -53.5t40.5 -140.5q0 -66 -26.5 -148.5t-76.5 -147t-106 -64.5zM489 -142q25 66 27.5 112.5t-7.5 79.5q-7 51 -7 79q0 69 41.5 109.5t100.5 40.5
q68 0 108.5 -53.5t40.5 -140.5q0 -66 -26.5 -148.5t-76.5 -147t-106 -64.5q-50 0 -81 40.5t-14 92.5z" />
    <glyph glyph-name="dagger" unicode="&#x2020;" horiz-adv-x="1139" 
d="M568 -431q-51 0 -84 33t-33 80v1211h-256q-49 0 -82 35t-33 82q0 48 33.5 81.5t81.5 33.5h256v332q0 48 34 81.5t81 33.5q51 0 84 -33.5t33 -81.5v-332h257q47 0 81 -33.5t34 -81.5q0 -47 -33.5 -82t-81.5 -35h-257v-1211q0 -45 -33.5 -79t-81.5 -34z" />
    <glyph glyph-name="daggerdbl" unicode="&#x2021;" horiz-adv-x="1139" 
d="M568 -431q-51 0 -84 33t-33 80v317h-256q-48 0 -81.5 34t-33.5 81q0 48 33 82.5t82 34.5h256v662h-256q-49 0 -82 35t-33 82q0 48 33.5 81.5t81.5 33.5h256v332q0 48 34 81.5t81 33.5q51 0 84 -33.5t33 -81.5v-332h257q47 0 81 -33.5t34 -81.5q0 -47 -33.5 -82t-81.5 -35
h-257v-662h257q48 0 81.5 -34.5t33.5 -82.5q0 -47 -34 -81t-81 -34h-257v-317q0 -45 -33.5 -79t-81.5 -34z" />
    <glyph glyph-name="bullet" unicode="&#x2022;" horiz-adv-x="1156" 
d="M593 522q-113 0 -188.5 76.5t-75.5 187.5q0 113 79 188.5t185 75.5q112 0 189 -79t77 -185q0 -111 -79 -187.5t-187 -76.5z" />
    <glyph glyph-name="ellipsis" unicode="&#x2026;" horiz-adv-x="1505" 
d="M1194 -1q-65 0 -109.5 45t-44.5 109q0 63 45 107.5t109 44.5q61 0 106 -44t45 -108t-44.5 -109t-106.5 -45zM182 153q0 64 45 108t107 44q64 0 109 -44.5t45 -105.5q0 -63 -43 -109.5t-111 -46.5q-63 0 -107.5 45t-44.5 109zM611 153q0 64 45.5 108t108.5 44t107.5 -45
t44.5 -107q0 -63 -44 -108.5t-108 -45.5q-65 0 -109.5 44.5t-44.5 109.5z" />
    <glyph glyph-name="minute" unicode="&#x2032;" horiz-adv-x="493" 
d="M179 1083q-37 0 -66 27t-29 69q0 28 8 42l82 260q13 34 43 54.5t65 20.5q51 0 84 -35t33 -80q0 -12 -7 -42l-122 -256q-13 -27 -37 -43.5t-54 -16.5z" />
    <glyph glyph-name="second" unicode="&#x2033;" horiz-adv-x="782" 
d="M468 1083q-37 0 -66 27t-29 69v11q0 17 8 31l84 258q10 33 39 55t67 22q51 0 84 -35t33 -80q0 -16 -8 -43l-121 -255q-13 -27 -37 -43.5t-54 -16.5zM84 1179q0 28 8 42l82 260q13 34 43 54.5t65 20.5q51 0 84 -35t33 -80q0 -12 -7 -42l-123 -258q-30 -58 -90 -58
q-37 0 -66 27t-29 69z" />
    <glyph glyph-name="guilsinglleft" unicode="&#x2039;" horiz-adv-x="637" 
d="M420 -1q-67 0 -105 67l-220 438q-13 35 -13 59q0 20 11 51l222 442q35 67 105 67q48 0 82.5 -33t34.5 -82q0 -29 -12 -50l-198 -397l197 -394q13 -24 13 -53q0 -48 -34.5 -81.5t-82.5 -33.5z" />
    <glyph glyph-name="guilsinglright" unicode="&#x203a;" horiz-adv-x="637" 
d="M197 -1q-47 0 -81 34t-34 81q0 14 6 38l1 3l3 7l198 399l-198 399l-3 8q0 2 -1 3q-6 21 -6 37q0 48 34 81.5t81 33.5q68 0 105 -67l221 -440q14 -26 14 -55q0 -21 -15 -57l-220 -438q-37 -67 -105 -67z" />
    <glyph glyph-name="uni203E" unicode="&#x203e;" horiz-adv-x="970" 
d="M46 748q-47 0 -81.5 34.5t-34.5 82.5q0 47 34.5 82t81.5 35h895q48 0 81.5 -35t33.5 -82q0 -48 -33.5 -82.5t-81.5 -34.5h-895z" />
    <glyph glyph-name="fraction" unicode="&#x2044;" horiz-adv-x="526" 
d="M-184 -1q-71 0 -98.5 61.5t12.5 117.5l886 1348q34 46 94 46q73 0 100.5 -58t-13.5 -120l-881 -1338q-36 -57 -100 -57z" />
    <glyph glyph-name="Euro" unicode="&#x20ac;" horiz-adv-x="1643" 
d="M1022 -19q-253 0 -458 154t-282 396h-123q-46 0 -77.5 31.5t-31.5 77.5t31.5 78t77.5 32h85q-1 9 -1 28q0 32 1 47h-85q-46 0 -77.5 32t-31.5 78t31.5 77.5t77.5 31.5h128q81 235 281 382.5t454 147.5q278 0 493 -177q36 -29 38.5 -77t-29.5 -85.5t-86 -37.5
q-39 0 -84 36q-122 111 -332 111q-156 0 -283.5 -81t-199.5 -219h680q46 0 78 -31.5t32 -77.5q0 -47 -31.5 -78.5t-78.5 -31.5h-744q-2 -28 -2 -47t1 -28h617q46 0 77.5 -32t31.5 -78t-31.5 -77.5t-77.5 -31.5h-564q68 -148 199 -234t296 -86q197 0 344 120q23 20 55 22.5
t60 -10t47.5 -41t19.5 -65.5q0 -51 -32 -81q-175 -175 -494 -175z" />
    <glyph glyph-name="trademark" unicode="&#x2122;" horiz-adv-x="1463" 
d="M752 894q-29 0 -49.5 19.5t-20.5 46.5v499q0 33 28.5 52t62.5 13.5t49 -35.5l212 -365l211 365q15 28 49.5 34t62.5 -12.5t28 -51.5v-499q0 -27 -21 -46.5t-49 -19.5q-31 0 -51.5 20t-20.5 46v269l-149 -262q-20 -36 -62.5 -34t-62.5 38l-145 253v-264q0 -26 -20.5 -46
t-51.5 -20zM66 1461q0 26 19 44.5t47 18.5h443q30 0 49 -18t19 -45t-19 -45t-49 -18h-150v-438q0 -27 -20.5 -46.5t-49.5 -19.5t-49.5 19.5t-20.5 46.5v438h-153q-28 0 -47 18.5t-19 44.5z" />
    <glyph glyph-name="uni2126" unicode="&#x2126;" horiz-adv-x="1722" 
d="M237 -1q-50 0 -82.5 32.5t-32.5 77.5t32.5 77t82.5 32h291q-191 89 -299.5 261.5t-108.5 390.5q0 326 200 515t541 189t541 -189t200 -515q0 -220 -109.5 -392t-299.5 -260h292q50 0 82.5 -31.5t32.5 -77.5q0 -47 -32.5 -78.5t-82.5 -31.5h-466q-46 0 -80.5 33.5
t-34.5 81.5v175q0 28 23.5 59t62.5 36q178 27 280 159.5t102 326.5q0 233 -131 353.5t-380 120.5t-380 -120.5t-131 -353.5q0 -194 102 -326.5t279 -159.5q43 -5 65 -35t22 -60v-175q0 -48 -34.5 -81.5t-80.5 -33.5h-466z" />
    <glyph glyph-name="arrowleft" unicode="&#x2190;" horiz-adv-x="2148" 
d="M601 148q-50 0 -82 36l-304 301q-29 39 -29 76q0 48 33 79l300 300q32 36 82 36q48 0 81.5 -33.5t33.5 -81.5q0 -51 -36 -84l-99 -99h1211q50 0 83 -33.5t33 -83.5q0 -48 -32.5 -81.5t-83.5 -33.5h-1211l102 -102q33 -36 33 -81q0 -47 -33.5 -81t-81.5 -34z" />
    <glyph glyph-name="arrowup" unicode="&#x2191;" horiz-adv-x="1444" 
d="M721 -299q-48 0 -81.5 34.5t-33.5 82.5v1211l-100 -102q-34 -34 -83 -34q-48 0 -81.5 35t-33.5 82t34 81l303 304q40 28 76 28q46 0 80 -32l301 -300q34 -34 34 -81t-33 -82t-82 -35q-52 0 -83 36l-100 100v-1211q0 -48 -32.5 -82.5t-84.5 -34.5z" />
    <glyph glyph-name="arrowright" unicode="&#x2192;" horiz-adv-x="2148" 
d="M1549 148q-48 0 -81.5 34t-33.5 81q0 40 28 80l104 103h-1209q-48 0 -82.5 33.5t-34.5 81.5q0 52 34.5 84.5t82.5 32.5h1210l-101 100q-32 34 -32 79q0 50 31.5 84.5t83.5 34.5q47 0 81 -34l300 -302q32 -32 32 -79q0 -36 -28 -76l-304 -303q-34 -34 -81 -34z" />
    <glyph glyph-name="arrowdown" unicode="&#x2193;" horiz-adv-x="1444" 
d="M721 -299q-37 0 -76 29l-303 303q-34 34 -34 81q0 48 33.5 82.5t81.5 34.5q49 0 83 -34l100 -101v1210q0 48 33.5 82.5t81.5 34.5q52 0 84.5 -34.5t32.5 -82.5v-1209l98 98q31 36 85 36q49 0 82 -34.5t33 -82.5q0 -47 -34 -81l-301 -300q-34 -32 -80 -32z" />
    <glyph glyph-name="arrowboth" unicode="&#x2194;" horiz-adv-x="2094" 
d="M601 152q-51 0 -82 36l-304 301q-29 37 -29 76q0 47 32 79l301 300q32 36 82 36q48 0 81.5 -34t33.5 -81q0 -53 -36 -84l-99 -99h933l-102 100q-32 32 -32 79q0 50 31.5 84.5t83.5 34.5q47 0 81 -34l300 -302q32 -32 32 -79q0 -38 -28 -76l-303 -301q-29 -36 -82 -36
q-47 0 -81 33.5t-34 81.5q0 41 29 80l104 103h-932l102 -102q33 -36 33 -81q0 -48 -33.5 -81.5t-81.5 -33.5z" />
    <glyph glyph-name="arrowupdn" unicode="&#x2195;" horiz-adv-x="1446" 
d="M723 -295q-36 0 -76 28l-303 304q-34 34 -34 81t33.5 82t81.5 35q49 0 83 -34l100 -102v933l-100 -101q-34 -34 -83 -34q-48 0 -81.5 34.5t-33.5 82.5q0 47 34 81l303 303q39 29 76 29q47 0 79 -32l300 -298q36 -33 36 -83q0 -48 -33 -82.5t-82 -34.5q-51 0 -84 36
l-99 99v-933l99 100q33 36 84 36q49 0 82 -35t33 -82t-34 -81l-302 -300q-32 -32 -79 -32z" />
    <glyph glyph-name="partialdiff" unicode="&#x2202;" horiz-adv-x="1282" 
d="M642 -1q-115 0 -220 45t-180 121t-119.5 179.5t-44.5 216.5q0 152 76 282t206 206t282 76q154 0 294 -88q-23 55 -50 94q-140 209 -395 209q-92 0 -148 -22q-25 -9 -47 -9q-49 0 -82 34.5t-33 82.5q0 146 310 146q192 0 356.5 -96t260.5 -260t96 -355v-300
q0 -113 -45 -217t-120.5 -179.5t-179.5 -120.5t-217 -45zM310 561q0 -143 93.5 -236.5t238.5 -93.5t237.5 92.5t92.5 237.5q0 146 -92.5 239t-237.5 93q-146 0 -239 -93t-93 -239z" />
    <glyph glyph-name="uni2206" unicode="&#x2206;" horiz-adv-x="1429" 
d="M157 -1q-48 0 -82.5 33.5t-34.5 81.5q0 25 14 58l554 1326q11 36 39.5 55t66.5 19q36 0 65 -20t42 -52l556 -1328q12 -27 12 -58q0 -47 -34 -81t-81 -34h-1117zM328 231h773l-387 918z" />
    <glyph glyph-name="summation" unicode="&#x2211;" horiz-adv-x="1425" 
d="M204 -433q-58 0 -93 33t-35 82q0 43 27 75l683 804l-685 805q-25 35 -25 75q0 48 34.5 81.5t82.5 33.5h1043q48 0 81.5 -34t33.5 -81q0 -48 -33.5 -82.5t-81.5 -34.5h-796l586 -687q27 -32 27 -76t-28 -73l-585 -689h796q48 0 81.5 -35t33.5 -82q0 -48 -33.5 -81.5
t-81.5 -33.5h-1032z" />
    <glyph glyph-name="minus" unicode="&#x2212;" horiz-adv-x="1139" 
d="M195 595q-48 0 -81.5 34t-33.5 81q0 51 33.5 84t81.5 33h745q48 0 81.5 -33t33.5 -84q0 -47 -34 -81t-81 -34h-745z" />
    <glyph glyph-name="uni2215" unicode="&#x2215;" horiz-adv-x="1095" 
d="M265 -150q-60 0 -95.5 50t-12.5 111l595 1479q11 32 40.5 52.5t66.5 20.5q66 0 97.5 -51.5t8.5 -111.5l-593 -1481q-13 -33 -42.5 -51t-64.5 -18z" />
    <glyph glyph-name="uni2219" unicode="&#x2219;" horiz-adv-x="702" 
d="M353 384q-107 0 -180 73t-73 180q0 105 73 177t180 72q106 0 177.5 -72t71.5 -177q0 -107 -73 -180t-176 -73z" />
    <glyph glyph-name="radical" unicode="&#x221a;" horiz-adv-x="1568" 
d="M489 -1q-73 0 -101 64l-300 595q-12 22 -12 52q0 51 33.5 84t81.5 33q68 0 105 -67l193 -386l640 1278q31 69 105 69h149q48 0 82.5 -34.5t34.5 -82.5t-34.5 -81.5t-82.5 -33.5h-76l-716 -1428q-40 -62 -102 -62z" />
    <glyph glyph-name="infinity" unicode="&#x221e;" horiz-adv-x="1600" 
d="M498 209q-180 0 -299 119t-119 298q0 180 118.5 298t297.5 118q184 0 304 -123q121 123 304 123q180 0 298 -118t118 -298t-118 -298.5t-298 -118.5q-184 0 -304 125q-119 -125 -302 -125zM306 626q0 -88 51 -139.5t139 -51.5q90 0 140.5 51t50.5 140t-50 139.5
t-139 50.5q-91 0 -141.5 -50.5t-50.5 -139.5zM913 626q0 -88 51.5 -139.5t139.5 -51.5q89 0 139.5 51t50.5 140q0 91 -49.5 140.5t-140.5 49.5q-89 0 -140 -50.5t-51 -139.5z" />
    <glyph glyph-name="integral" unicode="&#x222b;" horiz-adv-x="1140" 
d="M346 -205q-111 0 -187.5 68t-76.5 170q0 50 33 86t82 36q48 0 80 -29t35 -70q2 -18 8 -23.5t21 -5.5q22 0 29.5 5t8.5 23l147 1496q10 98 87 165.5t173 69.5q116 5 191 -67t75 -172q0 -53 -29.5 -87.5t-76.5 -34.5q-48 0 -81.5 30t-41.5 75q-3 16 -9 20t-30 4
q-18 0 -22 -4t-6 -24l-147 -1495q-9 -110 -85.5 -173t-177.5 -63z" />
    <glyph glyph-name="notequal" unicode="&#x2260;" horiz-adv-x="1067" 
d="M344 -1q-48 0 -81.5 34t-33.5 81q0 23 9 44l65 213h-110q-48 2 -80.5 35.5t-32.5 81.5q0 47 33.5 81t81.5 34h180l67 217h-247q-48 0 -81.5 33.5t-33.5 81.5q0 47 33.5 81t81.5 34h322l89 292q11 39 40.5 60t70.5 21q48 0 81.5 -33.5t33.5 -81.5v-11q0 -12 -7 -33
l-67 -214h108q48 0 81.5 -34t33.5 -81q0 -48 -33.5 -81.5t-81.5 -33.5h-180l-67 -217h247q48 0 81.5 -34t33.5 -81q0 -48 -33.5 -81.5t-81.5 -33.5l-322 -2l-90 -290q-12 -38 -42.5 -60t-67.5 -22z" />
    <glyph glyph-name="uni27E8" unicode="&#x27e8;" horiz-adv-x="604" 
d="M431 -10q-68 0 -105 67l-332 660q-14 24 -14 59q0 31 11 53l341 682q35 67 105 67q47 0 82 -33.5t35 -81.5q0 -29 -12 -51l-318 -636l310 -618q14 -19 14 -53q0 -48 -34.5 -81.5t-82.5 -33.5z" />
    <glyph glyph-name="uni27E9" unicode="&#x27e9;" horiz-adv-x="604" 
d="M172 -10q-47 0 -81.5 33.5t-34.5 81.5q0 33 13 53l310 618l-317 636q-12 22 -12 51q0 48 34.5 81.5t82.5 33.5q73 0 106 -69l340 -680q11 -25 11 -53q0 -34 -15 -59l-332 -660q-35 -67 -105 -67z" />
    <glyph glyph-name="uniF8FF" unicode="&#xf8ff;" horiz-adv-x="1943" 
d="M955 243q-190 0 -352 95t-256 257.5t-94 352.5q0 144 56 274t150.5 224t225 149.5t273.5 55.5q189 0 351 -94.5t257 -256.5t95 -352q0 -143 -55.5 -273.5t-150 -225t-225.5 -150.5t-275 -56zM252 -40h74q62 0 90 43q12 19 12 49q0 60 -46 81q-21 11 -56 11h-74v-184z
M296 -6v118h28q39 0 54 -26q6 -10 6 -34q0 -40 -27 -53q-13 -5 -33 -5h-28zM338 949q0 -169 82.5 -312.5t225.5 -227t312 -83.5q168 0 310.5 83t226 226t83.5 311t-83 311t-225.5 226.5t-309.5 84.5q-127 0 -242 -49t-198.5 -131.5t-132.5 -197.5t-49 -241zM444 30
q0 -46 37 -63q22 -9 42 -9q39 0 57 20q10 9 12 21l-39 4q-6 -11 -17 -15q-4 -1 -13 -1q-22 0 -32 16q-3 6 -3 17h107v10q0 33 -23 53q-20 17 -53 17q-46 0 -65 -34q-10 -14 -10 -36zM488 44q2 16 15 23q5 4 17 4q22 0 29 -15q3 -5 4 -12h-65zM557 1073q8 -2 15 -5
q68 -27 124 -34q50 -5 90 2q47 12 59 16q4 0 11 3t10 4q-6 3 -20.5 10t-21.5 11t-17 11.5t-17 15.5h24q48 0 94 24q80 50 172 77q31 9 73 14q5 0 24.5 1t29.5 0q66 -2 112 -42q11 -12 36 -41v-3q-4 1 -8 3q-57 22 -104.5 5t-78.5 -68q-8 -14 -31 -70q-4 -9 -59 -141
q-41 -78 -82 -127q-35 -42 -84 -73q-54 -42 -146 -69h-5h-1q2 2 30 27q14 13 32 56q46 129 56 160q29 90 72 165v4q-3 -6 -14 -17q-2 -2 -6 -7.5t-6 -7.5q-27 -39 -39 -72q-3 -7 -10 -7q-125 3 -223 84q-50 48 -75 70q-2 2 -7 9.5t-9 11.5zM606 1q6 -43 71 -43q44 0 60 23
q9 11 9 22q0 31 -45 38l-28 4q-20 5 -20 15q0 5 7 9.5t17 4.5q22 0 26 -18l39 4q-6 40 -67 40q-41 0 -58 -20q-7 -8 -7 -23q0 -31 45 -39l27 -5q20 -3 20 -14q0 -13 -25 -13q-24 0 -29 17zM762 136q0 -19 24 -19q23 0 23 19q0 18 -23 18q-24 0 -24 -18zM765 -40h43v138h-43
v-138zM827 30q0 -45 31 -61q14 -6 32 -6q23 0 36 11l9 10h1v-24q0 -26 -31 -26q-21 0 -27 7q-2 2 -4 5l-3 3l-39 -4q9 -39 71 -39q47 0 66 24q11 11 11 29v139h-44v-23h-1q-7 14 -23 21q-8 4 -22 4q-37 0 -55 -31q-8 -13 -8 -39zM871 30q0 26 15 35q12 5 19 5q20 0 27 -19
q4 -8 4 -21q0 -38 -31 -38q-23 0 -31 18q-3 8 -3 20zM1005 -40h43v81q0 16 14 24q10 4 17 4q26 0 26 -28v-81h44v89q0 32 -25 45q-12 6 -29 6q-34 0 -47 -26v24h-43v-138zM1168 30q0 -44 35 -63q23 -9 42 -9q48 0 68 34q9 17 9 38q0 42 -36 61q-14 9 -41 9q-49 0 -68 -34
q-9 -18 -9 -36zM1212 30q0 26 15 35q7 6 18 6q21 0 30 -20q0 -1 2 -9t2 -12q0 -27 -15 -37q-6 -5 -19 -5q-20 0 -29 19q-4 11 -4 23zM1324 98l54 -138h50l54 138h-46l-32 -99h-2l-32 99h-46zM1483 -1q0 -26 26 -36q10 -5 27 -5q21 0 34 11q7 4 11 12v-21h42v94q0 25 -19 35
q-22 11 -47 11q-38 0 -56 -19q-6 -5 -13 -21l40 -4q7 17 28 17q24 0 24 -18v-1q0 -9 -16 -9q-18 -3 -22 -4q-23 0 -40 -10q-19 -10 -19 -32zM1525 -1q0 12 11 16q6 3 15 3q3 1 9.5 2t12 2.5t7.5 2.5v-14q0 -16 -15 -23q-10 -4 -18 -4q-9 0 -15.5 4.5t-6.5 10.5zM1596 147
q0 19 14 32.5t34 13.5t33.5 -13t13.5 -33t-13.5 -34t-33.5 -14t-34 14t-14 34zM1612 147q0 -14 9 -24t23 -10t23.5 10t9.5 24t-9.5 23.5t-23.5 9.5t-23 -9.5t-9 -23.5zM1628 125v45h18q6 0 10.5 -4.5t4.5 -9.5q0 -6 -7 -13l10 -18h-12l-8 14h-6v-14h-10zM1638 151h8q6 0 6 3
q0 4 -6 4h-8v-7z" />
    <glyph glyph-name="_Designova" horiz-adv-x="2369" 
d="M1182 -169q-146 0 -283.5 46t-248.5 129.5t-195 195t-129.5 249t-45.5 284.5q1 184 73 350.5t193 287.5t288 192.5t350 71.5t350.5 -71.5t289 -192t193.5 -288t72 -350.5q0 -184 -72 -351.5t-194 -288.5t-289.5 -192.5t-351.5 -71.5zM389 735q0 -163 62.5 -310.5
t169 -254t254 -169.5t309.5 -63t309 63t254 169.5t170 254t63 309.5t-63 309.5t-169 254t-253 169.5t-309 63t-309.5 -62.5t-254.5 -169t-170 -254t-63 -309.5zM672 893q8 0 18 -5q78 -31 161 -44q64 -7 114 4q40 7 74 20q6 0 15.5 4.5t12.5 5.5q-8 5 -25 13t-27 13.5
t-23 14.5t-22 20h30q53 0 120 28q118 74 221 103q54 14 93 14q8 0 37 2t34 0q91 -3 143 -54q9 -7 46 -52v-3q-4 3 -10 3q-74 28 -133.5 6.5t-100.5 -83.5q-7 -12 -14 -28t-15 -35.5t-13 -30.5q-8 -19 -34.5 -82t-42.5 -96q-48 -100 -103 -166q-27 -37 -104 -93
q-70 -52 -190 -88h-10l39 34q26 24 42 71q7 22 33.5 95.5t39.5 113.5q43 125 91 210v1q-7 -7 -15 -18q-13 -10 -16 -22q-30 -36 -53 -91q-4 -7 -13 -7q-165 6 -285 109q-16 16 -48.5 46t-44.5 42q-12 15 -22 25z" />
    <glyph glyph-name="_Origin" horiz-adv-x="3073" 
d="M168 1301v70h2737v-70h-2737zM168 154v70h2737v-70h-2737zM277 435v248h59v-248h-59zM322 851v248h207v-45h-150v-54h136v-44h-136v-59h150v-46h-207zM375 435v248h48l124 -150v150h56v-248h-46l-123 153v-153h-59zM571 851v248h48l123 -150v150h56v-248h-46l-123 153
v-153h-58zM734 435v248h121q101 0 101 -63q0 -39 -36 -56q4 0 4 -3q39 -15 39 -58q0 -68 -99 -68h-130zM792 479h68q44 0 44 31q0 30 -44 30h-68v-61zM792 587h59q46 0 46 28q0 30 -46 30h-59v-58zM839 1054v45h218v-45h-80v-203h-57v203h-81zM991 435v248h207v-46h-149v-53
h134v-44h-134v-57h147v-48h-205zM1082 1099h62l56 -174l59 174h53l56 -176l59 176h54l-80 -248h-63l-54 170l-58 -170h-60zM1238 435v248h113q40 0 59 -8q50 -28 50 -80q0 -29 -14 -49q-20 -26 -40 -32l51 -79h-60l-49 70h-52v-70h-58zM1296 552h52q53 0 53 43q0 42 -53 42
h-52v-85zM1488 435v248h56v-200h149v-48h-205zM1492 976q0 53 40 91q34 36 96 36q61 0 97 -36q39 -36 39 -91q0 -54 -39 -91q-36 -38 -95 -38q-63 0 -98 38q-40 40 -40 91zM1551 976q0 -35 21.5 -57t55.5 -22t55.5 22t21.5 57t-21.5 58t-55.5 23t-55.5 -23t-21.5 -58z
M1733 435v248h58v-248h-58zM1796 851v248h114q40 0 57 -8q50 -25 50 -80q0 -29 -14 -49q-12 -20 -40 -32l54 -79h-63l-46 70h-54v-70h-58zM1831 435v248h49l122 -150v150h59v-248h-48l-124 153v-153h-58zM1854 967h51q54 0 54 44q0 43 -54 43h-51v-87zM2045 851v248h208v-45
h-150v-54h134v-44h-134v-105h-58zM2097 469q0 15 10 24.5t25 9.5t24.5 -10t9.5 -24q0 -15 -10 -35l-20 -53h-36l17 57q-20 6 -20 31zM2275 851v248h206v-45h-149v-54h133v-44h-133v-59h149v-46h-206zM2307 435v248h112q43 0 73 -15q64 -28 64 -108q0 -39 -16 -66
q-33 -59 -121 -59h-112zM2366 483h52q23 0 43 10q37 19 37 67q0 28 -9 41q-19 36 -71 36h-52v-154zM2523 851v248h46l126 -150v150h56v-248h-48l-124 153v-153h-56zM2590 435v248h206v-46h-150v-53h136v-44h-136v-57h148v-48h-204z" />
    <glyph glyph-name="_VendorID" horiz-adv-x="1562" 
d="M102 -6v1662h1364v-1662h-1364zM106 -133q0 19 11 29t26 10q12 0 17 -4l5 -7v36h18v-100h-18v12l-5 -10q-18 -7 -21 -7q-15 0 -24 11.5t-9 29.5zM126 -133q0 -24 18 -24q21 0 21 24v1q0 26 -18 26q-9 0 -15 -7.5t-6 -19.5zM176 66h1217v1517h-1217v-1517zM197 -133
q0 18 10.5 28.5t27.5 10.5q16 0 26.5 -10.5t10.5 -27.5q0 -2 -3 -7h-52q1 -18 18 -18q13 0 17 13h17q-6 -30 -34 -30q-17 0 -27.5 10.5t-10.5 30.5zM217 -127h35q-5 21 -17 21q-17 0 -18 -21zM277 -148h20q4 -13 12 -13q13 0 13 10q0 2 -0.5 3.5t-2.5 2.5t-3.5 1.5t-4.5 2
t-6 2.5q-25 8 -25 23q0 10 8.5 16t20.5 6q30 0 30 -22h-20q-1 10 -10 10t-9 -9q0 -6 16 -12q24 -7 24 -21q0 -26 -31 -26q-27 0 -32 26zM336 416q0 45 14 84.5t50 90.5l136 192h90l-118 -168q20 4 32 4q88 0 144.5 -58t56.5 -145q0 -86 -58.5 -145.5t-142.5 -59.5
q-85 0 -144.5 60t-59.5 145zM336 1075q0 45 15 83.5t49 88.5l136 199h90l-118 -171q10 3 32 3q88 0 144.5 -57.5t56.5 -145.5q0 -85 -58 -143t-143 -58t-144.5 58.5t-59.5 142.5zM351 -78q0 9 12 9q11 0 11 -9q0 -12 -11 -12q-12 0 -12 12zM353 -169v75h19v-75h-19z
M386 -133q0 19 10.5 29t26.5 10q12 0 17 -4l5 -7v11h20v-57q0 -11 -3 -16q0 -33 -38 -33q-16 0 -26 7t-10 18v1h19v-1q0 -11 17 -11q16 0 21 18v11l-5 -10q-12 -2 -20 -2q-34 0 -34 36zM407 -132q0 -25 17 -25q9 0 15 6.5t6 17.5v1q0 26 -21 26q-17 0 -17 -26zM412 416
q0 -60 35.5 -96t92.5 -36q55 0 90.5 36.5t35.5 95.5q0 55 -35.5 90.5t-90.5 35.5q-56 0 -92 -35.5t-36 -90.5zM412 1075q0 -58 36 -94t92 -36q55 0 90.5 37t35.5 93q0 57 -35.5 93t-90.5 36q-57 0 -92.5 -35t-35.5 -94zM480 -169v75h20v-14l5 10q7 4 19 4q23 0 28 -21
q1 -4 1 -12v-42h-21v47q0 16 -14 16q-18 0 -18 -30v-33h-20zM563 -133q0 18 10.5 28.5t27.5 10.5q39 0 39 -39q0 -18 -10.5 -29.5t-28.5 -11.5q-17 0 -27.5 11.5t-10.5 29.5zM582 -133q0 -24 19 -24q21 0 21 24q0 27 -21 27q-19 0 -19 -27zM647 -94h19l20 -63l18 63h20
l-27 -75h-25zM731 -148q0 22 42 22h4v10q0 10 -13 10q-15 0 -15 -13h-18q0 25 33 25q27 0 30 -21v-54h-17v8l-4 -7q-12 -6 -20 -6q-9 0 -15.5 7t-6.5 19zM749 -148q0 -9 11 -9q17 0 17 13v8q-28 3 -28 -12zM806 -109v12h9v12q0 21 26 21h9v-16q-16 3 -16 -7v-10h16v-12h-16
v-60h-19v60h-9zM825 416q0 47 13 85.5t48 89.5l136 192h92l-120 -168q20 4 35 4q85 0 142.5 -58.5t57.5 -144.5t-58 -145.5t-142 -59.5q-85 0 -144.5 59.5t-59.5 145.5zM825 1075q0 46 13.5 83.5t47.5 88.5l136 199h92l-121 -171q11 3 36 3q85 0 142.5 -58t57.5 -145
q0 -85 -58 -143t-142 -58q-85 0 -144.5 58.5t-59.5 142.5zM855 -133q0 39 40 39q17 0 27 -10.5t10 -28.5t-10 -29.5t-27 -11.5q-40 0 -40 41zM875 -133q0 -24 20 -24q7 0 12.5 6.5t5.5 17.5q0 12 -5.5 19.5t-12.5 7.5q-20 0 -20 -27zM899 416q0 -60 36.5 -96t93.5 -36
q54 0 88 36.5t34 95.5q0 55 -34.5 90.5t-87.5 35.5q-58 0 -94 -35t-36 -91zM899 1075q0 -57 36.5 -93.5t93.5 -36.5q53 0 87.5 37t34.5 93q0 57 -34.5 93t-87.5 36q-58 0 -94 -36t-36 -93zM945 -169v75h17v-14l8 10q6 4 18 4q22 0 27 -21v-54h-20v47q-4 16 -12 16
q-21 0 -21 -30v-33h-17zM1025 -109v12h11v19h20v-19h14v-12h-14v-39q2 -14 12 -9v-14h-11q-21 0 -21 14v48h-11zM1075 -148h21q3 -13 14 -13t11 10q0 2 -0.5 3.5t-2 2.5t-3 1.5t-5 2t-5.5 2.5q-24 8 -24 23q0 22 28 22q27 0 33 -22h-22q0 10 -13 10q-7 0 -7 -9q0 -6 16 -12
q26 -9 26 -21q0 -26 -32 -26q-29 0 -35 26zM1148 -162q0 5 4 9.5t9 4.5q12 0 12 -14q0 -12 -12 -12q-5 0 -9 4t-4 8zM1182 -133q0 18 11 28.5t25 10.5q16 0 25.5 -7.5t9.5 -20.5h-18q-4 16 -17 16q-17 0 -17 -27q0 -11 5.5 -17.5t11.5 -6.5q13 0 17 13h18q-1 -30 -35 -30
q-36 0 -36 41zM1260 -133q0 39 41 39q36 0 36 -39q0 -18 -9.5 -29.5t-26.5 -11.5q-20 0 -30.5 11t-10.5 30zM1280 -133q0 -24 21 -24q18 0 18 24q0 27 -18 27q-21 0 -21 -27zM1351 -169v75h20v-12l7 8q4 4 12 4q19 0 25 -14l7 10q5 4 16 4q10 0 17 -5t7 -12q1 -5 1 -16v-42
h-18v37q0 3 -1 7t-1 6q0 13 -14 13q-12 0 -12 -26v-37h-18v50q-8 13 -14 13q-14 0 -14 -26v-37h-20z" />
    <glyph glyph-name="brevecombcy" horiz-adv-x="971" 
d="M486 1134q-154 0 -260 79.5t-106 205.5q0 51 33.5 83.5t81.5 32.5q50 0 82.5 -35t32.5 -91t136 -56q135 0 135 56t32.5 91t82.5 35q48 0 81.5 -32.5t33.5 -83.5q0 -124 -105.5 -204.5t-259.5 -80.5z" />
    </font>
</defs>
</svg>
